G04 #@! TF.FileFunction,Copper,L1,Top,Signal*
%FSLAX46Y46*%
G04 Gerber Fmt 4.6, Leading zero omitted, Abs format (unit mm)*
G04 Created by KiCad (PCBNEW 4.0.6) date Tue Apr 18 22:00:09 2017*
%MOMM*%
%LPD*%
G01*
G04 APERTURE LIST*
%ADD10C,0.100000*%
%ADD11R,1.700000X1.700000*%
%ADD12O,1.700000X1.700000*%
%ADD13C,1.524000*%
%ADD14C,0.600000*%
%ADD15C,0.250000*%
%ADD16C,0.254000*%
G04 APERTURE END LIST*
D10*
D11*
X110490000Y-96520000D03*
D12*
X113030000Y-96520000D03*
X110490000Y-99060000D03*
X113030000Y-99060000D03*
X110490000Y-101600000D03*
X113030000Y-101600000D03*
D13*
X52345001Y-108225001D03*
X54885001Y-108225001D03*
X57425001Y-108225001D03*
X59965001Y-108225001D03*
X62505001Y-108225001D03*
X65045001Y-108225001D03*
X67585001Y-108225001D03*
X70125001Y-108225001D03*
X72665001Y-108225001D03*
X75205001Y-108225001D03*
X77745001Y-108225001D03*
X80285001Y-108225001D03*
X82825001Y-108225001D03*
X85365001Y-108225001D03*
X87905001Y-108225001D03*
X90445001Y-108225001D03*
X92985001Y-108225001D03*
X95525001Y-108225001D03*
X98065001Y-108225001D03*
X100605001Y-108225001D03*
X100605001Y-92985001D03*
X98065001Y-92985001D03*
X95525001Y-92985001D03*
X92985001Y-92985001D03*
X90445001Y-92985001D03*
X87905001Y-92985001D03*
X85365001Y-92985001D03*
X82825001Y-92985001D03*
X80285001Y-92985001D03*
X77745001Y-92985001D03*
X75205001Y-92985001D03*
X72665001Y-92985001D03*
X70125001Y-92985001D03*
X67585001Y-92985001D03*
X65045001Y-92985001D03*
X62505001Y-92985001D03*
X59965001Y-92985001D03*
X57425001Y-92985001D03*
X54885001Y-92985001D03*
X52345001Y-92985001D03*
D11*
X110490000Y-128860000D03*
D12*
X113030000Y-128860000D03*
X110490000Y-131400000D03*
X113030000Y-131400000D03*
X110490000Y-133940000D03*
X113030000Y-133940000D03*
D13*
X52345001Y-140565001D03*
X54885001Y-140565001D03*
X57425001Y-140565001D03*
X59965001Y-140565001D03*
X62505001Y-140565001D03*
X65045001Y-140565001D03*
X67585001Y-140565001D03*
X70125001Y-140565001D03*
X72665001Y-140565001D03*
X75205001Y-140565001D03*
X77745001Y-140565001D03*
X80285001Y-140565001D03*
X82825001Y-140565001D03*
X85365001Y-140565001D03*
X87905001Y-140565001D03*
X90445001Y-140565001D03*
X92985001Y-140565001D03*
X95525001Y-140565001D03*
X98065001Y-140565001D03*
X100605001Y-140565001D03*
X100605001Y-125325001D03*
X98065001Y-125325001D03*
X95525001Y-125325001D03*
X92985001Y-125325001D03*
X90445001Y-125325001D03*
X87905001Y-125325001D03*
X85365001Y-125325001D03*
X82825001Y-125325001D03*
X80285001Y-125325001D03*
X77745001Y-125325001D03*
X75205001Y-125325001D03*
X72665001Y-125325001D03*
X70125001Y-125325001D03*
X67585001Y-125325001D03*
X65045001Y-125325001D03*
X62505001Y-125325001D03*
X59965001Y-125325001D03*
X57425001Y-125325001D03*
X54885001Y-125325001D03*
X52345001Y-125325001D03*
D11*
X110490000Y-64180000D03*
D12*
X113030000Y-64180000D03*
X110490000Y-66720000D03*
X113030000Y-66720000D03*
X110490000Y-69260000D03*
X113030000Y-69260000D03*
D13*
X52345001Y-75885001D03*
X54885001Y-75885001D03*
X57425001Y-75885001D03*
X59965001Y-75885001D03*
X62505001Y-75885001D03*
X65045001Y-75885001D03*
X67585001Y-75885001D03*
X70125001Y-75885001D03*
X72665001Y-75885001D03*
X75205001Y-75885001D03*
X77745001Y-75885001D03*
X80285001Y-75885001D03*
X82825001Y-75885001D03*
X85365001Y-75885001D03*
X87905001Y-75885001D03*
X90445001Y-75885001D03*
X92985001Y-75885001D03*
X95525001Y-75885001D03*
X98065001Y-75885001D03*
X100605001Y-75885001D03*
X100605001Y-60645001D03*
X98065001Y-60645001D03*
X95525001Y-60645001D03*
X92985001Y-60645001D03*
X90445001Y-60645001D03*
X87905001Y-60645001D03*
X85365001Y-60645001D03*
X82825001Y-60645001D03*
X80285001Y-60645001D03*
X77745001Y-60645001D03*
X75205001Y-60645001D03*
X72665001Y-60645001D03*
X70125001Y-60645001D03*
X67585001Y-60645001D03*
X65045001Y-60645001D03*
X62505001Y-60645001D03*
X59965001Y-60645001D03*
X57425001Y-60645001D03*
X54885001Y-60645001D03*
X52345001Y-60645001D03*
D11*
X110490000Y-31840000D03*
D12*
X113030000Y-31840000D03*
X110490000Y-34380000D03*
X113030000Y-34380000D03*
X110490000Y-36920000D03*
X113030000Y-36920000D03*
D13*
X52345001Y-43545001D03*
X54885001Y-43545001D03*
X57425001Y-43545001D03*
X59965001Y-43545001D03*
X62505001Y-43545001D03*
X65045001Y-43545001D03*
X67585001Y-43545001D03*
X70125001Y-43545001D03*
X72665001Y-43545001D03*
X75205001Y-43545001D03*
X77745001Y-43545001D03*
X80285001Y-43545001D03*
X82825001Y-43545001D03*
X85365001Y-43545001D03*
X87905001Y-43545001D03*
X90445001Y-43545001D03*
X92985001Y-43545001D03*
X95525001Y-43545001D03*
X98065001Y-43545001D03*
X100605001Y-43545001D03*
X100605001Y-28305001D03*
X98065001Y-28305001D03*
X95525001Y-28305001D03*
X92985001Y-28305001D03*
X90445001Y-28305001D03*
X87905001Y-28305001D03*
X85365001Y-28305001D03*
X82825001Y-28305001D03*
X80285001Y-28305001D03*
X77745001Y-28305001D03*
X75205001Y-28305001D03*
X72665001Y-28305001D03*
X70125001Y-28305001D03*
X67585001Y-28305001D03*
X65045001Y-28305001D03*
X62505001Y-28305001D03*
X59965001Y-28305001D03*
X57425001Y-28305001D03*
X54885001Y-28305001D03*
X52345001Y-28305001D03*
D14*
X116840000Y-92710000D03*
X116840000Y-125050000D03*
X116840000Y-60370000D03*
X116840000Y-28030000D03*
D15*
X115570000Y-99060000D02*
X113030000Y-99060000D01*
X116840000Y-97790000D02*
X115570000Y-99060000D01*
X116840000Y-92710000D02*
X116840000Y-97790000D01*
X115570000Y-131400000D02*
X113030000Y-131400000D01*
X116840000Y-130130000D02*
X115570000Y-131400000D01*
X116840000Y-125050000D02*
X116840000Y-130130000D01*
X115570000Y-66720000D02*
X113030000Y-66720000D01*
X116840000Y-65450000D02*
X115570000Y-66720000D01*
X116840000Y-60370000D02*
X116840000Y-65450000D01*
X115570000Y-34380000D02*
X113030000Y-34380000D01*
X116840000Y-33110000D02*
X115570000Y-34380000D01*
X116840000Y-28030000D02*
X116840000Y-33110000D01*
D16*
G36*
X119253000Y-112903000D02*
X48387000Y-112903000D01*
X48387000Y-108501662D01*
X50947759Y-108501662D01*
X51159991Y-109015304D01*
X51552631Y-109408630D01*
X52065901Y-109621758D01*
X52621662Y-109622243D01*
X53135304Y-109410011D01*
X53528630Y-109017371D01*
X53614950Y-108809489D01*
X53699991Y-109015304D01*
X54092631Y-109408630D01*
X54605901Y-109621758D01*
X55161662Y-109622243D01*
X55675304Y-109410011D01*
X56068630Y-109017371D01*
X56154950Y-108809489D01*
X56239991Y-109015304D01*
X56632631Y-109408630D01*
X57145901Y-109621758D01*
X57701662Y-109622243D01*
X58215304Y-109410011D01*
X58608630Y-109017371D01*
X58694950Y-108809489D01*
X58779991Y-109015304D01*
X59172631Y-109408630D01*
X59685901Y-109621758D01*
X60241662Y-109622243D01*
X60755304Y-109410011D01*
X61148630Y-109017371D01*
X61234950Y-108809489D01*
X61319991Y-109015304D01*
X61712631Y-109408630D01*
X62225901Y-109621758D01*
X62781662Y-109622243D01*
X63295304Y-109410011D01*
X63688630Y-109017371D01*
X63774950Y-108809489D01*
X63859991Y-109015304D01*
X64252631Y-109408630D01*
X64765901Y-109621758D01*
X65321662Y-109622243D01*
X65835304Y-109410011D01*
X66228630Y-109017371D01*
X66314950Y-108809489D01*
X66399991Y-109015304D01*
X66792631Y-109408630D01*
X67305901Y-109621758D01*
X67861662Y-109622243D01*
X68375304Y-109410011D01*
X68768630Y-109017371D01*
X68854950Y-108809489D01*
X68939991Y-109015304D01*
X69332631Y-109408630D01*
X69845901Y-109621758D01*
X70401662Y-109622243D01*
X70915304Y-109410011D01*
X71308630Y-109017371D01*
X71394950Y-108809489D01*
X71479991Y-109015304D01*
X71872631Y-109408630D01*
X72385901Y-109621758D01*
X72941662Y-109622243D01*
X73455304Y-109410011D01*
X73848630Y-109017371D01*
X73934950Y-108809489D01*
X74019991Y-109015304D01*
X74412631Y-109408630D01*
X74925901Y-109621758D01*
X75481662Y-109622243D01*
X75995304Y-109410011D01*
X76388630Y-109017371D01*
X76474950Y-108809489D01*
X76559991Y-109015304D01*
X76952631Y-109408630D01*
X77465901Y-109621758D01*
X78021662Y-109622243D01*
X78535304Y-109410011D01*
X78928630Y-109017371D01*
X79014950Y-108809489D01*
X79099991Y-109015304D01*
X79492631Y-109408630D01*
X80005901Y-109621758D01*
X80561662Y-109622243D01*
X81075304Y-109410011D01*
X81468630Y-109017371D01*
X81554950Y-108809489D01*
X81639991Y-109015304D01*
X82032631Y-109408630D01*
X82545901Y-109621758D01*
X83101662Y-109622243D01*
X83615304Y-109410011D01*
X84008630Y-109017371D01*
X84094950Y-108809489D01*
X84179991Y-109015304D01*
X84572631Y-109408630D01*
X85085901Y-109621758D01*
X85641662Y-109622243D01*
X86155304Y-109410011D01*
X86548630Y-109017371D01*
X86634950Y-108809489D01*
X86719991Y-109015304D01*
X87112631Y-109408630D01*
X87625901Y-109621758D01*
X88181662Y-109622243D01*
X88695304Y-109410011D01*
X89088630Y-109017371D01*
X89174950Y-108809489D01*
X89259991Y-109015304D01*
X89652631Y-109408630D01*
X90165901Y-109621758D01*
X90721662Y-109622243D01*
X91235304Y-109410011D01*
X91628630Y-109017371D01*
X91714950Y-108809489D01*
X91799991Y-109015304D01*
X92192631Y-109408630D01*
X92705901Y-109621758D01*
X93261662Y-109622243D01*
X93775304Y-109410011D01*
X94168630Y-109017371D01*
X94254950Y-108809489D01*
X94339991Y-109015304D01*
X94732631Y-109408630D01*
X95245901Y-109621758D01*
X95801662Y-109622243D01*
X96315304Y-109410011D01*
X96520458Y-109205214D01*
X97264393Y-109205214D01*
X97333858Y-109447398D01*
X97857303Y-109634145D01*
X98412369Y-109606363D01*
X98796144Y-109447398D01*
X98865609Y-109205214D01*
X98065001Y-108404606D01*
X97264393Y-109205214D01*
X96520458Y-109205214D01*
X96708630Y-109017371D01*
X96788396Y-108825274D01*
X96842604Y-108956144D01*
X97084788Y-109025609D01*
X97885396Y-108225001D01*
X98244606Y-108225001D01*
X99045214Y-109025609D01*
X99287398Y-108956144D01*
X99337510Y-108815683D01*
X99419991Y-109015304D01*
X99812631Y-109408630D01*
X100325901Y-109621758D01*
X100881662Y-109622243D01*
X101395304Y-109410011D01*
X101788630Y-109017371D01*
X102001758Y-108504101D01*
X102002243Y-107948340D01*
X101790011Y-107434698D01*
X101397371Y-107041372D01*
X100884101Y-106828244D01*
X100328340Y-106827759D01*
X99814698Y-107039991D01*
X99421372Y-107432631D01*
X99341606Y-107624728D01*
X99287398Y-107493858D01*
X99045214Y-107424393D01*
X98244606Y-108225001D01*
X97885396Y-108225001D01*
X97084788Y-107424393D01*
X96842604Y-107493858D01*
X96792492Y-107634319D01*
X96710011Y-107434698D01*
X96520433Y-107244788D01*
X97264393Y-107244788D01*
X98065001Y-108045396D01*
X98865609Y-107244788D01*
X98796144Y-107002604D01*
X98272699Y-106815857D01*
X97717633Y-106843639D01*
X97333858Y-107002604D01*
X97264393Y-107244788D01*
X96520433Y-107244788D01*
X96317371Y-107041372D01*
X95804101Y-106828244D01*
X95248340Y-106827759D01*
X94734698Y-107039991D01*
X94341372Y-107432631D01*
X94255052Y-107640513D01*
X94170011Y-107434698D01*
X93777371Y-107041372D01*
X93264101Y-106828244D01*
X92708340Y-106827759D01*
X92194698Y-107039991D01*
X91801372Y-107432631D01*
X91715052Y-107640513D01*
X91630011Y-107434698D01*
X91237371Y-107041372D01*
X90724101Y-106828244D01*
X90168340Y-106827759D01*
X89654698Y-107039991D01*
X89261372Y-107432631D01*
X89175052Y-107640513D01*
X89090011Y-107434698D01*
X88697371Y-107041372D01*
X88184101Y-106828244D01*
X87628340Y-106827759D01*
X87114698Y-107039991D01*
X86721372Y-107432631D01*
X86635052Y-107640513D01*
X86550011Y-107434698D01*
X86157371Y-107041372D01*
X85644101Y-106828244D01*
X85088340Y-106827759D01*
X84574698Y-107039991D01*
X84181372Y-107432631D01*
X84095052Y-107640513D01*
X84010011Y-107434698D01*
X83617371Y-107041372D01*
X83104101Y-106828244D01*
X82548340Y-106827759D01*
X82034698Y-107039991D01*
X81641372Y-107432631D01*
X81555052Y-107640513D01*
X81470011Y-107434698D01*
X81077371Y-107041372D01*
X80564101Y-106828244D01*
X80008340Y-106827759D01*
X79494698Y-107039991D01*
X79101372Y-107432631D01*
X79015052Y-107640513D01*
X78930011Y-107434698D01*
X78537371Y-107041372D01*
X78024101Y-106828244D01*
X77468340Y-106827759D01*
X76954698Y-107039991D01*
X76561372Y-107432631D01*
X76475052Y-107640513D01*
X76390011Y-107434698D01*
X75997371Y-107041372D01*
X75484101Y-106828244D01*
X74928340Y-106827759D01*
X74414698Y-107039991D01*
X74021372Y-107432631D01*
X73935052Y-107640513D01*
X73850011Y-107434698D01*
X73457371Y-107041372D01*
X72944101Y-106828244D01*
X72388340Y-106827759D01*
X71874698Y-107039991D01*
X71481372Y-107432631D01*
X71395052Y-107640513D01*
X71310011Y-107434698D01*
X70917371Y-107041372D01*
X70404101Y-106828244D01*
X69848340Y-106827759D01*
X69334698Y-107039991D01*
X68941372Y-107432631D01*
X68855052Y-107640513D01*
X68770011Y-107434698D01*
X68377371Y-107041372D01*
X67864101Y-106828244D01*
X67308340Y-106827759D01*
X66794698Y-107039991D01*
X66401372Y-107432631D01*
X66315052Y-107640513D01*
X66230011Y-107434698D01*
X65837371Y-107041372D01*
X65324101Y-106828244D01*
X64768340Y-106827759D01*
X64254698Y-107039991D01*
X63861372Y-107432631D01*
X63775052Y-107640513D01*
X63690011Y-107434698D01*
X63297371Y-107041372D01*
X62784101Y-106828244D01*
X62228340Y-106827759D01*
X61714698Y-107039991D01*
X61321372Y-107432631D01*
X61235052Y-107640513D01*
X61150011Y-107434698D01*
X60757371Y-107041372D01*
X60244101Y-106828244D01*
X59688340Y-106827759D01*
X59174698Y-107039991D01*
X58781372Y-107432631D01*
X58695052Y-107640513D01*
X58610011Y-107434698D01*
X58217371Y-107041372D01*
X57704101Y-106828244D01*
X57148340Y-106827759D01*
X56634698Y-107039991D01*
X56241372Y-107432631D01*
X56155052Y-107640513D01*
X56070011Y-107434698D01*
X55677371Y-107041372D01*
X55164101Y-106828244D01*
X54608340Y-106827759D01*
X54094698Y-107039991D01*
X53701372Y-107432631D01*
X53615052Y-107640513D01*
X53530011Y-107434698D01*
X53137371Y-107041372D01*
X52624101Y-106828244D01*
X52068340Y-106827759D01*
X51554698Y-107039991D01*
X51161372Y-107432631D01*
X50948244Y-107945901D01*
X50947759Y-108501662D01*
X48387000Y-108501662D01*
X48387000Y-99060000D01*
X108975907Y-99060000D01*
X109088946Y-99628285D01*
X109410853Y-100110054D01*
X109740026Y-100330000D01*
X109410853Y-100549946D01*
X109088946Y-101031715D01*
X108975907Y-101600000D01*
X109088946Y-102168285D01*
X109410853Y-102650054D01*
X109892622Y-102971961D01*
X110460907Y-103085000D01*
X110519093Y-103085000D01*
X111087378Y-102971961D01*
X111569147Y-102650054D01*
X111758345Y-102366899D01*
X111758355Y-102366924D01*
X112148642Y-102795183D01*
X112673108Y-103041486D01*
X112903000Y-102920819D01*
X112903000Y-101727000D01*
X113157000Y-101727000D01*
X113157000Y-102920819D01*
X113386892Y-103041486D01*
X113911358Y-102795183D01*
X114301645Y-102366924D01*
X114471476Y-101956890D01*
X114350155Y-101727000D01*
X113157000Y-101727000D01*
X112903000Y-101727000D01*
X112883000Y-101727000D01*
X112883000Y-101473000D01*
X112903000Y-101473000D01*
X112903000Y-101453000D01*
X113157000Y-101453000D01*
X113157000Y-101473000D01*
X114350155Y-101473000D01*
X114471476Y-101243110D01*
X114301645Y-100833076D01*
X113911358Y-100404817D01*
X113768447Y-100337702D01*
X114109147Y-100110054D01*
X114302954Y-99820000D01*
X115570000Y-99820000D01*
X115860839Y-99762148D01*
X116107401Y-99597401D01*
X117377401Y-98327401D01*
X117542148Y-98080840D01*
X117600000Y-97790000D01*
X117600000Y-93272463D01*
X117632192Y-93240327D01*
X117774838Y-92896799D01*
X117775162Y-92524833D01*
X117633117Y-92181057D01*
X117370327Y-91917808D01*
X117026799Y-91775162D01*
X116654833Y-91774838D01*
X116311057Y-91916883D01*
X116047808Y-92179673D01*
X115905162Y-92523201D01*
X115904838Y-92895167D01*
X116046883Y-93238943D01*
X116080000Y-93272118D01*
X116080000Y-97475198D01*
X115255198Y-98300000D01*
X114302954Y-98300000D01*
X114109147Y-98009946D01*
X113779974Y-97790000D01*
X114109147Y-97570054D01*
X114431054Y-97088285D01*
X114544093Y-96520000D01*
X114431054Y-95951715D01*
X114109147Y-95469946D01*
X113627378Y-95148039D01*
X113059093Y-95035000D01*
X113000907Y-95035000D01*
X112432622Y-95148039D01*
X111950853Y-95469946D01*
X111950029Y-95471179D01*
X111943162Y-95434683D01*
X111804090Y-95218559D01*
X111591890Y-95073569D01*
X111340000Y-95022560D01*
X109640000Y-95022560D01*
X109404683Y-95066838D01*
X109188559Y-95205910D01*
X109043569Y-95418110D01*
X108992560Y-95670000D01*
X108992560Y-97370000D01*
X109036838Y-97605317D01*
X109175910Y-97821441D01*
X109388110Y-97966431D01*
X109455541Y-97980086D01*
X109410853Y-98009946D01*
X109088946Y-98491715D01*
X108975907Y-99060000D01*
X48387000Y-99060000D01*
X48387000Y-93261662D01*
X50947759Y-93261662D01*
X51159991Y-93775304D01*
X51552631Y-94168630D01*
X52065901Y-94381758D01*
X52621662Y-94382243D01*
X53135304Y-94170011D01*
X53528630Y-93777371D01*
X53614950Y-93569489D01*
X53699991Y-93775304D01*
X54092631Y-94168630D01*
X54605901Y-94381758D01*
X55161662Y-94382243D01*
X55675304Y-94170011D01*
X56068630Y-93777371D01*
X56154950Y-93569489D01*
X56239991Y-93775304D01*
X56632631Y-94168630D01*
X57145901Y-94381758D01*
X57701662Y-94382243D01*
X58215304Y-94170011D01*
X58608630Y-93777371D01*
X58694950Y-93569489D01*
X58779991Y-93775304D01*
X59172631Y-94168630D01*
X59685901Y-94381758D01*
X60241662Y-94382243D01*
X60755304Y-94170011D01*
X61148630Y-93777371D01*
X61234950Y-93569489D01*
X61319991Y-93775304D01*
X61712631Y-94168630D01*
X62225901Y-94381758D01*
X62781662Y-94382243D01*
X63295304Y-94170011D01*
X63688630Y-93777371D01*
X63774950Y-93569489D01*
X63859991Y-93775304D01*
X64252631Y-94168630D01*
X64765901Y-94381758D01*
X65321662Y-94382243D01*
X65835304Y-94170011D01*
X66228630Y-93777371D01*
X66314950Y-93569489D01*
X66399991Y-93775304D01*
X66792631Y-94168630D01*
X67305901Y-94381758D01*
X67861662Y-94382243D01*
X68375304Y-94170011D01*
X68768630Y-93777371D01*
X68854950Y-93569489D01*
X68939991Y-93775304D01*
X69332631Y-94168630D01*
X69845901Y-94381758D01*
X70401662Y-94382243D01*
X70915304Y-94170011D01*
X71308630Y-93777371D01*
X71394950Y-93569489D01*
X71479991Y-93775304D01*
X71872631Y-94168630D01*
X72385901Y-94381758D01*
X72941662Y-94382243D01*
X73455304Y-94170011D01*
X73848630Y-93777371D01*
X73934950Y-93569489D01*
X74019991Y-93775304D01*
X74412631Y-94168630D01*
X74925901Y-94381758D01*
X75481662Y-94382243D01*
X75995304Y-94170011D01*
X76388630Y-93777371D01*
X76474950Y-93569489D01*
X76559991Y-93775304D01*
X76952631Y-94168630D01*
X77465901Y-94381758D01*
X78021662Y-94382243D01*
X78535304Y-94170011D01*
X78928630Y-93777371D01*
X79014950Y-93569489D01*
X79099991Y-93775304D01*
X79492631Y-94168630D01*
X80005901Y-94381758D01*
X80561662Y-94382243D01*
X81075304Y-94170011D01*
X81468630Y-93777371D01*
X81554950Y-93569489D01*
X81639991Y-93775304D01*
X82032631Y-94168630D01*
X82545901Y-94381758D01*
X83101662Y-94382243D01*
X83615304Y-94170011D01*
X84008630Y-93777371D01*
X84094950Y-93569489D01*
X84179991Y-93775304D01*
X84572631Y-94168630D01*
X85085901Y-94381758D01*
X85641662Y-94382243D01*
X86155304Y-94170011D01*
X86548630Y-93777371D01*
X86634950Y-93569489D01*
X86719991Y-93775304D01*
X87112631Y-94168630D01*
X87625901Y-94381758D01*
X88181662Y-94382243D01*
X88695304Y-94170011D01*
X89088630Y-93777371D01*
X89174950Y-93569489D01*
X89259991Y-93775304D01*
X89652631Y-94168630D01*
X90165901Y-94381758D01*
X90721662Y-94382243D01*
X91235304Y-94170011D01*
X91628630Y-93777371D01*
X91714950Y-93569489D01*
X91799991Y-93775304D01*
X92192631Y-94168630D01*
X92705901Y-94381758D01*
X93261662Y-94382243D01*
X93775304Y-94170011D01*
X94168630Y-93777371D01*
X94254950Y-93569489D01*
X94339991Y-93775304D01*
X94732631Y-94168630D01*
X95245901Y-94381758D01*
X95801662Y-94382243D01*
X96315304Y-94170011D01*
X96708630Y-93777371D01*
X96794950Y-93569489D01*
X96879991Y-93775304D01*
X97272631Y-94168630D01*
X97785901Y-94381758D01*
X98341662Y-94382243D01*
X98855304Y-94170011D01*
X99248630Y-93777371D01*
X99334950Y-93569489D01*
X99419991Y-93775304D01*
X99812631Y-94168630D01*
X100325901Y-94381758D01*
X100881662Y-94382243D01*
X101395304Y-94170011D01*
X101788630Y-93777371D01*
X102001758Y-93264101D01*
X102002243Y-92708340D01*
X101790011Y-92194698D01*
X101397371Y-91801372D01*
X100884101Y-91588244D01*
X100328340Y-91587759D01*
X99814698Y-91799991D01*
X99421372Y-92192631D01*
X99335052Y-92400513D01*
X99250011Y-92194698D01*
X98857371Y-91801372D01*
X98344101Y-91588244D01*
X97788340Y-91587759D01*
X97274698Y-91799991D01*
X96881372Y-92192631D01*
X96795052Y-92400513D01*
X96710011Y-92194698D01*
X96317371Y-91801372D01*
X95804101Y-91588244D01*
X95248340Y-91587759D01*
X94734698Y-91799991D01*
X94341372Y-92192631D01*
X94255052Y-92400513D01*
X94170011Y-92194698D01*
X93777371Y-91801372D01*
X93264101Y-91588244D01*
X92708340Y-91587759D01*
X92194698Y-91799991D01*
X91801372Y-92192631D01*
X91715052Y-92400513D01*
X91630011Y-92194698D01*
X91237371Y-91801372D01*
X90724101Y-91588244D01*
X90168340Y-91587759D01*
X89654698Y-91799991D01*
X89261372Y-92192631D01*
X89175052Y-92400513D01*
X89090011Y-92194698D01*
X88697371Y-91801372D01*
X88184101Y-91588244D01*
X87628340Y-91587759D01*
X87114698Y-91799991D01*
X86721372Y-92192631D01*
X86635052Y-92400513D01*
X86550011Y-92194698D01*
X86157371Y-91801372D01*
X85644101Y-91588244D01*
X85088340Y-91587759D01*
X84574698Y-91799991D01*
X84181372Y-92192631D01*
X84095052Y-92400513D01*
X84010011Y-92194698D01*
X83617371Y-91801372D01*
X83104101Y-91588244D01*
X82548340Y-91587759D01*
X82034698Y-91799991D01*
X81641372Y-92192631D01*
X81555052Y-92400513D01*
X81470011Y-92194698D01*
X81077371Y-91801372D01*
X80564101Y-91588244D01*
X80008340Y-91587759D01*
X79494698Y-91799991D01*
X79101372Y-92192631D01*
X79015052Y-92400513D01*
X78930011Y-92194698D01*
X78537371Y-91801372D01*
X78024101Y-91588244D01*
X77468340Y-91587759D01*
X76954698Y-91799991D01*
X76561372Y-92192631D01*
X76475052Y-92400513D01*
X76390011Y-92194698D01*
X75997371Y-91801372D01*
X75484101Y-91588244D01*
X74928340Y-91587759D01*
X74414698Y-91799991D01*
X74021372Y-92192631D01*
X73935052Y-92400513D01*
X73850011Y-92194698D01*
X73457371Y-91801372D01*
X72944101Y-91588244D01*
X72388340Y-91587759D01*
X71874698Y-91799991D01*
X71481372Y-92192631D01*
X71395052Y-92400513D01*
X71310011Y-92194698D01*
X70917371Y-91801372D01*
X70404101Y-91588244D01*
X69848340Y-91587759D01*
X69334698Y-91799991D01*
X68941372Y-92192631D01*
X68855052Y-92400513D01*
X68770011Y-92194698D01*
X68377371Y-91801372D01*
X67864101Y-91588244D01*
X67308340Y-91587759D01*
X66794698Y-91799991D01*
X66401372Y-92192631D01*
X66315052Y-92400513D01*
X66230011Y-92194698D01*
X65837371Y-91801372D01*
X65324101Y-91588244D01*
X64768340Y-91587759D01*
X64254698Y-91799991D01*
X63861372Y-92192631D01*
X63775052Y-92400513D01*
X63690011Y-92194698D01*
X63297371Y-91801372D01*
X62784101Y-91588244D01*
X62228340Y-91587759D01*
X61714698Y-91799991D01*
X61321372Y-92192631D01*
X61235052Y-92400513D01*
X61150011Y-92194698D01*
X60757371Y-91801372D01*
X60244101Y-91588244D01*
X59688340Y-91587759D01*
X59174698Y-91799991D01*
X58781372Y-92192631D01*
X58695052Y-92400513D01*
X58610011Y-92194698D01*
X58217371Y-91801372D01*
X57704101Y-91588244D01*
X57148340Y-91587759D01*
X56634698Y-91799991D01*
X56241372Y-92192631D01*
X56155052Y-92400513D01*
X56070011Y-92194698D01*
X55677371Y-91801372D01*
X55164101Y-91588244D01*
X54608340Y-91587759D01*
X54094698Y-91799991D01*
X53701372Y-92192631D01*
X53615052Y-92400513D01*
X53530011Y-92194698D01*
X53137371Y-91801372D01*
X52624101Y-91588244D01*
X52068340Y-91587759D01*
X51554698Y-91799991D01*
X51161372Y-92192631D01*
X50948244Y-92705901D01*
X50947759Y-93261662D01*
X48387000Y-93261662D01*
X48387000Y-86487000D01*
X119253000Y-86487000D01*
X119253000Y-112903000D01*
X119253000Y-112903000D01*
G37*
X119253000Y-112903000D02*
X48387000Y-112903000D01*
X48387000Y-108501662D01*
X50947759Y-108501662D01*
X51159991Y-109015304D01*
X51552631Y-109408630D01*
X52065901Y-109621758D01*
X52621662Y-109622243D01*
X53135304Y-109410011D01*
X53528630Y-109017371D01*
X53614950Y-108809489D01*
X53699991Y-109015304D01*
X54092631Y-109408630D01*
X54605901Y-109621758D01*
X55161662Y-109622243D01*
X55675304Y-109410011D01*
X56068630Y-109017371D01*
X56154950Y-108809489D01*
X56239991Y-109015304D01*
X56632631Y-109408630D01*
X57145901Y-109621758D01*
X57701662Y-109622243D01*
X58215304Y-109410011D01*
X58608630Y-109017371D01*
X58694950Y-108809489D01*
X58779991Y-109015304D01*
X59172631Y-109408630D01*
X59685901Y-109621758D01*
X60241662Y-109622243D01*
X60755304Y-109410011D01*
X61148630Y-109017371D01*
X61234950Y-108809489D01*
X61319991Y-109015304D01*
X61712631Y-109408630D01*
X62225901Y-109621758D01*
X62781662Y-109622243D01*
X63295304Y-109410011D01*
X63688630Y-109017371D01*
X63774950Y-108809489D01*
X63859991Y-109015304D01*
X64252631Y-109408630D01*
X64765901Y-109621758D01*
X65321662Y-109622243D01*
X65835304Y-109410011D01*
X66228630Y-109017371D01*
X66314950Y-108809489D01*
X66399991Y-109015304D01*
X66792631Y-109408630D01*
X67305901Y-109621758D01*
X67861662Y-109622243D01*
X68375304Y-109410011D01*
X68768630Y-109017371D01*
X68854950Y-108809489D01*
X68939991Y-109015304D01*
X69332631Y-109408630D01*
X69845901Y-109621758D01*
X70401662Y-109622243D01*
X70915304Y-109410011D01*
X71308630Y-109017371D01*
X71394950Y-108809489D01*
X71479991Y-109015304D01*
X71872631Y-109408630D01*
X72385901Y-109621758D01*
X72941662Y-109622243D01*
X73455304Y-109410011D01*
X73848630Y-109017371D01*
X73934950Y-108809489D01*
X74019991Y-109015304D01*
X74412631Y-109408630D01*
X74925901Y-109621758D01*
X75481662Y-109622243D01*
X75995304Y-109410011D01*
X76388630Y-109017371D01*
X76474950Y-108809489D01*
X76559991Y-109015304D01*
X76952631Y-109408630D01*
X77465901Y-109621758D01*
X78021662Y-109622243D01*
X78535304Y-109410011D01*
X78928630Y-109017371D01*
X79014950Y-108809489D01*
X79099991Y-109015304D01*
X79492631Y-109408630D01*
X80005901Y-109621758D01*
X80561662Y-109622243D01*
X81075304Y-109410011D01*
X81468630Y-109017371D01*
X81554950Y-108809489D01*
X81639991Y-109015304D01*
X82032631Y-109408630D01*
X82545901Y-109621758D01*
X83101662Y-109622243D01*
X83615304Y-109410011D01*
X84008630Y-109017371D01*
X84094950Y-108809489D01*
X84179991Y-109015304D01*
X84572631Y-109408630D01*
X85085901Y-109621758D01*
X85641662Y-109622243D01*
X86155304Y-109410011D01*
X86548630Y-109017371D01*
X86634950Y-108809489D01*
X86719991Y-109015304D01*
X87112631Y-109408630D01*
X87625901Y-109621758D01*
X88181662Y-109622243D01*
X88695304Y-109410011D01*
X89088630Y-109017371D01*
X89174950Y-108809489D01*
X89259991Y-109015304D01*
X89652631Y-109408630D01*
X90165901Y-109621758D01*
X90721662Y-109622243D01*
X91235304Y-109410011D01*
X91628630Y-109017371D01*
X91714950Y-108809489D01*
X91799991Y-109015304D01*
X92192631Y-109408630D01*
X92705901Y-109621758D01*
X93261662Y-109622243D01*
X93775304Y-109410011D01*
X94168630Y-109017371D01*
X94254950Y-108809489D01*
X94339991Y-109015304D01*
X94732631Y-109408630D01*
X95245901Y-109621758D01*
X95801662Y-109622243D01*
X96315304Y-109410011D01*
X96520458Y-109205214D01*
X97264393Y-109205214D01*
X97333858Y-109447398D01*
X97857303Y-109634145D01*
X98412369Y-109606363D01*
X98796144Y-109447398D01*
X98865609Y-109205214D01*
X98065001Y-108404606D01*
X97264393Y-109205214D01*
X96520458Y-109205214D01*
X96708630Y-109017371D01*
X96788396Y-108825274D01*
X96842604Y-108956144D01*
X97084788Y-109025609D01*
X97885396Y-108225001D01*
X98244606Y-108225001D01*
X99045214Y-109025609D01*
X99287398Y-108956144D01*
X99337510Y-108815683D01*
X99419991Y-109015304D01*
X99812631Y-109408630D01*
X100325901Y-109621758D01*
X100881662Y-109622243D01*
X101395304Y-109410011D01*
X101788630Y-109017371D01*
X102001758Y-108504101D01*
X102002243Y-107948340D01*
X101790011Y-107434698D01*
X101397371Y-107041372D01*
X100884101Y-106828244D01*
X100328340Y-106827759D01*
X99814698Y-107039991D01*
X99421372Y-107432631D01*
X99341606Y-107624728D01*
X99287398Y-107493858D01*
X99045214Y-107424393D01*
X98244606Y-108225001D01*
X97885396Y-108225001D01*
X97084788Y-107424393D01*
X96842604Y-107493858D01*
X96792492Y-107634319D01*
X96710011Y-107434698D01*
X96520433Y-107244788D01*
X97264393Y-107244788D01*
X98065001Y-108045396D01*
X98865609Y-107244788D01*
X98796144Y-107002604D01*
X98272699Y-106815857D01*
X97717633Y-106843639D01*
X97333858Y-107002604D01*
X97264393Y-107244788D01*
X96520433Y-107244788D01*
X96317371Y-107041372D01*
X95804101Y-106828244D01*
X95248340Y-106827759D01*
X94734698Y-107039991D01*
X94341372Y-107432631D01*
X94255052Y-107640513D01*
X94170011Y-107434698D01*
X93777371Y-107041372D01*
X93264101Y-106828244D01*
X92708340Y-106827759D01*
X92194698Y-107039991D01*
X91801372Y-107432631D01*
X91715052Y-107640513D01*
X91630011Y-107434698D01*
X91237371Y-107041372D01*
X90724101Y-106828244D01*
X90168340Y-106827759D01*
X89654698Y-107039991D01*
X89261372Y-107432631D01*
X89175052Y-107640513D01*
X89090011Y-107434698D01*
X88697371Y-107041372D01*
X88184101Y-106828244D01*
X87628340Y-106827759D01*
X87114698Y-107039991D01*
X86721372Y-107432631D01*
X86635052Y-107640513D01*
X86550011Y-107434698D01*
X86157371Y-107041372D01*
X85644101Y-106828244D01*
X85088340Y-106827759D01*
X84574698Y-107039991D01*
X84181372Y-107432631D01*
X84095052Y-107640513D01*
X84010011Y-107434698D01*
X83617371Y-107041372D01*
X83104101Y-106828244D01*
X82548340Y-106827759D01*
X82034698Y-107039991D01*
X81641372Y-107432631D01*
X81555052Y-107640513D01*
X81470011Y-107434698D01*
X81077371Y-107041372D01*
X80564101Y-106828244D01*
X80008340Y-106827759D01*
X79494698Y-107039991D01*
X79101372Y-107432631D01*
X79015052Y-107640513D01*
X78930011Y-107434698D01*
X78537371Y-107041372D01*
X78024101Y-106828244D01*
X77468340Y-106827759D01*
X76954698Y-107039991D01*
X76561372Y-107432631D01*
X76475052Y-107640513D01*
X76390011Y-107434698D01*
X75997371Y-107041372D01*
X75484101Y-106828244D01*
X74928340Y-106827759D01*
X74414698Y-107039991D01*
X74021372Y-107432631D01*
X73935052Y-107640513D01*
X73850011Y-107434698D01*
X73457371Y-107041372D01*
X72944101Y-106828244D01*
X72388340Y-106827759D01*
X71874698Y-107039991D01*
X71481372Y-107432631D01*
X71395052Y-107640513D01*
X71310011Y-107434698D01*
X70917371Y-107041372D01*
X70404101Y-106828244D01*
X69848340Y-106827759D01*
X69334698Y-107039991D01*
X68941372Y-107432631D01*
X68855052Y-107640513D01*
X68770011Y-107434698D01*
X68377371Y-107041372D01*
X67864101Y-106828244D01*
X67308340Y-106827759D01*
X66794698Y-107039991D01*
X66401372Y-107432631D01*
X66315052Y-107640513D01*
X66230011Y-107434698D01*
X65837371Y-107041372D01*
X65324101Y-106828244D01*
X64768340Y-106827759D01*
X64254698Y-107039991D01*
X63861372Y-107432631D01*
X63775052Y-107640513D01*
X63690011Y-107434698D01*
X63297371Y-107041372D01*
X62784101Y-106828244D01*
X62228340Y-106827759D01*
X61714698Y-107039991D01*
X61321372Y-107432631D01*
X61235052Y-107640513D01*
X61150011Y-107434698D01*
X60757371Y-107041372D01*
X60244101Y-106828244D01*
X59688340Y-106827759D01*
X59174698Y-107039991D01*
X58781372Y-107432631D01*
X58695052Y-107640513D01*
X58610011Y-107434698D01*
X58217371Y-107041372D01*
X57704101Y-106828244D01*
X57148340Y-106827759D01*
X56634698Y-107039991D01*
X56241372Y-107432631D01*
X56155052Y-107640513D01*
X56070011Y-107434698D01*
X55677371Y-107041372D01*
X55164101Y-106828244D01*
X54608340Y-106827759D01*
X54094698Y-107039991D01*
X53701372Y-107432631D01*
X53615052Y-107640513D01*
X53530011Y-107434698D01*
X53137371Y-107041372D01*
X52624101Y-106828244D01*
X52068340Y-106827759D01*
X51554698Y-107039991D01*
X51161372Y-107432631D01*
X50948244Y-107945901D01*
X50947759Y-108501662D01*
X48387000Y-108501662D01*
X48387000Y-99060000D01*
X108975907Y-99060000D01*
X109088946Y-99628285D01*
X109410853Y-100110054D01*
X109740026Y-100330000D01*
X109410853Y-100549946D01*
X109088946Y-101031715D01*
X108975907Y-101600000D01*
X109088946Y-102168285D01*
X109410853Y-102650054D01*
X109892622Y-102971961D01*
X110460907Y-103085000D01*
X110519093Y-103085000D01*
X111087378Y-102971961D01*
X111569147Y-102650054D01*
X111758345Y-102366899D01*
X111758355Y-102366924D01*
X112148642Y-102795183D01*
X112673108Y-103041486D01*
X112903000Y-102920819D01*
X112903000Y-101727000D01*
X113157000Y-101727000D01*
X113157000Y-102920819D01*
X113386892Y-103041486D01*
X113911358Y-102795183D01*
X114301645Y-102366924D01*
X114471476Y-101956890D01*
X114350155Y-101727000D01*
X113157000Y-101727000D01*
X112903000Y-101727000D01*
X112883000Y-101727000D01*
X112883000Y-101473000D01*
X112903000Y-101473000D01*
X112903000Y-101453000D01*
X113157000Y-101453000D01*
X113157000Y-101473000D01*
X114350155Y-101473000D01*
X114471476Y-101243110D01*
X114301645Y-100833076D01*
X113911358Y-100404817D01*
X113768447Y-100337702D01*
X114109147Y-100110054D01*
X114302954Y-99820000D01*
X115570000Y-99820000D01*
X115860839Y-99762148D01*
X116107401Y-99597401D01*
X117377401Y-98327401D01*
X117542148Y-98080840D01*
X117600000Y-97790000D01*
X117600000Y-93272463D01*
X117632192Y-93240327D01*
X117774838Y-92896799D01*
X117775162Y-92524833D01*
X117633117Y-92181057D01*
X117370327Y-91917808D01*
X117026799Y-91775162D01*
X116654833Y-91774838D01*
X116311057Y-91916883D01*
X116047808Y-92179673D01*
X115905162Y-92523201D01*
X115904838Y-92895167D01*
X116046883Y-93238943D01*
X116080000Y-93272118D01*
X116080000Y-97475198D01*
X115255198Y-98300000D01*
X114302954Y-98300000D01*
X114109147Y-98009946D01*
X113779974Y-97790000D01*
X114109147Y-97570054D01*
X114431054Y-97088285D01*
X114544093Y-96520000D01*
X114431054Y-95951715D01*
X114109147Y-95469946D01*
X113627378Y-95148039D01*
X113059093Y-95035000D01*
X113000907Y-95035000D01*
X112432622Y-95148039D01*
X111950853Y-95469946D01*
X111950029Y-95471179D01*
X111943162Y-95434683D01*
X111804090Y-95218559D01*
X111591890Y-95073569D01*
X111340000Y-95022560D01*
X109640000Y-95022560D01*
X109404683Y-95066838D01*
X109188559Y-95205910D01*
X109043569Y-95418110D01*
X108992560Y-95670000D01*
X108992560Y-97370000D01*
X109036838Y-97605317D01*
X109175910Y-97821441D01*
X109388110Y-97966431D01*
X109455541Y-97980086D01*
X109410853Y-98009946D01*
X109088946Y-98491715D01*
X108975907Y-99060000D01*
X48387000Y-99060000D01*
X48387000Y-93261662D01*
X50947759Y-93261662D01*
X51159991Y-93775304D01*
X51552631Y-94168630D01*
X52065901Y-94381758D01*
X52621662Y-94382243D01*
X53135304Y-94170011D01*
X53528630Y-93777371D01*
X53614950Y-93569489D01*
X53699991Y-93775304D01*
X54092631Y-94168630D01*
X54605901Y-94381758D01*
X55161662Y-94382243D01*
X55675304Y-94170011D01*
X56068630Y-93777371D01*
X56154950Y-93569489D01*
X56239991Y-93775304D01*
X56632631Y-94168630D01*
X57145901Y-94381758D01*
X57701662Y-94382243D01*
X58215304Y-94170011D01*
X58608630Y-93777371D01*
X58694950Y-93569489D01*
X58779991Y-93775304D01*
X59172631Y-94168630D01*
X59685901Y-94381758D01*
X60241662Y-94382243D01*
X60755304Y-94170011D01*
X61148630Y-93777371D01*
X61234950Y-93569489D01*
X61319991Y-93775304D01*
X61712631Y-94168630D01*
X62225901Y-94381758D01*
X62781662Y-94382243D01*
X63295304Y-94170011D01*
X63688630Y-93777371D01*
X63774950Y-93569489D01*
X63859991Y-93775304D01*
X64252631Y-94168630D01*
X64765901Y-94381758D01*
X65321662Y-94382243D01*
X65835304Y-94170011D01*
X66228630Y-93777371D01*
X66314950Y-93569489D01*
X66399991Y-93775304D01*
X66792631Y-94168630D01*
X67305901Y-94381758D01*
X67861662Y-94382243D01*
X68375304Y-94170011D01*
X68768630Y-93777371D01*
X68854950Y-93569489D01*
X68939991Y-93775304D01*
X69332631Y-94168630D01*
X69845901Y-94381758D01*
X70401662Y-94382243D01*
X70915304Y-94170011D01*
X71308630Y-93777371D01*
X71394950Y-93569489D01*
X71479991Y-93775304D01*
X71872631Y-94168630D01*
X72385901Y-94381758D01*
X72941662Y-94382243D01*
X73455304Y-94170011D01*
X73848630Y-93777371D01*
X73934950Y-93569489D01*
X74019991Y-93775304D01*
X74412631Y-94168630D01*
X74925901Y-94381758D01*
X75481662Y-94382243D01*
X75995304Y-94170011D01*
X76388630Y-93777371D01*
X76474950Y-93569489D01*
X76559991Y-93775304D01*
X76952631Y-94168630D01*
X77465901Y-94381758D01*
X78021662Y-94382243D01*
X78535304Y-94170011D01*
X78928630Y-93777371D01*
X79014950Y-93569489D01*
X79099991Y-93775304D01*
X79492631Y-94168630D01*
X80005901Y-94381758D01*
X80561662Y-94382243D01*
X81075304Y-94170011D01*
X81468630Y-93777371D01*
X81554950Y-93569489D01*
X81639991Y-93775304D01*
X82032631Y-94168630D01*
X82545901Y-94381758D01*
X83101662Y-94382243D01*
X83615304Y-94170011D01*
X84008630Y-93777371D01*
X84094950Y-93569489D01*
X84179991Y-93775304D01*
X84572631Y-94168630D01*
X85085901Y-94381758D01*
X85641662Y-94382243D01*
X86155304Y-94170011D01*
X86548630Y-93777371D01*
X86634950Y-93569489D01*
X86719991Y-93775304D01*
X87112631Y-94168630D01*
X87625901Y-94381758D01*
X88181662Y-94382243D01*
X88695304Y-94170011D01*
X89088630Y-93777371D01*
X89174950Y-93569489D01*
X89259991Y-93775304D01*
X89652631Y-94168630D01*
X90165901Y-94381758D01*
X90721662Y-94382243D01*
X91235304Y-94170011D01*
X91628630Y-93777371D01*
X91714950Y-93569489D01*
X91799991Y-93775304D01*
X92192631Y-94168630D01*
X92705901Y-94381758D01*
X93261662Y-94382243D01*
X93775304Y-94170011D01*
X94168630Y-93777371D01*
X94254950Y-93569489D01*
X94339991Y-93775304D01*
X94732631Y-94168630D01*
X95245901Y-94381758D01*
X95801662Y-94382243D01*
X96315304Y-94170011D01*
X96708630Y-93777371D01*
X96794950Y-93569489D01*
X96879991Y-93775304D01*
X97272631Y-94168630D01*
X97785901Y-94381758D01*
X98341662Y-94382243D01*
X98855304Y-94170011D01*
X99248630Y-93777371D01*
X99334950Y-93569489D01*
X99419991Y-93775304D01*
X99812631Y-94168630D01*
X100325901Y-94381758D01*
X100881662Y-94382243D01*
X101395304Y-94170011D01*
X101788630Y-93777371D01*
X102001758Y-93264101D01*
X102002243Y-92708340D01*
X101790011Y-92194698D01*
X101397371Y-91801372D01*
X100884101Y-91588244D01*
X100328340Y-91587759D01*
X99814698Y-91799991D01*
X99421372Y-92192631D01*
X99335052Y-92400513D01*
X99250011Y-92194698D01*
X98857371Y-91801372D01*
X98344101Y-91588244D01*
X97788340Y-91587759D01*
X97274698Y-91799991D01*
X96881372Y-92192631D01*
X96795052Y-92400513D01*
X96710011Y-92194698D01*
X96317371Y-91801372D01*
X95804101Y-91588244D01*
X95248340Y-91587759D01*
X94734698Y-91799991D01*
X94341372Y-92192631D01*
X94255052Y-92400513D01*
X94170011Y-92194698D01*
X93777371Y-91801372D01*
X93264101Y-91588244D01*
X92708340Y-91587759D01*
X92194698Y-91799991D01*
X91801372Y-92192631D01*
X91715052Y-92400513D01*
X91630011Y-92194698D01*
X91237371Y-91801372D01*
X90724101Y-91588244D01*
X90168340Y-91587759D01*
X89654698Y-91799991D01*
X89261372Y-92192631D01*
X89175052Y-92400513D01*
X89090011Y-92194698D01*
X88697371Y-91801372D01*
X88184101Y-91588244D01*
X87628340Y-91587759D01*
X87114698Y-91799991D01*
X86721372Y-92192631D01*
X86635052Y-92400513D01*
X86550011Y-92194698D01*
X86157371Y-91801372D01*
X85644101Y-91588244D01*
X85088340Y-91587759D01*
X84574698Y-91799991D01*
X84181372Y-92192631D01*
X84095052Y-92400513D01*
X84010011Y-92194698D01*
X83617371Y-91801372D01*
X83104101Y-91588244D01*
X82548340Y-91587759D01*
X82034698Y-91799991D01*
X81641372Y-92192631D01*
X81555052Y-92400513D01*
X81470011Y-92194698D01*
X81077371Y-91801372D01*
X80564101Y-91588244D01*
X80008340Y-91587759D01*
X79494698Y-91799991D01*
X79101372Y-92192631D01*
X79015052Y-92400513D01*
X78930011Y-92194698D01*
X78537371Y-91801372D01*
X78024101Y-91588244D01*
X77468340Y-91587759D01*
X76954698Y-91799991D01*
X76561372Y-92192631D01*
X76475052Y-92400513D01*
X76390011Y-92194698D01*
X75997371Y-91801372D01*
X75484101Y-91588244D01*
X74928340Y-91587759D01*
X74414698Y-91799991D01*
X74021372Y-92192631D01*
X73935052Y-92400513D01*
X73850011Y-92194698D01*
X73457371Y-91801372D01*
X72944101Y-91588244D01*
X72388340Y-91587759D01*
X71874698Y-91799991D01*
X71481372Y-92192631D01*
X71395052Y-92400513D01*
X71310011Y-92194698D01*
X70917371Y-91801372D01*
X70404101Y-91588244D01*
X69848340Y-91587759D01*
X69334698Y-91799991D01*
X68941372Y-92192631D01*
X68855052Y-92400513D01*
X68770011Y-92194698D01*
X68377371Y-91801372D01*
X67864101Y-91588244D01*
X67308340Y-91587759D01*
X66794698Y-91799991D01*
X66401372Y-92192631D01*
X66315052Y-92400513D01*
X66230011Y-92194698D01*
X65837371Y-91801372D01*
X65324101Y-91588244D01*
X64768340Y-91587759D01*
X64254698Y-91799991D01*
X63861372Y-92192631D01*
X63775052Y-92400513D01*
X63690011Y-92194698D01*
X63297371Y-91801372D01*
X62784101Y-91588244D01*
X62228340Y-91587759D01*
X61714698Y-91799991D01*
X61321372Y-92192631D01*
X61235052Y-92400513D01*
X61150011Y-92194698D01*
X60757371Y-91801372D01*
X60244101Y-91588244D01*
X59688340Y-91587759D01*
X59174698Y-91799991D01*
X58781372Y-92192631D01*
X58695052Y-92400513D01*
X58610011Y-92194698D01*
X58217371Y-91801372D01*
X57704101Y-91588244D01*
X57148340Y-91587759D01*
X56634698Y-91799991D01*
X56241372Y-92192631D01*
X56155052Y-92400513D01*
X56070011Y-92194698D01*
X55677371Y-91801372D01*
X55164101Y-91588244D01*
X54608340Y-91587759D01*
X54094698Y-91799991D01*
X53701372Y-92192631D01*
X53615052Y-92400513D01*
X53530011Y-92194698D01*
X53137371Y-91801372D01*
X52624101Y-91588244D01*
X52068340Y-91587759D01*
X51554698Y-91799991D01*
X51161372Y-92192631D01*
X50948244Y-92705901D01*
X50947759Y-93261662D01*
X48387000Y-93261662D01*
X48387000Y-86487000D01*
X119253000Y-86487000D01*
X119253000Y-112903000D01*
G36*
X119253000Y-145243000D02*
X48387000Y-145243000D01*
X48387000Y-140841662D01*
X50947759Y-140841662D01*
X51159991Y-141355304D01*
X51552631Y-141748630D01*
X52065901Y-141961758D01*
X52621662Y-141962243D01*
X53135304Y-141750011D01*
X53528630Y-141357371D01*
X53614950Y-141149489D01*
X53699991Y-141355304D01*
X54092631Y-141748630D01*
X54605901Y-141961758D01*
X55161662Y-141962243D01*
X55675304Y-141750011D01*
X56068630Y-141357371D01*
X56154950Y-141149489D01*
X56239991Y-141355304D01*
X56632631Y-141748630D01*
X57145901Y-141961758D01*
X57701662Y-141962243D01*
X58215304Y-141750011D01*
X58608630Y-141357371D01*
X58694950Y-141149489D01*
X58779991Y-141355304D01*
X59172631Y-141748630D01*
X59685901Y-141961758D01*
X60241662Y-141962243D01*
X60755304Y-141750011D01*
X61148630Y-141357371D01*
X61234950Y-141149489D01*
X61319991Y-141355304D01*
X61712631Y-141748630D01*
X62225901Y-141961758D01*
X62781662Y-141962243D01*
X63295304Y-141750011D01*
X63688630Y-141357371D01*
X63774950Y-141149489D01*
X63859991Y-141355304D01*
X64252631Y-141748630D01*
X64765901Y-141961758D01*
X65321662Y-141962243D01*
X65835304Y-141750011D01*
X66228630Y-141357371D01*
X66314950Y-141149489D01*
X66399991Y-141355304D01*
X66792631Y-141748630D01*
X67305901Y-141961758D01*
X67861662Y-141962243D01*
X68375304Y-141750011D01*
X68768630Y-141357371D01*
X68854950Y-141149489D01*
X68939991Y-141355304D01*
X69332631Y-141748630D01*
X69845901Y-141961758D01*
X70401662Y-141962243D01*
X70915304Y-141750011D01*
X71308630Y-141357371D01*
X71394950Y-141149489D01*
X71479991Y-141355304D01*
X71872631Y-141748630D01*
X72385901Y-141961758D01*
X72941662Y-141962243D01*
X73455304Y-141750011D01*
X73848630Y-141357371D01*
X73934950Y-141149489D01*
X74019991Y-141355304D01*
X74412631Y-141748630D01*
X74925901Y-141961758D01*
X75481662Y-141962243D01*
X75995304Y-141750011D01*
X76388630Y-141357371D01*
X76474950Y-141149489D01*
X76559991Y-141355304D01*
X76952631Y-141748630D01*
X77465901Y-141961758D01*
X78021662Y-141962243D01*
X78535304Y-141750011D01*
X78928630Y-141357371D01*
X79014950Y-141149489D01*
X79099991Y-141355304D01*
X79492631Y-141748630D01*
X80005901Y-141961758D01*
X80561662Y-141962243D01*
X81075304Y-141750011D01*
X81468630Y-141357371D01*
X81554950Y-141149489D01*
X81639991Y-141355304D01*
X82032631Y-141748630D01*
X82545901Y-141961758D01*
X83101662Y-141962243D01*
X83615304Y-141750011D01*
X84008630Y-141357371D01*
X84094950Y-141149489D01*
X84179991Y-141355304D01*
X84572631Y-141748630D01*
X85085901Y-141961758D01*
X85641662Y-141962243D01*
X86155304Y-141750011D01*
X86548630Y-141357371D01*
X86634950Y-141149489D01*
X86719991Y-141355304D01*
X87112631Y-141748630D01*
X87625901Y-141961758D01*
X88181662Y-141962243D01*
X88695304Y-141750011D01*
X89088630Y-141357371D01*
X89174950Y-141149489D01*
X89259991Y-141355304D01*
X89652631Y-141748630D01*
X90165901Y-141961758D01*
X90721662Y-141962243D01*
X91235304Y-141750011D01*
X91628630Y-141357371D01*
X91714950Y-141149489D01*
X91799991Y-141355304D01*
X92192631Y-141748630D01*
X92705901Y-141961758D01*
X93261662Y-141962243D01*
X93775304Y-141750011D01*
X94168630Y-141357371D01*
X94254950Y-141149489D01*
X94339991Y-141355304D01*
X94732631Y-141748630D01*
X95245901Y-141961758D01*
X95801662Y-141962243D01*
X96315304Y-141750011D01*
X96520458Y-141545214D01*
X97264393Y-141545214D01*
X97333858Y-141787398D01*
X97857303Y-141974145D01*
X98412369Y-141946363D01*
X98796144Y-141787398D01*
X98865609Y-141545214D01*
X98065001Y-140744606D01*
X97264393Y-141545214D01*
X96520458Y-141545214D01*
X96708630Y-141357371D01*
X96788396Y-141165274D01*
X96842604Y-141296144D01*
X97084788Y-141365609D01*
X97885396Y-140565001D01*
X98244606Y-140565001D01*
X99045214Y-141365609D01*
X99287398Y-141296144D01*
X99337510Y-141155683D01*
X99419991Y-141355304D01*
X99812631Y-141748630D01*
X100325901Y-141961758D01*
X100881662Y-141962243D01*
X101395304Y-141750011D01*
X101788630Y-141357371D01*
X102001758Y-140844101D01*
X102002243Y-140288340D01*
X101790011Y-139774698D01*
X101397371Y-139381372D01*
X100884101Y-139168244D01*
X100328340Y-139167759D01*
X99814698Y-139379991D01*
X99421372Y-139772631D01*
X99341606Y-139964728D01*
X99287398Y-139833858D01*
X99045214Y-139764393D01*
X98244606Y-140565001D01*
X97885396Y-140565001D01*
X97084788Y-139764393D01*
X96842604Y-139833858D01*
X96792492Y-139974319D01*
X96710011Y-139774698D01*
X96520433Y-139584788D01*
X97264393Y-139584788D01*
X98065001Y-140385396D01*
X98865609Y-139584788D01*
X98796144Y-139342604D01*
X98272699Y-139155857D01*
X97717633Y-139183639D01*
X97333858Y-139342604D01*
X97264393Y-139584788D01*
X96520433Y-139584788D01*
X96317371Y-139381372D01*
X95804101Y-139168244D01*
X95248340Y-139167759D01*
X94734698Y-139379991D01*
X94341372Y-139772631D01*
X94255052Y-139980513D01*
X94170011Y-139774698D01*
X93777371Y-139381372D01*
X93264101Y-139168244D01*
X92708340Y-139167759D01*
X92194698Y-139379991D01*
X91801372Y-139772631D01*
X91715052Y-139980513D01*
X91630011Y-139774698D01*
X91237371Y-139381372D01*
X90724101Y-139168244D01*
X90168340Y-139167759D01*
X89654698Y-139379991D01*
X89261372Y-139772631D01*
X89175052Y-139980513D01*
X89090011Y-139774698D01*
X88697371Y-139381372D01*
X88184101Y-139168244D01*
X87628340Y-139167759D01*
X87114698Y-139379991D01*
X86721372Y-139772631D01*
X86635052Y-139980513D01*
X86550011Y-139774698D01*
X86157371Y-139381372D01*
X85644101Y-139168244D01*
X85088340Y-139167759D01*
X84574698Y-139379991D01*
X84181372Y-139772631D01*
X84095052Y-139980513D01*
X84010011Y-139774698D01*
X83617371Y-139381372D01*
X83104101Y-139168244D01*
X82548340Y-139167759D01*
X82034698Y-139379991D01*
X81641372Y-139772631D01*
X81555052Y-139980513D01*
X81470011Y-139774698D01*
X81077371Y-139381372D01*
X80564101Y-139168244D01*
X80008340Y-139167759D01*
X79494698Y-139379991D01*
X79101372Y-139772631D01*
X79015052Y-139980513D01*
X78930011Y-139774698D01*
X78537371Y-139381372D01*
X78024101Y-139168244D01*
X77468340Y-139167759D01*
X76954698Y-139379991D01*
X76561372Y-139772631D01*
X76475052Y-139980513D01*
X76390011Y-139774698D01*
X75997371Y-139381372D01*
X75484101Y-139168244D01*
X74928340Y-139167759D01*
X74414698Y-139379991D01*
X74021372Y-139772631D01*
X73935052Y-139980513D01*
X73850011Y-139774698D01*
X73457371Y-139381372D01*
X72944101Y-139168244D01*
X72388340Y-139167759D01*
X71874698Y-139379991D01*
X71481372Y-139772631D01*
X71395052Y-139980513D01*
X71310011Y-139774698D01*
X70917371Y-139381372D01*
X70404101Y-139168244D01*
X69848340Y-139167759D01*
X69334698Y-139379991D01*
X68941372Y-139772631D01*
X68855052Y-139980513D01*
X68770011Y-139774698D01*
X68377371Y-139381372D01*
X67864101Y-139168244D01*
X67308340Y-139167759D01*
X66794698Y-139379991D01*
X66401372Y-139772631D01*
X66315052Y-139980513D01*
X66230011Y-139774698D01*
X65837371Y-139381372D01*
X65324101Y-139168244D01*
X64768340Y-139167759D01*
X64254698Y-139379991D01*
X63861372Y-139772631D01*
X63775052Y-139980513D01*
X63690011Y-139774698D01*
X63297371Y-139381372D01*
X62784101Y-139168244D01*
X62228340Y-139167759D01*
X61714698Y-139379991D01*
X61321372Y-139772631D01*
X61235052Y-139980513D01*
X61150011Y-139774698D01*
X60757371Y-139381372D01*
X60244101Y-139168244D01*
X59688340Y-139167759D01*
X59174698Y-139379991D01*
X58781372Y-139772631D01*
X58695052Y-139980513D01*
X58610011Y-139774698D01*
X58217371Y-139381372D01*
X57704101Y-139168244D01*
X57148340Y-139167759D01*
X56634698Y-139379991D01*
X56241372Y-139772631D01*
X56155052Y-139980513D01*
X56070011Y-139774698D01*
X55677371Y-139381372D01*
X55164101Y-139168244D01*
X54608340Y-139167759D01*
X54094698Y-139379991D01*
X53701372Y-139772631D01*
X53615052Y-139980513D01*
X53530011Y-139774698D01*
X53137371Y-139381372D01*
X52624101Y-139168244D01*
X52068340Y-139167759D01*
X51554698Y-139379991D01*
X51161372Y-139772631D01*
X50948244Y-140285901D01*
X50947759Y-140841662D01*
X48387000Y-140841662D01*
X48387000Y-131400000D01*
X108975907Y-131400000D01*
X109088946Y-131968285D01*
X109410853Y-132450054D01*
X109740026Y-132670000D01*
X109410853Y-132889946D01*
X109088946Y-133371715D01*
X108975907Y-133940000D01*
X109088946Y-134508285D01*
X109410853Y-134990054D01*
X109892622Y-135311961D01*
X110460907Y-135425000D01*
X110519093Y-135425000D01*
X111087378Y-135311961D01*
X111569147Y-134990054D01*
X111758345Y-134706899D01*
X111758355Y-134706924D01*
X112148642Y-135135183D01*
X112673108Y-135381486D01*
X112903000Y-135260819D01*
X112903000Y-134067000D01*
X113157000Y-134067000D01*
X113157000Y-135260819D01*
X113386892Y-135381486D01*
X113911358Y-135135183D01*
X114301645Y-134706924D01*
X114471476Y-134296890D01*
X114350155Y-134067000D01*
X113157000Y-134067000D01*
X112903000Y-134067000D01*
X112883000Y-134067000D01*
X112883000Y-133813000D01*
X112903000Y-133813000D01*
X112903000Y-133793000D01*
X113157000Y-133793000D01*
X113157000Y-133813000D01*
X114350155Y-133813000D01*
X114471476Y-133583110D01*
X114301645Y-133173076D01*
X113911358Y-132744817D01*
X113768447Y-132677702D01*
X114109147Y-132450054D01*
X114302954Y-132160000D01*
X115570000Y-132160000D01*
X115860839Y-132102148D01*
X116107401Y-131937401D01*
X117377401Y-130667401D01*
X117542148Y-130420840D01*
X117600000Y-130130000D01*
X117600000Y-125612463D01*
X117632192Y-125580327D01*
X117774838Y-125236799D01*
X117775162Y-124864833D01*
X117633117Y-124521057D01*
X117370327Y-124257808D01*
X117026799Y-124115162D01*
X116654833Y-124114838D01*
X116311057Y-124256883D01*
X116047808Y-124519673D01*
X115905162Y-124863201D01*
X115904838Y-125235167D01*
X116046883Y-125578943D01*
X116080000Y-125612118D01*
X116080000Y-129815198D01*
X115255198Y-130640000D01*
X114302954Y-130640000D01*
X114109147Y-130349946D01*
X113779974Y-130130000D01*
X114109147Y-129910054D01*
X114431054Y-129428285D01*
X114544093Y-128860000D01*
X114431054Y-128291715D01*
X114109147Y-127809946D01*
X113627378Y-127488039D01*
X113059093Y-127375000D01*
X113000907Y-127375000D01*
X112432622Y-127488039D01*
X111950853Y-127809946D01*
X111950029Y-127811179D01*
X111943162Y-127774683D01*
X111804090Y-127558559D01*
X111591890Y-127413569D01*
X111340000Y-127362560D01*
X109640000Y-127362560D01*
X109404683Y-127406838D01*
X109188559Y-127545910D01*
X109043569Y-127758110D01*
X108992560Y-128010000D01*
X108992560Y-129710000D01*
X109036838Y-129945317D01*
X109175910Y-130161441D01*
X109388110Y-130306431D01*
X109455541Y-130320086D01*
X109410853Y-130349946D01*
X109088946Y-130831715D01*
X108975907Y-131400000D01*
X48387000Y-131400000D01*
X48387000Y-125601662D01*
X50947759Y-125601662D01*
X51159991Y-126115304D01*
X51552631Y-126508630D01*
X52065901Y-126721758D01*
X52621662Y-126722243D01*
X53135304Y-126510011D01*
X53528630Y-126117371D01*
X53614950Y-125909489D01*
X53699991Y-126115304D01*
X54092631Y-126508630D01*
X54605901Y-126721758D01*
X55161662Y-126722243D01*
X55675304Y-126510011D01*
X56068630Y-126117371D01*
X56154950Y-125909489D01*
X56239991Y-126115304D01*
X56632631Y-126508630D01*
X57145901Y-126721758D01*
X57701662Y-126722243D01*
X58215304Y-126510011D01*
X58608630Y-126117371D01*
X58694950Y-125909489D01*
X58779991Y-126115304D01*
X59172631Y-126508630D01*
X59685901Y-126721758D01*
X60241662Y-126722243D01*
X60755304Y-126510011D01*
X61148630Y-126117371D01*
X61234950Y-125909489D01*
X61319991Y-126115304D01*
X61712631Y-126508630D01*
X62225901Y-126721758D01*
X62781662Y-126722243D01*
X63295304Y-126510011D01*
X63688630Y-126117371D01*
X63774950Y-125909489D01*
X63859991Y-126115304D01*
X64252631Y-126508630D01*
X64765901Y-126721758D01*
X65321662Y-126722243D01*
X65835304Y-126510011D01*
X66228630Y-126117371D01*
X66314950Y-125909489D01*
X66399991Y-126115304D01*
X66792631Y-126508630D01*
X67305901Y-126721758D01*
X67861662Y-126722243D01*
X68375304Y-126510011D01*
X68768630Y-126117371D01*
X68854950Y-125909489D01*
X68939991Y-126115304D01*
X69332631Y-126508630D01*
X69845901Y-126721758D01*
X70401662Y-126722243D01*
X70915304Y-126510011D01*
X71308630Y-126117371D01*
X71394950Y-125909489D01*
X71479991Y-126115304D01*
X71872631Y-126508630D01*
X72385901Y-126721758D01*
X72941662Y-126722243D01*
X73455304Y-126510011D01*
X73848630Y-126117371D01*
X73934950Y-125909489D01*
X74019991Y-126115304D01*
X74412631Y-126508630D01*
X74925901Y-126721758D01*
X75481662Y-126722243D01*
X75995304Y-126510011D01*
X76388630Y-126117371D01*
X76474950Y-125909489D01*
X76559991Y-126115304D01*
X76952631Y-126508630D01*
X77465901Y-126721758D01*
X78021662Y-126722243D01*
X78535304Y-126510011D01*
X78928630Y-126117371D01*
X79014950Y-125909489D01*
X79099991Y-126115304D01*
X79492631Y-126508630D01*
X80005901Y-126721758D01*
X80561662Y-126722243D01*
X81075304Y-126510011D01*
X81468630Y-126117371D01*
X81554950Y-125909489D01*
X81639991Y-126115304D01*
X82032631Y-126508630D01*
X82545901Y-126721758D01*
X83101662Y-126722243D01*
X83615304Y-126510011D01*
X84008630Y-126117371D01*
X84094950Y-125909489D01*
X84179991Y-126115304D01*
X84572631Y-126508630D01*
X85085901Y-126721758D01*
X85641662Y-126722243D01*
X86155304Y-126510011D01*
X86548630Y-126117371D01*
X86634950Y-125909489D01*
X86719991Y-126115304D01*
X87112631Y-126508630D01*
X87625901Y-126721758D01*
X88181662Y-126722243D01*
X88695304Y-126510011D01*
X89088630Y-126117371D01*
X89174950Y-125909489D01*
X89259991Y-126115304D01*
X89652631Y-126508630D01*
X90165901Y-126721758D01*
X90721662Y-126722243D01*
X91235304Y-126510011D01*
X91628630Y-126117371D01*
X91714950Y-125909489D01*
X91799991Y-126115304D01*
X92192631Y-126508630D01*
X92705901Y-126721758D01*
X93261662Y-126722243D01*
X93775304Y-126510011D01*
X94168630Y-126117371D01*
X94254950Y-125909489D01*
X94339991Y-126115304D01*
X94732631Y-126508630D01*
X95245901Y-126721758D01*
X95801662Y-126722243D01*
X96315304Y-126510011D01*
X96708630Y-126117371D01*
X96794950Y-125909489D01*
X96879991Y-126115304D01*
X97272631Y-126508630D01*
X97785901Y-126721758D01*
X98341662Y-126722243D01*
X98855304Y-126510011D01*
X99248630Y-126117371D01*
X99334950Y-125909489D01*
X99419991Y-126115304D01*
X99812631Y-126508630D01*
X100325901Y-126721758D01*
X100881662Y-126722243D01*
X101395304Y-126510011D01*
X101788630Y-126117371D01*
X102001758Y-125604101D01*
X102002243Y-125048340D01*
X101790011Y-124534698D01*
X101397371Y-124141372D01*
X100884101Y-123928244D01*
X100328340Y-123927759D01*
X99814698Y-124139991D01*
X99421372Y-124532631D01*
X99335052Y-124740513D01*
X99250011Y-124534698D01*
X98857371Y-124141372D01*
X98344101Y-123928244D01*
X97788340Y-123927759D01*
X97274698Y-124139991D01*
X96881372Y-124532631D01*
X96795052Y-124740513D01*
X96710011Y-124534698D01*
X96317371Y-124141372D01*
X95804101Y-123928244D01*
X95248340Y-123927759D01*
X94734698Y-124139991D01*
X94341372Y-124532631D01*
X94255052Y-124740513D01*
X94170011Y-124534698D01*
X93777371Y-124141372D01*
X93264101Y-123928244D01*
X92708340Y-123927759D01*
X92194698Y-124139991D01*
X91801372Y-124532631D01*
X91715052Y-124740513D01*
X91630011Y-124534698D01*
X91237371Y-124141372D01*
X90724101Y-123928244D01*
X90168340Y-123927759D01*
X89654698Y-124139991D01*
X89261372Y-124532631D01*
X89175052Y-124740513D01*
X89090011Y-124534698D01*
X88697371Y-124141372D01*
X88184101Y-123928244D01*
X87628340Y-123927759D01*
X87114698Y-124139991D01*
X86721372Y-124532631D01*
X86635052Y-124740513D01*
X86550011Y-124534698D01*
X86157371Y-124141372D01*
X85644101Y-123928244D01*
X85088340Y-123927759D01*
X84574698Y-124139991D01*
X84181372Y-124532631D01*
X84095052Y-124740513D01*
X84010011Y-124534698D01*
X83617371Y-124141372D01*
X83104101Y-123928244D01*
X82548340Y-123927759D01*
X82034698Y-124139991D01*
X81641372Y-124532631D01*
X81555052Y-124740513D01*
X81470011Y-124534698D01*
X81077371Y-124141372D01*
X80564101Y-123928244D01*
X80008340Y-123927759D01*
X79494698Y-124139991D01*
X79101372Y-124532631D01*
X79015052Y-124740513D01*
X78930011Y-124534698D01*
X78537371Y-124141372D01*
X78024101Y-123928244D01*
X77468340Y-123927759D01*
X76954698Y-124139991D01*
X76561372Y-124532631D01*
X76475052Y-124740513D01*
X76390011Y-124534698D01*
X75997371Y-124141372D01*
X75484101Y-123928244D01*
X74928340Y-123927759D01*
X74414698Y-124139991D01*
X74021372Y-124532631D01*
X73935052Y-124740513D01*
X73850011Y-124534698D01*
X73457371Y-124141372D01*
X72944101Y-123928244D01*
X72388340Y-123927759D01*
X71874698Y-124139991D01*
X71481372Y-124532631D01*
X71395052Y-124740513D01*
X71310011Y-124534698D01*
X70917371Y-124141372D01*
X70404101Y-123928244D01*
X69848340Y-123927759D01*
X69334698Y-124139991D01*
X68941372Y-124532631D01*
X68855052Y-124740513D01*
X68770011Y-124534698D01*
X68377371Y-124141372D01*
X67864101Y-123928244D01*
X67308340Y-123927759D01*
X66794698Y-124139991D01*
X66401372Y-124532631D01*
X66315052Y-124740513D01*
X66230011Y-124534698D01*
X65837371Y-124141372D01*
X65324101Y-123928244D01*
X64768340Y-123927759D01*
X64254698Y-124139991D01*
X63861372Y-124532631D01*
X63775052Y-124740513D01*
X63690011Y-124534698D01*
X63297371Y-124141372D01*
X62784101Y-123928244D01*
X62228340Y-123927759D01*
X61714698Y-124139991D01*
X61321372Y-124532631D01*
X61235052Y-124740513D01*
X61150011Y-124534698D01*
X60757371Y-124141372D01*
X60244101Y-123928244D01*
X59688340Y-123927759D01*
X59174698Y-124139991D01*
X58781372Y-124532631D01*
X58695052Y-124740513D01*
X58610011Y-124534698D01*
X58217371Y-124141372D01*
X57704101Y-123928244D01*
X57148340Y-123927759D01*
X56634698Y-124139991D01*
X56241372Y-124532631D01*
X56155052Y-124740513D01*
X56070011Y-124534698D01*
X55677371Y-124141372D01*
X55164101Y-123928244D01*
X54608340Y-123927759D01*
X54094698Y-124139991D01*
X53701372Y-124532631D01*
X53615052Y-124740513D01*
X53530011Y-124534698D01*
X53137371Y-124141372D01*
X52624101Y-123928244D01*
X52068340Y-123927759D01*
X51554698Y-124139991D01*
X51161372Y-124532631D01*
X50948244Y-125045901D01*
X50947759Y-125601662D01*
X48387000Y-125601662D01*
X48387000Y-118827000D01*
X119253000Y-118827000D01*
X119253000Y-145243000D01*
X119253000Y-145243000D01*
G37*
X119253000Y-145243000D02*
X48387000Y-145243000D01*
X48387000Y-140841662D01*
X50947759Y-140841662D01*
X51159991Y-141355304D01*
X51552631Y-141748630D01*
X52065901Y-141961758D01*
X52621662Y-141962243D01*
X53135304Y-141750011D01*
X53528630Y-141357371D01*
X53614950Y-141149489D01*
X53699991Y-141355304D01*
X54092631Y-141748630D01*
X54605901Y-141961758D01*
X55161662Y-141962243D01*
X55675304Y-141750011D01*
X56068630Y-141357371D01*
X56154950Y-141149489D01*
X56239991Y-141355304D01*
X56632631Y-141748630D01*
X57145901Y-141961758D01*
X57701662Y-141962243D01*
X58215304Y-141750011D01*
X58608630Y-141357371D01*
X58694950Y-141149489D01*
X58779991Y-141355304D01*
X59172631Y-141748630D01*
X59685901Y-141961758D01*
X60241662Y-141962243D01*
X60755304Y-141750011D01*
X61148630Y-141357371D01*
X61234950Y-141149489D01*
X61319991Y-141355304D01*
X61712631Y-141748630D01*
X62225901Y-141961758D01*
X62781662Y-141962243D01*
X63295304Y-141750011D01*
X63688630Y-141357371D01*
X63774950Y-141149489D01*
X63859991Y-141355304D01*
X64252631Y-141748630D01*
X64765901Y-141961758D01*
X65321662Y-141962243D01*
X65835304Y-141750011D01*
X66228630Y-141357371D01*
X66314950Y-141149489D01*
X66399991Y-141355304D01*
X66792631Y-141748630D01*
X67305901Y-141961758D01*
X67861662Y-141962243D01*
X68375304Y-141750011D01*
X68768630Y-141357371D01*
X68854950Y-141149489D01*
X68939991Y-141355304D01*
X69332631Y-141748630D01*
X69845901Y-141961758D01*
X70401662Y-141962243D01*
X70915304Y-141750011D01*
X71308630Y-141357371D01*
X71394950Y-141149489D01*
X71479991Y-141355304D01*
X71872631Y-141748630D01*
X72385901Y-141961758D01*
X72941662Y-141962243D01*
X73455304Y-141750011D01*
X73848630Y-141357371D01*
X73934950Y-141149489D01*
X74019991Y-141355304D01*
X74412631Y-141748630D01*
X74925901Y-141961758D01*
X75481662Y-141962243D01*
X75995304Y-141750011D01*
X76388630Y-141357371D01*
X76474950Y-141149489D01*
X76559991Y-141355304D01*
X76952631Y-141748630D01*
X77465901Y-141961758D01*
X78021662Y-141962243D01*
X78535304Y-141750011D01*
X78928630Y-141357371D01*
X79014950Y-141149489D01*
X79099991Y-141355304D01*
X79492631Y-141748630D01*
X80005901Y-141961758D01*
X80561662Y-141962243D01*
X81075304Y-141750011D01*
X81468630Y-141357371D01*
X81554950Y-141149489D01*
X81639991Y-141355304D01*
X82032631Y-141748630D01*
X82545901Y-141961758D01*
X83101662Y-141962243D01*
X83615304Y-141750011D01*
X84008630Y-141357371D01*
X84094950Y-141149489D01*
X84179991Y-141355304D01*
X84572631Y-141748630D01*
X85085901Y-141961758D01*
X85641662Y-141962243D01*
X86155304Y-141750011D01*
X86548630Y-141357371D01*
X86634950Y-141149489D01*
X86719991Y-141355304D01*
X87112631Y-141748630D01*
X87625901Y-141961758D01*
X88181662Y-141962243D01*
X88695304Y-141750011D01*
X89088630Y-141357371D01*
X89174950Y-141149489D01*
X89259991Y-141355304D01*
X89652631Y-141748630D01*
X90165901Y-141961758D01*
X90721662Y-141962243D01*
X91235304Y-141750011D01*
X91628630Y-141357371D01*
X91714950Y-141149489D01*
X91799991Y-141355304D01*
X92192631Y-141748630D01*
X92705901Y-141961758D01*
X93261662Y-141962243D01*
X93775304Y-141750011D01*
X94168630Y-141357371D01*
X94254950Y-141149489D01*
X94339991Y-141355304D01*
X94732631Y-141748630D01*
X95245901Y-141961758D01*
X95801662Y-141962243D01*
X96315304Y-141750011D01*
X96520458Y-141545214D01*
X97264393Y-141545214D01*
X97333858Y-141787398D01*
X97857303Y-141974145D01*
X98412369Y-141946363D01*
X98796144Y-141787398D01*
X98865609Y-141545214D01*
X98065001Y-140744606D01*
X97264393Y-141545214D01*
X96520458Y-141545214D01*
X96708630Y-141357371D01*
X96788396Y-141165274D01*
X96842604Y-141296144D01*
X97084788Y-141365609D01*
X97885396Y-140565001D01*
X98244606Y-140565001D01*
X99045214Y-141365609D01*
X99287398Y-141296144D01*
X99337510Y-141155683D01*
X99419991Y-141355304D01*
X99812631Y-141748630D01*
X100325901Y-141961758D01*
X100881662Y-141962243D01*
X101395304Y-141750011D01*
X101788630Y-141357371D01*
X102001758Y-140844101D01*
X102002243Y-140288340D01*
X101790011Y-139774698D01*
X101397371Y-139381372D01*
X100884101Y-139168244D01*
X100328340Y-139167759D01*
X99814698Y-139379991D01*
X99421372Y-139772631D01*
X99341606Y-139964728D01*
X99287398Y-139833858D01*
X99045214Y-139764393D01*
X98244606Y-140565001D01*
X97885396Y-140565001D01*
X97084788Y-139764393D01*
X96842604Y-139833858D01*
X96792492Y-139974319D01*
X96710011Y-139774698D01*
X96520433Y-139584788D01*
X97264393Y-139584788D01*
X98065001Y-140385396D01*
X98865609Y-139584788D01*
X98796144Y-139342604D01*
X98272699Y-139155857D01*
X97717633Y-139183639D01*
X97333858Y-139342604D01*
X97264393Y-139584788D01*
X96520433Y-139584788D01*
X96317371Y-139381372D01*
X95804101Y-139168244D01*
X95248340Y-139167759D01*
X94734698Y-139379991D01*
X94341372Y-139772631D01*
X94255052Y-139980513D01*
X94170011Y-139774698D01*
X93777371Y-139381372D01*
X93264101Y-139168244D01*
X92708340Y-139167759D01*
X92194698Y-139379991D01*
X91801372Y-139772631D01*
X91715052Y-139980513D01*
X91630011Y-139774698D01*
X91237371Y-139381372D01*
X90724101Y-139168244D01*
X90168340Y-139167759D01*
X89654698Y-139379991D01*
X89261372Y-139772631D01*
X89175052Y-139980513D01*
X89090011Y-139774698D01*
X88697371Y-139381372D01*
X88184101Y-139168244D01*
X87628340Y-139167759D01*
X87114698Y-139379991D01*
X86721372Y-139772631D01*
X86635052Y-139980513D01*
X86550011Y-139774698D01*
X86157371Y-139381372D01*
X85644101Y-139168244D01*
X85088340Y-139167759D01*
X84574698Y-139379991D01*
X84181372Y-139772631D01*
X84095052Y-139980513D01*
X84010011Y-139774698D01*
X83617371Y-139381372D01*
X83104101Y-139168244D01*
X82548340Y-139167759D01*
X82034698Y-139379991D01*
X81641372Y-139772631D01*
X81555052Y-139980513D01*
X81470011Y-139774698D01*
X81077371Y-139381372D01*
X80564101Y-139168244D01*
X80008340Y-139167759D01*
X79494698Y-139379991D01*
X79101372Y-139772631D01*
X79015052Y-139980513D01*
X78930011Y-139774698D01*
X78537371Y-139381372D01*
X78024101Y-139168244D01*
X77468340Y-139167759D01*
X76954698Y-139379991D01*
X76561372Y-139772631D01*
X76475052Y-139980513D01*
X76390011Y-139774698D01*
X75997371Y-139381372D01*
X75484101Y-139168244D01*
X74928340Y-139167759D01*
X74414698Y-139379991D01*
X74021372Y-139772631D01*
X73935052Y-139980513D01*
X73850011Y-139774698D01*
X73457371Y-139381372D01*
X72944101Y-139168244D01*
X72388340Y-139167759D01*
X71874698Y-139379991D01*
X71481372Y-139772631D01*
X71395052Y-139980513D01*
X71310011Y-139774698D01*
X70917371Y-139381372D01*
X70404101Y-139168244D01*
X69848340Y-139167759D01*
X69334698Y-139379991D01*
X68941372Y-139772631D01*
X68855052Y-139980513D01*
X68770011Y-139774698D01*
X68377371Y-139381372D01*
X67864101Y-139168244D01*
X67308340Y-139167759D01*
X66794698Y-139379991D01*
X66401372Y-139772631D01*
X66315052Y-139980513D01*
X66230011Y-139774698D01*
X65837371Y-139381372D01*
X65324101Y-139168244D01*
X64768340Y-139167759D01*
X64254698Y-139379991D01*
X63861372Y-139772631D01*
X63775052Y-139980513D01*
X63690011Y-139774698D01*
X63297371Y-139381372D01*
X62784101Y-139168244D01*
X62228340Y-139167759D01*
X61714698Y-139379991D01*
X61321372Y-139772631D01*
X61235052Y-139980513D01*
X61150011Y-139774698D01*
X60757371Y-139381372D01*
X60244101Y-139168244D01*
X59688340Y-139167759D01*
X59174698Y-139379991D01*
X58781372Y-139772631D01*
X58695052Y-139980513D01*
X58610011Y-139774698D01*
X58217371Y-139381372D01*
X57704101Y-139168244D01*
X57148340Y-139167759D01*
X56634698Y-139379991D01*
X56241372Y-139772631D01*
X56155052Y-139980513D01*
X56070011Y-139774698D01*
X55677371Y-139381372D01*
X55164101Y-139168244D01*
X54608340Y-139167759D01*
X54094698Y-139379991D01*
X53701372Y-139772631D01*
X53615052Y-139980513D01*
X53530011Y-139774698D01*
X53137371Y-139381372D01*
X52624101Y-139168244D01*
X52068340Y-139167759D01*
X51554698Y-139379991D01*
X51161372Y-139772631D01*
X50948244Y-140285901D01*
X50947759Y-140841662D01*
X48387000Y-140841662D01*
X48387000Y-131400000D01*
X108975907Y-131400000D01*
X109088946Y-131968285D01*
X109410853Y-132450054D01*
X109740026Y-132670000D01*
X109410853Y-132889946D01*
X109088946Y-133371715D01*
X108975907Y-133940000D01*
X109088946Y-134508285D01*
X109410853Y-134990054D01*
X109892622Y-135311961D01*
X110460907Y-135425000D01*
X110519093Y-135425000D01*
X111087378Y-135311961D01*
X111569147Y-134990054D01*
X111758345Y-134706899D01*
X111758355Y-134706924D01*
X112148642Y-135135183D01*
X112673108Y-135381486D01*
X112903000Y-135260819D01*
X112903000Y-134067000D01*
X113157000Y-134067000D01*
X113157000Y-135260819D01*
X113386892Y-135381486D01*
X113911358Y-135135183D01*
X114301645Y-134706924D01*
X114471476Y-134296890D01*
X114350155Y-134067000D01*
X113157000Y-134067000D01*
X112903000Y-134067000D01*
X112883000Y-134067000D01*
X112883000Y-133813000D01*
X112903000Y-133813000D01*
X112903000Y-133793000D01*
X113157000Y-133793000D01*
X113157000Y-133813000D01*
X114350155Y-133813000D01*
X114471476Y-133583110D01*
X114301645Y-133173076D01*
X113911358Y-132744817D01*
X113768447Y-132677702D01*
X114109147Y-132450054D01*
X114302954Y-132160000D01*
X115570000Y-132160000D01*
X115860839Y-132102148D01*
X116107401Y-131937401D01*
X117377401Y-130667401D01*
X117542148Y-130420840D01*
X117600000Y-130130000D01*
X117600000Y-125612463D01*
X117632192Y-125580327D01*
X117774838Y-125236799D01*
X117775162Y-124864833D01*
X117633117Y-124521057D01*
X117370327Y-124257808D01*
X117026799Y-124115162D01*
X116654833Y-124114838D01*
X116311057Y-124256883D01*
X116047808Y-124519673D01*
X115905162Y-124863201D01*
X115904838Y-125235167D01*
X116046883Y-125578943D01*
X116080000Y-125612118D01*
X116080000Y-129815198D01*
X115255198Y-130640000D01*
X114302954Y-130640000D01*
X114109147Y-130349946D01*
X113779974Y-130130000D01*
X114109147Y-129910054D01*
X114431054Y-129428285D01*
X114544093Y-128860000D01*
X114431054Y-128291715D01*
X114109147Y-127809946D01*
X113627378Y-127488039D01*
X113059093Y-127375000D01*
X113000907Y-127375000D01*
X112432622Y-127488039D01*
X111950853Y-127809946D01*
X111950029Y-127811179D01*
X111943162Y-127774683D01*
X111804090Y-127558559D01*
X111591890Y-127413569D01*
X111340000Y-127362560D01*
X109640000Y-127362560D01*
X109404683Y-127406838D01*
X109188559Y-127545910D01*
X109043569Y-127758110D01*
X108992560Y-128010000D01*
X108992560Y-129710000D01*
X109036838Y-129945317D01*
X109175910Y-130161441D01*
X109388110Y-130306431D01*
X109455541Y-130320086D01*
X109410853Y-130349946D01*
X109088946Y-130831715D01*
X108975907Y-131400000D01*
X48387000Y-131400000D01*
X48387000Y-125601662D01*
X50947759Y-125601662D01*
X51159991Y-126115304D01*
X51552631Y-126508630D01*
X52065901Y-126721758D01*
X52621662Y-126722243D01*
X53135304Y-126510011D01*
X53528630Y-126117371D01*
X53614950Y-125909489D01*
X53699991Y-126115304D01*
X54092631Y-126508630D01*
X54605901Y-126721758D01*
X55161662Y-126722243D01*
X55675304Y-126510011D01*
X56068630Y-126117371D01*
X56154950Y-125909489D01*
X56239991Y-126115304D01*
X56632631Y-126508630D01*
X57145901Y-126721758D01*
X57701662Y-126722243D01*
X58215304Y-126510011D01*
X58608630Y-126117371D01*
X58694950Y-125909489D01*
X58779991Y-126115304D01*
X59172631Y-126508630D01*
X59685901Y-126721758D01*
X60241662Y-126722243D01*
X60755304Y-126510011D01*
X61148630Y-126117371D01*
X61234950Y-125909489D01*
X61319991Y-126115304D01*
X61712631Y-126508630D01*
X62225901Y-126721758D01*
X62781662Y-126722243D01*
X63295304Y-126510011D01*
X63688630Y-126117371D01*
X63774950Y-125909489D01*
X63859991Y-126115304D01*
X64252631Y-126508630D01*
X64765901Y-126721758D01*
X65321662Y-126722243D01*
X65835304Y-126510011D01*
X66228630Y-126117371D01*
X66314950Y-125909489D01*
X66399991Y-126115304D01*
X66792631Y-126508630D01*
X67305901Y-126721758D01*
X67861662Y-126722243D01*
X68375304Y-126510011D01*
X68768630Y-126117371D01*
X68854950Y-125909489D01*
X68939991Y-126115304D01*
X69332631Y-126508630D01*
X69845901Y-126721758D01*
X70401662Y-126722243D01*
X70915304Y-126510011D01*
X71308630Y-126117371D01*
X71394950Y-125909489D01*
X71479991Y-126115304D01*
X71872631Y-126508630D01*
X72385901Y-126721758D01*
X72941662Y-126722243D01*
X73455304Y-126510011D01*
X73848630Y-126117371D01*
X73934950Y-125909489D01*
X74019991Y-126115304D01*
X74412631Y-126508630D01*
X74925901Y-126721758D01*
X75481662Y-126722243D01*
X75995304Y-126510011D01*
X76388630Y-126117371D01*
X76474950Y-125909489D01*
X76559991Y-126115304D01*
X76952631Y-126508630D01*
X77465901Y-126721758D01*
X78021662Y-126722243D01*
X78535304Y-126510011D01*
X78928630Y-126117371D01*
X79014950Y-125909489D01*
X79099991Y-126115304D01*
X79492631Y-126508630D01*
X80005901Y-126721758D01*
X80561662Y-126722243D01*
X81075304Y-126510011D01*
X81468630Y-126117371D01*
X81554950Y-125909489D01*
X81639991Y-126115304D01*
X82032631Y-126508630D01*
X82545901Y-126721758D01*
X83101662Y-126722243D01*
X83615304Y-126510011D01*
X84008630Y-126117371D01*
X84094950Y-125909489D01*
X84179991Y-126115304D01*
X84572631Y-126508630D01*
X85085901Y-126721758D01*
X85641662Y-126722243D01*
X86155304Y-126510011D01*
X86548630Y-126117371D01*
X86634950Y-125909489D01*
X86719991Y-126115304D01*
X87112631Y-126508630D01*
X87625901Y-126721758D01*
X88181662Y-126722243D01*
X88695304Y-126510011D01*
X89088630Y-126117371D01*
X89174950Y-125909489D01*
X89259991Y-126115304D01*
X89652631Y-126508630D01*
X90165901Y-126721758D01*
X90721662Y-126722243D01*
X91235304Y-126510011D01*
X91628630Y-126117371D01*
X91714950Y-125909489D01*
X91799991Y-126115304D01*
X92192631Y-126508630D01*
X92705901Y-126721758D01*
X93261662Y-126722243D01*
X93775304Y-126510011D01*
X94168630Y-126117371D01*
X94254950Y-125909489D01*
X94339991Y-126115304D01*
X94732631Y-126508630D01*
X95245901Y-126721758D01*
X95801662Y-126722243D01*
X96315304Y-126510011D01*
X96708630Y-126117371D01*
X96794950Y-125909489D01*
X96879991Y-126115304D01*
X97272631Y-126508630D01*
X97785901Y-126721758D01*
X98341662Y-126722243D01*
X98855304Y-126510011D01*
X99248630Y-126117371D01*
X99334950Y-125909489D01*
X99419991Y-126115304D01*
X99812631Y-126508630D01*
X100325901Y-126721758D01*
X100881662Y-126722243D01*
X101395304Y-126510011D01*
X101788630Y-126117371D01*
X102001758Y-125604101D01*
X102002243Y-125048340D01*
X101790011Y-124534698D01*
X101397371Y-124141372D01*
X100884101Y-123928244D01*
X100328340Y-123927759D01*
X99814698Y-124139991D01*
X99421372Y-124532631D01*
X99335052Y-124740513D01*
X99250011Y-124534698D01*
X98857371Y-124141372D01*
X98344101Y-123928244D01*
X97788340Y-123927759D01*
X97274698Y-124139991D01*
X96881372Y-124532631D01*
X96795052Y-124740513D01*
X96710011Y-124534698D01*
X96317371Y-124141372D01*
X95804101Y-123928244D01*
X95248340Y-123927759D01*
X94734698Y-124139991D01*
X94341372Y-124532631D01*
X94255052Y-124740513D01*
X94170011Y-124534698D01*
X93777371Y-124141372D01*
X93264101Y-123928244D01*
X92708340Y-123927759D01*
X92194698Y-124139991D01*
X91801372Y-124532631D01*
X91715052Y-124740513D01*
X91630011Y-124534698D01*
X91237371Y-124141372D01*
X90724101Y-123928244D01*
X90168340Y-123927759D01*
X89654698Y-124139991D01*
X89261372Y-124532631D01*
X89175052Y-124740513D01*
X89090011Y-124534698D01*
X88697371Y-124141372D01*
X88184101Y-123928244D01*
X87628340Y-123927759D01*
X87114698Y-124139991D01*
X86721372Y-124532631D01*
X86635052Y-124740513D01*
X86550011Y-124534698D01*
X86157371Y-124141372D01*
X85644101Y-123928244D01*
X85088340Y-123927759D01*
X84574698Y-124139991D01*
X84181372Y-124532631D01*
X84095052Y-124740513D01*
X84010011Y-124534698D01*
X83617371Y-124141372D01*
X83104101Y-123928244D01*
X82548340Y-123927759D01*
X82034698Y-124139991D01*
X81641372Y-124532631D01*
X81555052Y-124740513D01*
X81470011Y-124534698D01*
X81077371Y-124141372D01*
X80564101Y-123928244D01*
X80008340Y-123927759D01*
X79494698Y-124139991D01*
X79101372Y-124532631D01*
X79015052Y-124740513D01*
X78930011Y-124534698D01*
X78537371Y-124141372D01*
X78024101Y-123928244D01*
X77468340Y-123927759D01*
X76954698Y-124139991D01*
X76561372Y-124532631D01*
X76475052Y-124740513D01*
X76390011Y-124534698D01*
X75997371Y-124141372D01*
X75484101Y-123928244D01*
X74928340Y-123927759D01*
X74414698Y-124139991D01*
X74021372Y-124532631D01*
X73935052Y-124740513D01*
X73850011Y-124534698D01*
X73457371Y-124141372D01*
X72944101Y-123928244D01*
X72388340Y-123927759D01*
X71874698Y-124139991D01*
X71481372Y-124532631D01*
X71395052Y-124740513D01*
X71310011Y-124534698D01*
X70917371Y-124141372D01*
X70404101Y-123928244D01*
X69848340Y-123927759D01*
X69334698Y-124139991D01*
X68941372Y-124532631D01*
X68855052Y-124740513D01*
X68770011Y-124534698D01*
X68377371Y-124141372D01*
X67864101Y-123928244D01*
X67308340Y-123927759D01*
X66794698Y-124139991D01*
X66401372Y-124532631D01*
X66315052Y-124740513D01*
X66230011Y-124534698D01*
X65837371Y-124141372D01*
X65324101Y-123928244D01*
X64768340Y-123927759D01*
X64254698Y-124139991D01*
X63861372Y-124532631D01*
X63775052Y-124740513D01*
X63690011Y-124534698D01*
X63297371Y-124141372D01*
X62784101Y-123928244D01*
X62228340Y-123927759D01*
X61714698Y-124139991D01*
X61321372Y-124532631D01*
X61235052Y-124740513D01*
X61150011Y-124534698D01*
X60757371Y-124141372D01*
X60244101Y-123928244D01*
X59688340Y-123927759D01*
X59174698Y-124139991D01*
X58781372Y-124532631D01*
X58695052Y-124740513D01*
X58610011Y-124534698D01*
X58217371Y-124141372D01*
X57704101Y-123928244D01*
X57148340Y-123927759D01*
X56634698Y-124139991D01*
X56241372Y-124532631D01*
X56155052Y-124740513D01*
X56070011Y-124534698D01*
X55677371Y-124141372D01*
X55164101Y-123928244D01*
X54608340Y-123927759D01*
X54094698Y-124139991D01*
X53701372Y-124532631D01*
X53615052Y-124740513D01*
X53530011Y-124534698D01*
X53137371Y-124141372D01*
X52624101Y-123928244D01*
X52068340Y-123927759D01*
X51554698Y-124139991D01*
X51161372Y-124532631D01*
X50948244Y-125045901D01*
X50947759Y-125601662D01*
X48387000Y-125601662D01*
X48387000Y-118827000D01*
X119253000Y-118827000D01*
X119253000Y-145243000D01*
G36*
X119253000Y-80563000D02*
X48387000Y-80563000D01*
X48387000Y-76161662D01*
X50947759Y-76161662D01*
X51159991Y-76675304D01*
X51552631Y-77068630D01*
X52065901Y-77281758D01*
X52621662Y-77282243D01*
X53135304Y-77070011D01*
X53528630Y-76677371D01*
X53614950Y-76469489D01*
X53699991Y-76675304D01*
X54092631Y-77068630D01*
X54605901Y-77281758D01*
X55161662Y-77282243D01*
X55675304Y-77070011D01*
X56068630Y-76677371D01*
X56154950Y-76469489D01*
X56239991Y-76675304D01*
X56632631Y-77068630D01*
X57145901Y-77281758D01*
X57701662Y-77282243D01*
X58215304Y-77070011D01*
X58608630Y-76677371D01*
X58694950Y-76469489D01*
X58779991Y-76675304D01*
X59172631Y-77068630D01*
X59685901Y-77281758D01*
X60241662Y-77282243D01*
X60755304Y-77070011D01*
X61148630Y-76677371D01*
X61234950Y-76469489D01*
X61319991Y-76675304D01*
X61712631Y-77068630D01*
X62225901Y-77281758D01*
X62781662Y-77282243D01*
X63295304Y-77070011D01*
X63688630Y-76677371D01*
X63774950Y-76469489D01*
X63859991Y-76675304D01*
X64252631Y-77068630D01*
X64765901Y-77281758D01*
X65321662Y-77282243D01*
X65835304Y-77070011D01*
X66228630Y-76677371D01*
X66314950Y-76469489D01*
X66399991Y-76675304D01*
X66792631Y-77068630D01*
X67305901Y-77281758D01*
X67861662Y-77282243D01*
X68375304Y-77070011D01*
X68768630Y-76677371D01*
X68854950Y-76469489D01*
X68939991Y-76675304D01*
X69332631Y-77068630D01*
X69845901Y-77281758D01*
X70401662Y-77282243D01*
X70915304Y-77070011D01*
X71308630Y-76677371D01*
X71394950Y-76469489D01*
X71479991Y-76675304D01*
X71872631Y-77068630D01*
X72385901Y-77281758D01*
X72941662Y-77282243D01*
X73455304Y-77070011D01*
X73848630Y-76677371D01*
X73934950Y-76469489D01*
X74019991Y-76675304D01*
X74412631Y-77068630D01*
X74925901Y-77281758D01*
X75481662Y-77282243D01*
X75995304Y-77070011D01*
X76388630Y-76677371D01*
X76474950Y-76469489D01*
X76559991Y-76675304D01*
X76952631Y-77068630D01*
X77465901Y-77281758D01*
X78021662Y-77282243D01*
X78535304Y-77070011D01*
X78928630Y-76677371D01*
X79014950Y-76469489D01*
X79099991Y-76675304D01*
X79492631Y-77068630D01*
X80005901Y-77281758D01*
X80561662Y-77282243D01*
X81075304Y-77070011D01*
X81468630Y-76677371D01*
X81554950Y-76469489D01*
X81639991Y-76675304D01*
X82032631Y-77068630D01*
X82545901Y-77281758D01*
X83101662Y-77282243D01*
X83615304Y-77070011D01*
X84008630Y-76677371D01*
X84094950Y-76469489D01*
X84179991Y-76675304D01*
X84572631Y-77068630D01*
X85085901Y-77281758D01*
X85641662Y-77282243D01*
X86155304Y-77070011D01*
X86548630Y-76677371D01*
X86634950Y-76469489D01*
X86719991Y-76675304D01*
X87112631Y-77068630D01*
X87625901Y-77281758D01*
X88181662Y-77282243D01*
X88695304Y-77070011D01*
X89088630Y-76677371D01*
X89174950Y-76469489D01*
X89259991Y-76675304D01*
X89652631Y-77068630D01*
X90165901Y-77281758D01*
X90721662Y-77282243D01*
X91235304Y-77070011D01*
X91628630Y-76677371D01*
X91714950Y-76469489D01*
X91799991Y-76675304D01*
X92192631Y-77068630D01*
X92705901Y-77281758D01*
X93261662Y-77282243D01*
X93775304Y-77070011D01*
X94168630Y-76677371D01*
X94254950Y-76469489D01*
X94339991Y-76675304D01*
X94732631Y-77068630D01*
X95245901Y-77281758D01*
X95801662Y-77282243D01*
X96315304Y-77070011D01*
X96520458Y-76865214D01*
X97264393Y-76865214D01*
X97333858Y-77107398D01*
X97857303Y-77294145D01*
X98412369Y-77266363D01*
X98796144Y-77107398D01*
X98865609Y-76865214D01*
X98065001Y-76064606D01*
X97264393Y-76865214D01*
X96520458Y-76865214D01*
X96708630Y-76677371D01*
X96788396Y-76485274D01*
X96842604Y-76616144D01*
X97084788Y-76685609D01*
X97885396Y-75885001D01*
X98244606Y-75885001D01*
X99045214Y-76685609D01*
X99287398Y-76616144D01*
X99337510Y-76475683D01*
X99419991Y-76675304D01*
X99812631Y-77068630D01*
X100325901Y-77281758D01*
X100881662Y-77282243D01*
X101395304Y-77070011D01*
X101788630Y-76677371D01*
X102001758Y-76164101D01*
X102002243Y-75608340D01*
X101790011Y-75094698D01*
X101397371Y-74701372D01*
X100884101Y-74488244D01*
X100328340Y-74487759D01*
X99814698Y-74699991D01*
X99421372Y-75092631D01*
X99341606Y-75284728D01*
X99287398Y-75153858D01*
X99045214Y-75084393D01*
X98244606Y-75885001D01*
X97885396Y-75885001D01*
X97084788Y-75084393D01*
X96842604Y-75153858D01*
X96792492Y-75294319D01*
X96710011Y-75094698D01*
X96520433Y-74904788D01*
X97264393Y-74904788D01*
X98065001Y-75705396D01*
X98865609Y-74904788D01*
X98796144Y-74662604D01*
X98272699Y-74475857D01*
X97717633Y-74503639D01*
X97333858Y-74662604D01*
X97264393Y-74904788D01*
X96520433Y-74904788D01*
X96317371Y-74701372D01*
X95804101Y-74488244D01*
X95248340Y-74487759D01*
X94734698Y-74699991D01*
X94341372Y-75092631D01*
X94255052Y-75300513D01*
X94170011Y-75094698D01*
X93777371Y-74701372D01*
X93264101Y-74488244D01*
X92708340Y-74487759D01*
X92194698Y-74699991D01*
X91801372Y-75092631D01*
X91715052Y-75300513D01*
X91630011Y-75094698D01*
X91237371Y-74701372D01*
X90724101Y-74488244D01*
X90168340Y-74487759D01*
X89654698Y-74699991D01*
X89261372Y-75092631D01*
X89175052Y-75300513D01*
X89090011Y-75094698D01*
X88697371Y-74701372D01*
X88184101Y-74488244D01*
X87628340Y-74487759D01*
X87114698Y-74699991D01*
X86721372Y-75092631D01*
X86635052Y-75300513D01*
X86550011Y-75094698D01*
X86157371Y-74701372D01*
X85644101Y-74488244D01*
X85088340Y-74487759D01*
X84574698Y-74699991D01*
X84181372Y-75092631D01*
X84095052Y-75300513D01*
X84010011Y-75094698D01*
X83617371Y-74701372D01*
X83104101Y-74488244D01*
X82548340Y-74487759D01*
X82034698Y-74699991D01*
X81641372Y-75092631D01*
X81555052Y-75300513D01*
X81470011Y-75094698D01*
X81077371Y-74701372D01*
X80564101Y-74488244D01*
X80008340Y-74487759D01*
X79494698Y-74699991D01*
X79101372Y-75092631D01*
X79015052Y-75300513D01*
X78930011Y-75094698D01*
X78537371Y-74701372D01*
X78024101Y-74488244D01*
X77468340Y-74487759D01*
X76954698Y-74699991D01*
X76561372Y-75092631D01*
X76475052Y-75300513D01*
X76390011Y-75094698D01*
X75997371Y-74701372D01*
X75484101Y-74488244D01*
X74928340Y-74487759D01*
X74414698Y-74699991D01*
X74021372Y-75092631D01*
X73935052Y-75300513D01*
X73850011Y-75094698D01*
X73457371Y-74701372D01*
X72944101Y-74488244D01*
X72388340Y-74487759D01*
X71874698Y-74699991D01*
X71481372Y-75092631D01*
X71395052Y-75300513D01*
X71310011Y-75094698D01*
X70917371Y-74701372D01*
X70404101Y-74488244D01*
X69848340Y-74487759D01*
X69334698Y-74699991D01*
X68941372Y-75092631D01*
X68855052Y-75300513D01*
X68770011Y-75094698D01*
X68377371Y-74701372D01*
X67864101Y-74488244D01*
X67308340Y-74487759D01*
X66794698Y-74699991D01*
X66401372Y-75092631D01*
X66315052Y-75300513D01*
X66230011Y-75094698D01*
X65837371Y-74701372D01*
X65324101Y-74488244D01*
X64768340Y-74487759D01*
X64254698Y-74699991D01*
X63861372Y-75092631D01*
X63775052Y-75300513D01*
X63690011Y-75094698D01*
X63297371Y-74701372D01*
X62784101Y-74488244D01*
X62228340Y-74487759D01*
X61714698Y-74699991D01*
X61321372Y-75092631D01*
X61235052Y-75300513D01*
X61150011Y-75094698D01*
X60757371Y-74701372D01*
X60244101Y-74488244D01*
X59688340Y-74487759D01*
X59174698Y-74699991D01*
X58781372Y-75092631D01*
X58695052Y-75300513D01*
X58610011Y-75094698D01*
X58217371Y-74701372D01*
X57704101Y-74488244D01*
X57148340Y-74487759D01*
X56634698Y-74699991D01*
X56241372Y-75092631D01*
X56155052Y-75300513D01*
X56070011Y-75094698D01*
X55677371Y-74701372D01*
X55164101Y-74488244D01*
X54608340Y-74487759D01*
X54094698Y-74699991D01*
X53701372Y-75092631D01*
X53615052Y-75300513D01*
X53530011Y-75094698D01*
X53137371Y-74701372D01*
X52624101Y-74488244D01*
X52068340Y-74487759D01*
X51554698Y-74699991D01*
X51161372Y-75092631D01*
X50948244Y-75605901D01*
X50947759Y-76161662D01*
X48387000Y-76161662D01*
X48387000Y-66720000D01*
X108975907Y-66720000D01*
X109088946Y-67288285D01*
X109410853Y-67770054D01*
X109740026Y-67990000D01*
X109410853Y-68209946D01*
X109088946Y-68691715D01*
X108975907Y-69260000D01*
X109088946Y-69828285D01*
X109410853Y-70310054D01*
X109892622Y-70631961D01*
X110460907Y-70745000D01*
X110519093Y-70745000D01*
X111087378Y-70631961D01*
X111569147Y-70310054D01*
X111758345Y-70026899D01*
X111758355Y-70026924D01*
X112148642Y-70455183D01*
X112673108Y-70701486D01*
X112903000Y-70580819D01*
X112903000Y-69387000D01*
X113157000Y-69387000D01*
X113157000Y-70580819D01*
X113386892Y-70701486D01*
X113911358Y-70455183D01*
X114301645Y-70026924D01*
X114471476Y-69616890D01*
X114350155Y-69387000D01*
X113157000Y-69387000D01*
X112903000Y-69387000D01*
X112883000Y-69387000D01*
X112883000Y-69133000D01*
X112903000Y-69133000D01*
X112903000Y-69113000D01*
X113157000Y-69113000D01*
X113157000Y-69133000D01*
X114350155Y-69133000D01*
X114471476Y-68903110D01*
X114301645Y-68493076D01*
X113911358Y-68064817D01*
X113768447Y-67997702D01*
X114109147Y-67770054D01*
X114302954Y-67480000D01*
X115570000Y-67480000D01*
X115860839Y-67422148D01*
X116107401Y-67257401D01*
X117377401Y-65987401D01*
X117542148Y-65740840D01*
X117600000Y-65450000D01*
X117600000Y-60932463D01*
X117632192Y-60900327D01*
X117774838Y-60556799D01*
X117775162Y-60184833D01*
X117633117Y-59841057D01*
X117370327Y-59577808D01*
X117026799Y-59435162D01*
X116654833Y-59434838D01*
X116311057Y-59576883D01*
X116047808Y-59839673D01*
X115905162Y-60183201D01*
X115904838Y-60555167D01*
X116046883Y-60898943D01*
X116080000Y-60932118D01*
X116080000Y-65135198D01*
X115255198Y-65960000D01*
X114302954Y-65960000D01*
X114109147Y-65669946D01*
X113779974Y-65450000D01*
X114109147Y-65230054D01*
X114431054Y-64748285D01*
X114544093Y-64180000D01*
X114431054Y-63611715D01*
X114109147Y-63129946D01*
X113627378Y-62808039D01*
X113059093Y-62695000D01*
X113000907Y-62695000D01*
X112432622Y-62808039D01*
X111950853Y-63129946D01*
X111950029Y-63131179D01*
X111943162Y-63094683D01*
X111804090Y-62878559D01*
X111591890Y-62733569D01*
X111340000Y-62682560D01*
X109640000Y-62682560D01*
X109404683Y-62726838D01*
X109188559Y-62865910D01*
X109043569Y-63078110D01*
X108992560Y-63330000D01*
X108992560Y-65030000D01*
X109036838Y-65265317D01*
X109175910Y-65481441D01*
X109388110Y-65626431D01*
X109455541Y-65640086D01*
X109410853Y-65669946D01*
X109088946Y-66151715D01*
X108975907Y-66720000D01*
X48387000Y-66720000D01*
X48387000Y-60921662D01*
X50947759Y-60921662D01*
X51159991Y-61435304D01*
X51552631Y-61828630D01*
X52065901Y-62041758D01*
X52621662Y-62042243D01*
X53135304Y-61830011D01*
X53528630Y-61437371D01*
X53614950Y-61229489D01*
X53699991Y-61435304D01*
X54092631Y-61828630D01*
X54605901Y-62041758D01*
X55161662Y-62042243D01*
X55675304Y-61830011D01*
X56068630Y-61437371D01*
X56154950Y-61229489D01*
X56239991Y-61435304D01*
X56632631Y-61828630D01*
X57145901Y-62041758D01*
X57701662Y-62042243D01*
X58215304Y-61830011D01*
X58608630Y-61437371D01*
X58694950Y-61229489D01*
X58779991Y-61435304D01*
X59172631Y-61828630D01*
X59685901Y-62041758D01*
X60241662Y-62042243D01*
X60755304Y-61830011D01*
X61148630Y-61437371D01*
X61234950Y-61229489D01*
X61319991Y-61435304D01*
X61712631Y-61828630D01*
X62225901Y-62041758D01*
X62781662Y-62042243D01*
X63295304Y-61830011D01*
X63688630Y-61437371D01*
X63774950Y-61229489D01*
X63859991Y-61435304D01*
X64252631Y-61828630D01*
X64765901Y-62041758D01*
X65321662Y-62042243D01*
X65835304Y-61830011D01*
X66228630Y-61437371D01*
X66314950Y-61229489D01*
X66399991Y-61435304D01*
X66792631Y-61828630D01*
X67305901Y-62041758D01*
X67861662Y-62042243D01*
X68375304Y-61830011D01*
X68768630Y-61437371D01*
X68854950Y-61229489D01*
X68939991Y-61435304D01*
X69332631Y-61828630D01*
X69845901Y-62041758D01*
X70401662Y-62042243D01*
X70915304Y-61830011D01*
X71308630Y-61437371D01*
X71394950Y-61229489D01*
X71479991Y-61435304D01*
X71872631Y-61828630D01*
X72385901Y-62041758D01*
X72941662Y-62042243D01*
X73455304Y-61830011D01*
X73848630Y-61437371D01*
X73934950Y-61229489D01*
X74019991Y-61435304D01*
X74412631Y-61828630D01*
X74925901Y-62041758D01*
X75481662Y-62042243D01*
X75995304Y-61830011D01*
X76388630Y-61437371D01*
X76474950Y-61229489D01*
X76559991Y-61435304D01*
X76952631Y-61828630D01*
X77465901Y-62041758D01*
X78021662Y-62042243D01*
X78535304Y-61830011D01*
X78928630Y-61437371D01*
X79014950Y-61229489D01*
X79099991Y-61435304D01*
X79492631Y-61828630D01*
X80005901Y-62041758D01*
X80561662Y-62042243D01*
X81075304Y-61830011D01*
X81468630Y-61437371D01*
X81554950Y-61229489D01*
X81639991Y-61435304D01*
X82032631Y-61828630D01*
X82545901Y-62041758D01*
X83101662Y-62042243D01*
X83615304Y-61830011D01*
X84008630Y-61437371D01*
X84094950Y-61229489D01*
X84179991Y-61435304D01*
X84572631Y-61828630D01*
X85085901Y-62041758D01*
X85641662Y-62042243D01*
X86155304Y-61830011D01*
X86548630Y-61437371D01*
X86634950Y-61229489D01*
X86719991Y-61435304D01*
X87112631Y-61828630D01*
X87625901Y-62041758D01*
X88181662Y-62042243D01*
X88695304Y-61830011D01*
X89088630Y-61437371D01*
X89174950Y-61229489D01*
X89259991Y-61435304D01*
X89652631Y-61828630D01*
X90165901Y-62041758D01*
X90721662Y-62042243D01*
X91235304Y-61830011D01*
X91628630Y-61437371D01*
X91714950Y-61229489D01*
X91799991Y-61435304D01*
X92192631Y-61828630D01*
X92705901Y-62041758D01*
X93261662Y-62042243D01*
X93775304Y-61830011D01*
X94168630Y-61437371D01*
X94254950Y-61229489D01*
X94339991Y-61435304D01*
X94732631Y-61828630D01*
X95245901Y-62041758D01*
X95801662Y-62042243D01*
X96315304Y-61830011D01*
X96708630Y-61437371D01*
X96794950Y-61229489D01*
X96879991Y-61435304D01*
X97272631Y-61828630D01*
X97785901Y-62041758D01*
X98341662Y-62042243D01*
X98855304Y-61830011D01*
X99248630Y-61437371D01*
X99334950Y-61229489D01*
X99419991Y-61435304D01*
X99812631Y-61828630D01*
X100325901Y-62041758D01*
X100881662Y-62042243D01*
X101395304Y-61830011D01*
X101788630Y-61437371D01*
X102001758Y-60924101D01*
X102002243Y-60368340D01*
X101790011Y-59854698D01*
X101397371Y-59461372D01*
X100884101Y-59248244D01*
X100328340Y-59247759D01*
X99814698Y-59459991D01*
X99421372Y-59852631D01*
X99335052Y-60060513D01*
X99250011Y-59854698D01*
X98857371Y-59461372D01*
X98344101Y-59248244D01*
X97788340Y-59247759D01*
X97274698Y-59459991D01*
X96881372Y-59852631D01*
X96795052Y-60060513D01*
X96710011Y-59854698D01*
X96317371Y-59461372D01*
X95804101Y-59248244D01*
X95248340Y-59247759D01*
X94734698Y-59459991D01*
X94341372Y-59852631D01*
X94255052Y-60060513D01*
X94170011Y-59854698D01*
X93777371Y-59461372D01*
X93264101Y-59248244D01*
X92708340Y-59247759D01*
X92194698Y-59459991D01*
X91801372Y-59852631D01*
X91715052Y-60060513D01*
X91630011Y-59854698D01*
X91237371Y-59461372D01*
X90724101Y-59248244D01*
X90168340Y-59247759D01*
X89654698Y-59459991D01*
X89261372Y-59852631D01*
X89175052Y-60060513D01*
X89090011Y-59854698D01*
X88697371Y-59461372D01*
X88184101Y-59248244D01*
X87628340Y-59247759D01*
X87114698Y-59459991D01*
X86721372Y-59852631D01*
X86635052Y-60060513D01*
X86550011Y-59854698D01*
X86157371Y-59461372D01*
X85644101Y-59248244D01*
X85088340Y-59247759D01*
X84574698Y-59459991D01*
X84181372Y-59852631D01*
X84095052Y-60060513D01*
X84010011Y-59854698D01*
X83617371Y-59461372D01*
X83104101Y-59248244D01*
X82548340Y-59247759D01*
X82034698Y-59459991D01*
X81641372Y-59852631D01*
X81555052Y-60060513D01*
X81470011Y-59854698D01*
X81077371Y-59461372D01*
X80564101Y-59248244D01*
X80008340Y-59247759D01*
X79494698Y-59459991D01*
X79101372Y-59852631D01*
X79015052Y-60060513D01*
X78930011Y-59854698D01*
X78537371Y-59461372D01*
X78024101Y-59248244D01*
X77468340Y-59247759D01*
X76954698Y-59459991D01*
X76561372Y-59852631D01*
X76475052Y-60060513D01*
X76390011Y-59854698D01*
X75997371Y-59461372D01*
X75484101Y-59248244D01*
X74928340Y-59247759D01*
X74414698Y-59459991D01*
X74021372Y-59852631D01*
X73935052Y-60060513D01*
X73850011Y-59854698D01*
X73457371Y-59461372D01*
X72944101Y-59248244D01*
X72388340Y-59247759D01*
X71874698Y-59459991D01*
X71481372Y-59852631D01*
X71395052Y-60060513D01*
X71310011Y-59854698D01*
X70917371Y-59461372D01*
X70404101Y-59248244D01*
X69848340Y-59247759D01*
X69334698Y-59459991D01*
X68941372Y-59852631D01*
X68855052Y-60060513D01*
X68770011Y-59854698D01*
X68377371Y-59461372D01*
X67864101Y-59248244D01*
X67308340Y-59247759D01*
X66794698Y-59459991D01*
X66401372Y-59852631D01*
X66315052Y-60060513D01*
X66230011Y-59854698D01*
X65837371Y-59461372D01*
X65324101Y-59248244D01*
X64768340Y-59247759D01*
X64254698Y-59459991D01*
X63861372Y-59852631D01*
X63775052Y-60060513D01*
X63690011Y-59854698D01*
X63297371Y-59461372D01*
X62784101Y-59248244D01*
X62228340Y-59247759D01*
X61714698Y-59459991D01*
X61321372Y-59852631D01*
X61235052Y-60060513D01*
X61150011Y-59854698D01*
X60757371Y-59461372D01*
X60244101Y-59248244D01*
X59688340Y-59247759D01*
X59174698Y-59459991D01*
X58781372Y-59852631D01*
X58695052Y-60060513D01*
X58610011Y-59854698D01*
X58217371Y-59461372D01*
X57704101Y-59248244D01*
X57148340Y-59247759D01*
X56634698Y-59459991D01*
X56241372Y-59852631D01*
X56155052Y-60060513D01*
X56070011Y-59854698D01*
X55677371Y-59461372D01*
X55164101Y-59248244D01*
X54608340Y-59247759D01*
X54094698Y-59459991D01*
X53701372Y-59852631D01*
X53615052Y-60060513D01*
X53530011Y-59854698D01*
X53137371Y-59461372D01*
X52624101Y-59248244D01*
X52068340Y-59247759D01*
X51554698Y-59459991D01*
X51161372Y-59852631D01*
X50948244Y-60365901D01*
X50947759Y-60921662D01*
X48387000Y-60921662D01*
X48387000Y-54147000D01*
X119253000Y-54147000D01*
X119253000Y-80563000D01*
X119253000Y-80563000D01*
G37*
X119253000Y-80563000D02*
X48387000Y-80563000D01*
X48387000Y-76161662D01*
X50947759Y-76161662D01*
X51159991Y-76675304D01*
X51552631Y-77068630D01*
X52065901Y-77281758D01*
X52621662Y-77282243D01*
X53135304Y-77070011D01*
X53528630Y-76677371D01*
X53614950Y-76469489D01*
X53699991Y-76675304D01*
X54092631Y-77068630D01*
X54605901Y-77281758D01*
X55161662Y-77282243D01*
X55675304Y-77070011D01*
X56068630Y-76677371D01*
X56154950Y-76469489D01*
X56239991Y-76675304D01*
X56632631Y-77068630D01*
X57145901Y-77281758D01*
X57701662Y-77282243D01*
X58215304Y-77070011D01*
X58608630Y-76677371D01*
X58694950Y-76469489D01*
X58779991Y-76675304D01*
X59172631Y-77068630D01*
X59685901Y-77281758D01*
X60241662Y-77282243D01*
X60755304Y-77070011D01*
X61148630Y-76677371D01*
X61234950Y-76469489D01*
X61319991Y-76675304D01*
X61712631Y-77068630D01*
X62225901Y-77281758D01*
X62781662Y-77282243D01*
X63295304Y-77070011D01*
X63688630Y-76677371D01*
X63774950Y-76469489D01*
X63859991Y-76675304D01*
X64252631Y-77068630D01*
X64765901Y-77281758D01*
X65321662Y-77282243D01*
X65835304Y-77070011D01*
X66228630Y-76677371D01*
X66314950Y-76469489D01*
X66399991Y-76675304D01*
X66792631Y-77068630D01*
X67305901Y-77281758D01*
X67861662Y-77282243D01*
X68375304Y-77070011D01*
X68768630Y-76677371D01*
X68854950Y-76469489D01*
X68939991Y-76675304D01*
X69332631Y-77068630D01*
X69845901Y-77281758D01*
X70401662Y-77282243D01*
X70915304Y-77070011D01*
X71308630Y-76677371D01*
X71394950Y-76469489D01*
X71479991Y-76675304D01*
X71872631Y-77068630D01*
X72385901Y-77281758D01*
X72941662Y-77282243D01*
X73455304Y-77070011D01*
X73848630Y-76677371D01*
X73934950Y-76469489D01*
X74019991Y-76675304D01*
X74412631Y-77068630D01*
X74925901Y-77281758D01*
X75481662Y-77282243D01*
X75995304Y-77070011D01*
X76388630Y-76677371D01*
X76474950Y-76469489D01*
X76559991Y-76675304D01*
X76952631Y-77068630D01*
X77465901Y-77281758D01*
X78021662Y-77282243D01*
X78535304Y-77070011D01*
X78928630Y-76677371D01*
X79014950Y-76469489D01*
X79099991Y-76675304D01*
X79492631Y-77068630D01*
X80005901Y-77281758D01*
X80561662Y-77282243D01*
X81075304Y-77070011D01*
X81468630Y-76677371D01*
X81554950Y-76469489D01*
X81639991Y-76675304D01*
X82032631Y-77068630D01*
X82545901Y-77281758D01*
X83101662Y-77282243D01*
X83615304Y-77070011D01*
X84008630Y-76677371D01*
X84094950Y-76469489D01*
X84179991Y-76675304D01*
X84572631Y-77068630D01*
X85085901Y-77281758D01*
X85641662Y-77282243D01*
X86155304Y-77070011D01*
X86548630Y-76677371D01*
X86634950Y-76469489D01*
X86719991Y-76675304D01*
X87112631Y-77068630D01*
X87625901Y-77281758D01*
X88181662Y-77282243D01*
X88695304Y-77070011D01*
X89088630Y-76677371D01*
X89174950Y-76469489D01*
X89259991Y-76675304D01*
X89652631Y-77068630D01*
X90165901Y-77281758D01*
X90721662Y-77282243D01*
X91235304Y-77070011D01*
X91628630Y-76677371D01*
X91714950Y-76469489D01*
X91799991Y-76675304D01*
X92192631Y-77068630D01*
X92705901Y-77281758D01*
X93261662Y-77282243D01*
X93775304Y-77070011D01*
X94168630Y-76677371D01*
X94254950Y-76469489D01*
X94339991Y-76675304D01*
X94732631Y-77068630D01*
X95245901Y-77281758D01*
X95801662Y-77282243D01*
X96315304Y-77070011D01*
X96520458Y-76865214D01*
X97264393Y-76865214D01*
X97333858Y-77107398D01*
X97857303Y-77294145D01*
X98412369Y-77266363D01*
X98796144Y-77107398D01*
X98865609Y-76865214D01*
X98065001Y-76064606D01*
X97264393Y-76865214D01*
X96520458Y-76865214D01*
X96708630Y-76677371D01*
X96788396Y-76485274D01*
X96842604Y-76616144D01*
X97084788Y-76685609D01*
X97885396Y-75885001D01*
X98244606Y-75885001D01*
X99045214Y-76685609D01*
X99287398Y-76616144D01*
X99337510Y-76475683D01*
X99419991Y-76675304D01*
X99812631Y-77068630D01*
X100325901Y-77281758D01*
X100881662Y-77282243D01*
X101395304Y-77070011D01*
X101788630Y-76677371D01*
X102001758Y-76164101D01*
X102002243Y-75608340D01*
X101790011Y-75094698D01*
X101397371Y-74701372D01*
X100884101Y-74488244D01*
X100328340Y-74487759D01*
X99814698Y-74699991D01*
X99421372Y-75092631D01*
X99341606Y-75284728D01*
X99287398Y-75153858D01*
X99045214Y-75084393D01*
X98244606Y-75885001D01*
X97885396Y-75885001D01*
X97084788Y-75084393D01*
X96842604Y-75153858D01*
X96792492Y-75294319D01*
X96710011Y-75094698D01*
X96520433Y-74904788D01*
X97264393Y-74904788D01*
X98065001Y-75705396D01*
X98865609Y-74904788D01*
X98796144Y-74662604D01*
X98272699Y-74475857D01*
X97717633Y-74503639D01*
X97333858Y-74662604D01*
X97264393Y-74904788D01*
X96520433Y-74904788D01*
X96317371Y-74701372D01*
X95804101Y-74488244D01*
X95248340Y-74487759D01*
X94734698Y-74699991D01*
X94341372Y-75092631D01*
X94255052Y-75300513D01*
X94170011Y-75094698D01*
X93777371Y-74701372D01*
X93264101Y-74488244D01*
X92708340Y-74487759D01*
X92194698Y-74699991D01*
X91801372Y-75092631D01*
X91715052Y-75300513D01*
X91630011Y-75094698D01*
X91237371Y-74701372D01*
X90724101Y-74488244D01*
X90168340Y-74487759D01*
X89654698Y-74699991D01*
X89261372Y-75092631D01*
X89175052Y-75300513D01*
X89090011Y-75094698D01*
X88697371Y-74701372D01*
X88184101Y-74488244D01*
X87628340Y-74487759D01*
X87114698Y-74699991D01*
X86721372Y-75092631D01*
X86635052Y-75300513D01*
X86550011Y-75094698D01*
X86157371Y-74701372D01*
X85644101Y-74488244D01*
X85088340Y-74487759D01*
X84574698Y-74699991D01*
X84181372Y-75092631D01*
X84095052Y-75300513D01*
X84010011Y-75094698D01*
X83617371Y-74701372D01*
X83104101Y-74488244D01*
X82548340Y-74487759D01*
X82034698Y-74699991D01*
X81641372Y-75092631D01*
X81555052Y-75300513D01*
X81470011Y-75094698D01*
X81077371Y-74701372D01*
X80564101Y-74488244D01*
X80008340Y-74487759D01*
X79494698Y-74699991D01*
X79101372Y-75092631D01*
X79015052Y-75300513D01*
X78930011Y-75094698D01*
X78537371Y-74701372D01*
X78024101Y-74488244D01*
X77468340Y-74487759D01*
X76954698Y-74699991D01*
X76561372Y-75092631D01*
X76475052Y-75300513D01*
X76390011Y-75094698D01*
X75997371Y-74701372D01*
X75484101Y-74488244D01*
X74928340Y-74487759D01*
X74414698Y-74699991D01*
X74021372Y-75092631D01*
X73935052Y-75300513D01*
X73850011Y-75094698D01*
X73457371Y-74701372D01*
X72944101Y-74488244D01*
X72388340Y-74487759D01*
X71874698Y-74699991D01*
X71481372Y-75092631D01*
X71395052Y-75300513D01*
X71310011Y-75094698D01*
X70917371Y-74701372D01*
X70404101Y-74488244D01*
X69848340Y-74487759D01*
X69334698Y-74699991D01*
X68941372Y-75092631D01*
X68855052Y-75300513D01*
X68770011Y-75094698D01*
X68377371Y-74701372D01*
X67864101Y-74488244D01*
X67308340Y-74487759D01*
X66794698Y-74699991D01*
X66401372Y-75092631D01*
X66315052Y-75300513D01*
X66230011Y-75094698D01*
X65837371Y-74701372D01*
X65324101Y-74488244D01*
X64768340Y-74487759D01*
X64254698Y-74699991D01*
X63861372Y-75092631D01*
X63775052Y-75300513D01*
X63690011Y-75094698D01*
X63297371Y-74701372D01*
X62784101Y-74488244D01*
X62228340Y-74487759D01*
X61714698Y-74699991D01*
X61321372Y-75092631D01*
X61235052Y-75300513D01*
X61150011Y-75094698D01*
X60757371Y-74701372D01*
X60244101Y-74488244D01*
X59688340Y-74487759D01*
X59174698Y-74699991D01*
X58781372Y-75092631D01*
X58695052Y-75300513D01*
X58610011Y-75094698D01*
X58217371Y-74701372D01*
X57704101Y-74488244D01*
X57148340Y-74487759D01*
X56634698Y-74699991D01*
X56241372Y-75092631D01*
X56155052Y-75300513D01*
X56070011Y-75094698D01*
X55677371Y-74701372D01*
X55164101Y-74488244D01*
X54608340Y-74487759D01*
X54094698Y-74699991D01*
X53701372Y-75092631D01*
X53615052Y-75300513D01*
X53530011Y-75094698D01*
X53137371Y-74701372D01*
X52624101Y-74488244D01*
X52068340Y-74487759D01*
X51554698Y-74699991D01*
X51161372Y-75092631D01*
X50948244Y-75605901D01*
X50947759Y-76161662D01*
X48387000Y-76161662D01*
X48387000Y-66720000D01*
X108975907Y-66720000D01*
X109088946Y-67288285D01*
X109410853Y-67770054D01*
X109740026Y-67990000D01*
X109410853Y-68209946D01*
X109088946Y-68691715D01*
X108975907Y-69260000D01*
X109088946Y-69828285D01*
X109410853Y-70310054D01*
X109892622Y-70631961D01*
X110460907Y-70745000D01*
X110519093Y-70745000D01*
X111087378Y-70631961D01*
X111569147Y-70310054D01*
X111758345Y-70026899D01*
X111758355Y-70026924D01*
X112148642Y-70455183D01*
X112673108Y-70701486D01*
X112903000Y-70580819D01*
X112903000Y-69387000D01*
X113157000Y-69387000D01*
X113157000Y-70580819D01*
X113386892Y-70701486D01*
X113911358Y-70455183D01*
X114301645Y-70026924D01*
X114471476Y-69616890D01*
X114350155Y-69387000D01*
X113157000Y-69387000D01*
X112903000Y-69387000D01*
X112883000Y-69387000D01*
X112883000Y-69133000D01*
X112903000Y-69133000D01*
X112903000Y-69113000D01*
X113157000Y-69113000D01*
X113157000Y-69133000D01*
X114350155Y-69133000D01*
X114471476Y-68903110D01*
X114301645Y-68493076D01*
X113911358Y-68064817D01*
X113768447Y-67997702D01*
X114109147Y-67770054D01*
X114302954Y-67480000D01*
X115570000Y-67480000D01*
X115860839Y-67422148D01*
X116107401Y-67257401D01*
X117377401Y-65987401D01*
X117542148Y-65740840D01*
X117600000Y-65450000D01*
X117600000Y-60932463D01*
X117632192Y-60900327D01*
X117774838Y-60556799D01*
X117775162Y-60184833D01*
X117633117Y-59841057D01*
X117370327Y-59577808D01*
X117026799Y-59435162D01*
X116654833Y-59434838D01*
X116311057Y-59576883D01*
X116047808Y-59839673D01*
X115905162Y-60183201D01*
X115904838Y-60555167D01*
X116046883Y-60898943D01*
X116080000Y-60932118D01*
X116080000Y-65135198D01*
X115255198Y-65960000D01*
X114302954Y-65960000D01*
X114109147Y-65669946D01*
X113779974Y-65450000D01*
X114109147Y-65230054D01*
X114431054Y-64748285D01*
X114544093Y-64180000D01*
X114431054Y-63611715D01*
X114109147Y-63129946D01*
X113627378Y-62808039D01*
X113059093Y-62695000D01*
X113000907Y-62695000D01*
X112432622Y-62808039D01*
X111950853Y-63129946D01*
X111950029Y-63131179D01*
X111943162Y-63094683D01*
X111804090Y-62878559D01*
X111591890Y-62733569D01*
X111340000Y-62682560D01*
X109640000Y-62682560D01*
X109404683Y-62726838D01*
X109188559Y-62865910D01*
X109043569Y-63078110D01*
X108992560Y-63330000D01*
X108992560Y-65030000D01*
X109036838Y-65265317D01*
X109175910Y-65481441D01*
X109388110Y-65626431D01*
X109455541Y-65640086D01*
X109410853Y-65669946D01*
X109088946Y-66151715D01*
X108975907Y-66720000D01*
X48387000Y-66720000D01*
X48387000Y-60921662D01*
X50947759Y-60921662D01*
X51159991Y-61435304D01*
X51552631Y-61828630D01*
X52065901Y-62041758D01*
X52621662Y-62042243D01*
X53135304Y-61830011D01*
X53528630Y-61437371D01*
X53614950Y-61229489D01*
X53699991Y-61435304D01*
X54092631Y-61828630D01*
X54605901Y-62041758D01*
X55161662Y-62042243D01*
X55675304Y-61830011D01*
X56068630Y-61437371D01*
X56154950Y-61229489D01*
X56239991Y-61435304D01*
X56632631Y-61828630D01*
X57145901Y-62041758D01*
X57701662Y-62042243D01*
X58215304Y-61830011D01*
X58608630Y-61437371D01*
X58694950Y-61229489D01*
X58779991Y-61435304D01*
X59172631Y-61828630D01*
X59685901Y-62041758D01*
X60241662Y-62042243D01*
X60755304Y-61830011D01*
X61148630Y-61437371D01*
X61234950Y-61229489D01*
X61319991Y-61435304D01*
X61712631Y-61828630D01*
X62225901Y-62041758D01*
X62781662Y-62042243D01*
X63295304Y-61830011D01*
X63688630Y-61437371D01*
X63774950Y-61229489D01*
X63859991Y-61435304D01*
X64252631Y-61828630D01*
X64765901Y-62041758D01*
X65321662Y-62042243D01*
X65835304Y-61830011D01*
X66228630Y-61437371D01*
X66314950Y-61229489D01*
X66399991Y-61435304D01*
X66792631Y-61828630D01*
X67305901Y-62041758D01*
X67861662Y-62042243D01*
X68375304Y-61830011D01*
X68768630Y-61437371D01*
X68854950Y-61229489D01*
X68939991Y-61435304D01*
X69332631Y-61828630D01*
X69845901Y-62041758D01*
X70401662Y-62042243D01*
X70915304Y-61830011D01*
X71308630Y-61437371D01*
X71394950Y-61229489D01*
X71479991Y-61435304D01*
X71872631Y-61828630D01*
X72385901Y-62041758D01*
X72941662Y-62042243D01*
X73455304Y-61830011D01*
X73848630Y-61437371D01*
X73934950Y-61229489D01*
X74019991Y-61435304D01*
X74412631Y-61828630D01*
X74925901Y-62041758D01*
X75481662Y-62042243D01*
X75995304Y-61830011D01*
X76388630Y-61437371D01*
X76474950Y-61229489D01*
X76559991Y-61435304D01*
X76952631Y-61828630D01*
X77465901Y-62041758D01*
X78021662Y-62042243D01*
X78535304Y-61830011D01*
X78928630Y-61437371D01*
X79014950Y-61229489D01*
X79099991Y-61435304D01*
X79492631Y-61828630D01*
X80005901Y-62041758D01*
X80561662Y-62042243D01*
X81075304Y-61830011D01*
X81468630Y-61437371D01*
X81554950Y-61229489D01*
X81639991Y-61435304D01*
X82032631Y-61828630D01*
X82545901Y-62041758D01*
X83101662Y-62042243D01*
X83615304Y-61830011D01*
X84008630Y-61437371D01*
X84094950Y-61229489D01*
X84179991Y-61435304D01*
X84572631Y-61828630D01*
X85085901Y-62041758D01*
X85641662Y-62042243D01*
X86155304Y-61830011D01*
X86548630Y-61437371D01*
X86634950Y-61229489D01*
X86719991Y-61435304D01*
X87112631Y-61828630D01*
X87625901Y-62041758D01*
X88181662Y-62042243D01*
X88695304Y-61830011D01*
X89088630Y-61437371D01*
X89174950Y-61229489D01*
X89259991Y-61435304D01*
X89652631Y-61828630D01*
X90165901Y-62041758D01*
X90721662Y-62042243D01*
X91235304Y-61830011D01*
X91628630Y-61437371D01*
X91714950Y-61229489D01*
X91799991Y-61435304D01*
X92192631Y-61828630D01*
X92705901Y-62041758D01*
X93261662Y-62042243D01*
X93775304Y-61830011D01*
X94168630Y-61437371D01*
X94254950Y-61229489D01*
X94339991Y-61435304D01*
X94732631Y-61828630D01*
X95245901Y-62041758D01*
X95801662Y-62042243D01*
X96315304Y-61830011D01*
X96708630Y-61437371D01*
X96794950Y-61229489D01*
X96879991Y-61435304D01*
X97272631Y-61828630D01*
X97785901Y-62041758D01*
X98341662Y-62042243D01*
X98855304Y-61830011D01*
X99248630Y-61437371D01*
X99334950Y-61229489D01*
X99419991Y-61435304D01*
X99812631Y-61828630D01*
X100325901Y-62041758D01*
X100881662Y-62042243D01*
X101395304Y-61830011D01*
X101788630Y-61437371D01*
X102001758Y-60924101D01*
X102002243Y-60368340D01*
X101790011Y-59854698D01*
X101397371Y-59461372D01*
X100884101Y-59248244D01*
X100328340Y-59247759D01*
X99814698Y-59459991D01*
X99421372Y-59852631D01*
X99335052Y-60060513D01*
X99250011Y-59854698D01*
X98857371Y-59461372D01*
X98344101Y-59248244D01*
X97788340Y-59247759D01*
X97274698Y-59459991D01*
X96881372Y-59852631D01*
X96795052Y-60060513D01*
X96710011Y-59854698D01*
X96317371Y-59461372D01*
X95804101Y-59248244D01*
X95248340Y-59247759D01*
X94734698Y-59459991D01*
X94341372Y-59852631D01*
X94255052Y-60060513D01*
X94170011Y-59854698D01*
X93777371Y-59461372D01*
X93264101Y-59248244D01*
X92708340Y-59247759D01*
X92194698Y-59459991D01*
X91801372Y-59852631D01*
X91715052Y-60060513D01*
X91630011Y-59854698D01*
X91237371Y-59461372D01*
X90724101Y-59248244D01*
X90168340Y-59247759D01*
X89654698Y-59459991D01*
X89261372Y-59852631D01*
X89175052Y-60060513D01*
X89090011Y-59854698D01*
X88697371Y-59461372D01*
X88184101Y-59248244D01*
X87628340Y-59247759D01*
X87114698Y-59459991D01*
X86721372Y-59852631D01*
X86635052Y-60060513D01*
X86550011Y-59854698D01*
X86157371Y-59461372D01*
X85644101Y-59248244D01*
X85088340Y-59247759D01*
X84574698Y-59459991D01*
X84181372Y-59852631D01*
X84095052Y-60060513D01*
X84010011Y-59854698D01*
X83617371Y-59461372D01*
X83104101Y-59248244D01*
X82548340Y-59247759D01*
X82034698Y-59459991D01*
X81641372Y-59852631D01*
X81555052Y-60060513D01*
X81470011Y-59854698D01*
X81077371Y-59461372D01*
X80564101Y-59248244D01*
X80008340Y-59247759D01*
X79494698Y-59459991D01*
X79101372Y-59852631D01*
X79015052Y-60060513D01*
X78930011Y-59854698D01*
X78537371Y-59461372D01*
X78024101Y-59248244D01*
X77468340Y-59247759D01*
X76954698Y-59459991D01*
X76561372Y-59852631D01*
X76475052Y-60060513D01*
X76390011Y-59854698D01*
X75997371Y-59461372D01*
X75484101Y-59248244D01*
X74928340Y-59247759D01*
X74414698Y-59459991D01*
X74021372Y-59852631D01*
X73935052Y-60060513D01*
X73850011Y-59854698D01*
X73457371Y-59461372D01*
X72944101Y-59248244D01*
X72388340Y-59247759D01*
X71874698Y-59459991D01*
X71481372Y-59852631D01*
X71395052Y-60060513D01*
X71310011Y-59854698D01*
X70917371Y-59461372D01*
X70404101Y-59248244D01*
X69848340Y-59247759D01*
X69334698Y-59459991D01*
X68941372Y-59852631D01*
X68855052Y-60060513D01*
X68770011Y-59854698D01*
X68377371Y-59461372D01*
X67864101Y-59248244D01*
X67308340Y-59247759D01*
X66794698Y-59459991D01*
X66401372Y-59852631D01*
X66315052Y-60060513D01*
X66230011Y-59854698D01*
X65837371Y-59461372D01*
X65324101Y-59248244D01*
X64768340Y-59247759D01*
X64254698Y-59459991D01*
X63861372Y-59852631D01*
X63775052Y-60060513D01*
X63690011Y-59854698D01*
X63297371Y-59461372D01*
X62784101Y-59248244D01*
X62228340Y-59247759D01*
X61714698Y-59459991D01*
X61321372Y-59852631D01*
X61235052Y-60060513D01*
X61150011Y-59854698D01*
X60757371Y-59461372D01*
X60244101Y-59248244D01*
X59688340Y-59247759D01*
X59174698Y-59459991D01*
X58781372Y-59852631D01*
X58695052Y-60060513D01*
X58610011Y-59854698D01*
X58217371Y-59461372D01*
X57704101Y-59248244D01*
X57148340Y-59247759D01*
X56634698Y-59459991D01*
X56241372Y-59852631D01*
X56155052Y-60060513D01*
X56070011Y-59854698D01*
X55677371Y-59461372D01*
X55164101Y-59248244D01*
X54608340Y-59247759D01*
X54094698Y-59459991D01*
X53701372Y-59852631D01*
X53615052Y-60060513D01*
X53530011Y-59854698D01*
X53137371Y-59461372D01*
X52624101Y-59248244D01*
X52068340Y-59247759D01*
X51554698Y-59459991D01*
X51161372Y-59852631D01*
X50948244Y-60365901D01*
X50947759Y-60921662D01*
X48387000Y-60921662D01*
X48387000Y-54147000D01*
X119253000Y-54147000D01*
X119253000Y-80563000D01*
G36*
X119253000Y-48223000D02*
X48387000Y-48223000D01*
X48387000Y-43821662D01*
X50947759Y-43821662D01*
X51159991Y-44335304D01*
X51552631Y-44728630D01*
X52065901Y-44941758D01*
X52621662Y-44942243D01*
X53135304Y-44730011D01*
X53528630Y-44337371D01*
X53614950Y-44129489D01*
X53699991Y-44335304D01*
X54092631Y-44728630D01*
X54605901Y-44941758D01*
X55161662Y-44942243D01*
X55675304Y-44730011D01*
X56068630Y-44337371D01*
X56154950Y-44129489D01*
X56239991Y-44335304D01*
X56632631Y-44728630D01*
X57145901Y-44941758D01*
X57701662Y-44942243D01*
X58215304Y-44730011D01*
X58608630Y-44337371D01*
X58694950Y-44129489D01*
X58779991Y-44335304D01*
X59172631Y-44728630D01*
X59685901Y-44941758D01*
X60241662Y-44942243D01*
X60755304Y-44730011D01*
X61148630Y-44337371D01*
X61234950Y-44129489D01*
X61319991Y-44335304D01*
X61712631Y-44728630D01*
X62225901Y-44941758D01*
X62781662Y-44942243D01*
X63295304Y-44730011D01*
X63688630Y-44337371D01*
X63774950Y-44129489D01*
X63859991Y-44335304D01*
X64252631Y-44728630D01*
X64765901Y-44941758D01*
X65321662Y-44942243D01*
X65835304Y-44730011D01*
X66228630Y-44337371D01*
X66314950Y-44129489D01*
X66399991Y-44335304D01*
X66792631Y-44728630D01*
X67305901Y-44941758D01*
X67861662Y-44942243D01*
X68375304Y-44730011D01*
X68768630Y-44337371D01*
X68854950Y-44129489D01*
X68939991Y-44335304D01*
X69332631Y-44728630D01*
X69845901Y-44941758D01*
X70401662Y-44942243D01*
X70915304Y-44730011D01*
X71308630Y-44337371D01*
X71394950Y-44129489D01*
X71479991Y-44335304D01*
X71872631Y-44728630D01*
X72385901Y-44941758D01*
X72941662Y-44942243D01*
X73455304Y-44730011D01*
X73848630Y-44337371D01*
X73934950Y-44129489D01*
X74019991Y-44335304D01*
X74412631Y-44728630D01*
X74925901Y-44941758D01*
X75481662Y-44942243D01*
X75995304Y-44730011D01*
X76388630Y-44337371D01*
X76474950Y-44129489D01*
X76559991Y-44335304D01*
X76952631Y-44728630D01*
X77465901Y-44941758D01*
X78021662Y-44942243D01*
X78535304Y-44730011D01*
X78928630Y-44337371D01*
X79014950Y-44129489D01*
X79099991Y-44335304D01*
X79492631Y-44728630D01*
X80005901Y-44941758D01*
X80561662Y-44942243D01*
X81075304Y-44730011D01*
X81468630Y-44337371D01*
X81554950Y-44129489D01*
X81639991Y-44335304D01*
X82032631Y-44728630D01*
X82545901Y-44941758D01*
X83101662Y-44942243D01*
X83615304Y-44730011D01*
X84008630Y-44337371D01*
X84094950Y-44129489D01*
X84179991Y-44335304D01*
X84572631Y-44728630D01*
X85085901Y-44941758D01*
X85641662Y-44942243D01*
X86155304Y-44730011D01*
X86548630Y-44337371D01*
X86634950Y-44129489D01*
X86719991Y-44335304D01*
X87112631Y-44728630D01*
X87625901Y-44941758D01*
X88181662Y-44942243D01*
X88695304Y-44730011D01*
X89088630Y-44337371D01*
X89174950Y-44129489D01*
X89259991Y-44335304D01*
X89652631Y-44728630D01*
X90165901Y-44941758D01*
X90721662Y-44942243D01*
X91235304Y-44730011D01*
X91628630Y-44337371D01*
X91714950Y-44129489D01*
X91799991Y-44335304D01*
X92192631Y-44728630D01*
X92705901Y-44941758D01*
X93261662Y-44942243D01*
X93775304Y-44730011D01*
X94168630Y-44337371D01*
X94254950Y-44129489D01*
X94339991Y-44335304D01*
X94732631Y-44728630D01*
X95245901Y-44941758D01*
X95801662Y-44942243D01*
X96315304Y-44730011D01*
X96520458Y-44525214D01*
X97264393Y-44525214D01*
X97333858Y-44767398D01*
X97857303Y-44954145D01*
X98412369Y-44926363D01*
X98796144Y-44767398D01*
X98865609Y-44525214D01*
X98065001Y-43724606D01*
X97264393Y-44525214D01*
X96520458Y-44525214D01*
X96708630Y-44337371D01*
X96788396Y-44145274D01*
X96842604Y-44276144D01*
X97084788Y-44345609D01*
X97885396Y-43545001D01*
X98244606Y-43545001D01*
X99045214Y-44345609D01*
X99287398Y-44276144D01*
X99337510Y-44135683D01*
X99419991Y-44335304D01*
X99812631Y-44728630D01*
X100325901Y-44941758D01*
X100881662Y-44942243D01*
X101395304Y-44730011D01*
X101788630Y-44337371D01*
X102001758Y-43824101D01*
X102002243Y-43268340D01*
X101790011Y-42754698D01*
X101397371Y-42361372D01*
X100884101Y-42148244D01*
X100328340Y-42147759D01*
X99814698Y-42359991D01*
X99421372Y-42752631D01*
X99341606Y-42944728D01*
X99287398Y-42813858D01*
X99045214Y-42744393D01*
X98244606Y-43545001D01*
X97885396Y-43545001D01*
X97084788Y-42744393D01*
X96842604Y-42813858D01*
X96792492Y-42954319D01*
X96710011Y-42754698D01*
X96520433Y-42564788D01*
X97264393Y-42564788D01*
X98065001Y-43365396D01*
X98865609Y-42564788D01*
X98796144Y-42322604D01*
X98272699Y-42135857D01*
X97717633Y-42163639D01*
X97333858Y-42322604D01*
X97264393Y-42564788D01*
X96520433Y-42564788D01*
X96317371Y-42361372D01*
X95804101Y-42148244D01*
X95248340Y-42147759D01*
X94734698Y-42359991D01*
X94341372Y-42752631D01*
X94255052Y-42960513D01*
X94170011Y-42754698D01*
X93777371Y-42361372D01*
X93264101Y-42148244D01*
X92708340Y-42147759D01*
X92194698Y-42359991D01*
X91801372Y-42752631D01*
X91715052Y-42960513D01*
X91630011Y-42754698D01*
X91237371Y-42361372D01*
X90724101Y-42148244D01*
X90168340Y-42147759D01*
X89654698Y-42359991D01*
X89261372Y-42752631D01*
X89175052Y-42960513D01*
X89090011Y-42754698D01*
X88697371Y-42361372D01*
X88184101Y-42148244D01*
X87628340Y-42147759D01*
X87114698Y-42359991D01*
X86721372Y-42752631D01*
X86635052Y-42960513D01*
X86550011Y-42754698D01*
X86157371Y-42361372D01*
X85644101Y-42148244D01*
X85088340Y-42147759D01*
X84574698Y-42359991D01*
X84181372Y-42752631D01*
X84095052Y-42960513D01*
X84010011Y-42754698D01*
X83617371Y-42361372D01*
X83104101Y-42148244D01*
X82548340Y-42147759D01*
X82034698Y-42359991D01*
X81641372Y-42752631D01*
X81555052Y-42960513D01*
X81470011Y-42754698D01*
X81077371Y-42361372D01*
X80564101Y-42148244D01*
X80008340Y-42147759D01*
X79494698Y-42359991D01*
X79101372Y-42752631D01*
X79015052Y-42960513D01*
X78930011Y-42754698D01*
X78537371Y-42361372D01*
X78024101Y-42148244D01*
X77468340Y-42147759D01*
X76954698Y-42359991D01*
X76561372Y-42752631D01*
X76475052Y-42960513D01*
X76390011Y-42754698D01*
X75997371Y-42361372D01*
X75484101Y-42148244D01*
X74928340Y-42147759D01*
X74414698Y-42359991D01*
X74021372Y-42752631D01*
X73935052Y-42960513D01*
X73850011Y-42754698D01*
X73457371Y-42361372D01*
X72944101Y-42148244D01*
X72388340Y-42147759D01*
X71874698Y-42359991D01*
X71481372Y-42752631D01*
X71395052Y-42960513D01*
X71310011Y-42754698D01*
X70917371Y-42361372D01*
X70404101Y-42148244D01*
X69848340Y-42147759D01*
X69334698Y-42359991D01*
X68941372Y-42752631D01*
X68855052Y-42960513D01*
X68770011Y-42754698D01*
X68377371Y-42361372D01*
X67864101Y-42148244D01*
X67308340Y-42147759D01*
X66794698Y-42359991D01*
X66401372Y-42752631D01*
X66315052Y-42960513D01*
X66230011Y-42754698D01*
X65837371Y-42361372D01*
X65324101Y-42148244D01*
X64768340Y-42147759D01*
X64254698Y-42359991D01*
X63861372Y-42752631D01*
X63775052Y-42960513D01*
X63690011Y-42754698D01*
X63297371Y-42361372D01*
X62784101Y-42148244D01*
X62228340Y-42147759D01*
X61714698Y-42359991D01*
X61321372Y-42752631D01*
X61235052Y-42960513D01*
X61150011Y-42754698D01*
X60757371Y-42361372D01*
X60244101Y-42148244D01*
X59688340Y-42147759D01*
X59174698Y-42359991D01*
X58781372Y-42752631D01*
X58695052Y-42960513D01*
X58610011Y-42754698D01*
X58217371Y-42361372D01*
X57704101Y-42148244D01*
X57148340Y-42147759D01*
X56634698Y-42359991D01*
X56241372Y-42752631D01*
X56155052Y-42960513D01*
X56070011Y-42754698D01*
X55677371Y-42361372D01*
X55164101Y-42148244D01*
X54608340Y-42147759D01*
X54094698Y-42359991D01*
X53701372Y-42752631D01*
X53615052Y-42960513D01*
X53530011Y-42754698D01*
X53137371Y-42361372D01*
X52624101Y-42148244D01*
X52068340Y-42147759D01*
X51554698Y-42359991D01*
X51161372Y-42752631D01*
X50948244Y-43265901D01*
X50947759Y-43821662D01*
X48387000Y-43821662D01*
X48387000Y-34380000D01*
X108975907Y-34380000D01*
X109088946Y-34948285D01*
X109410853Y-35430054D01*
X109740026Y-35650000D01*
X109410853Y-35869946D01*
X109088946Y-36351715D01*
X108975907Y-36920000D01*
X109088946Y-37488285D01*
X109410853Y-37970054D01*
X109892622Y-38291961D01*
X110460907Y-38405000D01*
X110519093Y-38405000D01*
X111087378Y-38291961D01*
X111569147Y-37970054D01*
X111758345Y-37686899D01*
X111758355Y-37686924D01*
X112148642Y-38115183D01*
X112673108Y-38361486D01*
X112903000Y-38240819D01*
X112903000Y-37047000D01*
X113157000Y-37047000D01*
X113157000Y-38240819D01*
X113386892Y-38361486D01*
X113911358Y-38115183D01*
X114301645Y-37686924D01*
X114471476Y-37276890D01*
X114350155Y-37047000D01*
X113157000Y-37047000D01*
X112903000Y-37047000D01*
X112883000Y-37047000D01*
X112883000Y-36793000D01*
X112903000Y-36793000D01*
X112903000Y-36773000D01*
X113157000Y-36773000D01*
X113157000Y-36793000D01*
X114350155Y-36793000D01*
X114471476Y-36563110D01*
X114301645Y-36153076D01*
X113911358Y-35724817D01*
X113768447Y-35657702D01*
X114109147Y-35430054D01*
X114302954Y-35140000D01*
X115570000Y-35140000D01*
X115860839Y-35082148D01*
X116107401Y-34917401D01*
X117377401Y-33647401D01*
X117542148Y-33400840D01*
X117600000Y-33110000D01*
X117600000Y-28592463D01*
X117632192Y-28560327D01*
X117774838Y-28216799D01*
X117775162Y-27844833D01*
X117633117Y-27501057D01*
X117370327Y-27237808D01*
X117026799Y-27095162D01*
X116654833Y-27094838D01*
X116311057Y-27236883D01*
X116047808Y-27499673D01*
X115905162Y-27843201D01*
X115904838Y-28215167D01*
X116046883Y-28558943D01*
X116080000Y-28592118D01*
X116080000Y-32795198D01*
X115255198Y-33620000D01*
X114302954Y-33620000D01*
X114109147Y-33329946D01*
X113779974Y-33110000D01*
X114109147Y-32890054D01*
X114431054Y-32408285D01*
X114544093Y-31840000D01*
X114431054Y-31271715D01*
X114109147Y-30789946D01*
X113627378Y-30468039D01*
X113059093Y-30355000D01*
X113000907Y-30355000D01*
X112432622Y-30468039D01*
X111950853Y-30789946D01*
X111950029Y-30791179D01*
X111943162Y-30754683D01*
X111804090Y-30538559D01*
X111591890Y-30393569D01*
X111340000Y-30342560D01*
X109640000Y-30342560D01*
X109404683Y-30386838D01*
X109188559Y-30525910D01*
X109043569Y-30738110D01*
X108992560Y-30990000D01*
X108992560Y-32690000D01*
X109036838Y-32925317D01*
X109175910Y-33141441D01*
X109388110Y-33286431D01*
X109455541Y-33300086D01*
X109410853Y-33329946D01*
X109088946Y-33811715D01*
X108975907Y-34380000D01*
X48387000Y-34380000D01*
X48387000Y-28581662D01*
X50947759Y-28581662D01*
X51159991Y-29095304D01*
X51552631Y-29488630D01*
X52065901Y-29701758D01*
X52621662Y-29702243D01*
X53135304Y-29490011D01*
X53528630Y-29097371D01*
X53614950Y-28889489D01*
X53699991Y-29095304D01*
X54092631Y-29488630D01*
X54605901Y-29701758D01*
X55161662Y-29702243D01*
X55675304Y-29490011D01*
X56068630Y-29097371D01*
X56154950Y-28889489D01*
X56239991Y-29095304D01*
X56632631Y-29488630D01*
X57145901Y-29701758D01*
X57701662Y-29702243D01*
X58215304Y-29490011D01*
X58608630Y-29097371D01*
X58694950Y-28889489D01*
X58779991Y-29095304D01*
X59172631Y-29488630D01*
X59685901Y-29701758D01*
X60241662Y-29702243D01*
X60755304Y-29490011D01*
X61148630Y-29097371D01*
X61234950Y-28889489D01*
X61319991Y-29095304D01*
X61712631Y-29488630D01*
X62225901Y-29701758D01*
X62781662Y-29702243D01*
X63295304Y-29490011D01*
X63688630Y-29097371D01*
X63774950Y-28889489D01*
X63859991Y-29095304D01*
X64252631Y-29488630D01*
X64765901Y-29701758D01*
X65321662Y-29702243D01*
X65835304Y-29490011D01*
X66228630Y-29097371D01*
X66314950Y-28889489D01*
X66399991Y-29095304D01*
X66792631Y-29488630D01*
X67305901Y-29701758D01*
X67861662Y-29702243D01*
X68375304Y-29490011D01*
X68768630Y-29097371D01*
X68854950Y-28889489D01*
X68939991Y-29095304D01*
X69332631Y-29488630D01*
X69845901Y-29701758D01*
X70401662Y-29702243D01*
X70915304Y-29490011D01*
X71308630Y-29097371D01*
X71394950Y-28889489D01*
X71479991Y-29095304D01*
X71872631Y-29488630D01*
X72385901Y-29701758D01*
X72941662Y-29702243D01*
X73455304Y-29490011D01*
X73848630Y-29097371D01*
X73934950Y-28889489D01*
X74019991Y-29095304D01*
X74412631Y-29488630D01*
X74925901Y-29701758D01*
X75481662Y-29702243D01*
X75995304Y-29490011D01*
X76388630Y-29097371D01*
X76474950Y-28889489D01*
X76559991Y-29095304D01*
X76952631Y-29488630D01*
X77465901Y-29701758D01*
X78021662Y-29702243D01*
X78535304Y-29490011D01*
X78928630Y-29097371D01*
X79014950Y-28889489D01*
X79099991Y-29095304D01*
X79492631Y-29488630D01*
X80005901Y-29701758D01*
X80561662Y-29702243D01*
X81075304Y-29490011D01*
X81468630Y-29097371D01*
X81554950Y-28889489D01*
X81639991Y-29095304D01*
X82032631Y-29488630D01*
X82545901Y-29701758D01*
X83101662Y-29702243D01*
X83615304Y-29490011D01*
X84008630Y-29097371D01*
X84094950Y-28889489D01*
X84179991Y-29095304D01*
X84572631Y-29488630D01*
X85085901Y-29701758D01*
X85641662Y-29702243D01*
X86155304Y-29490011D01*
X86548630Y-29097371D01*
X86634950Y-28889489D01*
X86719991Y-29095304D01*
X87112631Y-29488630D01*
X87625901Y-29701758D01*
X88181662Y-29702243D01*
X88695304Y-29490011D01*
X89088630Y-29097371D01*
X89174950Y-28889489D01*
X89259991Y-29095304D01*
X89652631Y-29488630D01*
X90165901Y-29701758D01*
X90721662Y-29702243D01*
X91235304Y-29490011D01*
X91628630Y-29097371D01*
X91714950Y-28889489D01*
X91799991Y-29095304D01*
X92192631Y-29488630D01*
X92705901Y-29701758D01*
X93261662Y-29702243D01*
X93775304Y-29490011D01*
X94168630Y-29097371D01*
X94254950Y-28889489D01*
X94339991Y-29095304D01*
X94732631Y-29488630D01*
X95245901Y-29701758D01*
X95801662Y-29702243D01*
X96315304Y-29490011D01*
X96708630Y-29097371D01*
X96794950Y-28889489D01*
X96879991Y-29095304D01*
X97272631Y-29488630D01*
X97785901Y-29701758D01*
X98341662Y-29702243D01*
X98855304Y-29490011D01*
X99248630Y-29097371D01*
X99334950Y-28889489D01*
X99419991Y-29095304D01*
X99812631Y-29488630D01*
X100325901Y-29701758D01*
X100881662Y-29702243D01*
X101395304Y-29490011D01*
X101788630Y-29097371D01*
X102001758Y-28584101D01*
X102002243Y-28028340D01*
X101790011Y-27514698D01*
X101397371Y-27121372D01*
X100884101Y-26908244D01*
X100328340Y-26907759D01*
X99814698Y-27119991D01*
X99421372Y-27512631D01*
X99335052Y-27720513D01*
X99250011Y-27514698D01*
X98857371Y-27121372D01*
X98344101Y-26908244D01*
X97788340Y-26907759D01*
X97274698Y-27119991D01*
X96881372Y-27512631D01*
X96795052Y-27720513D01*
X96710011Y-27514698D01*
X96317371Y-27121372D01*
X95804101Y-26908244D01*
X95248340Y-26907759D01*
X94734698Y-27119991D01*
X94341372Y-27512631D01*
X94255052Y-27720513D01*
X94170011Y-27514698D01*
X93777371Y-27121372D01*
X93264101Y-26908244D01*
X92708340Y-26907759D01*
X92194698Y-27119991D01*
X91801372Y-27512631D01*
X91715052Y-27720513D01*
X91630011Y-27514698D01*
X91237371Y-27121372D01*
X90724101Y-26908244D01*
X90168340Y-26907759D01*
X89654698Y-27119991D01*
X89261372Y-27512631D01*
X89175052Y-27720513D01*
X89090011Y-27514698D01*
X88697371Y-27121372D01*
X88184101Y-26908244D01*
X87628340Y-26907759D01*
X87114698Y-27119991D01*
X86721372Y-27512631D01*
X86635052Y-27720513D01*
X86550011Y-27514698D01*
X86157371Y-27121372D01*
X85644101Y-26908244D01*
X85088340Y-26907759D01*
X84574698Y-27119991D01*
X84181372Y-27512631D01*
X84095052Y-27720513D01*
X84010011Y-27514698D01*
X83617371Y-27121372D01*
X83104101Y-26908244D01*
X82548340Y-26907759D01*
X82034698Y-27119991D01*
X81641372Y-27512631D01*
X81555052Y-27720513D01*
X81470011Y-27514698D01*
X81077371Y-27121372D01*
X80564101Y-26908244D01*
X80008340Y-26907759D01*
X79494698Y-27119991D01*
X79101372Y-27512631D01*
X79015052Y-27720513D01*
X78930011Y-27514698D01*
X78537371Y-27121372D01*
X78024101Y-26908244D01*
X77468340Y-26907759D01*
X76954698Y-27119991D01*
X76561372Y-27512631D01*
X76475052Y-27720513D01*
X76390011Y-27514698D01*
X75997371Y-27121372D01*
X75484101Y-26908244D01*
X74928340Y-26907759D01*
X74414698Y-27119991D01*
X74021372Y-27512631D01*
X73935052Y-27720513D01*
X73850011Y-27514698D01*
X73457371Y-27121372D01*
X72944101Y-26908244D01*
X72388340Y-26907759D01*
X71874698Y-27119991D01*
X71481372Y-27512631D01*
X71395052Y-27720513D01*
X71310011Y-27514698D01*
X70917371Y-27121372D01*
X70404101Y-26908244D01*
X69848340Y-26907759D01*
X69334698Y-27119991D01*
X68941372Y-27512631D01*
X68855052Y-27720513D01*
X68770011Y-27514698D01*
X68377371Y-27121372D01*
X67864101Y-26908244D01*
X67308340Y-26907759D01*
X66794698Y-27119991D01*
X66401372Y-27512631D01*
X66315052Y-27720513D01*
X66230011Y-27514698D01*
X65837371Y-27121372D01*
X65324101Y-26908244D01*
X64768340Y-26907759D01*
X64254698Y-27119991D01*
X63861372Y-27512631D01*
X63775052Y-27720513D01*
X63690011Y-27514698D01*
X63297371Y-27121372D01*
X62784101Y-26908244D01*
X62228340Y-26907759D01*
X61714698Y-27119991D01*
X61321372Y-27512631D01*
X61235052Y-27720513D01*
X61150011Y-27514698D01*
X60757371Y-27121372D01*
X60244101Y-26908244D01*
X59688340Y-26907759D01*
X59174698Y-27119991D01*
X58781372Y-27512631D01*
X58695052Y-27720513D01*
X58610011Y-27514698D01*
X58217371Y-27121372D01*
X57704101Y-26908244D01*
X57148340Y-26907759D01*
X56634698Y-27119991D01*
X56241372Y-27512631D01*
X56155052Y-27720513D01*
X56070011Y-27514698D01*
X55677371Y-27121372D01*
X55164101Y-26908244D01*
X54608340Y-26907759D01*
X54094698Y-27119991D01*
X53701372Y-27512631D01*
X53615052Y-27720513D01*
X53530011Y-27514698D01*
X53137371Y-27121372D01*
X52624101Y-26908244D01*
X52068340Y-26907759D01*
X51554698Y-27119991D01*
X51161372Y-27512631D01*
X50948244Y-28025901D01*
X50947759Y-28581662D01*
X48387000Y-28581662D01*
X48387000Y-21807000D01*
X119253000Y-21807000D01*
X119253000Y-48223000D01*
X119253000Y-48223000D01*
G37*
X119253000Y-48223000D02*
X48387000Y-48223000D01*
X48387000Y-43821662D01*
X50947759Y-43821662D01*
X51159991Y-44335304D01*
X51552631Y-44728630D01*
X52065901Y-44941758D01*
X52621662Y-44942243D01*
X53135304Y-44730011D01*
X53528630Y-44337371D01*
X53614950Y-44129489D01*
X53699991Y-44335304D01*
X54092631Y-44728630D01*
X54605901Y-44941758D01*
X55161662Y-44942243D01*
X55675304Y-44730011D01*
X56068630Y-44337371D01*
X56154950Y-44129489D01*
X56239991Y-44335304D01*
X56632631Y-44728630D01*
X57145901Y-44941758D01*
X57701662Y-44942243D01*
X58215304Y-44730011D01*
X58608630Y-44337371D01*
X58694950Y-44129489D01*
X58779991Y-44335304D01*
X59172631Y-44728630D01*
X59685901Y-44941758D01*
X60241662Y-44942243D01*
X60755304Y-44730011D01*
X61148630Y-44337371D01*
X61234950Y-44129489D01*
X61319991Y-44335304D01*
X61712631Y-44728630D01*
X62225901Y-44941758D01*
X62781662Y-44942243D01*
X63295304Y-44730011D01*
X63688630Y-44337371D01*
X63774950Y-44129489D01*
X63859991Y-44335304D01*
X64252631Y-44728630D01*
X64765901Y-44941758D01*
X65321662Y-44942243D01*
X65835304Y-44730011D01*
X66228630Y-44337371D01*
X66314950Y-44129489D01*
X66399991Y-44335304D01*
X66792631Y-44728630D01*
X67305901Y-44941758D01*
X67861662Y-44942243D01*
X68375304Y-44730011D01*
X68768630Y-44337371D01*
X68854950Y-44129489D01*
X68939991Y-44335304D01*
X69332631Y-44728630D01*
X69845901Y-44941758D01*
X70401662Y-44942243D01*
X70915304Y-44730011D01*
X71308630Y-44337371D01*
X71394950Y-44129489D01*
X71479991Y-44335304D01*
X71872631Y-44728630D01*
X72385901Y-44941758D01*
X72941662Y-44942243D01*
X73455304Y-44730011D01*
X73848630Y-44337371D01*
X73934950Y-44129489D01*
X74019991Y-44335304D01*
X74412631Y-44728630D01*
X74925901Y-44941758D01*
X75481662Y-44942243D01*
X75995304Y-44730011D01*
X76388630Y-44337371D01*
X76474950Y-44129489D01*
X76559991Y-44335304D01*
X76952631Y-44728630D01*
X77465901Y-44941758D01*
X78021662Y-44942243D01*
X78535304Y-44730011D01*
X78928630Y-44337371D01*
X79014950Y-44129489D01*
X79099991Y-44335304D01*
X79492631Y-44728630D01*
X80005901Y-44941758D01*
X80561662Y-44942243D01*
X81075304Y-44730011D01*
X81468630Y-44337371D01*
X81554950Y-44129489D01*
X81639991Y-44335304D01*
X82032631Y-44728630D01*
X82545901Y-44941758D01*
X83101662Y-44942243D01*
X83615304Y-44730011D01*
X84008630Y-44337371D01*
X84094950Y-44129489D01*
X84179991Y-44335304D01*
X84572631Y-44728630D01*
X85085901Y-44941758D01*
X85641662Y-44942243D01*
X86155304Y-44730011D01*
X86548630Y-44337371D01*
X86634950Y-44129489D01*
X86719991Y-44335304D01*
X87112631Y-44728630D01*
X87625901Y-44941758D01*
X88181662Y-44942243D01*
X88695304Y-44730011D01*
X89088630Y-44337371D01*
X89174950Y-44129489D01*
X89259991Y-44335304D01*
X89652631Y-44728630D01*
X90165901Y-44941758D01*
X90721662Y-44942243D01*
X91235304Y-44730011D01*
X91628630Y-44337371D01*
X91714950Y-44129489D01*
X91799991Y-44335304D01*
X92192631Y-44728630D01*
X92705901Y-44941758D01*
X93261662Y-44942243D01*
X93775304Y-44730011D01*
X94168630Y-44337371D01*
X94254950Y-44129489D01*
X94339991Y-44335304D01*
X94732631Y-44728630D01*
X95245901Y-44941758D01*
X95801662Y-44942243D01*
X96315304Y-44730011D01*
X96520458Y-44525214D01*
X97264393Y-44525214D01*
X97333858Y-44767398D01*
X97857303Y-44954145D01*
X98412369Y-44926363D01*
X98796144Y-44767398D01*
X98865609Y-44525214D01*
X98065001Y-43724606D01*
X97264393Y-44525214D01*
X96520458Y-44525214D01*
X96708630Y-44337371D01*
X96788396Y-44145274D01*
X96842604Y-44276144D01*
X97084788Y-44345609D01*
X97885396Y-43545001D01*
X98244606Y-43545001D01*
X99045214Y-44345609D01*
X99287398Y-44276144D01*
X99337510Y-44135683D01*
X99419991Y-44335304D01*
X99812631Y-44728630D01*
X100325901Y-44941758D01*
X100881662Y-44942243D01*
X101395304Y-44730011D01*
X101788630Y-44337371D01*
X102001758Y-43824101D01*
X102002243Y-43268340D01*
X101790011Y-42754698D01*
X101397371Y-42361372D01*
X100884101Y-42148244D01*
X100328340Y-42147759D01*
X99814698Y-42359991D01*
X99421372Y-42752631D01*
X99341606Y-42944728D01*
X99287398Y-42813858D01*
X99045214Y-42744393D01*
X98244606Y-43545001D01*
X97885396Y-43545001D01*
X97084788Y-42744393D01*
X96842604Y-42813858D01*
X96792492Y-42954319D01*
X96710011Y-42754698D01*
X96520433Y-42564788D01*
X97264393Y-42564788D01*
X98065001Y-43365396D01*
X98865609Y-42564788D01*
X98796144Y-42322604D01*
X98272699Y-42135857D01*
X97717633Y-42163639D01*
X97333858Y-42322604D01*
X97264393Y-42564788D01*
X96520433Y-42564788D01*
X96317371Y-42361372D01*
X95804101Y-42148244D01*
X95248340Y-42147759D01*
X94734698Y-42359991D01*
X94341372Y-42752631D01*
X94255052Y-42960513D01*
X94170011Y-42754698D01*
X93777371Y-42361372D01*
X93264101Y-42148244D01*
X92708340Y-42147759D01*
X92194698Y-42359991D01*
X91801372Y-42752631D01*
X91715052Y-42960513D01*
X91630011Y-42754698D01*
X91237371Y-42361372D01*
X90724101Y-42148244D01*
X90168340Y-42147759D01*
X89654698Y-42359991D01*
X89261372Y-42752631D01*
X89175052Y-42960513D01*
X89090011Y-42754698D01*
X88697371Y-42361372D01*
X88184101Y-42148244D01*
X87628340Y-42147759D01*
X87114698Y-42359991D01*
X86721372Y-42752631D01*
X86635052Y-42960513D01*
X86550011Y-42754698D01*
X86157371Y-42361372D01*
X85644101Y-42148244D01*
X85088340Y-42147759D01*
X84574698Y-42359991D01*
X84181372Y-42752631D01*
X84095052Y-42960513D01*
X84010011Y-42754698D01*
X83617371Y-42361372D01*
X83104101Y-42148244D01*
X82548340Y-42147759D01*
X82034698Y-42359991D01*
X81641372Y-42752631D01*
X81555052Y-42960513D01*
X81470011Y-42754698D01*
X81077371Y-42361372D01*
X80564101Y-42148244D01*
X80008340Y-42147759D01*
X79494698Y-42359991D01*
X79101372Y-42752631D01*
X79015052Y-42960513D01*
X78930011Y-42754698D01*
X78537371Y-42361372D01*
X78024101Y-42148244D01*
X77468340Y-42147759D01*
X76954698Y-42359991D01*
X76561372Y-42752631D01*
X76475052Y-42960513D01*
X76390011Y-42754698D01*
X75997371Y-42361372D01*
X75484101Y-42148244D01*
X74928340Y-42147759D01*
X74414698Y-42359991D01*
X74021372Y-42752631D01*
X73935052Y-42960513D01*
X73850011Y-42754698D01*
X73457371Y-42361372D01*
X72944101Y-42148244D01*
X72388340Y-42147759D01*
X71874698Y-42359991D01*
X71481372Y-42752631D01*
X71395052Y-42960513D01*
X71310011Y-42754698D01*
X70917371Y-42361372D01*
X70404101Y-42148244D01*
X69848340Y-42147759D01*
X69334698Y-42359991D01*
X68941372Y-42752631D01*
X68855052Y-42960513D01*
X68770011Y-42754698D01*
X68377371Y-42361372D01*
X67864101Y-42148244D01*
X67308340Y-42147759D01*
X66794698Y-42359991D01*
X66401372Y-42752631D01*
X66315052Y-42960513D01*
X66230011Y-42754698D01*
X65837371Y-42361372D01*
X65324101Y-42148244D01*
X64768340Y-42147759D01*
X64254698Y-42359991D01*
X63861372Y-42752631D01*
X63775052Y-42960513D01*
X63690011Y-42754698D01*
X63297371Y-42361372D01*
X62784101Y-42148244D01*
X62228340Y-42147759D01*
X61714698Y-42359991D01*
X61321372Y-42752631D01*
X61235052Y-42960513D01*
X61150011Y-42754698D01*
X60757371Y-42361372D01*
X60244101Y-42148244D01*
X59688340Y-42147759D01*
X59174698Y-42359991D01*
X58781372Y-42752631D01*
X58695052Y-42960513D01*
X58610011Y-42754698D01*
X58217371Y-42361372D01*
X57704101Y-42148244D01*
X57148340Y-42147759D01*
X56634698Y-42359991D01*
X56241372Y-42752631D01*
X56155052Y-42960513D01*
X56070011Y-42754698D01*
X55677371Y-42361372D01*
X55164101Y-42148244D01*
X54608340Y-42147759D01*
X54094698Y-42359991D01*
X53701372Y-42752631D01*
X53615052Y-42960513D01*
X53530011Y-42754698D01*
X53137371Y-42361372D01*
X52624101Y-42148244D01*
X52068340Y-42147759D01*
X51554698Y-42359991D01*
X51161372Y-42752631D01*
X50948244Y-43265901D01*
X50947759Y-43821662D01*
X48387000Y-43821662D01*
X48387000Y-34380000D01*
X108975907Y-34380000D01*
X109088946Y-34948285D01*
X109410853Y-35430054D01*
X109740026Y-35650000D01*
X109410853Y-35869946D01*
X109088946Y-36351715D01*
X108975907Y-36920000D01*
X109088946Y-37488285D01*
X109410853Y-37970054D01*
X109892622Y-38291961D01*
X110460907Y-38405000D01*
X110519093Y-38405000D01*
X111087378Y-38291961D01*
X111569147Y-37970054D01*
X111758345Y-37686899D01*
X111758355Y-37686924D01*
X112148642Y-38115183D01*
X112673108Y-38361486D01*
X112903000Y-38240819D01*
X112903000Y-37047000D01*
X113157000Y-37047000D01*
X113157000Y-38240819D01*
X113386892Y-38361486D01*
X113911358Y-38115183D01*
X114301645Y-37686924D01*
X114471476Y-37276890D01*
X114350155Y-37047000D01*
X113157000Y-37047000D01*
X112903000Y-37047000D01*
X112883000Y-37047000D01*
X112883000Y-36793000D01*
X112903000Y-36793000D01*
X112903000Y-36773000D01*
X113157000Y-36773000D01*
X113157000Y-36793000D01*
X114350155Y-36793000D01*
X114471476Y-36563110D01*
X114301645Y-36153076D01*
X113911358Y-35724817D01*
X113768447Y-35657702D01*
X114109147Y-35430054D01*
X114302954Y-35140000D01*
X115570000Y-35140000D01*
X115860839Y-35082148D01*
X116107401Y-34917401D01*
X117377401Y-33647401D01*
X117542148Y-33400840D01*
X117600000Y-33110000D01*
X117600000Y-28592463D01*
X117632192Y-28560327D01*
X117774838Y-28216799D01*
X117775162Y-27844833D01*
X117633117Y-27501057D01*
X117370327Y-27237808D01*
X117026799Y-27095162D01*
X116654833Y-27094838D01*
X116311057Y-27236883D01*
X116047808Y-27499673D01*
X115905162Y-27843201D01*
X115904838Y-28215167D01*
X116046883Y-28558943D01*
X116080000Y-28592118D01*
X116080000Y-32795198D01*
X115255198Y-33620000D01*
X114302954Y-33620000D01*
X114109147Y-33329946D01*
X113779974Y-33110000D01*
X114109147Y-32890054D01*
X114431054Y-32408285D01*
X114544093Y-31840000D01*
X114431054Y-31271715D01*
X114109147Y-30789946D01*
X113627378Y-30468039D01*
X113059093Y-30355000D01*
X113000907Y-30355000D01*
X112432622Y-30468039D01*
X111950853Y-30789946D01*
X111950029Y-30791179D01*
X111943162Y-30754683D01*
X111804090Y-30538559D01*
X111591890Y-30393569D01*
X111340000Y-30342560D01*
X109640000Y-30342560D01*
X109404683Y-30386838D01*
X109188559Y-30525910D01*
X109043569Y-30738110D01*
X108992560Y-30990000D01*
X108992560Y-32690000D01*
X109036838Y-32925317D01*
X109175910Y-33141441D01*
X109388110Y-33286431D01*
X109455541Y-33300086D01*
X109410853Y-33329946D01*
X109088946Y-33811715D01*
X108975907Y-34380000D01*
X48387000Y-34380000D01*
X48387000Y-28581662D01*
X50947759Y-28581662D01*
X51159991Y-29095304D01*
X51552631Y-29488630D01*
X52065901Y-29701758D01*
X52621662Y-29702243D01*
X53135304Y-29490011D01*
X53528630Y-29097371D01*
X53614950Y-28889489D01*
X53699991Y-29095304D01*
X54092631Y-29488630D01*
X54605901Y-29701758D01*
X55161662Y-29702243D01*
X55675304Y-29490011D01*
X56068630Y-29097371D01*
X56154950Y-28889489D01*
X56239991Y-29095304D01*
X56632631Y-29488630D01*
X57145901Y-29701758D01*
X57701662Y-29702243D01*
X58215304Y-29490011D01*
X58608630Y-29097371D01*
X58694950Y-28889489D01*
X58779991Y-29095304D01*
X59172631Y-29488630D01*
X59685901Y-29701758D01*
X60241662Y-29702243D01*
X60755304Y-29490011D01*
X61148630Y-29097371D01*
X61234950Y-28889489D01*
X61319991Y-29095304D01*
X61712631Y-29488630D01*
X62225901Y-29701758D01*
X62781662Y-29702243D01*
X63295304Y-29490011D01*
X63688630Y-29097371D01*
X63774950Y-28889489D01*
X63859991Y-29095304D01*
X64252631Y-29488630D01*
X64765901Y-29701758D01*
X65321662Y-29702243D01*
X65835304Y-29490011D01*
X66228630Y-29097371D01*
X66314950Y-28889489D01*
X66399991Y-29095304D01*
X66792631Y-29488630D01*
X67305901Y-29701758D01*
X67861662Y-29702243D01*
X68375304Y-29490011D01*
X68768630Y-29097371D01*
X68854950Y-28889489D01*
X68939991Y-29095304D01*
X69332631Y-29488630D01*
X69845901Y-29701758D01*
X70401662Y-29702243D01*
X70915304Y-29490011D01*
X71308630Y-29097371D01*
X71394950Y-28889489D01*
X71479991Y-29095304D01*
X71872631Y-29488630D01*
X72385901Y-29701758D01*
X72941662Y-29702243D01*
X73455304Y-29490011D01*
X73848630Y-29097371D01*
X73934950Y-28889489D01*
X74019991Y-29095304D01*
X74412631Y-29488630D01*
X74925901Y-29701758D01*
X75481662Y-29702243D01*
X75995304Y-29490011D01*
X76388630Y-29097371D01*
X76474950Y-28889489D01*
X76559991Y-29095304D01*
X76952631Y-29488630D01*
X77465901Y-29701758D01*
X78021662Y-29702243D01*
X78535304Y-29490011D01*
X78928630Y-29097371D01*
X79014950Y-28889489D01*
X79099991Y-29095304D01*
X79492631Y-29488630D01*
X80005901Y-29701758D01*
X80561662Y-29702243D01*
X81075304Y-29490011D01*
X81468630Y-29097371D01*
X81554950Y-28889489D01*
X81639991Y-29095304D01*
X82032631Y-29488630D01*
X82545901Y-29701758D01*
X83101662Y-29702243D01*
X83615304Y-29490011D01*
X84008630Y-29097371D01*
X84094950Y-28889489D01*
X84179991Y-29095304D01*
X84572631Y-29488630D01*
X85085901Y-29701758D01*
X85641662Y-29702243D01*
X86155304Y-29490011D01*
X86548630Y-29097371D01*
X86634950Y-28889489D01*
X86719991Y-29095304D01*
X87112631Y-29488630D01*
X87625901Y-29701758D01*
X88181662Y-29702243D01*
X88695304Y-29490011D01*
X89088630Y-29097371D01*
X89174950Y-28889489D01*
X89259991Y-29095304D01*
X89652631Y-29488630D01*
X90165901Y-29701758D01*
X90721662Y-29702243D01*
X91235304Y-29490011D01*
X91628630Y-29097371D01*
X91714950Y-28889489D01*
X91799991Y-29095304D01*
X92192631Y-29488630D01*
X92705901Y-29701758D01*
X93261662Y-29702243D01*
X93775304Y-29490011D01*
X94168630Y-29097371D01*
X94254950Y-28889489D01*
X94339991Y-29095304D01*
X94732631Y-29488630D01*
X95245901Y-29701758D01*
X95801662Y-29702243D01*
X96315304Y-29490011D01*
X96708630Y-29097371D01*
X96794950Y-28889489D01*
X96879991Y-29095304D01*
X97272631Y-29488630D01*
X97785901Y-29701758D01*
X98341662Y-29702243D01*
X98855304Y-29490011D01*
X99248630Y-29097371D01*
X99334950Y-28889489D01*
X99419991Y-29095304D01*
X99812631Y-29488630D01*
X100325901Y-29701758D01*
X100881662Y-29702243D01*
X101395304Y-29490011D01*
X101788630Y-29097371D01*
X102001758Y-28584101D01*
X102002243Y-28028340D01*
X101790011Y-27514698D01*
X101397371Y-27121372D01*
X100884101Y-26908244D01*
X100328340Y-26907759D01*
X99814698Y-27119991D01*
X99421372Y-27512631D01*
X99335052Y-27720513D01*
X99250011Y-27514698D01*
X98857371Y-27121372D01*
X98344101Y-26908244D01*
X97788340Y-26907759D01*
X97274698Y-27119991D01*
X96881372Y-27512631D01*
X96795052Y-27720513D01*
X96710011Y-27514698D01*
X96317371Y-27121372D01*
X95804101Y-26908244D01*
X95248340Y-26907759D01*
X94734698Y-27119991D01*
X94341372Y-27512631D01*
X94255052Y-27720513D01*
X94170011Y-27514698D01*
X93777371Y-27121372D01*
X93264101Y-26908244D01*
X92708340Y-26907759D01*
X92194698Y-27119991D01*
X91801372Y-27512631D01*
X91715052Y-27720513D01*
X91630011Y-27514698D01*
X91237371Y-27121372D01*
X90724101Y-26908244D01*
X90168340Y-26907759D01*
X89654698Y-27119991D01*
X89261372Y-27512631D01*
X89175052Y-27720513D01*
X89090011Y-27514698D01*
X88697371Y-27121372D01*
X88184101Y-26908244D01*
X87628340Y-26907759D01*
X87114698Y-27119991D01*
X86721372Y-27512631D01*
X86635052Y-27720513D01*
X86550011Y-27514698D01*
X86157371Y-27121372D01*
X85644101Y-26908244D01*
X85088340Y-26907759D01*
X84574698Y-27119991D01*
X84181372Y-27512631D01*
X84095052Y-27720513D01*
X84010011Y-27514698D01*
X83617371Y-27121372D01*
X83104101Y-26908244D01*
X82548340Y-26907759D01*
X82034698Y-27119991D01*
X81641372Y-27512631D01*
X81555052Y-27720513D01*
X81470011Y-27514698D01*
X81077371Y-27121372D01*
X80564101Y-26908244D01*
X80008340Y-26907759D01*
X79494698Y-27119991D01*
X79101372Y-27512631D01*
X79015052Y-27720513D01*
X78930011Y-27514698D01*
X78537371Y-27121372D01*
X78024101Y-26908244D01*
X77468340Y-26907759D01*
X76954698Y-27119991D01*
X76561372Y-27512631D01*
X76475052Y-27720513D01*
X76390011Y-27514698D01*
X75997371Y-27121372D01*
X75484101Y-26908244D01*
X74928340Y-26907759D01*
X74414698Y-27119991D01*
X74021372Y-27512631D01*
X73935052Y-27720513D01*
X73850011Y-27514698D01*
X73457371Y-27121372D01*
X72944101Y-26908244D01*
X72388340Y-26907759D01*
X71874698Y-27119991D01*
X71481372Y-27512631D01*
X71395052Y-27720513D01*
X71310011Y-27514698D01*
X70917371Y-27121372D01*
X70404101Y-26908244D01*
X69848340Y-26907759D01*
X69334698Y-27119991D01*
X68941372Y-27512631D01*
X68855052Y-27720513D01*
X68770011Y-27514698D01*
X68377371Y-27121372D01*
X67864101Y-26908244D01*
X67308340Y-26907759D01*
X66794698Y-27119991D01*
X66401372Y-27512631D01*
X66315052Y-27720513D01*
X66230011Y-27514698D01*
X65837371Y-27121372D01*
X65324101Y-26908244D01*
X64768340Y-26907759D01*
X64254698Y-27119991D01*
X63861372Y-27512631D01*
X63775052Y-27720513D01*
X63690011Y-27514698D01*
X63297371Y-27121372D01*
X62784101Y-26908244D01*
X62228340Y-26907759D01*
X61714698Y-27119991D01*
X61321372Y-27512631D01*
X61235052Y-27720513D01*
X61150011Y-27514698D01*
X60757371Y-27121372D01*
X60244101Y-26908244D01*
X59688340Y-26907759D01*
X59174698Y-27119991D01*
X58781372Y-27512631D01*
X58695052Y-27720513D01*
X58610011Y-27514698D01*
X58217371Y-27121372D01*
X57704101Y-26908244D01*
X57148340Y-26907759D01*
X56634698Y-27119991D01*
X56241372Y-27512631D01*
X56155052Y-27720513D01*
X56070011Y-27514698D01*
X55677371Y-27121372D01*
X55164101Y-26908244D01*
X54608340Y-26907759D01*
X54094698Y-27119991D01*
X53701372Y-27512631D01*
X53615052Y-27720513D01*
X53530011Y-27514698D01*
X53137371Y-27121372D01*
X52624101Y-26908244D01*
X52068340Y-26907759D01*
X51554698Y-27119991D01*
X51161372Y-27512631D01*
X50948244Y-28025901D01*
X50947759Y-28581662D01*
X48387000Y-28581662D01*
X48387000Y-21807000D01*
X119253000Y-21807000D01*
X119253000Y-48223000D01*
M02*
