G04 #@! TF.FileFunction,Copper,L2,Bot,Signal*
%FSLAX46Y46*%
G04 Gerber Fmt 4.6, Leading zero omitted, Abs format (unit mm)*
G04 Created by KiCad (PCBNEW 4.0.6) date Mon Apr 17 21:44:19 2017*
%MOMM*%
%LPD*%
G01*
G04 APERTURE LIST*
%ADD10C,0.100000*%
%ADD11R,1.700000X1.700000*%
%ADD12O,1.700000X1.700000*%
%ADD13C,1.524000*%
%ADD14C,0.600000*%
%ADD15C,0.250000*%
G04 APERTURE END LIST*
D10*
D11*
X226060000Y-113030000D03*
D12*
X228600000Y-113030000D03*
X226060000Y-115570000D03*
X228600000Y-115570000D03*
X226060000Y-118110000D03*
X228600000Y-118110000D03*
D13*
X167915001Y-124735001D03*
X170455001Y-124735001D03*
X172995001Y-124735001D03*
X175535001Y-124735001D03*
X178075001Y-124735001D03*
X180615001Y-124735001D03*
X183155001Y-124735001D03*
X185695001Y-124735001D03*
X188235001Y-124735001D03*
X190775001Y-124735001D03*
X193315001Y-124735001D03*
X195855001Y-124735001D03*
X198395001Y-124735001D03*
X200935001Y-124735001D03*
X203475001Y-124735001D03*
X206015001Y-124735001D03*
X208555001Y-124735001D03*
X211095001Y-124735001D03*
X213635001Y-124735001D03*
X216175001Y-124735001D03*
X216175001Y-109495001D03*
X213635001Y-109495001D03*
X211095001Y-109495001D03*
X208555001Y-109495001D03*
X206015001Y-109495001D03*
X203475001Y-109495001D03*
X200935001Y-109495001D03*
X198395001Y-109495001D03*
X195855001Y-109495001D03*
X193315001Y-109495001D03*
X190775001Y-109495001D03*
X188235001Y-109495001D03*
X185695001Y-109495001D03*
X183155001Y-109495001D03*
X180615001Y-109495001D03*
X178075001Y-109495001D03*
X175535001Y-109495001D03*
X172995001Y-109495001D03*
X170455001Y-109495001D03*
X167915001Y-109495001D03*
D11*
X226060000Y-145370000D03*
D12*
X228600000Y-145370000D03*
X226060000Y-147910000D03*
X228600000Y-147910000D03*
X226060000Y-150450000D03*
X228600000Y-150450000D03*
D13*
X167915001Y-157075001D03*
X170455001Y-157075001D03*
X172995001Y-157075001D03*
X175535001Y-157075001D03*
X178075001Y-157075001D03*
X180615001Y-157075001D03*
X183155001Y-157075001D03*
X185695001Y-157075001D03*
X188235001Y-157075001D03*
X190775001Y-157075001D03*
X193315001Y-157075001D03*
X195855001Y-157075001D03*
X198395001Y-157075001D03*
X200935001Y-157075001D03*
X203475001Y-157075001D03*
X206015001Y-157075001D03*
X208555001Y-157075001D03*
X211095001Y-157075001D03*
X213635001Y-157075001D03*
X216175001Y-157075001D03*
X216175001Y-141835001D03*
X213635001Y-141835001D03*
X211095001Y-141835001D03*
X208555001Y-141835001D03*
X206015001Y-141835001D03*
X203475001Y-141835001D03*
X200935001Y-141835001D03*
X198395001Y-141835001D03*
X195855001Y-141835001D03*
X193315001Y-141835001D03*
X190775001Y-141835001D03*
X188235001Y-141835001D03*
X185695001Y-141835001D03*
X183155001Y-141835001D03*
X180615001Y-141835001D03*
X178075001Y-141835001D03*
X175535001Y-141835001D03*
X172995001Y-141835001D03*
X170455001Y-141835001D03*
X167915001Y-141835001D03*
D11*
X226060000Y-80690000D03*
D12*
X228600000Y-80690000D03*
X226060000Y-83230000D03*
X228600000Y-83230000D03*
X226060000Y-85770000D03*
X228600000Y-85770000D03*
D13*
X167915001Y-92395001D03*
X170455001Y-92395001D03*
X172995001Y-92395001D03*
X175535001Y-92395001D03*
X178075001Y-92395001D03*
X180615001Y-92395001D03*
X183155001Y-92395001D03*
X185695001Y-92395001D03*
X188235001Y-92395001D03*
X190775001Y-92395001D03*
X193315001Y-92395001D03*
X195855001Y-92395001D03*
X198395001Y-92395001D03*
X200935001Y-92395001D03*
X203475001Y-92395001D03*
X206015001Y-92395001D03*
X208555001Y-92395001D03*
X211095001Y-92395001D03*
X213635001Y-92395001D03*
X216175001Y-92395001D03*
X216175001Y-77155001D03*
X213635001Y-77155001D03*
X211095001Y-77155001D03*
X208555001Y-77155001D03*
X206015001Y-77155001D03*
X203475001Y-77155001D03*
X200935001Y-77155001D03*
X198395001Y-77155001D03*
X195855001Y-77155001D03*
X193315001Y-77155001D03*
X190775001Y-77155001D03*
X188235001Y-77155001D03*
X185695001Y-77155001D03*
X183155001Y-77155001D03*
X180615001Y-77155001D03*
X178075001Y-77155001D03*
X175535001Y-77155001D03*
X172995001Y-77155001D03*
X170455001Y-77155001D03*
X167915001Y-77155001D03*
D11*
X226060000Y-48350000D03*
D12*
X228600000Y-48350000D03*
X226060000Y-50890000D03*
X228600000Y-50890000D03*
X226060000Y-53430000D03*
X228600000Y-53430000D03*
D13*
X167915001Y-60055001D03*
X170455001Y-60055001D03*
X172995001Y-60055001D03*
X175535001Y-60055001D03*
X178075001Y-60055001D03*
X180615001Y-60055001D03*
X183155001Y-60055001D03*
X185695001Y-60055001D03*
X188235001Y-60055001D03*
X190775001Y-60055001D03*
X193315001Y-60055001D03*
X195855001Y-60055001D03*
X198395001Y-60055001D03*
X200935001Y-60055001D03*
X203475001Y-60055001D03*
X206015001Y-60055001D03*
X208555001Y-60055001D03*
X211095001Y-60055001D03*
X213635001Y-60055001D03*
X216175001Y-60055001D03*
X216175001Y-44815001D03*
X213635001Y-44815001D03*
X211095001Y-44815001D03*
X208555001Y-44815001D03*
X206015001Y-44815001D03*
X203475001Y-44815001D03*
X200935001Y-44815001D03*
X198395001Y-44815001D03*
X195855001Y-44815001D03*
X193315001Y-44815001D03*
X190775001Y-44815001D03*
X188235001Y-44815001D03*
X185695001Y-44815001D03*
X183155001Y-44815001D03*
X180615001Y-44815001D03*
X178075001Y-44815001D03*
X175535001Y-44815001D03*
X172995001Y-44815001D03*
X170455001Y-44815001D03*
X167915001Y-44815001D03*
D14*
X232410000Y-109220000D03*
X232410000Y-141560000D03*
X232410000Y-76880000D03*
X232410000Y-44540000D03*
D15*
X190775001Y-109495001D02*
X190775001Y-107674999D01*
X219710000Y-106680000D02*
X226060000Y-113030000D01*
X191770000Y-106680000D02*
X219710000Y-106680000D01*
X190775001Y-107674999D02*
X191770000Y-106680000D01*
X193315001Y-109495001D02*
X193315001Y-113305001D01*
X195580000Y-115570000D02*
X226060000Y-115570000D01*
X193315001Y-113305001D02*
X195580000Y-115570000D01*
X188235001Y-109495001D02*
X188235001Y-107674999D01*
X228600000Y-105410000D02*
X232410000Y-109220000D01*
X190500000Y-105410000D02*
X228600000Y-105410000D01*
X188235001Y-107674999D02*
X190500000Y-105410000D01*
X178075001Y-124735001D02*
X178075001Y-122914999D01*
X182880000Y-118110000D02*
X226060000Y-118110000D01*
X178075001Y-122914999D02*
X182880000Y-118110000D01*
X216175001Y-124735001D02*
X227054999Y-124735001D01*
X232410000Y-113030000D02*
X228600000Y-113030000D01*
X233680000Y-114300000D02*
X232410000Y-113030000D01*
X233680000Y-118110000D02*
X233680000Y-114300000D01*
X227054999Y-124735001D02*
X233680000Y-118110000D01*
X190775001Y-141835001D02*
X190775001Y-140014999D01*
X219710000Y-139020000D02*
X226060000Y-145370000D01*
X191770000Y-139020000D02*
X219710000Y-139020000D01*
X190775001Y-140014999D02*
X191770000Y-139020000D01*
X216175001Y-157075001D02*
X227054999Y-157075001D01*
X232410000Y-145370000D02*
X228600000Y-145370000D01*
X233680000Y-146640000D02*
X232410000Y-145370000D01*
X233680000Y-150450000D02*
X233680000Y-146640000D01*
X227054999Y-157075001D02*
X233680000Y-150450000D01*
X193315001Y-141835001D02*
X193315001Y-145645001D01*
X195580000Y-147910000D02*
X226060000Y-147910000D01*
X193315001Y-145645001D02*
X195580000Y-147910000D01*
X188235001Y-141835001D02*
X188235001Y-140014999D01*
X228600000Y-137750000D02*
X232410000Y-141560000D01*
X190500000Y-137750000D02*
X228600000Y-137750000D01*
X188235001Y-140014999D02*
X190500000Y-137750000D01*
X178075001Y-157075001D02*
X178075001Y-155254999D01*
X182880000Y-150450000D02*
X226060000Y-150450000D01*
X178075001Y-155254999D02*
X182880000Y-150450000D01*
X190775001Y-77155001D02*
X190775001Y-75334999D01*
X219710000Y-74340000D02*
X226060000Y-80690000D01*
X191770000Y-74340000D02*
X219710000Y-74340000D01*
X190775001Y-75334999D02*
X191770000Y-74340000D01*
X216175001Y-92395001D02*
X227054999Y-92395001D01*
X232410000Y-80690000D02*
X228600000Y-80690000D01*
X233680000Y-81960000D02*
X232410000Y-80690000D01*
X233680000Y-85770000D02*
X233680000Y-81960000D01*
X227054999Y-92395001D02*
X233680000Y-85770000D01*
X193315001Y-77155001D02*
X193315001Y-80965001D01*
X195580000Y-83230000D02*
X226060000Y-83230000D01*
X193315001Y-80965001D02*
X195580000Y-83230000D01*
X188235001Y-77155001D02*
X188235001Y-75334999D01*
X228600000Y-73070000D02*
X232410000Y-76880000D01*
X190500000Y-73070000D02*
X228600000Y-73070000D01*
X188235001Y-75334999D02*
X190500000Y-73070000D01*
X178075001Y-92395001D02*
X178075001Y-90574999D01*
X182880000Y-85770000D02*
X226060000Y-85770000D01*
X178075001Y-90574999D02*
X182880000Y-85770000D01*
X190775001Y-44815001D02*
X190775001Y-42994999D01*
X219710000Y-42000000D02*
X226060000Y-48350000D01*
X191770000Y-42000000D02*
X219710000Y-42000000D01*
X190775001Y-42994999D02*
X191770000Y-42000000D01*
X216175001Y-60055001D02*
X227054999Y-60055001D01*
X232410000Y-48350000D02*
X228600000Y-48350000D01*
X233680000Y-49620000D02*
X232410000Y-48350000D01*
X233680000Y-53430000D02*
X233680000Y-49620000D01*
X227054999Y-60055001D02*
X233680000Y-53430000D01*
X193315001Y-44815001D02*
X193315001Y-48625001D01*
X195580000Y-50890000D02*
X226060000Y-50890000D01*
X193315001Y-48625001D02*
X195580000Y-50890000D01*
X188235001Y-44815001D02*
X188235001Y-42994999D01*
X228600000Y-40730000D02*
X232410000Y-44540000D01*
X190500000Y-40730000D02*
X228600000Y-40730000D01*
X188235001Y-42994999D02*
X190500000Y-40730000D01*
X178075001Y-60055001D02*
X178075001Y-58234999D01*
X182880000Y-53430000D02*
X226060000Y-53430000D01*
X178075001Y-58234999D02*
X182880000Y-53430000D01*
M02*
