G04 #@! TF.FileFunction,Legend,Top*
%FSLAX46Y46*%
G04 Gerber Fmt 4.6, Leading zero omitted, Abs format (unit mm)*
G04 Created by KiCad (PCBNEW 4.0.6) date Mon Apr 17 21:44:19 2017*
%MOMM*%
%LPD*%
G01*
G04 APERTURE LIST*
%ADD10C,0.100000*%
%ADD11C,0.200000*%
%ADD12C,0.120000*%
%ADD13C,0.150000*%
G04 APERTURE END LIST*
D10*
D11*
X162560000Y-132080000D02*
X236220000Y-132080000D01*
X162560000Y-100330000D02*
X236220000Y-100330000D01*
X162560000Y-67310000D02*
X236220000Y-67310000D01*
D12*
X224730000Y-114300000D02*
X224730000Y-119440000D01*
X224730000Y-119440000D02*
X229930000Y-119440000D01*
X229930000Y-119440000D02*
X229930000Y-111700000D01*
X229930000Y-111700000D02*
X227330000Y-111700000D01*
X227330000Y-111700000D02*
X227330000Y-114300000D01*
X227330000Y-114300000D02*
X224730000Y-114300000D01*
X224730000Y-113030000D02*
X224730000Y-111700000D01*
X224730000Y-111700000D02*
X226060000Y-111700000D01*
D13*
X165375001Y-128545001D02*
X218715001Y-128545001D01*
X218715001Y-105685001D02*
X165375001Y-105685001D01*
X218715001Y-128545001D02*
X218715001Y-105685001D01*
X165375001Y-105685001D02*
X165375001Y-128545001D01*
D12*
X224730000Y-146640000D02*
X224730000Y-151780000D01*
X224730000Y-151780000D02*
X229930000Y-151780000D01*
X229930000Y-151780000D02*
X229930000Y-144040000D01*
X229930000Y-144040000D02*
X227330000Y-144040000D01*
X227330000Y-144040000D02*
X227330000Y-146640000D01*
X227330000Y-146640000D02*
X224730000Y-146640000D01*
X224730000Y-145370000D02*
X224730000Y-144040000D01*
X224730000Y-144040000D02*
X226060000Y-144040000D01*
D13*
X165375001Y-160885001D02*
X218715001Y-160885001D01*
X218715001Y-138025001D02*
X165375001Y-138025001D01*
X218715001Y-160885001D02*
X218715001Y-138025001D01*
X165375001Y-138025001D02*
X165375001Y-160885001D01*
D12*
X224730000Y-81960000D02*
X224730000Y-87100000D01*
X224730000Y-87100000D02*
X229930000Y-87100000D01*
X229930000Y-87100000D02*
X229930000Y-79360000D01*
X229930000Y-79360000D02*
X227330000Y-79360000D01*
X227330000Y-79360000D02*
X227330000Y-81960000D01*
X227330000Y-81960000D02*
X224730000Y-81960000D01*
X224730000Y-80690000D02*
X224730000Y-79360000D01*
X224730000Y-79360000D02*
X226060000Y-79360000D01*
D13*
X165375001Y-96205001D02*
X218715001Y-96205001D01*
X218715001Y-73345001D02*
X165375001Y-73345001D01*
X218715001Y-96205001D02*
X218715001Y-73345001D01*
X165375001Y-73345001D02*
X165375001Y-96205001D01*
D12*
X224730000Y-49620000D02*
X224730000Y-54760000D01*
X224730000Y-54760000D02*
X229930000Y-54760000D01*
X229930000Y-54760000D02*
X229930000Y-47020000D01*
X229930000Y-47020000D02*
X227330000Y-47020000D01*
X227330000Y-47020000D02*
X227330000Y-49620000D01*
X227330000Y-49620000D02*
X224730000Y-49620000D01*
X224730000Y-48350000D02*
X224730000Y-47020000D01*
X224730000Y-47020000D02*
X226060000Y-47020000D01*
D13*
X165375001Y-63865001D02*
X218715001Y-63865001D01*
X218715001Y-41005001D02*
X165375001Y-41005001D01*
X218715001Y-63865001D02*
X218715001Y-41005001D01*
X165375001Y-41005001D02*
X165375001Y-63865001D01*
X191283096Y-117837382D02*
X191283096Y-118646906D01*
X191330715Y-118742144D01*
X191378334Y-118789763D01*
X191473572Y-118837382D01*
X191664049Y-118837382D01*
X191759287Y-118789763D01*
X191806906Y-118742144D01*
X191854525Y-118646906D01*
X191854525Y-117837382D01*
X192854525Y-118837382D02*
X192283096Y-118837382D01*
X192568810Y-118837382D02*
X192568810Y-117837382D01*
X192473572Y-117980239D01*
X192378334Y-118075477D01*
X192283096Y-118123096D01*
X180568810Y-116249763D02*
X180664048Y-116297382D01*
X180854524Y-116297382D01*
X180949763Y-116249763D01*
X180997382Y-116154525D01*
X180997382Y-116106906D01*
X180949763Y-116011668D01*
X180854524Y-115964049D01*
X180711667Y-115964049D01*
X180616429Y-115916430D01*
X180568810Y-115821191D01*
X180568810Y-115773572D01*
X180616429Y-115678334D01*
X180711667Y-115630715D01*
X180854524Y-115630715D01*
X180949763Y-115678334D01*
X181283096Y-115630715D02*
X181664048Y-115630715D01*
X181425953Y-115297382D02*
X181425953Y-116154525D01*
X181473572Y-116249763D01*
X181568810Y-116297382D01*
X181664048Y-116297382D01*
X181997382Y-116297382D02*
X181997382Y-115630715D01*
X181997382Y-115725953D02*
X182045001Y-115678334D01*
X182140239Y-115630715D01*
X182283097Y-115630715D01*
X182378335Y-115678334D01*
X182425954Y-115773572D01*
X182425954Y-116297382D01*
X182425954Y-115773572D02*
X182473573Y-115678334D01*
X182568811Y-115630715D01*
X182711668Y-115630715D01*
X182806906Y-115678334D01*
X182854525Y-115773572D01*
X182854525Y-116297382D01*
X183235477Y-115297382D02*
X183854525Y-115297382D01*
X183521191Y-115678334D01*
X183664049Y-115678334D01*
X183759287Y-115725953D01*
X183806906Y-115773572D01*
X183854525Y-115868811D01*
X183854525Y-116106906D01*
X183806906Y-116202144D01*
X183759287Y-116249763D01*
X183664049Y-116297382D01*
X183378334Y-116297382D01*
X183283096Y-116249763D01*
X183235477Y-116202144D01*
X184235477Y-115392620D02*
X184283096Y-115345001D01*
X184378334Y-115297382D01*
X184616430Y-115297382D01*
X184711668Y-115345001D01*
X184759287Y-115392620D01*
X184806906Y-115487858D01*
X184806906Y-115583096D01*
X184759287Y-115725953D01*
X184187858Y-116297382D01*
X184806906Y-116297382D01*
X185092620Y-115630715D02*
X185473572Y-115630715D01*
X185235477Y-116297382D02*
X185235477Y-115440239D01*
X185283096Y-115345001D01*
X185378334Y-115297382D01*
X185473572Y-115297382D01*
X186330716Y-116297382D02*
X185759287Y-116297382D01*
X186045001Y-116297382D02*
X186045001Y-115297382D01*
X185949763Y-115440239D01*
X185854525Y-115535477D01*
X185759287Y-115583096D01*
X186949763Y-115297382D02*
X187045002Y-115297382D01*
X187140240Y-115345001D01*
X187187859Y-115392620D01*
X187235478Y-115487858D01*
X187283097Y-115678334D01*
X187283097Y-115916430D01*
X187235478Y-116106906D01*
X187187859Y-116202144D01*
X187140240Y-116249763D01*
X187045002Y-116297382D01*
X186949763Y-116297382D01*
X186854525Y-116249763D01*
X186806906Y-116202144D01*
X186759287Y-116106906D01*
X186711668Y-115916430D01*
X186711668Y-115678334D01*
X186759287Y-115487858D01*
X186806906Y-115392620D01*
X186854525Y-115345001D01*
X186949763Y-115297382D01*
X187616430Y-115297382D02*
X188235478Y-115297382D01*
X187902144Y-115678334D01*
X188045002Y-115678334D01*
X188140240Y-115725953D01*
X188187859Y-115773572D01*
X188235478Y-115868811D01*
X188235478Y-116106906D01*
X188187859Y-116202144D01*
X188140240Y-116249763D01*
X188045002Y-116297382D01*
X187759287Y-116297382D01*
X187664049Y-116249763D01*
X187616430Y-116202144D01*
X189092621Y-116249763D02*
X188997383Y-116297382D01*
X188806906Y-116297382D01*
X188711668Y-116249763D01*
X188664049Y-116202144D01*
X188616430Y-116106906D01*
X188616430Y-115821191D01*
X188664049Y-115725953D01*
X188711668Y-115678334D01*
X188806906Y-115630715D01*
X188997383Y-115630715D01*
X189092621Y-115678334D01*
X189664049Y-115725953D02*
X189568811Y-115678334D01*
X189521192Y-115630715D01*
X189473573Y-115535477D01*
X189473573Y-115487858D01*
X189521192Y-115392620D01*
X189568811Y-115345001D01*
X189664049Y-115297382D01*
X189854526Y-115297382D01*
X189949764Y-115345001D01*
X189997383Y-115392620D01*
X190045002Y-115487858D01*
X190045002Y-115535477D01*
X189997383Y-115630715D01*
X189949764Y-115678334D01*
X189854526Y-115725953D01*
X189664049Y-115725953D01*
X189568811Y-115773572D01*
X189521192Y-115821191D01*
X189473573Y-115916430D01*
X189473573Y-116106906D01*
X189521192Y-116202144D01*
X189568811Y-116249763D01*
X189664049Y-116297382D01*
X189854526Y-116297382D01*
X189949764Y-116249763D01*
X189997383Y-116202144D01*
X190045002Y-116106906D01*
X190045002Y-115916430D01*
X189997383Y-115821191D01*
X189949764Y-115773572D01*
X189854526Y-115725953D01*
X190330716Y-115630715D02*
X190711668Y-115630715D01*
X190473573Y-115297382D02*
X190473573Y-116154525D01*
X190521192Y-116249763D01*
X190616430Y-116297382D01*
X190711668Y-116297382D01*
X191473574Y-115297382D02*
X191283097Y-115297382D01*
X191187859Y-115345001D01*
X191140240Y-115392620D01*
X191045002Y-115535477D01*
X190997383Y-115725953D01*
X190997383Y-116106906D01*
X191045002Y-116202144D01*
X191092621Y-116249763D01*
X191187859Y-116297382D01*
X191378336Y-116297382D01*
X191473574Y-116249763D01*
X191521193Y-116202144D01*
X191568812Y-116106906D01*
X191568812Y-115868811D01*
X191521193Y-115773572D01*
X191473574Y-115725953D01*
X191378336Y-115678334D01*
X191187859Y-115678334D01*
X191092621Y-115725953D01*
X191045002Y-115773572D01*
X190997383Y-115868811D01*
X191997383Y-115916430D02*
X192759288Y-115916430D01*
X193235478Y-116297382D02*
X193235478Y-115630715D01*
X193235478Y-115725953D02*
X193283097Y-115678334D01*
X193378335Y-115630715D01*
X193521193Y-115630715D01*
X193616431Y-115678334D01*
X193664050Y-115773572D01*
X193664050Y-116297382D01*
X193664050Y-115773572D02*
X193711669Y-115678334D01*
X193806907Y-115630715D01*
X193949764Y-115630715D01*
X194045002Y-115678334D01*
X194092621Y-115773572D01*
X194092621Y-116297382D01*
X194711668Y-116297382D02*
X194616430Y-116249763D01*
X194568811Y-116202144D01*
X194521192Y-116106906D01*
X194521192Y-115821191D01*
X194568811Y-115725953D01*
X194616430Y-115678334D01*
X194711668Y-115630715D01*
X194854526Y-115630715D01*
X194949764Y-115678334D01*
X194997383Y-115725953D01*
X195045002Y-115821191D01*
X195045002Y-116106906D01*
X194997383Y-116202144D01*
X194949764Y-116249763D01*
X194854526Y-116297382D01*
X194711668Y-116297382D01*
X195902145Y-116297382D02*
X195902145Y-115297382D01*
X195902145Y-116249763D02*
X195806907Y-116297382D01*
X195616430Y-116297382D01*
X195521192Y-116249763D01*
X195473573Y-116202144D01*
X195425954Y-116106906D01*
X195425954Y-115821191D01*
X195473573Y-115725953D01*
X195521192Y-115678334D01*
X195616430Y-115630715D01*
X195806907Y-115630715D01*
X195902145Y-115678334D01*
X196806907Y-115630715D02*
X196806907Y-116297382D01*
X196378335Y-115630715D02*
X196378335Y-116154525D01*
X196425954Y-116249763D01*
X196521192Y-116297382D01*
X196664050Y-116297382D01*
X196759288Y-116249763D01*
X196806907Y-116202144D01*
X197425954Y-116297382D02*
X197330716Y-116249763D01*
X197283097Y-116154525D01*
X197283097Y-115297382D01*
X198187860Y-116249763D02*
X198092622Y-116297382D01*
X197902145Y-116297382D01*
X197806907Y-116249763D01*
X197759288Y-116154525D01*
X197759288Y-115773572D01*
X197806907Y-115678334D01*
X197902145Y-115630715D01*
X198092622Y-115630715D01*
X198187860Y-115678334D01*
X198235479Y-115773572D01*
X198235479Y-115868811D01*
X197759288Y-115964049D01*
X198664050Y-115916430D02*
X199425955Y-115916430D01*
X200330717Y-116249763D02*
X200235479Y-116297382D01*
X200045002Y-116297382D01*
X199949764Y-116249763D01*
X199902145Y-116202144D01*
X199854526Y-116106906D01*
X199854526Y-115821191D01*
X199902145Y-115725953D01*
X199949764Y-115678334D01*
X200045002Y-115630715D01*
X200235479Y-115630715D01*
X200330717Y-115678334D01*
X200759288Y-116297382D02*
X200759288Y-115297382D01*
X201187860Y-116297382D02*
X201187860Y-115773572D01*
X201140241Y-115678334D01*
X201045003Y-115630715D01*
X200902145Y-115630715D01*
X200806907Y-115678334D01*
X200759288Y-115725953D01*
X201664050Y-116297382D02*
X201664050Y-115630715D01*
X201664050Y-115297382D02*
X201616431Y-115345001D01*
X201664050Y-115392620D01*
X201711669Y-115345001D01*
X201664050Y-115297382D01*
X201664050Y-115392620D01*
X202140240Y-115630715D02*
X202140240Y-116297382D01*
X202140240Y-115725953D02*
X202187859Y-115678334D01*
X202283097Y-115630715D01*
X202425955Y-115630715D01*
X202521193Y-115678334D01*
X202568812Y-115773572D01*
X202568812Y-116297382D01*
X203473574Y-116297382D02*
X203473574Y-115773572D01*
X203425955Y-115678334D01*
X203330717Y-115630715D01*
X203140240Y-115630715D01*
X203045002Y-115678334D01*
X203473574Y-116249763D02*
X203378336Y-116297382D01*
X203140240Y-116297382D01*
X203045002Y-116249763D01*
X202997383Y-116154525D01*
X202997383Y-116059287D01*
X203045002Y-115964049D01*
X203140240Y-115916430D01*
X203378336Y-115916430D01*
X203473574Y-115868811D01*
X181019763Y-113154049D02*
X181067382Y-113058811D01*
X181067382Y-112868335D01*
X181019763Y-112773096D01*
X180924525Y-112725477D01*
X180876906Y-112725477D01*
X180781668Y-112773096D01*
X180734049Y-112868335D01*
X180734049Y-113011192D01*
X180686430Y-113106430D01*
X180591191Y-113154049D01*
X180543572Y-113154049D01*
X180448334Y-113106430D01*
X180400715Y-113011192D01*
X180400715Y-112868335D01*
X180448334Y-112773096D01*
X181019763Y-111868334D02*
X181067382Y-111963572D01*
X181067382Y-112154049D01*
X181019763Y-112249287D01*
X180972144Y-112296906D01*
X180876906Y-112344525D01*
X180591191Y-112344525D01*
X180495953Y-112296906D01*
X180448334Y-112249287D01*
X180400715Y-112154049D01*
X180400715Y-111963572D01*
X180448334Y-111868334D01*
X180162620Y-111487382D02*
X180115001Y-111439763D01*
X180067382Y-111344525D01*
X180067382Y-111106429D01*
X180115001Y-111011191D01*
X180162620Y-110963572D01*
X180257858Y-110915953D01*
X180353096Y-110915953D01*
X180495953Y-110963572D01*
X181067382Y-111535001D01*
X181067382Y-110915953D01*
X178479763Y-113177858D02*
X178527382Y-113082620D01*
X178527382Y-112892144D01*
X178479763Y-112796905D01*
X178384525Y-112749286D01*
X178336906Y-112749286D01*
X178241668Y-112796905D01*
X178194049Y-112892144D01*
X178194049Y-113035001D01*
X178146430Y-113130239D01*
X178051191Y-113177858D01*
X178003572Y-113177858D01*
X177908334Y-113130239D01*
X177860715Y-113035001D01*
X177860715Y-112892144D01*
X177908334Y-112796905D01*
X178527382Y-111892143D02*
X177527382Y-111892143D01*
X178479763Y-111892143D02*
X178527382Y-111987381D01*
X178527382Y-112177858D01*
X178479763Y-112273096D01*
X178432144Y-112320715D01*
X178336906Y-112368334D01*
X178051191Y-112368334D01*
X177955953Y-112320715D01*
X177908334Y-112273096D01*
X177860715Y-112177858D01*
X177860715Y-111987381D01*
X177908334Y-111892143D01*
X177622620Y-111463572D02*
X177575001Y-111415953D01*
X177527382Y-111320715D01*
X177527382Y-111082619D01*
X177575001Y-110987381D01*
X177622620Y-110939762D01*
X177717858Y-110892143D01*
X177813096Y-110892143D01*
X177955953Y-110939762D01*
X178527382Y-111511191D01*
X178527382Y-110892143D01*
X174177858Y-127727382D02*
X174177858Y-127060715D01*
X174177858Y-127155953D02*
X174225477Y-127108334D01*
X174320715Y-127060715D01*
X174463573Y-127060715D01*
X174558811Y-127108334D01*
X174606430Y-127203572D01*
X174606430Y-127727382D01*
X174606430Y-127203572D02*
X174654049Y-127108334D01*
X174749287Y-127060715D01*
X174892144Y-127060715D01*
X174987382Y-127108334D01*
X175035001Y-127203572D01*
X175035001Y-127727382D01*
X175654048Y-127727382D02*
X175558810Y-127679763D01*
X175511191Y-127632144D01*
X175463572Y-127536906D01*
X175463572Y-127251191D01*
X175511191Y-127155953D01*
X175558810Y-127108334D01*
X175654048Y-127060715D01*
X175796906Y-127060715D01*
X175892144Y-127108334D01*
X175939763Y-127155953D01*
X175987382Y-127251191D01*
X175987382Y-127536906D01*
X175939763Y-127632144D01*
X175892144Y-127679763D01*
X175796906Y-127727382D01*
X175654048Y-127727382D01*
X176368334Y-126822620D02*
X176415953Y-126775001D01*
X176511191Y-126727382D01*
X176749287Y-126727382D01*
X176844525Y-126775001D01*
X176892144Y-126822620D01*
X176939763Y-126917858D01*
X176939763Y-127013096D01*
X176892144Y-127155953D01*
X176320715Y-127727382D01*
X176939763Y-127727382D01*
X172518811Y-127727382D02*
X172518811Y-127060715D01*
X172518811Y-126727382D02*
X172471192Y-126775001D01*
X172518811Y-126822620D01*
X172566430Y-126775001D01*
X172518811Y-126727382D01*
X172518811Y-126822620D01*
X172947382Y-126822620D02*
X172995001Y-126775001D01*
X173090239Y-126727382D01*
X173328335Y-126727382D01*
X173423573Y-126775001D01*
X173471192Y-126822620D01*
X173518811Y-126917858D01*
X173518811Y-127013096D01*
X173471192Y-127155953D01*
X172899763Y-127727382D01*
X173518811Y-127727382D01*
X170216906Y-127679763D02*
X170121668Y-127727382D01*
X169931191Y-127727382D01*
X169835953Y-127679763D01*
X169788334Y-127632144D01*
X169740715Y-127536906D01*
X169740715Y-127251191D01*
X169788334Y-127155953D01*
X169835953Y-127108334D01*
X169931191Y-127060715D01*
X170121668Y-127060715D01*
X170216906Y-127108334D01*
X170597858Y-126822620D02*
X170645477Y-126775001D01*
X170740715Y-126727382D01*
X170978811Y-126727382D01*
X171074049Y-126775001D01*
X171121668Y-126822620D01*
X171169287Y-126917858D01*
X171169287Y-127013096D01*
X171121668Y-127155953D01*
X170550239Y-127727382D01*
X171169287Y-127727382D01*
X166819763Y-127679763D02*
X166915001Y-127727382D01*
X167105477Y-127727382D01*
X167200716Y-127679763D01*
X167248335Y-127584525D01*
X167248335Y-127536906D01*
X167200716Y-127441668D01*
X167105477Y-127394049D01*
X166962620Y-127394049D01*
X166867382Y-127346430D01*
X166819763Y-127251191D01*
X166819763Y-127203572D01*
X166867382Y-127108334D01*
X166962620Y-127060715D01*
X167105477Y-127060715D01*
X167200716Y-127108334D01*
X167629287Y-127679763D02*
X167724525Y-127727382D01*
X167915001Y-127727382D01*
X168010240Y-127679763D01*
X168057859Y-127584525D01*
X168057859Y-127536906D01*
X168010240Y-127441668D01*
X167915001Y-127394049D01*
X167772144Y-127394049D01*
X167676906Y-127346430D01*
X167629287Y-127251191D01*
X167629287Y-127203572D01*
X167676906Y-127108334D01*
X167772144Y-127060715D01*
X167915001Y-127060715D01*
X168010240Y-127108334D01*
X168438811Y-126822620D02*
X168486430Y-126775001D01*
X168581668Y-126727382D01*
X168819764Y-126727382D01*
X168915002Y-126775001D01*
X168962621Y-126822620D01*
X169010240Y-126917858D01*
X169010240Y-127013096D01*
X168962621Y-127155953D01*
X168391192Y-127727382D01*
X169010240Y-127727382D01*
X203213097Y-127727382D02*
X203213097Y-126727382D01*
X203213097Y-127679763D02*
X203117859Y-127727382D01*
X202927382Y-127727382D01*
X202832144Y-127679763D01*
X202784525Y-127632144D01*
X202736906Y-127536906D01*
X202736906Y-127251191D01*
X202784525Y-127155953D01*
X202832144Y-127108334D01*
X202927382Y-127060715D01*
X203117859Y-127060715D01*
X203213097Y-127108334D01*
X204213097Y-127727382D02*
X203641668Y-127727382D01*
X203927382Y-127727382D02*
X203927382Y-126727382D01*
X203832144Y-126870239D01*
X203736906Y-126965477D01*
X203641668Y-127013096D01*
X199815953Y-127679763D02*
X199911191Y-127727382D01*
X200101667Y-127727382D01*
X200196906Y-127679763D01*
X200244525Y-127584525D01*
X200244525Y-127536906D01*
X200196906Y-127441668D01*
X200101667Y-127394049D01*
X199958810Y-127394049D01*
X199863572Y-127346430D01*
X199815953Y-127251191D01*
X199815953Y-127203572D01*
X199863572Y-127108334D01*
X199958810Y-127060715D01*
X200101667Y-127060715D01*
X200196906Y-127108334D01*
X201101668Y-127679763D02*
X201006430Y-127727382D01*
X200815953Y-127727382D01*
X200720715Y-127679763D01*
X200673096Y-127632144D01*
X200625477Y-127536906D01*
X200625477Y-127251191D01*
X200673096Y-127155953D01*
X200720715Y-127108334D01*
X200815953Y-127060715D01*
X201006430Y-127060715D01*
X201101668Y-127108334D01*
X202054049Y-127727382D02*
X201482620Y-127727382D01*
X201768334Y-127727382D02*
X201768334Y-126727382D01*
X201673096Y-126870239D01*
X201577858Y-126965477D01*
X201482620Y-127013096D01*
X200173096Y-106407382D02*
X200744525Y-106407382D01*
X200458810Y-107407382D02*
X200458810Y-106407382D01*
X201030239Y-106502620D02*
X201077858Y-106455001D01*
X201173096Y-106407382D01*
X201411192Y-106407382D01*
X201506430Y-106455001D01*
X201554049Y-106502620D01*
X201601668Y-106597858D01*
X201601668Y-106693096D01*
X201554049Y-106835953D01*
X200982620Y-107407382D01*
X201601668Y-107407382D01*
X198228335Y-107407382D02*
X197895001Y-106931191D01*
X197656906Y-107407382D02*
X197656906Y-106407382D01*
X198037859Y-106407382D01*
X198133097Y-106455001D01*
X198180716Y-106502620D01*
X198228335Y-106597858D01*
X198228335Y-106740715D01*
X198180716Y-106835953D01*
X198133097Y-106883572D01*
X198037859Y-106931191D01*
X197656906Y-106931191D01*
X198609287Y-106502620D02*
X198656906Y-106455001D01*
X198752144Y-106407382D01*
X198990240Y-106407382D01*
X199085478Y-106455001D01*
X199133097Y-106502620D01*
X199180716Y-106597858D01*
X199180716Y-106693096D01*
X199133097Y-106835953D01*
X198561668Y-107407382D01*
X199180716Y-107407382D01*
X194759763Y-107359763D02*
X194855001Y-107407382D01*
X195045477Y-107407382D01*
X195140716Y-107359763D01*
X195188335Y-107264525D01*
X195188335Y-107216906D01*
X195140716Y-107121668D01*
X195045477Y-107074049D01*
X194902620Y-107074049D01*
X194807382Y-107026430D01*
X194759763Y-106931191D01*
X194759763Y-106883572D01*
X194807382Y-106788334D01*
X194902620Y-106740715D01*
X195045477Y-106740715D01*
X195140716Y-106788334D01*
X195569287Y-107359763D02*
X195664525Y-107407382D01*
X195855001Y-107407382D01*
X195950240Y-107359763D01*
X195997859Y-107264525D01*
X195997859Y-107216906D01*
X195950240Y-107121668D01*
X195855001Y-107074049D01*
X195712144Y-107074049D01*
X195616906Y-107026430D01*
X195569287Y-106931191D01*
X195569287Y-106883572D01*
X195616906Y-106788334D01*
X195712144Y-106740715D01*
X195855001Y-106740715D01*
X195950240Y-106788334D01*
X196950240Y-107407382D02*
X196378811Y-107407382D01*
X196664525Y-107407382D02*
X196664525Y-106407382D01*
X196569287Y-106550239D01*
X196474049Y-106645477D01*
X196378811Y-106693096D01*
X193076906Y-107359763D02*
X192981668Y-107407382D01*
X192791191Y-107407382D01*
X192695953Y-107359763D01*
X192648334Y-107312144D01*
X192600715Y-107216906D01*
X192600715Y-106931191D01*
X192648334Y-106835953D01*
X192695953Y-106788334D01*
X192791191Y-106740715D01*
X192981668Y-106740715D01*
X193076906Y-106788334D01*
X194029287Y-107407382D02*
X193457858Y-107407382D01*
X193743572Y-107407382D02*
X193743572Y-106407382D01*
X193648334Y-106550239D01*
X193553096Y-106645477D01*
X193457858Y-106693096D01*
X190298811Y-107407382D02*
X190298811Y-106740715D01*
X190298811Y-106407382D02*
X190251192Y-106455001D01*
X190298811Y-106502620D01*
X190346430Y-106455001D01*
X190298811Y-106407382D01*
X190298811Y-106502620D01*
X191298811Y-107407382D02*
X190727382Y-107407382D01*
X191013096Y-107407382D02*
X191013096Y-106407382D01*
X190917858Y-106550239D01*
X190822620Y-106645477D01*
X190727382Y-106693096D01*
X186877858Y-107407382D02*
X186877858Y-106740715D01*
X186877858Y-106835953D02*
X186925477Y-106788334D01*
X187020715Y-106740715D01*
X187163573Y-106740715D01*
X187258811Y-106788334D01*
X187306430Y-106883572D01*
X187306430Y-107407382D01*
X187306430Y-106883572D02*
X187354049Y-106788334D01*
X187449287Y-106740715D01*
X187592144Y-106740715D01*
X187687382Y-106788334D01*
X187735001Y-106883572D01*
X187735001Y-107407382D01*
X188354048Y-107407382D02*
X188258810Y-107359763D01*
X188211191Y-107312144D01*
X188163572Y-107216906D01*
X188163572Y-106931191D01*
X188211191Y-106835953D01*
X188258810Y-106788334D01*
X188354048Y-106740715D01*
X188496906Y-106740715D01*
X188592144Y-106788334D01*
X188639763Y-106835953D01*
X188687382Y-106931191D01*
X188687382Y-107216906D01*
X188639763Y-107312144D01*
X188592144Y-107359763D01*
X188496906Y-107407382D01*
X188354048Y-107407382D01*
X189639763Y-107407382D02*
X189068334Y-107407382D01*
X189354048Y-107407382D02*
X189354048Y-106407382D01*
X189258810Y-106550239D01*
X189163572Y-106645477D01*
X189068334Y-106693096D01*
X179853096Y-106407382D02*
X180424525Y-106407382D01*
X180138810Y-107407382D02*
X180138810Y-106407382D01*
X180662620Y-106407382D02*
X181281668Y-106407382D01*
X180948334Y-106788334D01*
X181091192Y-106788334D01*
X181186430Y-106835953D01*
X181234049Y-106883572D01*
X181281668Y-106978811D01*
X181281668Y-107216906D01*
X181234049Y-107312144D01*
X181186430Y-107359763D01*
X181091192Y-107407382D01*
X180805477Y-107407382D01*
X180710239Y-107359763D01*
X180662620Y-107312144D01*
X177908335Y-107407382D02*
X177575001Y-106931191D01*
X177336906Y-107407382D02*
X177336906Y-106407382D01*
X177717859Y-106407382D01*
X177813097Y-106455001D01*
X177860716Y-106502620D01*
X177908335Y-106597858D01*
X177908335Y-106740715D01*
X177860716Y-106835953D01*
X177813097Y-106883572D01*
X177717859Y-106931191D01*
X177336906Y-106931191D01*
X178241668Y-106407382D02*
X178860716Y-106407382D01*
X178527382Y-106788334D01*
X178670240Y-106788334D01*
X178765478Y-106835953D01*
X178813097Y-106883572D01*
X178860716Y-106978811D01*
X178860716Y-107216906D01*
X178813097Y-107312144D01*
X178765478Y-107359763D01*
X178670240Y-107407382D01*
X178384525Y-107407382D01*
X178289287Y-107359763D01*
X178241668Y-107312144D01*
X208483573Y-127632144D02*
X208435954Y-127679763D01*
X208293097Y-127727382D01*
X208197859Y-127727382D01*
X208055001Y-127679763D01*
X207959763Y-127584525D01*
X207912144Y-127489287D01*
X207864525Y-127298811D01*
X207864525Y-127155953D01*
X207912144Y-126965477D01*
X207959763Y-126870239D01*
X208055001Y-126775001D01*
X208197859Y-126727382D01*
X208293097Y-126727382D01*
X208435954Y-126775001D01*
X208483573Y-126822620D01*
X208769287Y-126727382D02*
X209340716Y-126727382D01*
X209055001Y-127727382D02*
X209055001Y-126727382D01*
X205824525Y-127632144D02*
X205776906Y-127679763D01*
X205634049Y-127727382D01*
X205538811Y-127727382D01*
X205395953Y-127679763D01*
X205300715Y-127584525D01*
X205253096Y-127489287D01*
X205205477Y-127298811D01*
X205205477Y-127155953D01*
X205253096Y-126965477D01*
X205300715Y-126870239D01*
X205395953Y-126775001D01*
X205538811Y-126727382D01*
X205634049Y-126727382D01*
X205776906Y-126775001D01*
X205824525Y-126822620D01*
X206824525Y-127727382D02*
X206491191Y-127251191D01*
X206253096Y-127727382D02*
X206253096Y-126727382D01*
X206634049Y-126727382D01*
X206729287Y-126775001D01*
X206776906Y-126822620D01*
X206824525Y-126917858D01*
X206824525Y-127060715D01*
X206776906Y-127155953D01*
X206729287Y-127203572D01*
X206634049Y-127251191D01*
X206253096Y-127251191D01*
X187330239Y-126727382D02*
X187330239Y-127536906D01*
X187377858Y-127632144D01*
X187425477Y-127679763D01*
X187520715Y-127727382D01*
X187711192Y-127727382D01*
X187806430Y-127679763D01*
X187854049Y-127632144D01*
X187901668Y-127536906D01*
X187901668Y-126727382D01*
X188377858Y-127346430D02*
X189139763Y-127346430D01*
X188758811Y-127727382D02*
X188758811Y-126965477D01*
X184790239Y-126727382D02*
X184790239Y-127536906D01*
X184837858Y-127632144D01*
X184885477Y-127679763D01*
X184980715Y-127727382D01*
X185171192Y-127727382D01*
X185266430Y-127679763D01*
X185314049Y-127632144D01*
X185361668Y-127536906D01*
X185361668Y-126727382D01*
X185837858Y-127346430D02*
X186599763Y-127346430D01*
X182988335Y-127727382D02*
X182655001Y-127251191D01*
X182416906Y-127727382D02*
X182416906Y-126727382D01*
X182797859Y-126727382D01*
X182893097Y-126775001D01*
X182940716Y-126822620D01*
X182988335Y-126917858D01*
X182988335Y-127060715D01*
X182940716Y-127155953D01*
X182893097Y-127203572D01*
X182797859Y-127251191D01*
X182416906Y-127251191D01*
X183940716Y-127727382D02*
X183369287Y-127727382D01*
X183655001Y-127727382D02*
X183655001Y-126727382D01*
X183559763Y-126870239D01*
X183464525Y-126965477D01*
X183369287Y-127013096D01*
X179853096Y-126727382D02*
X180424525Y-126727382D01*
X180138810Y-127727382D02*
X180138810Y-126727382D01*
X181281668Y-127727382D02*
X180710239Y-127727382D01*
X180995953Y-127727382D02*
X180995953Y-126727382D01*
X180900715Y-126870239D01*
X180805477Y-126965477D01*
X180710239Y-127013096D01*
X213857382Y-120377382D02*
X214476430Y-120377382D01*
X214143096Y-120758334D01*
X214285954Y-120758334D01*
X214381192Y-120805953D01*
X214428811Y-120853572D01*
X214476430Y-120948811D01*
X214476430Y-121186906D01*
X214428811Y-121282144D01*
X214381192Y-121329763D01*
X214285954Y-121377382D01*
X214000239Y-121377382D01*
X213905001Y-121329763D01*
X213857382Y-121282144D01*
X214905001Y-121282144D02*
X214952620Y-121329763D01*
X214905001Y-121377382D01*
X214857382Y-121329763D01*
X214905001Y-121282144D01*
X214905001Y-121377382D01*
X215285953Y-120377382D02*
X215905001Y-120377382D01*
X215571667Y-120758334D01*
X215714525Y-120758334D01*
X215809763Y-120805953D01*
X215857382Y-120853572D01*
X215905001Y-120948811D01*
X215905001Y-121186906D01*
X215857382Y-121282144D01*
X215809763Y-121329763D01*
X215714525Y-121377382D01*
X215428810Y-121377382D01*
X215333572Y-121329763D01*
X215285953Y-121282144D01*
X212785954Y-118789763D02*
X212928811Y-118837382D01*
X213166907Y-118837382D01*
X213262145Y-118789763D01*
X213309764Y-118742144D01*
X213357383Y-118646906D01*
X213357383Y-118551668D01*
X213309764Y-118456430D01*
X213262145Y-118408811D01*
X213166907Y-118361191D01*
X212976430Y-118313572D01*
X212881192Y-118265953D01*
X212833573Y-118218334D01*
X212785954Y-118123096D01*
X212785954Y-118027858D01*
X212833573Y-117932620D01*
X212881192Y-117885001D01*
X212976430Y-117837382D01*
X213214526Y-117837382D01*
X213357383Y-117885001D01*
X213690716Y-117837382D02*
X213928811Y-118837382D01*
X214119288Y-118123096D01*
X214309764Y-118837382D01*
X214547859Y-117837382D01*
X214928811Y-118837382D02*
X214928811Y-117837382D01*
X215166906Y-117837382D01*
X215309764Y-117885001D01*
X215405002Y-117980239D01*
X215452621Y-118075477D01*
X215500240Y-118265953D01*
X215500240Y-118408811D01*
X215452621Y-118599287D01*
X215405002Y-118694525D01*
X215309764Y-118789763D01*
X215166906Y-118837382D01*
X214928811Y-118837382D01*
X215928811Y-118837382D02*
X215928811Y-117837382D01*
X216595477Y-117837382D02*
X216785954Y-117837382D01*
X216881192Y-117885001D01*
X216976430Y-117980239D01*
X217024049Y-118170715D01*
X217024049Y-118504049D01*
X216976430Y-118694525D01*
X216881192Y-118789763D01*
X216785954Y-118837382D01*
X216595477Y-118837382D01*
X216500239Y-118789763D01*
X216405001Y-118694525D01*
X216357382Y-118504049D01*
X216357382Y-118170715D01*
X216405001Y-117980239D01*
X216500239Y-117885001D01*
X216595477Y-117837382D01*
X212643096Y-116249763D02*
X212785953Y-116297382D01*
X213024049Y-116297382D01*
X213119287Y-116249763D01*
X213166906Y-116202144D01*
X213214525Y-116106906D01*
X213214525Y-116011668D01*
X213166906Y-115916430D01*
X213119287Y-115868811D01*
X213024049Y-115821191D01*
X212833572Y-115773572D01*
X212738334Y-115725953D01*
X212690715Y-115678334D01*
X212643096Y-115583096D01*
X212643096Y-115487858D01*
X212690715Y-115392620D01*
X212738334Y-115345001D01*
X212833572Y-115297382D01*
X213071668Y-115297382D01*
X213214525Y-115345001D01*
X213547858Y-115297382D02*
X213785953Y-116297382D01*
X213976430Y-115583096D01*
X214166906Y-116297382D01*
X214405001Y-115297382D01*
X215357382Y-116202144D02*
X215309763Y-116249763D01*
X215166906Y-116297382D01*
X215071668Y-116297382D01*
X214928810Y-116249763D01*
X214833572Y-116154525D01*
X214785953Y-116059287D01*
X214738334Y-115868811D01*
X214738334Y-115725953D01*
X214785953Y-115535477D01*
X214833572Y-115440239D01*
X214928810Y-115345001D01*
X215071668Y-115297382D01*
X215166906Y-115297382D01*
X215309763Y-115345001D01*
X215357382Y-115392620D01*
X216262144Y-116297382D02*
X215785953Y-116297382D01*
X215785953Y-115297382D01*
X216595477Y-116297382D02*
X216595477Y-115297382D01*
X217166906Y-116297382D02*
X216738334Y-115725953D01*
X217166906Y-115297382D02*
X216595477Y-115868811D01*
X214143097Y-112805001D02*
X214047859Y-112757382D01*
X213905002Y-112757382D01*
X213762144Y-112805001D01*
X213666906Y-112900239D01*
X213619287Y-112995477D01*
X213571668Y-113185953D01*
X213571668Y-113328811D01*
X213619287Y-113519287D01*
X213666906Y-113614525D01*
X213762144Y-113709763D01*
X213905002Y-113757382D01*
X214000240Y-113757382D01*
X214143097Y-113709763D01*
X214190716Y-113662144D01*
X214190716Y-113328811D01*
X214000240Y-113328811D01*
X214619287Y-113757382D02*
X214619287Y-112757382D01*
X215190716Y-113757382D01*
X215190716Y-112757382D01*
X215666906Y-113757382D02*
X215666906Y-112757382D01*
X215905001Y-112757382D01*
X216047859Y-112805001D01*
X216143097Y-112900239D01*
X216190716Y-112995477D01*
X216238335Y-113185953D01*
X216238335Y-113328811D01*
X216190716Y-113519287D01*
X216143097Y-113614525D01*
X216047859Y-113709763D01*
X215905001Y-113757382D01*
X215666906Y-113757382D01*
X215127382Y-126727382D02*
X215746430Y-126727382D01*
X215413096Y-127108334D01*
X215555954Y-127108334D01*
X215651192Y-127155953D01*
X215698811Y-127203572D01*
X215746430Y-127298811D01*
X215746430Y-127536906D01*
X215698811Y-127632144D01*
X215651192Y-127679763D01*
X215555954Y-127727382D01*
X215270239Y-127727382D01*
X215175001Y-127679763D01*
X215127382Y-127632144D01*
X216175001Y-127632144D02*
X216222620Y-127679763D01*
X216175001Y-127727382D01*
X216127382Y-127679763D01*
X216175001Y-127632144D01*
X216175001Y-127727382D01*
X216555953Y-126727382D02*
X217175001Y-126727382D01*
X216841667Y-127108334D01*
X216984525Y-127108334D01*
X217079763Y-127155953D01*
X217127382Y-127203572D01*
X217175001Y-127298811D01*
X217175001Y-127536906D01*
X217127382Y-127632144D01*
X217079763Y-127679763D01*
X216984525Y-127727382D01*
X216698810Y-127727382D01*
X216603572Y-127679763D01*
X216555953Y-127632144D01*
X213896906Y-126775001D02*
X213801668Y-126727382D01*
X213658811Y-126727382D01*
X213515953Y-126775001D01*
X213420715Y-126870239D01*
X213373096Y-126965477D01*
X213325477Y-127155953D01*
X213325477Y-127298811D01*
X213373096Y-127489287D01*
X213420715Y-127584525D01*
X213515953Y-127679763D01*
X213658811Y-127727382D01*
X213754049Y-127727382D01*
X213896906Y-127679763D01*
X213944525Y-127632144D01*
X213944525Y-127298811D01*
X213754049Y-127298811D01*
X175463573Y-106359763D02*
X174606430Y-107645477D01*
X176368335Y-107407382D02*
X176035001Y-106931191D01*
X175796906Y-107407382D02*
X175796906Y-106407382D01*
X176177859Y-106407382D01*
X176273097Y-106455001D01*
X176320716Y-106502620D01*
X176368335Y-106597858D01*
X176368335Y-106740715D01*
X176320716Y-106835953D01*
X176273097Y-106883572D01*
X176177859Y-106931191D01*
X175796906Y-106931191D01*
X171947382Y-106407382D02*
X172566430Y-106407382D01*
X172233096Y-106788334D01*
X172375954Y-106788334D01*
X172471192Y-106835953D01*
X172518811Y-106883572D01*
X172566430Y-106978811D01*
X172566430Y-107216906D01*
X172518811Y-107312144D01*
X172471192Y-107359763D01*
X172375954Y-107407382D01*
X172090239Y-107407382D01*
X171995001Y-107359763D01*
X171947382Y-107312144D01*
X172995001Y-107312144D02*
X173042620Y-107359763D01*
X172995001Y-107407382D01*
X172947382Y-107359763D01*
X172995001Y-107312144D01*
X172995001Y-107407382D01*
X173375953Y-106407382D02*
X173995001Y-106407382D01*
X173661667Y-106788334D01*
X173804525Y-106788334D01*
X173899763Y-106835953D01*
X173947382Y-106883572D01*
X173995001Y-106978811D01*
X173995001Y-107216906D01*
X173947382Y-107312144D01*
X173899763Y-107359763D01*
X173804525Y-107407382D01*
X173518810Y-107407382D01*
X173423572Y-107359763D01*
X173375953Y-107312144D01*
X170716906Y-106455001D02*
X170621668Y-106407382D01*
X170478811Y-106407382D01*
X170335953Y-106455001D01*
X170240715Y-106550239D01*
X170193096Y-106645477D01*
X170145477Y-106835953D01*
X170145477Y-106978811D01*
X170193096Y-107169287D01*
X170240715Y-107264525D01*
X170335953Y-107359763D01*
X170478811Y-107407382D01*
X170574049Y-107407382D01*
X170716906Y-107359763D01*
X170764525Y-107312144D01*
X170764525Y-106978811D01*
X170574049Y-106978811D01*
X168176906Y-106455001D02*
X168081668Y-106407382D01*
X167938811Y-106407382D01*
X167795953Y-106455001D01*
X167700715Y-106550239D01*
X167653096Y-106645477D01*
X167605477Y-106835953D01*
X167605477Y-106978811D01*
X167653096Y-107169287D01*
X167700715Y-107264525D01*
X167795953Y-107359763D01*
X167938811Y-107407382D01*
X168034049Y-107407382D01*
X168176906Y-107359763D01*
X168224525Y-107312144D01*
X168224525Y-106978811D01*
X168034049Y-106978811D01*
X215341668Y-106407382D02*
X215675001Y-107407382D01*
X216008335Y-106407382D01*
X216675002Y-106883572D02*
X216817859Y-106931191D01*
X216865478Y-106978811D01*
X216913097Y-107074049D01*
X216913097Y-107216906D01*
X216865478Y-107312144D01*
X216817859Y-107359763D01*
X216722621Y-107407382D01*
X216341668Y-107407382D01*
X216341668Y-106407382D01*
X216675002Y-106407382D01*
X216770240Y-106455001D01*
X216817859Y-106502620D01*
X216865478Y-106597858D01*
X216865478Y-106693096D01*
X216817859Y-106788334D01*
X216770240Y-106835953D01*
X216675002Y-106883572D01*
X216341668Y-106883572D01*
X210904525Y-126727382D02*
X210428334Y-126727382D01*
X210380715Y-127203572D01*
X210428334Y-127155953D01*
X210523572Y-127108334D01*
X210761668Y-127108334D01*
X210856906Y-127155953D01*
X210904525Y-127203572D01*
X210952144Y-127298811D01*
X210952144Y-127536906D01*
X210904525Y-127632144D01*
X210856906Y-127679763D01*
X210761668Y-127727382D01*
X210523572Y-127727382D01*
X210428334Y-127679763D01*
X210380715Y-127632144D01*
X211237858Y-126727382D02*
X211571191Y-127727382D01*
X211904525Y-126727382D01*
X167367382Y-118376906D02*
X168176906Y-118376906D01*
X168272144Y-118329287D01*
X168319763Y-118281668D01*
X168367382Y-118186430D01*
X168367382Y-117995953D01*
X168319763Y-117900715D01*
X168272144Y-117853096D01*
X168176906Y-117805477D01*
X167367382Y-117805477D01*
X168319763Y-117376906D02*
X168367382Y-117234049D01*
X168367382Y-116995953D01*
X168319763Y-116900715D01*
X168272144Y-116853096D01*
X168176906Y-116805477D01*
X168081668Y-116805477D01*
X167986430Y-116853096D01*
X167938811Y-116900715D01*
X167891191Y-116995953D01*
X167843572Y-117186430D01*
X167795953Y-117281668D01*
X167748334Y-117329287D01*
X167653096Y-117376906D01*
X167557858Y-117376906D01*
X167462620Y-117329287D01*
X167415001Y-117281668D01*
X167367382Y-117186430D01*
X167367382Y-116948334D01*
X167415001Y-116805477D01*
X167843572Y-116043572D02*
X167891191Y-115900715D01*
X167938811Y-115853096D01*
X168034049Y-115805477D01*
X168176906Y-115805477D01*
X168272144Y-115853096D01*
X168319763Y-115900715D01*
X168367382Y-115995953D01*
X168367382Y-116376906D01*
X167367382Y-116376906D01*
X167367382Y-116043572D01*
X167415001Y-115948334D01*
X167462620Y-115900715D01*
X167557858Y-115853096D01*
X167653096Y-115853096D01*
X167748334Y-115900715D01*
X167795953Y-115948334D01*
X167843572Y-116043572D01*
X167843572Y-116376906D01*
X191283096Y-150177382D02*
X191283096Y-150986906D01*
X191330715Y-151082144D01*
X191378334Y-151129763D01*
X191473572Y-151177382D01*
X191664049Y-151177382D01*
X191759287Y-151129763D01*
X191806906Y-151082144D01*
X191854525Y-150986906D01*
X191854525Y-150177382D01*
X192854525Y-151177382D02*
X192283096Y-151177382D01*
X192568810Y-151177382D02*
X192568810Y-150177382D01*
X192473572Y-150320239D01*
X192378334Y-150415477D01*
X192283096Y-150463096D01*
X180568810Y-148589763D02*
X180664048Y-148637382D01*
X180854524Y-148637382D01*
X180949763Y-148589763D01*
X180997382Y-148494525D01*
X180997382Y-148446906D01*
X180949763Y-148351668D01*
X180854524Y-148304049D01*
X180711667Y-148304049D01*
X180616429Y-148256430D01*
X180568810Y-148161191D01*
X180568810Y-148113572D01*
X180616429Y-148018334D01*
X180711667Y-147970715D01*
X180854524Y-147970715D01*
X180949763Y-148018334D01*
X181283096Y-147970715D02*
X181664048Y-147970715D01*
X181425953Y-147637382D02*
X181425953Y-148494525D01*
X181473572Y-148589763D01*
X181568810Y-148637382D01*
X181664048Y-148637382D01*
X181997382Y-148637382D02*
X181997382Y-147970715D01*
X181997382Y-148065953D02*
X182045001Y-148018334D01*
X182140239Y-147970715D01*
X182283097Y-147970715D01*
X182378335Y-148018334D01*
X182425954Y-148113572D01*
X182425954Y-148637382D01*
X182425954Y-148113572D02*
X182473573Y-148018334D01*
X182568811Y-147970715D01*
X182711668Y-147970715D01*
X182806906Y-148018334D01*
X182854525Y-148113572D01*
X182854525Y-148637382D01*
X183235477Y-147637382D02*
X183854525Y-147637382D01*
X183521191Y-148018334D01*
X183664049Y-148018334D01*
X183759287Y-148065953D01*
X183806906Y-148113572D01*
X183854525Y-148208811D01*
X183854525Y-148446906D01*
X183806906Y-148542144D01*
X183759287Y-148589763D01*
X183664049Y-148637382D01*
X183378334Y-148637382D01*
X183283096Y-148589763D01*
X183235477Y-148542144D01*
X184235477Y-147732620D02*
X184283096Y-147685001D01*
X184378334Y-147637382D01*
X184616430Y-147637382D01*
X184711668Y-147685001D01*
X184759287Y-147732620D01*
X184806906Y-147827858D01*
X184806906Y-147923096D01*
X184759287Y-148065953D01*
X184187858Y-148637382D01*
X184806906Y-148637382D01*
X185092620Y-147970715D02*
X185473572Y-147970715D01*
X185235477Y-148637382D02*
X185235477Y-147780239D01*
X185283096Y-147685001D01*
X185378334Y-147637382D01*
X185473572Y-147637382D01*
X186330716Y-148637382D02*
X185759287Y-148637382D01*
X186045001Y-148637382D02*
X186045001Y-147637382D01*
X185949763Y-147780239D01*
X185854525Y-147875477D01*
X185759287Y-147923096D01*
X186949763Y-147637382D02*
X187045002Y-147637382D01*
X187140240Y-147685001D01*
X187187859Y-147732620D01*
X187235478Y-147827858D01*
X187283097Y-148018334D01*
X187283097Y-148256430D01*
X187235478Y-148446906D01*
X187187859Y-148542144D01*
X187140240Y-148589763D01*
X187045002Y-148637382D01*
X186949763Y-148637382D01*
X186854525Y-148589763D01*
X186806906Y-148542144D01*
X186759287Y-148446906D01*
X186711668Y-148256430D01*
X186711668Y-148018334D01*
X186759287Y-147827858D01*
X186806906Y-147732620D01*
X186854525Y-147685001D01*
X186949763Y-147637382D01*
X187616430Y-147637382D02*
X188235478Y-147637382D01*
X187902144Y-148018334D01*
X188045002Y-148018334D01*
X188140240Y-148065953D01*
X188187859Y-148113572D01*
X188235478Y-148208811D01*
X188235478Y-148446906D01*
X188187859Y-148542144D01*
X188140240Y-148589763D01*
X188045002Y-148637382D01*
X187759287Y-148637382D01*
X187664049Y-148589763D01*
X187616430Y-148542144D01*
X189092621Y-148589763D02*
X188997383Y-148637382D01*
X188806906Y-148637382D01*
X188711668Y-148589763D01*
X188664049Y-148542144D01*
X188616430Y-148446906D01*
X188616430Y-148161191D01*
X188664049Y-148065953D01*
X188711668Y-148018334D01*
X188806906Y-147970715D01*
X188997383Y-147970715D01*
X189092621Y-148018334D01*
X189664049Y-148065953D02*
X189568811Y-148018334D01*
X189521192Y-147970715D01*
X189473573Y-147875477D01*
X189473573Y-147827858D01*
X189521192Y-147732620D01*
X189568811Y-147685001D01*
X189664049Y-147637382D01*
X189854526Y-147637382D01*
X189949764Y-147685001D01*
X189997383Y-147732620D01*
X190045002Y-147827858D01*
X190045002Y-147875477D01*
X189997383Y-147970715D01*
X189949764Y-148018334D01*
X189854526Y-148065953D01*
X189664049Y-148065953D01*
X189568811Y-148113572D01*
X189521192Y-148161191D01*
X189473573Y-148256430D01*
X189473573Y-148446906D01*
X189521192Y-148542144D01*
X189568811Y-148589763D01*
X189664049Y-148637382D01*
X189854526Y-148637382D01*
X189949764Y-148589763D01*
X189997383Y-148542144D01*
X190045002Y-148446906D01*
X190045002Y-148256430D01*
X189997383Y-148161191D01*
X189949764Y-148113572D01*
X189854526Y-148065953D01*
X190330716Y-147970715D02*
X190711668Y-147970715D01*
X190473573Y-147637382D02*
X190473573Y-148494525D01*
X190521192Y-148589763D01*
X190616430Y-148637382D01*
X190711668Y-148637382D01*
X191473574Y-147637382D02*
X191283097Y-147637382D01*
X191187859Y-147685001D01*
X191140240Y-147732620D01*
X191045002Y-147875477D01*
X190997383Y-148065953D01*
X190997383Y-148446906D01*
X191045002Y-148542144D01*
X191092621Y-148589763D01*
X191187859Y-148637382D01*
X191378336Y-148637382D01*
X191473574Y-148589763D01*
X191521193Y-148542144D01*
X191568812Y-148446906D01*
X191568812Y-148208811D01*
X191521193Y-148113572D01*
X191473574Y-148065953D01*
X191378336Y-148018334D01*
X191187859Y-148018334D01*
X191092621Y-148065953D01*
X191045002Y-148113572D01*
X190997383Y-148208811D01*
X191997383Y-148256430D02*
X192759288Y-148256430D01*
X193235478Y-148637382D02*
X193235478Y-147970715D01*
X193235478Y-148065953D02*
X193283097Y-148018334D01*
X193378335Y-147970715D01*
X193521193Y-147970715D01*
X193616431Y-148018334D01*
X193664050Y-148113572D01*
X193664050Y-148637382D01*
X193664050Y-148113572D02*
X193711669Y-148018334D01*
X193806907Y-147970715D01*
X193949764Y-147970715D01*
X194045002Y-148018334D01*
X194092621Y-148113572D01*
X194092621Y-148637382D01*
X194711668Y-148637382D02*
X194616430Y-148589763D01*
X194568811Y-148542144D01*
X194521192Y-148446906D01*
X194521192Y-148161191D01*
X194568811Y-148065953D01*
X194616430Y-148018334D01*
X194711668Y-147970715D01*
X194854526Y-147970715D01*
X194949764Y-148018334D01*
X194997383Y-148065953D01*
X195045002Y-148161191D01*
X195045002Y-148446906D01*
X194997383Y-148542144D01*
X194949764Y-148589763D01*
X194854526Y-148637382D01*
X194711668Y-148637382D01*
X195902145Y-148637382D02*
X195902145Y-147637382D01*
X195902145Y-148589763D02*
X195806907Y-148637382D01*
X195616430Y-148637382D01*
X195521192Y-148589763D01*
X195473573Y-148542144D01*
X195425954Y-148446906D01*
X195425954Y-148161191D01*
X195473573Y-148065953D01*
X195521192Y-148018334D01*
X195616430Y-147970715D01*
X195806907Y-147970715D01*
X195902145Y-148018334D01*
X196806907Y-147970715D02*
X196806907Y-148637382D01*
X196378335Y-147970715D02*
X196378335Y-148494525D01*
X196425954Y-148589763D01*
X196521192Y-148637382D01*
X196664050Y-148637382D01*
X196759288Y-148589763D01*
X196806907Y-148542144D01*
X197425954Y-148637382D02*
X197330716Y-148589763D01*
X197283097Y-148494525D01*
X197283097Y-147637382D01*
X198187860Y-148589763D02*
X198092622Y-148637382D01*
X197902145Y-148637382D01*
X197806907Y-148589763D01*
X197759288Y-148494525D01*
X197759288Y-148113572D01*
X197806907Y-148018334D01*
X197902145Y-147970715D01*
X198092622Y-147970715D01*
X198187860Y-148018334D01*
X198235479Y-148113572D01*
X198235479Y-148208811D01*
X197759288Y-148304049D01*
X198664050Y-148256430D02*
X199425955Y-148256430D01*
X200330717Y-148589763D02*
X200235479Y-148637382D01*
X200045002Y-148637382D01*
X199949764Y-148589763D01*
X199902145Y-148542144D01*
X199854526Y-148446906D01*
X199854526Y-148161191D01*
X199902145Y-148065953D01*
X199949764Y-148018334D01*
X200045002Y-147970715D01*
X200235479Y-147970715D01*
X200330717Y-148018334D01*
X200759288Y-148637382D02*
X200759288Y-147637382D01*
X201187860Y-148637382D02*
X201187860Y-148113572D01*
X201140241Y-148018334D01*
X201045003Y-147970715D01*
X200902145Y-147970715D01*
X200806907Y-148018334D01*
X200759288Y-148065953D01*
X201664050Y-148637382D02*
X201664050Y-147970715D01*
X201664050Y-147637382D02*
X201616431Y-147685001D01*
X201664050Y-147732620D01*
X201711669Y-147685001D01*
X201664050Y-147637382D01*
X201664050Y-147732620D01*
X202140240Y-147970715D02*
X202140240Y-148637382D01*
X202140240Y-148065953D02*
X202187859Y-148018334D01*
X202283097Y-147970715D01*
X202425955Y-147970715D01*
X202521193Y-148018334D01*
X202568812Y-148113572D01*
X202568812Y-148637382D01*
X203473574Y-148637382D02*
X203473574Y-148113572D01*
X203425955Y-148018334D01*
X203330717Y-147970715D01*
X203140240Y-147970715D01*
X203045002Y-148018334D01*
X203473574Y-148589763D02*
X203378336Y-148637382D01*
X203140240Y-148637382D01*
X203045002Y-148589763D01*
X202997383Y-148494525D01*
X202997383Y-148399287D01*
X203045002Y-148304049D01*
X203140240Y-148256430D01*
X203378336Y-148256430D01*
X203473574Y-148208811D01*
X181019763Y-145494049D02*
X181067382Y-145398811D01*
X181067382Y-145208335D01*
X181019763Y-145113096D01*
X180924525Y-145065477D01*
X180876906Y-145065477D01*
X180781668Y-145113096D01*
X180734049Y-145208335D01*
X180734049Y-145351192D01*
X180686430Y-145446430D01*
X180591191Y-145494049D01*
X180543572Y-145494049D01*
X180448334Y-145446430D01*
X180400715Y-145351192D01*
X180400715Y-145208335D01*
X180448334Y-145113096D01*
X181019763Y-144208334D02*
X181067382Y-144303572D01*
X181067382Y-144494049D01*
X181019763Y-144589287D01*
X180972144Y-144636906D01*
X180876906Y-144684525D01*
X180591191Y-144684525D01*
X180495953Y-144636906D01*
X180448334Y-144589287D01*
X180400715Y-144494049D01*
X180400715Y-144303572D01*
X180448334Y-144208334D01*
X180162620Y-143827382D02*
X180115001Y-143779763D01*
X180067382Y-143684525D01*
X180067382Y-143446429D01*
X180115001Y-143351191D01*
X180162620Y-143303572D01*
X180257858Y-143255953D01*
X180353096Y-143255953D01*
X180495953Y-143303572D01*
X181067382Y-143875001D01*
X181067382Y-143255953D01*
X178479763Y-145517858D02*
X178527382Y-145422620D01*
X178527382Y-145232144D01*
X178479763Y-145136905D01*
X178384525Y-145089286D01*
X178336906Y-145089286D01*
X178241668Y-145136905D01*
X178194049Y-145232144D01*
X178194049Y-145375001D01*
X178146430Y-145470239D01*
X178051191Y-145517858D01*
X178003572Y-145517858D01*
X177908334Y-145470239D01*
X177860715Y-145375001D01*
X177860715Y-145232144D01*
X177908334Y-145136905D01*
X178527382Y-144232143D02*
X177527382Y-144232143D01*
X178479763Y-144232143D02*
X178527382Y-144327381D01*
X178527382Y-144517858D01*
X178479763Y-144613096D01*
X178432144Y-144660715D01*
X178336906Y-144708334D01*
X178051191Y-144708334D01*
X177955953Y-144660715D01*
X177908334Y-144613096D01*
X177860715Y-144517858D01*
X177860715Y-144327381D01*
X177908334Y-144232143D01*
X177622620Y-143803572D02*
X177575001Y-143755953D01*
X177527382Y-143660715D01*
X177527382Y-143422619D01*
X177575001Y-143327381D01*
X177622620Y-143279762D01*
X177717858Y-143232143D01*
X177813096Y-143232143D01*
X177955953Y-143279762D01*
X178527382Y-143851191D01*
X178527382Y-143232143D01*
X174177858Y-160067382D02*
X174177858Y-159400715D01*
X174177858Y-159495953D02*
X174225477Y-159448334D01*
X174320715Y-159400715D01*
X174463573Y-159400715D01*
X174558811Y-159448334D01*
X174606430Y-159543572D01*
X174606430Y-160067382D01*
X174606430Y-159543572D02*
X174654049Y-159448334D01*
X174749287Y-159400715D01*
X174892144Y-159400715D01*
X174987382Y-159448334D01*
X175035001Y-159543572D01*
X175035001Y-160067382D01*
X175654048Y-160067382D02*
X175558810Y-160019763D01*
X175511191Y-159972144D01*
X175463572Y-159876906D01*
X175463572Y-159591191D01*
X175511191Y-159495953D01*
X175558810Y-159448334D01*
X175654048Y-159400715D01*
X175796906Y-159400715D01*
X175892144Y-159448334D01*
X175939763Y-159495953D01*
X175987382Y-159591191D01*
X175987382Y-159876906D01*
X175939763Y-159972144D01*
X175892144Y-160019763D01*
X175796906Y-160067382D01*
X175654048Y-160067382D01*
X176368334Y-159162620D02*
X176415953Y-159115001D01*
X176511191Y-159067382D01*
X176749287Y-159067382D01*
X176844525Y-159115001D01*
X176892144Y-159162620D01*
X176939763Y-159257858D01*
X176939763Y-159353096D01*
X176892144Y-159495953D01*
X176320715Y-160067382D01*
X176939763Y-160067382D01*
X172518811Y-160067382D02*
X172518811Y-159400715D01*
X172518811Y-159067382D02*
X172471192Y-159115001D01*
X172518811Y-159162620D01*
X172566430Y-159115001D01*
X172518811Y-159067382D01*
X172518811Y-159162620D01*
X172947382Y-159162620D02*
X172995001Y-159115001D01*
X173090239Y-159067382D01*
X173328335Y-159067382D01*
X173423573Y-159115001D01*
X173471192Y-159162620D01*
X173518811Y-159257858D01*
X173518811Y-159353096D01*
X173471192Y-159495953D01*
X172899763Y-160067382D01*
X173518811Y-160067382D01*
X170216906Y-160019763D02*
X170121668Y-160067382D01*
X169931191Y-160067382D01*
X169835953Y-160019763D01*
X169788334Y-159972144D01*
X169740715Y-159876906D01*
X169740715Y-159591191D01*
X169788334Y-159495953D01*
X169835953Y-159448334D01*
X169931191Y-159400715D01*
X170121668Y-159400715D01*
X170216906Y-159448334D01*
X170597858Y-159162620D02*
X170645477Y-159115001D01*
X170740715Y-159067382D01*
X170978811Y-159067382D01*
X171074049Y-159115001D01*
X171121668Y-159162620D01*
X171169287Y-159257858D01*
X171169287Y-159353096D01*
X171121668Y-159495953D01*
X170550239Y-160067382D01*
X171169287Y-160067382D01*
X166819763Y-160019763D02*
X166915001Y-160067382D01*
X167105477Y-160067382D01*
X167200716Y-160019763D01*
X167248335Y-159924525D01*
X167248335Y-159876906D01*
X167200716Y-159781668D01*
X167105477Y-159734049D01*
X166962620Y-159734049D01*
X166867382Y-159686430D01*
X166819763Y-159591191D01*
X166819763Y-159543572D01*
X166867382Y-159448334D01*
X166962620Y-159400715D01*
X167105477Y-159400715D01*
X167200716Y-159448334D01*
X167629287Y-160019763D02*
X167724525Y-160067382D01*
X167915001Y-160067382D01*
X168010240Y-160019763D01*
X168057859Y-159924525D01*
X168057859Y-159876906D01*
X168010240Y-159781668D01*
X167915001Y-159734049D01*
X167772144Y-159734049D01*
X167676906Y-159686430D01*
X167629287Y-159591191D01*
X167629287Y-159543572D01*
X167676906Y-159448334D01*
X167772144Y-159400715D01*
X167915001Y-159400715D01*
X168010240Y-159448334D01*
X168438811Y-159162620D02*
X168486430Y-159115001D01*
X168581668Y-159067382D01*
X168819764Y-159067382D01*
X168915002Y-159115001D01*
X168962621Y-159162620D01*
X169010240Y-159257858D01*
X169010240Y-159353096D01*
X168962621Y-159495953D01*
X168391192Y-160067382D01*
X169010240Y-160067382D01*
X203213097Y-160067382D02*
X203213097Y-159067382D01*
X203213097Y-160019763D02*
X203117859Y-160067382D01*
X202927382Y-160067382D01*
X202832144Y-160019763D01*
X202784525Y-159972144D01*
X202736906Y-159876906D01*
X202736906Y-159591191D01*
X202784525Y-159495953D01*
X202832144Y-159448334D01*
X202927382Y-159400715D01*
X203117859Y-159400715D01*
X203213097Y-159448334D01*
X204213097Y-160067382D02*
X203641668Y-160067382D01*
X203927382Y-160067382D02*
X203927382Y-159067382D01*
X203832144Y-159210239D01*
X203736906Y-159305477D01*
X203641668Y-159353096D01*
X199815953Y-160019763D02*
X199911191Y-160067382D01*
X200101667Y-160067382D01*
X200196906Y-160019763D01*
X200244525Y-159924525D01*
X200244525Y-159876906D01*
X200196906Y-159781668D01*
X200101667Y-159734049D01*
X199958810Y-159734049D01*
X199863572Y-159686430D01*
X199815953Y-159591191D01*
X199815953Y-159543572D01*
X199863572Y-159448334D01*
X199958810Y-159400715D01*
X200101667Y-159400715D01*
X200196906Y-159448334D01*
X201101668Y-160019763D02*
X201006430Y-160067382D01*
X200815953Y-160067382D01*
X200720715Y-160019763D01*
X200673096Y-159972144D01*
X200625477Y-159876906D01*
X200625477Y-159591191D01*
X200673096Y-159495953D01*
X200720715Y-159448334D01*
X200815953Y-159400715D01*
X201006430Y-159400715D01*
X201101668Y-159448334D01*
X202054049Y-160067382D02*
X201482620Y-160067382D01*
X201768334Y-160067382D02*
X201768334Y-159067382D01*
X201673096Y-159210239D01*
X201577858Y-159305477D01*
X201482620Y-159353096D01*
X200173096Y-138747382D02*
X200744525Y-138747382D01*
X200458810Y-139747382D02*
X200458810Y-138747382D01*
X201030239Y-138842620D02*
X201077858Y-138795001D01*
X201173096Y-138747382D01*
X201411192Y-138747382D01*
X201506430Y-138795001D01*
X201554049Y-138842620D01*
X201601668Y-138937858D01*
X201601668Y-139033096D01*
X201554049Y-139175953D01*
X200982620Y-139747382D01*
X201601668Y-139747382D01*
X198228335Y-139747382D02*
X197895001Y-139271191D01*
X197656906Y-139747382D02*
X197656906Y-138747382D01*
X198037859Y-138747382D01*
X198133097Y-138795001D01*
X198180716Y-138842620D01*
X198228335Y-138937858D01*
X198228335Y-139080715D01*
X198180716Y-139175953D01*
X198133097Y-139223572D01*
X198037859Y-139271191D01*
X197656906Y-139271191D01*
X198609287Y-138842620D02*
X198656906Y-138795001D01*
X198752144Y-138747382D01*
X198990240Y-138747382D01*
X199085478Y-138795001D01*
X199133097Y-138842620D01*
X199180716Y-138937858D01*
X199180716Y-139033096D01*
X199133097Y-139175953D01*
X198561668Y-139747382D01*
X199180716Y-139747382D01*
X194759763Y-139699763D02*
X194855001Y-139747382D01*
X195045477Y-139747382D01*
X195140716Y-139699763D01*
X195188335Y-139604525D01*
X195188335Y-139556906D01*
X195140716Y-139461668D01*
X195045477Y-139414049D01*
X194902620Y-139414049D01*
X194807382Y-139366430D01*
X194759763Y-139271191D01*
X194759763Y-139223572D01*
X194807382Y-139128334D01*
X194902620Y-139080715D01*
X195045477Y-139080715D01*
X195140716Y-139128334D01*
X195569287Y-139699763D02*
X195664525Y-139747382D01*
X195855001Y-139747382D01*
X195950240Y-139699763D01*
X195997859Y-139604525D01*
X195997859Y-139556906D01*
X195950240Y-139461668D01*
X195855001Y-139414049D01*
X195712144Y-139414049D01*
X195616906Y-139366430D01*
X195569287Y-139271191D01*
X195569287Y-139223572D01*
X195616906Y-139128334D01*
X195712144Y-139080715D01*
X195855001Y-139080715D01*
X195950240Y-139128334D01*
X196950240Y-139747382D02*
X196378811Y-139747382D01*
X196664525Y-139747382D02*
X196664525Y-138747382D01*
X196569287Y-138890239D01*
X196474049Y-138985477D01*
X196378811Y-139033096D01*
X193076906Y-139699763D02*
X192981668Y-139747382D01*
X192791191Y-139747382D01*
X192695953Y-139699763D01*
X192648334Y-139652144D01*
X192600715Y-139556906D01*
X192600715Y-139271191D01*
X192648334Y-139175953D01*
X192695953Y-139128334D01*
X192791191Y-139080715D01*
X192981668Y-139080715D01*
X193076906Y-139128334D01*
X194029287Y-139747382D02*
X193457858Y-139747382D01*
X193743572Y-139747382D02*
X193743572Y-138747382D01*
X193648334Y-138890239D01*
X193553096Y-138985477D01*
X193457858Y-139033096D01*
X190298811Y-139747382D02*
X190298811Y-139080715D01*
X190298811Y-138747382D02*
X190251192Y-138795001D01*
X190298811Y-138842620D01*
X190346430Y-138795001D01*
X190298811Y-138747382D01*
X190298811Y-138842620D01*
X191298811Y-139747382D02*
X190727382Y-139747382D01*
X191013096Y-139747382D02*
X191013096Y-138747382D01*
X190917858Y-138890239D01*
X190822620Y-138985477D01*
X190727382Y-139033096D01*
X186877858Y-139747382D02*
X186877858Y-139080715D01*
X186877858Y-139175953D02*
X186925477Y-139128334D01*
X187020715Y-139080715D01*
X187163573Y-139080715D01*
X187258811Y-139128334D01*
X187306430Y-139223572D01*
X187306430Y-139747382D01*
X187306430Y-139223572D02*
X187354049Y-139128334D01*
X187449287Y-139080715D01*
X187592144Y-139080715D01*
X187687382Y-139128334D01*
X187735001Y-139223572D01*
X187735001Y-139747382D01*
X188354048Y-139747382D02*
X188258810Y-139699763D01*
X188211191Y-139652144D01*
X188163572Y-139556906D01*
X188163572Y-139271191D01*
X188211191Y-139175953D01*
X188258810Y-139128334D01*
X188354048Y-139080715D01*
X188496906Y-139080715D01*
X188592144Y-139128334D01*
X188639763Y-139175953D01*
X188687382Y-139271191D01*
X188687382Y-139556906D01*
X188639763Y-139652144D01*
X188592144Y-139699763D01*
X188496906Y-139747382D01*
X188354048Y-139747382D01*
X189639763Y-139747382D02*
X189068334Y-139747382D01*
X189354048Y-139747382D02*
X189354048Y-138747382D01*
X189258810Y-138890239D01*
X189163572Y-138985477D01*
X189068334Y-139033096D01*
X179853096Y-138747382D02*
X180424525Y-138747382D01*
X180138810Y-139747382D02*
X180138810Y-138747382D01*
X180662620Y-138747382D02*
X181281668Y-138747382D01*
X180948334Y-139128334D01*
X181091192Y-139128334D01*
X181186430Y-139175953D01*
X181234049Y-139223572D01*
X181281668Y-139318811D01*
X181281668Y-139556906D01*
X181234049Y-139652144D01*
X181186430Y-139699763D01*
X181091192Y-139747382D01*
X180805477Y-139747382D01*
X180710239Y-139699763D01*
X180662620Y-139652144D01*
X177908335Y-139747382D02*
X177575001Y-139271191D01*
X177336906Y-139747382D02*
X177336906Y-138747382D01*
X177717859Y-138747382D01*
X177813097Y-138795001D01*
X177860716Y-138842620D01*
X177908335Y-138937858D01*
X177908335Y-139080715D01*
X177860716Y-139175953D01*
X177813097Y-139223572D01*
X177717859Y-139271191D01*
X177336906Y-139271191D01*
X178241668Y-138747382D02*
X178860716Y-138747382D01*
X178527382Y-139128334D01*
X178670240Y-139128334D01*
X178765478Y-139175953D01*
X178813097Y-139223572D01*
X178860716Y-139318811D01*
X178860716Y-139556906D01*
X178813097Y-139652144D01*
X178765478Y-139699763D01*
X178670240Y-139747382D01*
X178384525Y-139747382D01*
X178289287Y-139699763D01*
X178241668Y-139652144D01*
X208483573Y-159972144D02*
X208435954Y-160019763D01*
X208293097Y-160067382D01*
X208197859Y-160067382D01*
X208055001Y-160019763D01*
X207959763Y-159924525D01*
X207912144Y-159829287D01*
X207864525Y-159638811D01*
X207864525Y-159495953D01*
X207912144Y-159305477D01*
X207959763Y-159210239D01*
X208055001Y-159115001D01*
X208197859Y-159067382D01*
X208293097Y-159067382D01*
X208435954Y-159115001D01*
X208483573Y-159162620D01*
X208769287Y-159067382D02*
X209340716Y-159067382D01*
X209055001Y-160067382D02*
X209055001Y-159067382D01*
X205824525Y-159972144D02*
X205776906Y-160019763D01*
X205634049Y-160067382D01*
X205538811Y-160067382D01*
X205395953Y-160019763D01*
X205300715Y-159924525D01*
X205253096Y-159829287D01*
X205205477Y-159638811D01*
X205205477Y-159495953D01*
X205253096Y-159305477D01*
X205300715Y-159210239D01*
X205395953Y-159115001D01*
X205538811Y-159067382D01*
X205634049Y-159067382D01*
X205776906Y-159115001D01*
X205824525Y-159162620D01*
X206824525Y-160067382D02*
X206491191Y-159591191D01*
X206253096Y-160067382D02*
X206253096Y-159067382D01*
X206634049Y-159067382D01*
X206729287Y-159115001D01*
X206776906Y-159162620D01*
X206824525Y-159257858D01*
X206824525Y-159400715D01*
X206776906Y-159495953D01*
X206729287Y-159543572D01*
X206634049Y-159591191D01*
X206253096Y-159591191D01*
X187330239Y-159067382D02*
X187330239Y-159876906D01*
X187377858Y-159972144D01*
X187425477Y-160019763D01*
X187520715Y-160067382D01*
X187711192Y-160067382D01*
X187806430Y-160019763D01*
X187854049Y-159972144D01*
X187901668Y-159876906D01*
X187901668Y-159067382D01*
X188377858Y-159686430D02*
X189139763Y-159686430D01*
X188758811Y-160067382D02*
X188758811Y-159305477D01*
X184790239Y-159067382D02*
X184790239Y-159876906D01*
X184837858Y-159972144D01*
X184885477Y-160019763D01*
X184980715Y-160067382D01*
X185171192Y-160067382D01*
X185266430Y-160019763D01*
X185314049Y-159972144D01*
X185361668Y-159876906D01*
X185361668Y-159067382D01*
X185837858Y-159686430D02*
X186599763Y-159686430D01*
X182988335Y-160067382D02*
X182655001Y-159591191D01*
X182416906Y-160067382D02*
X182416906Y-159067382D01*
X182797859Y-159067382D01*
X182893097Y-159115001D01*
X182940716Y-159162620D01*
X182988335Y-159257858D01*
X182988335Y-159400715D01*
X182940716Y-159495953D01*
X182893097Y-159543572D01*
X182797859Y-159591191D01*
X182416906Y-159591191D01*
X183940716Y-160067382D02*
X183369287Y-160067382D01*
X183655001Y-160067382D02*
X183655001Y-159067382D01*
X183559763Y-159210239D01*
X183464525Y-159305477D01*
X183369287Y-159353096D01*
X179853096Y-159067382D02*
X180424525Y-159067382D01*
X180138810Y-160067382D02*
X180138810Y-159067382D01*
X181281668Y-160067382D02*
X180710239Y-160067382D01*
X180995953Y-160067382D02*
X180995953Y-159067382D01*
X180900715Y-159210239D01*
X180805477Y-159305477D01*
X180710239Y-159353096D01*
X213857382Y-152717382D02*
X214476430Y-152717382D01*
X214143096Y-153098334D01*
X214285954Y-153098334D01*
X214381192Y-153145953D01*
X214428811Y-153193572D01*
X214476430Y-153288811D01*
X214476430Y-153526906D01*
X214428811Y-153622144D01*
X214381192Y-153669763D01*
X214285954Y-153717382D01*
X214000239Y-153717382D01*
X213905001Y-153669763D01*
X213857382Y-153622144D01*
X214905001Y-153622144D02*
X214952620Y-153669763D01*
X214905001Y-153717382D01*
X214857382Y-153669763D01*
X214905001Y-153622144D01*
X214905001Y-153717382D01*
X215285953Y-152717382D02*
X215905001Y-152717382D01*
X215571667Y-153098334D01*
X215714525Y-153098334D01*
X215809763Y-153145953D01*
X215857382Y-153193572D01*
X215905001Y-153288811D01*
X215905001Y-153526906D01*
X215857382Y-153622144D01*
X215809763Y-153669763D01*
X215714525Y-153717382D01*
X215428810Y-153717382D01*
X215333572Y-153669763D01*
X215285953Y-153622144D01*
X212785954Y-151129763D02*
X212928811Y-151177382D01*
X213166907Y-151177382D01*
X213262145Y-151129763D01*
X213309764Y-151082144D01*
X213357383Y-150986906D01*
X213357383Y-150891668D01*
X213309764Y-150796430D01*
X213262145Y-150748811D01*
X213166907Y-150701191D01*
X212976430Y-150653572D01*
X212881192Y-150605953D01*
X212833573Y-150558334D01*
X212785954Y-150463096D01*
X212785954Y-150367858D01*
X212833573Y-150272620D01*
X212881192Y-150225001D01*
X212976430Y-150177382D01*
X213214526Y-150177382D01*
X213357383Y-150225001D01*
X213690716Y-150177382D02*
X213928811Y-151177382D01*
X214119288Y-150463096D01*
X214309764Y-151177382D01*
X214547859Y-150177382D01*
X214928811Y-151177382D02*
X214928811Y-150177382D01*
X215166906Y-150177382D01*
X215309764Y-150225001D01*
X215405002Y-150320239D01*
X215452621Y-150415477D01*
X215500240Y-150605953D01*
X215500240Y-150748811D01*
X215452621Y-150939287D01*
X215405002Y-151034525D01*
X215309764Y-151129763D01*
X215166906Y-151177382D01*
X214928811Y-151177382D01*
X215928811Y-151177382D02*
X215928811Y-150177382D01*
X216595477Y-150177382D02*
X216785954Y-150177382D01*
X216881192Y-150225001D01*
X216976430Y-150320239D01*
X217024049Y-150510715D01*
X217024049Y-150844049D01*
X216976430Y-151034525D01*
X216881192Y-151129763D01*
X216785954Y-151177382D01*
X216595477Y-151177382D01*
X216500239Y-151129763D01*
X216405001Y-151034525D01*
X216357382Y-150844049D01*
X216357382Y-150510715D01*
X216405001Y-150320239D01*
X216500239Y-150225001D01*
X216595477Y-150177382D01*
X212643096Y-148589763D02*
X212785953Y-148637382D01*
X213024049Y-148637382D01*
X213119287Y-148589763D01*
X213166906Y-148542144D01*
X213214525Y-148446906D01*
X213214525Y-148351668D01*
X213166906Y-148256430D01*
X213119287Y-148208811D01*
X213024049Y-148161191D01*
X212833572Y-148113572D01*
X212738334Y-148065953D01*
X212690715Y-148018334D01*
X212643096Y-147923096D01*
X212643096Y-147827858D01*
X212690715Y-147732620D01*
X212738334Y-147685001D01*
X212833572Y-147637382D01*
X213071668Y-147637382D01*
X213214525Y-147685001D01*
X213547858Y-147637382D02*
X213785953Y-148637382D01*
X213976430Y-147923096D01*
X214166906Y-148637382D01*
X214405001Y-147637382D01*
X215357382Y-148542144D02*
X215309763Y-148589763D01*
X215166906Y-148637382D01*
X215071668Y-148637382D01*
X214928810Y-148589763D01*
X214833572Y-148494525D01*
X214785953Y-148399287D01*
X214738334Y-148208811D01*
X214738334Y-148065953D01*
X214785953Y-147875477D01*
X214833572Y-147780239D01*
X214928810Y-147685001D01*
X215071668Y-147637382D01*
X215166906Y-147637382D01*
X215309763Y-147685001D01*
X215357382Y-147732620D01*
X216262144Y-148637382D02*
X215785953Y-148637382D01*
X215785953Y-147637382D01*
X216595477Y-148637382D02*
X216595477Y-147637382D01*
X217166906Y-148637382D02*
X216738334Y-148065953D01*
X217166906Y-147637382D02*
X216595477Y-148208811D01*
X214143097Y-145145001D02*
X214047859Y-145097382D01*
X213905002Y-145097382D01*
X213762144Y-145145001D01*
X213666906Y-145240239D01*
X213619287Y-145335477D01*
X213571668Y-145525953D01*
X213571668Y-145668811D01*
X213619287Y-145859287D01*
X213666906Y-145954525D01*
X213762144Y-146049763D01*
X213905002Y-146097382D01*
X214000240Y-146097382D01*
X214143097Y-146049763D01*
X214190716Y-146002144D01*
X214190716Y-145668811D01*
X214000240Y-145668811D01*
X214619287Y-146097382D02*
X214619287Y-145097382D01*
X215190716Y-146097382D01*
X215190716Y-145097382D01*
X215666906Y-146097382D02*
X215666906Y-145097382D01*
X215905001Y-145097382D01*
X216047859Y-145145001D01*
X216143097Y-145240239D01*
X216190716Y-145335477D01*
X216238335Y-145525953D01*
X216238335Y-145668811D01*
X216190716Y-145859287D01*
X216143097Y-145954525D01*
X216047859Y-146049763D01*
X215905001Y-146097382D01*
X215666906Y-146097382D01*
X215127382Y-159067382D02*
X215746430Y-159067382D01*
X215413096Y-159448334D01*
X215555954Y-159448334D01*
X215651192Y-159495953D01*
X215698811Y-159543572D01*
X215746430Y-159638811D01*
X215746430Y-159876906D01*
X215698811Y-159972144D01*
X215651192Y-160019763D01*
X215555954Y-160067382D01*
X215270239Y-160067382D01*
X215175001Y-160019763D01*
X215127382Y-159972144D01*
X216175001Y-159972144D02*
X216222620Y-160019763D01*
X216175001Y-160067382D01*
X216127382Y-160019763D01*
X216175001Y-159972144D01*
X216175001Y-160067382D01*
X216555953Y-159067382D02*
X217175001Y-159067382D01*
X216841667Y-159448334D01*
X216984525Y-159448334D01*
X217079763Y-159495953D01*
X217127382Y-159543572D01*
X217175001Y-159638811D01*
X217175001Y-159876906D01*
X217127382Y-159972144D01*
X217079763Y-160019763D01*
X216984525Y-160067382D01*
X216698810Y-160067382D01*
X216603572Y-160019763D01*
X216555953Y-159972144D01*
X213896906Y-159115001D02*
X213801668Y-159067382D01*
X213658811Y-159067382D01*
X213515953Y-159115001D01*
X213420715Y-159210239D01*
X213373096Y-159305477D01*
X213325477Y-159495953D01*
X213325477Y-159638811D01*
X213373096Y-159829287D01*
X213420715Y-159924525D01*
X213515953Y-160019763D01*
X213658811Y-160067382D01*
X213754049Y-160067382D01*
X213896906Y-160019763D01*
X213944525Y-159972144D01*
X213944525Y-159638811D01*
X213754049Y-159638811D01*
X175463573Y-138699763D02*
X174606430Y-139985477D01*
X176368335Y-139747382D02*
X176035001Y-139271191D01*
X175796906Y-139747382D02*
X175796906Y-138747382D01*
X176177859Y-138747382D01*
X176273097Y-138795001D01*
X176320716Y-138842620D01*
X176368335Y-138937858D01*
X176368335Y-139080715D01*
X176320716Y-139175953D01*
X176273097Y-139223572D01*
X176177859Y-139271191D01*
X175796906Y-139271191D01*
X171947382Y-138747382D02*
X172566430Y-138747382D01*
X172233096Y-139128334D01*
X172375954Y-139128334D01*
X172471192Y-139175953D01*
X172518811Y-139223572D01*
X172566430Y-139318811D01*
X172566430Y-139556906D01*
X172518811Y-139652144D01*
X172471192Y-139699763D01*
X172375954Y-139747382D01*
X172090239Y-139747382D01*
X171995001Y-139699763D01*
X171947382Y-139652144D01*
X172995001Y-139652144D02*
X173042620Y-139699763D01*
X172995001Y-139747382D01*
X172947382Y-139699763D01*
X172995001Y-139652144D01*
X172995001Y-139747382D01*
X173375953Y-138747382D02*
X173995001Y-138747382D01*
X173661667Y-139128334D01*
X173804525Y-139128334D01*
X173899763Y-139175953D01*
X173947382Y-139223572D01*
X173995001Y-139318811D01*
X173995001Y-139556906D01*
X173947382Y-139652144D01*
X173899763Y-139699763D01*
X173804525Y-139747382D01*
X173518810Y-139747382D01*
X173423572Y-139699763D01*
X173375953Y-139652144D01*
X170716906Y-138795001D02*
X170621668Y-138747382D01*
X170478811Y-138747382D01*
X170335953Y-138795001D01*
X170240715Y-138890239D01*
X170193096Y-138985477D01*
X170145477Y-139175953D01*
X170145477Y-139318811D01*
X170193096Y-139509287D01*
X170240715Y-139604525D01*
X170335953Y-139699763D01*
X170478811Y-139747382D01*
X170574049Y-139747382D01*
X170716906Y-139699763D01*
X170764525Y-139652144D01*
X170764525Y-139318811D01*
X170574049Y-139318811D01*
X168176906Y-138795001D02*
X168081668Y-138747382D01*
X167938811Y-138747382D01*
X167795953Y-138795001D01*
X167700715Y-138890239D01*
X167653096Y-138985477D01*
X167605477Y-139175953D01*
X167605477Y-139318811D01*
X167653096Y-139509287D01*
X167700715Y-139604525D01*
X167795953Y-139699763D01*
X167938811Y-139747382D01*
X168034049Y-139747382D01*
X168176906Y-139699763D01*
X168224525Y-139652144D01*
X168224525Y-139318811D01*
X168034049Y-139318811D01*
X215341668Y-138747382D02*
X215675001Y-139747382D01*
X216008335Y-138747382D01*
X216675002Y-139223572D02*
X216817859Y-139271191D01*
X216865478Y-139318811D01*
X216913097Y-139414049D01*
X216913097Y-139556906D01*
X216865478Y-139652144D01*
X216817859Y-139699763D01*
X216722621Y-139747382D01*
X216341668Y-139747382D01*
X216341668Y-138747382D01*
X216675002Y-138747382D01*
X216770240Y-138795001D01*
X216817859Y-138842620D01*
X216865478Y-138937858D01*
X216865478Y-139033096D01*
X216817859Y-139128334D01*
X216770240Y-139175953D01*
X216675002Y-139223572D01*
X216341668Y-139223572D01*
X210904525Y-159067382D02*
X210428334Y-159067382D01*
X210380715Y-159543572D01*
X210428334Y-159495953D01*
X210523572Y-159448334D01*
X210761668Y-159448334D01*
X210856906Y-159495953D01*
X210904525Y-159543572D01*
X210952144Y-159638811D01*
X210952144Y-159876906D01*
X210904525Y-159972144D01*
X210856906Y-160019763D01*
X210761668Y-160067382D01*
X210523572Y-160067382D01*
X210428334Y-160019763D01*
X210380715Y-159972144D01*
X211237858Y-159067382D02*
X211571191Y-160067382D01*
X211904525Y-159067382D01*
X167367382Y-150716906D02*
X168176906Y-150716906D01*
X168272144Y-150669287D01*
X168319763Y-150621668D01*
X168367382Y-150526430D01*
X168367382Y-150335953D01*
X168319763Y-150240715D01*
X168272144Y-150193096D01*
X168176906Y-150145477D01*
X167367382Y-150145477D01*
X168319763Y-149716906D02*
X168367382Y-149574049D01*
X168367382Y-149335953D01*
X168319763Y-149240715D01*
X168272144Y-149193096D01*
X168176906Y-149145477D01*
X168081668Y-149145477D01*
X167986430Y-149193096D01*
X167938811Y-149240715D01*
X167891191Y-149335953D01*
X167843572Y-149526430D01*
X167795953Y-149621668D01*
X167748334Y-149669287D01*
X167653096Y-149716906D01*
X167557858Y-149716906D01*
X167462620Y-149669287D01*
X167415001Y-149621668D01*
X167367382Y-149526430D01*
X167367382Y-149288334D01*
X167415001Y-149145477D01*
X167843572Y-148383572D02*
X167891191Y-148240715D01*
X167938811Y-148193096D01*
X168034049Y-148145477D01*
X168176906Y-148145477D01*
X168272144Y-148193096D01*
X168319763Y-148240715D01*
X168367382Y-148335953D01*
X168367382Y-148716906D01*
X167367382Y-148716906D01*
X167367382Y-148383572D01*
X167415001Y-148288334D01*
X167462620Y-148240715D01*
X167557858Y-148193096D01*
X167653096Y-148193096D01*
X167748334Y-148240715D01*
X167795953Y-148288334D01*
X167843572Y-148383572D01*
X167843572Y-148716906D01*
X191283096Y-85497382D02*
X191283096Y-86306906D01*
X191330715Y-86402144D01*
X191378334Y-86449763D01*
X191473572Y-86497382D01*
X191664049Y-86497382D01*
X191759287Y-86449763D01*
X191806906Y-86402144D01*
X191854525Y-86306906D01*
X191854525Y-85497382D01*
X192854525Y-86497382D02*
X192283096Y-86497382D01*
X192568810Y-86497382D02*
X192568810Y-85497382D01*
X192473572Y-85640239D01*
X192378334Y-85735477D01*
X192283096Y-85783096D01*
X180568810Y-83909763D02*
X180664048Y-83957382D01*
X180854524Y-83957382D01*
X180949763Y-83909763D01*
X180997382Y-83814525D01*
X180997382Y-83766906D01*
X180949763Y-83671668D01*
X180854524Y-83624049D01*
X180711667Y-83624049D01*
X180616429Y-83576430D01*
X180568810Y-83481191D01*
X180568810Y-83433572D01*
X180616429Y-83338334D01*
X180711667Y-83290715D01*
X180854524Y-83290715D01*
X180949763Y-83338334D01*
X181283096Y-83290715D02*
X181664048Y-83290715D01*
X181425953Y-82957382D02*
X181425953Y-83814525D01*
X181473572Y-83909763D01*
X181568810Y-83957382D01*
X181664048Y-83957382D01*
X181997382Y-83957382D02*
X181997382Y-83290715D01*
X181997382Y-83385953D02*
X182045001Y-83338334D01*
X182140239Y-83290715D01*
X182283097Y-83290715D01*
X182378335Y-83338334D01*
X182425954Y-83433572D01*
X182425954Y-83957382D01*
X182425954Y-83433572D02*
X182473573Y-83338334D01*
X182568811Y-83290715D01*
X182711668Y-83290715D01*
X182806906Y-83338334D01*
X182854525Y-83433572D01*
X182854525Y-83957382D01*
X183235477Y-82957382D02*
X183854525Y-82957382D01*
X183521191Y-83338334D01*
X183664049Y-83338334D01*
X183759287Y-83385953D01*
X183806906Y-83433572D01*
X183854525Y-83528811D01*
X183854525Y-83766906D01*
X183806906Y-83862144D01*
X183759287Y-83909763D01*
X183664049Y-83957382D01*
X183378334Y-83957382D01*
X183283096Y-83909763D01*
X183235477Y-83862144D01*
X184235477Y-83052620D02*
X184283096Y-83005001D01*
X184378334Y-82957382D01*
X184616430Y-82957382D01*
X184711668Y-83005001D01*
X184759287Y-83052620D01*
X184806906Y-83147858D01*
X184806906Y-83243096D01*
X184759287Y-83385953D01*
X184187858Y-83957382D01*
X184806906Y-83957382D01*
X185092620Y-83290715D02*
X185473572Y-83290715D01*
X185235477Y-83957382D02*
X185235477Y-83100239D01*
X185283096Y-83005001D01*
X185378334Y-82957382D01*
X185473572Y-82957382D01*
X186330716Y-83957382D02*
X185759287Y-83957382D01*
X186045001Y-83957382D02*
X186045001Y-82957382D01*
X185949763Y-83100239D01*
X185854525Y-83195477D01*
X185759287Y-83243096D01*
X186949763Y-82957382D02*
X187045002Y-82957382D01*
X187140240Y-83005001D01*
X187187859Y-83052620D01*
X187235478Y-83147858D01*
X187283097Y-83338334D01*
X187283097Y-83576430D01*
X187235478Y-83766906D01*
X187187859Y-83862144D01*
X187140240Y-83909763D01*
X187045002Y-83957382D01*
X186949763Y-83957382D01*
X186854525Y-83909763D01*
X186806906Y-83862144D01*
X186759287Y-83766906D01*
X186711668Y-83576430D01*
X186711668Y-83338334D01*
X186759287Y-83147858D01*
X186806906Y-83052620D01*
X186854525Y-83005001D01*
X186949763Y-82957382D01*
X187616430Y-82957382D02*
X188235478Y-82957382D01*
X187902144Y-83338334D01*
X188045002Y-83338334D01*
X188140240Y-83385953D01*
X188187859Y-83433572D01*
X188235478Y-83528811D01*
X188235478Y-83766906D01*
X188187859Y-83862144D01*
X188140240Y-83909763D01*
X188045002Y-83957382D01*
X187759287Y-83957382D01*
X187664049Y-83909763D01*
X187616430Y-83862144D01*
X189092621Y-83909763D02*
X188997383Y-83957382D01*
X188806906Y-83957382D01*
X188711668Y-83909763D01*
X188664049Y-83862144D01*
X188616430Y-83766906D01*
X188616430Y-83481191D01*
X188664049Y-83385953D01*
X188711668Y-83338334D01*
X188806906Y-83290715D01*
X188997383Y-83290715D01*
X189092621Y-83338334D01*
X189664049Y-83385953D02*
X189568811Y-83338334D01*
X189521192Y-83290715D01*
X189473573Y-83195477D01*
X189473573Y-83147858D01*
X189521192Y-83052620D01*
X189568811Y-83005001D01*
X189664049Y-82957382D01*
X189854526Y-82957382D01*
X189949764Y-83005001D01*
X189997383Y-83052620D01*
X190045002Y-83147858D01*
X190045002Y-83195477D01*
X189997383Y-83290715D01*
X189949764Y-83338334D01*
X189854526Y-83385953D01*
X189664049Y-83385953D01*
X189568811Y-83433572D01*
X189521192Y-83481191D01*
X189473573Y-83576430D01*
X189473573Y-83766906D01*
X189521192Y-83862144D01*
X189568811Y-83909763D01*
X189664049Y-83957382D01*
X189854526Y-83957382D01*
X189949764Y-83909763D01*
X189997383Y-83862144D01*
X190045002Y-83766906D01*
X190045002Y-83576430D01*
X189997383Y-83481191D01*
X189949764Y-83433572D01*
X189854526Y-83385953D01*
X190330716Y-83290715D02*
X190711668Y-83290715D01*
X190473573Y-82957382D02*
X190473573Y-83814525D01*
X190521192Y-83909763D01*
X190616430Y-83957382D01*
X190711668Y-83957382D01*
X191473574Y-82957382D02*
X191283097Y-82957382D01*
X191187859Y-83005001D01*
X191140240Y-83052620D01*
X191045002Y-83195477D01*
X190997383Y-83385953D01*
X190997383Y-83766906D01*
X191045002Y-83862144D01*
X191092621Y-83909763D01*
X191187859Y-83957382D01*
X191378336Y-83957382D01*
X191473574Y-83909763D01*
X191521193Y-83862144D01*
X191568812Y-83766906D01*
X191568812Y-83528811D01*
X191521193Y-83433572D01*
X191473574Y-83385953D01*
X191378336Y-83338334D01*
X191187859Y-83338334D01*
X191092621Y-83385953D01*
X191045002Y-83433572D01*
X190997383Y-83528811D01*
X191997383Y-83576430D02*
X192759288Y-83576430D01*
X193235478Y-83957382D02*
X193235478Y-83290715D01*
X193235478Y-83385953D02*
X193283097Y-83338334D01*
X193378335Y-83290715D01*
X193521193Y-83290715D01*
X193616431Y-83338334D01*
X193664050Y-83433572D01*
X193664050Y-83957382D01*
X193664050Y-83433572D02*
X193711669Y-83338334D01*
X193806907Y-83290715D01*
X193949764Y-83290715D01*
X194045002Y-83338334D01*
X194092621Y-83433572D01*
X194092621Y-83957382D01*
X194711668Y-83957382D02*
X194616430Y-83909763D01*
X194568811Y-83862144D01*
X194521192Y-83766906D01*
X194521192Y-83481191D01*
X194568811Y-83385953D01*
X194616430Y-83338334D01*
X194711668Y-83290715D01*
X194854526Y-83290715D01*
X194949764Y-83338334D01*
X194997383Y-83385953D01*
X195045002Y-83481191D01*
X195045002Y-83766906D01*
X194997383Y-83862144D01*
X194949764Y-83909763D01*
X194854526Y-83957382D01*
X194711668Y-83957382D01*
X195902145Y-83957382D02*
X195902145Y-82957382D01*
X195902145Y-83909763D02*
X195806907Y-83957382D01*
X195616430Y-83957382D01*
X195521192Y-83909763D01*
X195473573Y-83862144D01*
X195425954Y-83766906D01*
X195425954Y-83481191D01*
X195473573Y-83385953D01*
X195521192Y-83338334D01*
X195616430Y-83290715D01*
X195806907Y-83290715D01*
X195902145Y-83338334D01*
X196806907Y-83290715D02*
X196806907Y-83957382D01*
X196378335Y-83290715D02*
X196378335Y-83814525D01*
X196425954Y-83909763D01*
X196521192Y-83957382D01*
X196664050Y-83957382D01*
X196759288Y-83909763D01*
X196806907Y-83862144D01*
X197425954Y-83957382D02*
X197330716Y-83909763D01*
X197283097Y-83814525D01*
X197283097Y-82957382D01*
X198187860Y-83909763D02*
X198092622Y-83957382D01*
X197902145Y-83957382D01*
X197806907Y-83909763D01*
X197759288Y-83814525D01*
X197759288Y-83433572D01*
X197806907Y-83338334D01*
X197902145Y-83290715D01*
X198092622Y-83290715D01*
X198187860Y-83338334D01*
X198235479Y-83433572D01*
X198235479Y-83528811D01*
X197759288Y-83624049D01*
X198664050Y-83576430D02*
X199425955Y-83576430D01*
X200330717Y-83909763D02*
X200235479Y-83957382D01*
X200045002Y-83957382D01*
X199949764Y-83909763D01*
X199902145Y-83862144D01*
X199854526Y-83766906D01*
X199854526Y-83481191D01*
X199902145Y-83385953D01*
X199949764Y-83338334D01*
X200045002Y-83290715D01*
X200235479Y-83290715D01*
X200330717Y-83338334D01*
X200759288Y-83957382D02*
X200759288Y-82957382D01*
X201187860Y-83957382D02*
X201187860Y-83433572D01*
X201140241Y-83338334D01*
X201045003Y-83290715D01*
X200902145Y-83290715D01*
X200806907Y-83338334D01*
X200759288Y-83385953D01*
X201664050Y-83957382D02*
X201664050Y-83290715D01*
X201664050Y-82957382D02*
X201616431Y-83005001D01*
X201664050Y-83052620D01*
X201711669Y-83005001D01*
X201664050Y-82957382D01*
X201664050Y-83052620D01*
X202140240Y-83290715D02*
X202140240Y-83957382D01*
X202140240Y-83385953D02*
X202187859Y-83338334D01*
X202283097Y-83290715D01*
X202425955Y-83290715D01*
X202521193Y-83338334D01*
X202568812Y-83433572D01*
X202568812Y-83957382D01*
X203473574Y-83957382D02*
X203473574Y-83433572D01*
X203425955Y-83338334D01*
X203330717Y-83290715D01*
X203140240Y-83290715D01*
X203045002Y-83338334D01*
X203473574Y-83909763D02*
X203378336Y-83957382D01*
X203140240Y-83957382D01*
X203045002Y-83909763D01*
X202997383Y-83814525D01*
X202997383Y-83719287D01*
X203045002Y-83624049D01*
X203140240Y-83576430D01*
X203378336Y-83576430D01*
X203473574Y-83528811D01*
X181019763Y-80814049D02*
X181067382Y-80718811D01*
X181067382Y-80528335D01*
X181019763Y-80433096D01*
X180924525Y-80385477D01*
X180876906Y-80385477D01*
X180781668Y-80433096D01*
X180734049Y-80528335D01*
X180734049Y-80671192D01*
X180686430Y-80766430D01*
X180591191Y-80814049D01*
X180543572Y-80814049D01*
X180448334Y-80766430D01*
X180400715Y-80671192D01*
X180400715Y-80528335D01*
X180448334Y-80433096D01*
X181019763Y-79528334D02*
X181067382Y-79623572D01*
X181067382Y-79814049D01*
X181019763Y-79909287D01*
X180972144Y-79956906D01*
X180876906Y-80004525D01*
X180591191Y-80004525D01*
X180495953Y-79956906D01*
X180448334Y-79909287D01*
X180400715Y-79814049D01*
X180400715Y-79623572D01*
X180448334Y-79528334D01*
X180162620Y-79147382D02*
X180115001Y-79099763D01*
X180067382Y-79004525D01*
X180067382Y-78766429D01*
X180115001Y-78671191D01*
X180162620Y-78623572D01*
X180257858Y-78575953D01*
X180353096Y-78575953D01*
X180495953Y-78623572D01*
X181067382Y-79195001D01*
X181067382Y-78575953D01*
X178479763Y-80837858D02*
X178527382Y-80742620D01*
X178527382Y-80552144D01*
X178479763Y-80456905D01*
X178384525Y-80409286D01*
X178336906Y-80409286D01*
X178241668Y-80456905D01*
X178194049Y-80552144D01*
X178194049Y-80695001D01*
X178146430Y-80790239D01*
X178051191Y-80837858D01*
X178003572Y-80837858D01*
X177908334Y-80790239D01*
X177860715Y-80695001D01*
X177860715Y-80552144D01*
X177908334Y-80456905D01*
X178527382Y-79552143D02*
X177527382Y-79552143D01*
X178479763Y-79552143D02*
X178527382Y-79647381D01*
X178527382Y-79837858D01*
X178479763Y-79933096D01*
X178432144Y-79980715D01*
X178336906Y-80028334D01*
X178051191Y-80028334D01*
X177955953Y-79980715D01*
X177908334Y-79933096D01*
X177860715Y-79837858D01*
X177860715Y-79647381D01*
X177908334Y-79552143D01*
X177622620Y-79123572D02*
X177575001Y-79075953D01*
X177527382Y-78980715D01*
X177527382Y-78742619D01*
X177575001Y-78647381D01*
X177622620Y-78599762D01*
X177717858Y-78552143D01*
X177813096Y-78552143D01*
X177955953Y-78599762D01*
X178527382Y-79171191D01*
X178527382Y-78552143D01*
X174177858Y-95387382D02*
X174177858Y-94720715D01*
X174177858Y-94815953D02*
X174225477Y-94768334D01*
X174320715Y-94720715D01*
X174463573Y-94720715D01*
X174558811Y-94768334D01*
X174606430Y-94863572D01*
X174606430Y-95387382D01*
X174606430Y-94863572D02*
X174654049Y-94768334D01*
X174749287Y-94720715D01*
X174892144Y-94720715D01*
X174987382Y-94768334D01*
X175035001Y-94863572D01*
X175035001Y-95387382D01*
X175654048Y-95387382D02*
X175558810Y-95339763D01*
X175511191Y-95292144D01*
X175463572Y-95196906D01*
X175463572Y-94911191D01*
X175511191Y-94815953D01*
X175558810Y-94768334D01*
X175654048Y-94720715D01*
X175796906Y-94720715D01*
X175892144Y-94768334D01*
X175939763Y-94815953D01*
X175987382Y-94911191D01*
X175987382Y-95196906D01*
X175939763Y-95292144D01*
X175892144Y-95339763D01*
X175796906Y-95387382D01*
X175654048Y-95387382D01*
X176368334Y-94482620D02*
X176415953Y-94435001D01*
X176511191Y-94387382D01*
X176749287Y-94387382D01*
X176844525Y-94435001D01*
X176892144Y-94482620D01*
X176939763Y-94577858D01*
X176939763Y-94673096D01*
X176892144Y-94815953D01*
X176320715Y-95387382D01*
X176939763Y-95387382D01*
X172518811Y-95387382D02*
X172518811Y-94720715D01*
X172518811Y-94387382D02*
X172471192Y-94435001D01*
X172518811Y-94482620D01*
X172566430Y-94435001D01*
X172518811Y-94387382D01*
X172518811Y-94482620D01*
X172947382Y-94482620D02*
X172995001Y-94435001D01*
X173090239Y-94387382D01*
X173328335Y-94387382D01*
X173423573Y-94435001D01*
X173471192Y-94482620D01*
X173518811Y-94577858D01*
X173518811Y-94673096D01*
X173471192Y-94815953D01*
X172899763Y-95387382D01*
X173518811Y-95387382D01*
X170216906Y-95339763D02*
X170121668Y-95387382D01*
X169931191Y-95387382D01*
X169835953Y-95339763D01*
X169788334Y-95292144D01*
X169740715Y-95196906D01*
X169740715Y-94911191D01*
X169788334Y-94815953D01*
X169835953Y-94768334D01*
X169931191Y-94720715D01*
X170121668Y-94720715D01*
X170216906Y-94768334D01*
X170597858Y-94482620D02*
X170645477Y-94435001D01*
X170740715Y-94387382D01*
X170978811Y-94387382D01*
X171074049Y-94435001D01*
X171121668Y-94482620D01*
X171169287Y-94577858D01*
X171169287Y-94673096D01*
X171121668Y-94815953D01*
X170550239Y-95387382D01*
X171169287Y-95387382D01*
X166819763Y-95339763D02*
X166915001Y-95387382D01*
X167105477Y-95387382D01*
X167200716Y-95339763D01*
X167248335Y-95244525D01*
X167248335Y-95196906D01*
X167200716Y-95101668D01*
X167105477Y-95054049D01*
X166962620Y-95054049D01*
X166867382Y-95006430D01*
X166819763Y-94911191D01*
X166819763Y-94863572D01*
X166867382Y-94768334D01*
X166962620Y-94720715D01*
X167105477Y-94720715D01*
X167200716Y-94768334D01*
X167629287Y-95339763D02*
X167724525Y-95387382D01*
X167915001Y-95387382D01*
X168010240Y-95339763D01*
X168057859Y-95244525D01*
X168057859Y-95196906D01*
X168010240Y-95101668D01*
X167915001Y-95054049D01*
X167772144Y-95054049D01*
X167676906Y-95006430D01*
X167629287Y-94911191D01*
X167629287Y-94863572D01*
X167676906Y-94768334D01*
X167772144Y-94720715D01*
X167915001Y-94720715D01*
X168010240Y-94768334D01*
X168438811Y-94482620D02*
X168486430Y-94435001D01*
X168581668Y-94387382D01*
X168819764Y-94387382D01*
X168915002Y-94435001D01*
X168962621Y-94482620D01*
X169010240Y-94577858D01*
X169010240Y-94673096D01*
X168962621Y-94815953D01*
X168391192Y-95387382D01*
X169010240Y-95387382D01*
X203213097Y-95387382D02*
X203213097Y-94387382D01*
X203213097Y-95339763D02*
X203117859Y-95387382D01*
X202927382Y-95387382D01*
X202832144Y-95339763D01*
X202784525Y-95292144D01*
X202736906Y-95196906D01*
X202736906Y-94911191D01*
X202784525Y-94815953D01*
X202832144Y-94768334D01*
X202927382Y-94720715D01*
X203117859Y-94720715D01*
X203213097Y-94768334D01*
X204213097Y-95387382D02*
X203641668Y-95387382D01*
X203927382Y-95387382D02*
X203927382Y-94387382D01*
X203832144Y-94530239D01*
X203736906Y-94625477D01*
X203641668Y-94673096D01*
X199815953Y-95339763D02*
X199911191Y-95387382D01*
X200101667Y-95387382D01*
X200196906Y-95339763D01*
X200244525Y-95244525D01*
X200244525Y-95196906D01*
X200196906Y-95101668D01*
X200101667Y-95054049D01*
X199958810Y-95054049D01*
X199863572Y-95006430D01*
X199815953Y-94911191D01*
X199815953Y-94863572D01*
X199863572Y-94768334D01*
X199958810Y-94720715D01*
X200101667Y-94720715D01*
X200196906Y-94768334D01*
X201101668Y-95339763D02*
X201006430Y-95387382D01*
X200815953Y-95387382D01*
X200720715Y-95339763D01*
X200673096Y-95292144D01*
X200625477Y-95196906D01*
X200625477Y-94911191D01*
X200673096Y-94815953D01*
X200720715Y-94768334D01*
X200815953Y-94720715D01*
X201006430Y-94720715D01*
X201101668Y-94768334D01*
X202054049Y-95387382D02*
X201482620Y-95387382D01*
X201768334Y-95387382D02*
X201768334Y-94387382D01*
X201673096Y-94530239D01*
X201577858Y-94625477D01*
X201482620Y-94673096D01*
X200173096Y-74067382D02*
X200744525Y-74067382D01*
X200458810Y-75067382D02*
X200458810Y-74067382D01*
X201030239Y-74162620D02*
X201077858Y-74115001D01*
X201173096Y-74067382D01*
X201411192Y-74067382D01*
X201506430Y-74115001D01*
X201554049Y-74162620D01*
X201601668Y-74257858D01*
X201601668Y-74353096D01*
X201554049Y-74495953D01*
X200982620Y-75067382D01*
X201601668Y-75067382D01*
X198228335Y-75067382D02*
X197895001Y-74591191D01*
X197656906Y-75067382D02*
X197656906Y-74067382D01*
X198037859Y-74067382D01*
X198133097Y-74115001D01*
X198180716Y-74162620D01*
X198228335Y-74257858D01*
X198228335Y-74400715D01*
X198180716Y-74495953D01*
X198133097Y-74543572D01*
X198037859Y-74591191D01*
X197656906Y-74591191D01*
X198609287Y-74162620D02*
X198656906Y-74115001D01*
X198752144Y-74067382D01*
X198990240Y-74067382D01*
X199085478Y-74115001D01*
X199133097Y-74162620D01*
X199180716Y-74257858D01*
X199180716Y-74353096D01*
X199133097Y-74495953D01*
X198561668Y-75067382D01*
X199180716Y-75067382D01*
X194759763Y-75019763D02*
X194855001Y-75067382D01*
X195045477Y-75067382D01*
X195140716Y-75019763D01*
X195188335Y-74924525D01*
X195188335Y-74876906D01*
X195140716Y-74781668D01*
X195045477Y-74734049D01*
X194902620Y-74734049D01*
X194807382Y-74686430D01*
X194759763Y-74591191D01*
X194759763Y-74543572D01*
X194807382Y-74448334D01*
X194902620Y-74400715D01*
X195045477Y-74400715D01*
X195140716Y-74448334D01*
X195569287Y-75019763D02*
X195664525Y-75067382D01*
X195855001Y-75067382D01*
X195950240Y-75019763D01*
X195997859Y-74924525D01*
X195997859Y-74876906D01*
X195950240Y-74781668D01*
X195855001Y-74734049D01*
X195712144Y-74734049D01*
X195616906Y-74686430D01*
X195569287Y-74591191D01*
X195569287Y-74543572D01*
X195616906Y-74448334D01*
X195712144Y-74400715D01*
X195855001Y-74400715D01*
X195950240Y-74448334D01*
X196950240Y-75067382D02*
X196378811Y-75067382D01*
X196664525Y-75067382D02*
X196664525Y-74067382D01*
X196569287Y-74210239D01*
X196474049Y-74305477D01*
X196378811Y-74353096D01*
X193076906Y-75019763D02*
X192981668Y-75067382D01*
X192791191Y-75067382D01*
X192695953Y-75019763D01*
X192648334Y-74972144D01*
X192600715Y-74876906D01*
X192600715Y-74591191D01*
X192648334Y-74495953D01*
X192695953Y-74448334D01*
X192791191Y-74400715D01*
X192981668Y-74400715D01*
X193076906Y-74448334D01*
X194029287Y-75067382D02*
X193457858Y-75067382D01*
X193743572Y-75067382D02*
X193743572Y-74067382D01*
X193648334Y-74210239D01*
X193553096Y-74305477D01*
X193457858Y-74353096D01*
X190298811Y-75067382D02*
X190298811Y-74400715D01*
X190298811Y-74067382D02*
X190251192Y-74115001D01*
X190298811Y-74162620D01*
X190346430Y-74115001D01*
X190298811Y-74067382D01*
X190298811Y-74162620D01*
X191298811Y-75067382D02*
X190727382Y-75067382D01*
X191013096Y-75067382D02*
X191013096Y-74067382D01*
X190917858Y-74210239D01*
X190822620Y-74305477D01*
X190727382Y-74353096D01*
X186877858Y-75067382D02*
X186877858Y-74400715D01*
X186877858Y-74495953D02*
X186925477Y-74448334D01*
X187020715Y-74400715D01*
X187163573Y-74400715D01*
X187258811Y-74448334D01*
X187306430Y-74543572D01*
X187306430Y-75067382D01*
X187306430Y-74543572D02*
X187354049Y-74448334D01*
X187449287Y-74400715D01*
X187592144Y-74400715D01*
X187687382Y-74448334D01*
X187735001Y-74543572D01*
X187735001Y-75067382D01*
X188354048Y-75067382D02*
X188258810Y-75019763D01*
X188211191Y-74972144D01*
X188163572Y-74876906D01*
X188163572Y-74591191D01*
X188211191Y-74495953D01*
X188258810Y-74448334D01*
X188354048Y-74400715D01*
X188496906Y-74400715D01*
X188592144Y-74448334D01*
X188639763Y-74495953D01*
X188687382Y-74591191D01*
X188687382Y-74876906D01*
X188639763Y-74972144D01*
X188592144Y-75019763D01*
X188496906Y-75067382D01*
X188354048Y-75067382D01*
X189639763Y-75067382D02*
X189068334Y-75067382D01*
X189354048Y-75067382D02*
X189354048Y-74067382D01*
X189258810Y-74210239D01*
X189163572Y-74305477D01*
X189068334Y-74353096D01*
X179853096Y-74067382D02*
X180424525Y-74067382D01*
X180138810Y-75067382D02*
X180138810Y-74067382D01*
X180662620Y-74067382D02*
X181281668Y-74067382D01*
X180948334Y-74448334D01*
X181091192Y-74448334D01*
X181186430Y-74495953D01*
X181234049Y-74543572D01*
X181281668Y-74638811D01*
X181281668Y-74876906D01*
X181234049Y-74972144D01*
X181186430Y-75019763D01*
X181091192Y-75067382D01*
X180805477Y-75067382D01*
X180710239Y-75019763D01*
X180662620Y-74972144D01*
X177908335Y-75067382D02*
X177575001Y-74591191D01*
X177336906Y-75067382D02*
X177336906Y-74067382D01*
X177717859Y-74067382D01*
X177813097Y-74115001D01*
X177860716Y-74162620D01*
X177908335Y-74257858D01*
X177908335Y-74400715D01*
X177860716Y-74495953D01*
X177813097Y-74543572D01*
X177717859Y-74591191D01*
X177336906Y-74591191D01*
X178241668Y-74067382D02*
X178860716Y-74067382D01*
X178527382Y-74448334D01*
X178670240Y-74448334D01*
X178765478Y-74495953D01*
X178813097Y-74543572D01*
X178860716Y-74638811D01*
X178860716Y-74876906D01*
X178813097Y-74972144D01*
X178765478Y-75019763D01*
X178670240Y-75067382D01*
X178384525Y-75067382D01*
X178289287Y-75019763D01*
X178241668Y-74972144D01*
X208483573Y-95292144D02*
X208435954Y-95339763D01*
X208293097Y-95387382D01*
X208197859Y-95387382D01*
X208055001Y-95339763D01*
X207959763Y-95244525D01*
X207912144Y-95149287D01*
X207864525Y-94958811D01*
X207864525Y-94815953D01*
X207912144Y-94625477D01*
X207959763Y-94530239D01*
X208055001Y-94435001D01*
X208197859Y-94387382D01*
X208293097Y-94387382D01*
X208435954Y-94435001D01*
X208483573Y-94482620D01*
X208769287Y-94387382D02*
X209340716Y-94387382D01*
X209055001Y-95387382D02*
X209055001Y-94387382D01*
X205824525Y-95292144D02*
X205776906Y-95339763D01*
X205634049Y-95387382D01*
X205538811Y-95387382D01*
X205395953Y-95339763D01*
X205300715Y-95244525D01*
X205253096Y-95149287D01*
X205205477Y-94958811D01*
X205205477Y-94815953D01*
X205253096Y-94625477D01*
X205300715Y-94530239D01*
X205395953Y-94435001D01*
X205538811Y-94387382D01*
X205634049Y-94387382D01*
X205776906Y-94435001D01*
X205824525Y-94482620D01*
X206824525Y-95387382D02*
X206491191Y-94911191D01*
X206253096Y-95387382D02*
X206253096Y-94387382D01*
X206634049Y-94387382D01*
X206729287Y-94435001D01*
X206776906Y-94482620D01*
X206824525Y-94577858D01*
X206824525Y-94720715D01*
X206776906Y-94815953D01*
X206729287Y-94863572D01*
X206634049Y-94911191D01*
X206253096Y-94911191D01*
X187330239Y-94387382D02*
X187330239Y-95196906D01*
X187377858Y-95292144D01*
X187425477Y-95339763D01*
X187520715Y-95387382D01*
X187711192Y-95387382D01*
X187806430Y-95339763D01*
X187854049Y-95292144D01*
X187901668Y-95196906D01*
X187901668Y-94387382D01*
X188377858Y-95006430D02*
X189139763Y-95006430D01*
X188758811Y-95387382D02*
X188758811Y-94625477D01*
X184790239Y-94387382D02*
X184790239Y-95196906D01*
X184837858Y-95292144D01*
X184885477Y-95339763D01*
X184980715Y-95387382D01*
X185171192Y-95387382D01*
X185266430Y-95339763D01*
X185314049Y-95292144D01*
X185361668Y-95196906D01*
X185361668Y-94387382D01*
X185837858Y-95006430D02*
X186599763Y-95006430D01*
X182988335Y-95387382D02*
X182655001Y-94911191D01*
X182416906Y-95387382D02*
X182416906Y-94387382D01*
X182797859Y-94387382D01*
X182893097Y-94435001D01*
X182940716Y-94482620D01*
X182988335Y-94577858D01*
X182988335Y-94720715D01*
X182940716Y-94815953D01*
X182893097Y-94863572D01*
X182797859Y-94911191D01*
X182416906Y-94911191D01*
X183940716Y-95387382D02*
X183369287Y-95387382D01*
X183655001Y-95387382D02*
X183655001Y-94387382D01*
X183559763Y-94530239D01*
X183464525Y-94625477D01*
X183369287Y-94673096D01*
X179853096Y-94387382D02*
X180424525Y-94387382D01*
X180138810Y-95387382D02*
X180138810Y-94387382D01*
X181281668Y-95387382D02*
X180710239Y-95387382D01*
X180995953Y-95387382D02*
X180995953Y-94387382D01*
X180900715Y-94530239D01*
X180805477Y-94625477D01*
X180710239Y-94673096D01*
X213857382Y-88037382D02*
X214476430Y-88037382D01*
X214143096Y-88418334D01*
X214285954Y-88418334D01*
X214381192Y-88465953D01*
X214428811Y-88513572D01*
X214476430Y-88608811D01*
X214476430Y-88846906D01*
X214428811Y-88942144D01*
X214381192Y-88989763D01*
X214285954Y-89037382D01*
X214000239Y-89037382D01*
X213905001Y-88989763D01*
X213857382Y-88942144D01*
X214905001Y-88942144D02*
X214952620Y-88989763D01*
X214905001Y-89037382D01*
X214857382Y-88989763D01*
X214905001Y-88942144D01*
X214905001Y-89037382D01*
X215285953Y-88037382D02*
X215905001Y-88037382D01*
X215571667Y-88418334D01*
X215714525Y-88418334D01*
X215809763Y-88465953D01*
X215857382Y-88513572D01*
X215905001Y-88608811D01*
X215905001Y-88846906D01*
X215857382Y-88942144D01*
X215809763Y-88989763D01*
X215714525Y-89037382D01*
X215428810Y-89037382D01*
X215333572Y-88989763D01*
X215285953Y-88942144D01*
X212785954Y-86449763D02*
X212928811Y-86497382D01*
X213166907Y-86497382D01*
X213262145Y-86449763D01*
X213309764Y-86402144D01*
X213357383Y-86306906D01*
X213357383Y-86211668D01*
X213309764Y-86116430D01*
X213262145Y-86068811D01*
X213166907Y-86021191D01*
X212976430Y-85973572D01*
X212881192Y-85925953D01*
X212833573Y-85878334D01*
X212785954Y-85783096D01*
X212785954Y-85687858D01*
X212833573Y-85592620D01*
X212881192Y-85545001D01*
X212976430Y-85497382D01*
X213214526Y-85497382D01*
X213357383Y-85545001D01*
X213690716Y-85497382D02*
X213928811Y-86497382D01*
X214119288Y-85783096D01*
X214309764Y-86497382D01*
X214547859Y-85497382D01*
X214928811Y-86497382D02*
X214928811Y-85497382D01*
X215166906Y-85497382D01*
X215309764Y-85545001D01*
X215405002Y-85640239D01*
X215452621Y-85735477D01*
X215500240Y-85925953D01*
X215500240Y-86068811D01*
X215452621Y-86259287D01*
X215405002Y-86354525D01*
X215309764Y-86449763D01*
X215166906Y-86497382D01*
X214928811Y-86497382D01*
X215928811Y-86497382D02*
X215928811Y-85497382D01*
X216595477Y-85497382D02*
X216785954Y-85497382D01*
X216881192Y-85545001D01*
X216976430Y-85640239D01*
X217024049Y-85830715D01*
X217024049Y-86164049D01*
X216976430Y-86354525D01*
X216881192Y-86449763D01*
X216785954Y-86497382D01*
X216595477Y-86497382D01*
X216500239Y-86449763D01*
X216405001Y-86354525D01*
X216357382Y-86164049D01*
X216357382Y-85830715D01*
X216405001Y-85640239D01*
X216500239Y-85545001D01*
X216595477Y-85497382D01*
X212643096Y-83909763D02*
X212785953Y-83957382D01*
X213024049Y-83957382D01*
X213119287Y-83909763D01*
X213166906Y-83862144D01*
X213214525Y-83766906D01*
X213214525Y-83671668D01*
X213166906Y-83576430D01*
X213119287Y-83528811D01*
X213024049Y-83481191D01*
X212833572Y-83433572D01*
X212738334Y-83385953D01*
X212690715Y-83338334D01*
X212643096Y-83243096D01*
X212643096Y-83147858D01*
X212690715Y-83052620D01*
X212738334Y-83005001D01*
X212833572Y-82957382D01*
X213071668Y-82957382D01*
X213214525Y-83005001D01*
X213547858Y-82957382D02*
X213785953Y-83957382D01*
X213976430Y-83243096D01*
X214166906Y-83957382D01*
X214405001Y-82957382D01*
X215357382Y-83862144D02*
X215309763Y-83909763D01*
X215166906Y-83957382D01*
X215071668Y-83957382D01*
X214928810Y-83909763D01*
X214833572Y-83814525D01*
X214785953Y-83719287D01*
X214738334Y-83528811D01*
X214738334Y-83385953D01*
X214785953Y-83195477D01*
X214833572Y-83100239D01*
X214928810Y-83005001D01*
X215071668Y-82957382D01*
X215166906Y-82957382D01*
X215309763Y-83005001D01*
X215357382Y-83052620D01*
X216262144Y-83957382D02*
X215785953Y-83957382D01*
X215785953Y-82957382D01*
X216595477Y-83957382D02*
X216595477Y-82957382D01*
X217166906Y-83957382D02*
X216738334Y-83385953D01*
X217166906Y-82957382D02*
X216595477Y-83528811D01*
X214143097Y-80465001D02*
X214047859Y-80417382D01*
X213905002Y-80417382D01*
X213762144Y-80465001D01*
X213666906Y-80560239D01*
X213619287Y-80655477D01*
X213571668Y-80845953D01*
X213571668Y-80988811D01*
X213619287Y-81179287D01*
X213666906Y-81274525D01*
X213762144Y-81369763D01*
X213905002Y-81417382D01*
X214000240Y-81417382D01*
X214143097Y-81369763D01*
X214190716Y-81322144D01*
X214190716Y-80988811D01*
X214000240Y-80988811D01*
X214619287Y-81417382D02*
X214619287Y-80417382D01*
X215190716Y-81417382D01*
X215190716Y-80417382D01*
X215666906Y-81417382D02*
X215666906Y-80417382D01*
X215905001Y-80417382D01*
X216047859Y-80465001D01*
X216143097Y-80560239D01*
X216190716Y-80655477D01*
X216238335Y-80845953D01*
X216238335Y-80988811D01*
X216190716Y-81179287D01*
X216143097Y-81274525D01*
X216047859Y-81369763D01*
X215905001Y-81417382D01*
X215666906Y-81417382D01*
X215127382Y-94387382D02*
X215746430Y-94387382D01*
X215413096Y-94768334D01*
X215555954Y-94768334D01*
X215651192Y-94815953D01*
X215698811Y-94863572D01*
X215746430Y-94958811D01*
X215746430Y-95196906D01*
X215698811Y-95292144D01*
X215651192Y-95339763D01*
X215555954Y-95387382D01*
X215270239Y-95387382D01*
X215175001Y-95339763D01*
X215127382Y-95292144D01*
X216175001Y-95292144D02*
X216222620Y-95339763D01*
X216175001Y-95387382D01*
X216127382Y-95339763D01*
X216175001Y-95292144D01*
X216175001Y-95387382D01*
X216555953Y-94387382D02*
X217175001Y-94387382D01*
X216841667Y-94768334D01*
X216984525Y-94768334D01*
X217079763Y-94815953D01*
X217127382Y-94863572D01*
X217175001Y-94958811D01*
X217175001Y-95196906D01*
X217127382Y-95292144D01*
X217079763Y-95339763D01*
X216984525Y-95387382D01*
X216698810Y-95387382D01*
X216603572Y-95339763D01*
X216555953Y-95292144D01*
X213896906Y-94435001D02*
X213801668Y-94387382D01*
X213658811Y-94387382D01*
X213515953Y-94435001D01*
X213420715Y-94530239D01*
X213373096Y-94625477D01*
X213325477Y-94815953D01*
X213325477Y-94958811D01*
X213373096Y-95149287D01*
X213420715Y-95244525D01*
X213515953Y-95339763D01*
X213658811Y-95387382D01*
X213754049Y-95387382D01*
X213896906Y-95339763D01*
X213944525Y-95292144D01*
X213944525Y-94958811D01*
X213754049Y-94958811D01*
X175463573Y-74019763D02*
X174606430Y-75305477D01*
X176368335Y-75067382D02*
X176035001Y-74591191D01*
X175796906Y-75067382D02*
X175796906Y-74067382D01*
X176177859Y-74067382D01*
X176273097Y-74115001D01*
X176320716Y-74162620D01*
X176368335Y-74257858D01*
X176368335Y-74400715D01*
X176320716Y-74495953D01*
X176273097Y-74543572D01*
X176177859Y-74591191D01*
X175796906Y-74591191D01*
X171947382Y-74067382D02*
X172566430Y-74067382D01*
X172233096Y-74448334D01*
X172375954Y-74448334D01*
X172471192Y-74495953D01*
X172518811Y-74543572D01*
X172566430Y-74638811D01*
X172566430Y-74876906D01*
X172518811Y-74972144D01*
X172471192Y-75019763D01*
X172375954Y-75067382D01*
X172090239Y-75067382D01*
X171995001Y-75019763D01*
X171947382Y-74972144D01*
X172995001Y-74972144D02*
X173042620Y-75019763D01*
X172995001Y-75067382D01*
X172947382Y-75019763D01*
X172995001Y-74972144D01*
X172995001Y-75067382D01*
X173375953Y-74067382D02*
X173995001Y-74067382D01*
X173661667Y-74448334D01*
X173804525Y-74448334D01*
X173899763Y-74495953D01*
X173947382Y-74543572D01*
X173995001Y-74638811D01*
X173995001Y-74876906D01*
X173947382Y-74972144D01*
X173899763Y-75019763D01*
X173804525Y-75067382D01*
X173518810Y-75067382D01*
X173423572Y-75019763D01*
X173375953Y-74972144D01*
X170716906Y-74115001D02*
X170621668Y-74067382D01*
X170478811Y-74067382D01*
X170335953Y-74115001D01*
X170240715Y-74210239D01*
X170193096Y-74305477D01*
X170145477Y-74495953D01*
X170145477Y-74638811D01*
X170193096Y-74829287D01*
X170240715Y-74924525D01*
X170335953Y-75019763D01*
X170478811Y-75067382D01*
X170574049Y-75067382D01*
X170716906Y-75019763D01*
X170764525Y-74972144D01*
X170764525Y-74638811D01*
X170574049Y-74638811D01*
X168176906Y-74115001D02*
X168081668Y-74067382D01*
X167938811Y-74067382D01*
X167795953Y-74115001D01*
X167700715Y-74210239D01*
X167653096Y-74305477D01*
X167605477Y-74495953D01*
X167605477Y-74638811D01*
X167653096Y-74829287D01*
X167700715Y-74924525D01*
X167795953Y-75019763D01*
X167938811Y-75067382D01*
X168034049Y-75067382D01*
X168176906Y-75019763D01*
X168224525Y-74972144D01*
X168224525Y-74638811D01*
X168034049Y-74638811D01*
X215341668Y-74067382D02*
X215675001Y-75067382D01*
X216008335Y-74067382D01*
X216675002Y-74543572D02*
X216817859Y-74591191D01*
X216865478Y-74638811D01*
X216913097Y-74734049D01*
X216913097Y-74876906D01*
X216865478Y-74972144D01*
X216817859Y-75019763D01*
X216722621Y-75067382D01*
X216341668Y-75067382D01*
X216341668Y-74067382D01*
X216675002Y-74067382D01*
X216770240Y-74115001D01*
X216817859Y-74162620D01*
X216865478Y-74257858D01*
X216865478Y-74353096D01*
X216817859Y-74448334D01*
X216770240Y-74495953D01*
X216675002Y-74543572D01*
X216341668Y-74543572D01*
X210904525Y-94387382D02*
X210428334Y-94387382D01*
X210380715Y-94863572D01*
X210428334Y-94815953D01*
X210523572Y-94768334D01*
X210761668Y-94768334D01*
X210856906Y-94815953D01*
X210904525Y-94863572D01*
X210952144Y-94958811D01*
X210952144Y-95196906D01*
X210904525Y-95292144D01*
X210856906Y-95339763D01*
X210761668Y-95387382D01*
X210523572Y-95387382D01*
X210428334Y-95339763D01*
X210380715Y-95292144D01*
X211237858Y-94387382D02*
X211571191Y-95387382D01*
X211904525Y-94387382D01*
X167367382Y-86036906D02*
X168176906Y-86036906D01*
X168272144Y-85989287D01*
X168319763Y-85941668D01*
X168367382Y-85846430D01*
X168367382Y-85655953D01*
X168319763Y-85560715D01*
X168272144Y-85513096D01*
X168176906Y-85465477D01*
X167367382Y-85465477D01*
X168319763Y-85036906D02*
X168367382Y-84894049D01*
X168367382Y-84655953D01*
X168319763Y-84560715D01*
X168272144Y-84513096D01*
X168176906Y-84465477D01*
X168081668Y-84465477D01*
X167986430Y-84513096D01*
X167938811Y-84560715D01*
X167891191Y-84655953D01*
X167843572Y-84846430D01*
X167795953Y-84941668D01*
X167748334Y-84989287D01*
X167653096Y-85036906D01*
X167557858Y-85036906D01*
X167462620Y-84989287D01*
X167415001Y-84941668D01*
X167367382Y-84846430D01*
X167367382Y-84608334D01*
X167415001Y-84465477D01*
X167843572Y-83703572D02*
X167891191Y-83560715D01*
X167938811Y-83513096D01*
X168034049Y-83465477D01*
X168176906Y-83465477D01*
X168272144Y-83513096D01*
X168319763Y-83560715D01*
X168367382Y-83655953D01*
X168367382Y-84036906D01*
X167367382Y-84036906D01*
X167367382Y-83703572D01*
X167415001Y-83608334D01*
X167462620Y-83560715D01*
X167557858Y-83513096D01*
X167653096Y-83513096D01*
X167748334Y-83560715D01*
X167795953Y-83608334D01*
X167843572Y-83703572D01*
X167843572Y-84036906D01*
X191283096Y-53157382D02*
X191283096Y-53966906D01*
X191330715Y-54062144D01*
X191378334Y-54109763D01*
X191473572Y-54157382D01*
X191664049Y-54157382D01*
X191759287Y-54109763D01*
X191806906Y-54062144D01*
X191854525Y-53966906D01*
X191854525Y-53157382D01*
X192854525Y-54157382D02*
X192283096Y-54157382D01*
X192568810Y-54157382D02*
X192568810Y-53157382D01*
X192473572Y-53300239D01*
X192378334Y-53395477D01*
X192283096Y-53443096D01*
X180568810Y-51569763D02*
X180664048Y-51617382D01*
X180854524Y-51617382D01*
X180949763Y-51569763D01*
X180997382Y-51474525D01*
X180997382Y-51426906D01*
X180949763Y-51331668D01*
X180854524Y-51284049D01*
X180711667Y-51284049D01*
X180616429Y-51236430D01*
X180568810Y-51141191D01*
X180568810Y-51093572D01*
X180616429Y-50998334D01*
X180711667Y-50950715D01*
X180854524Y-50950715D01*
X180949763Y-50998334D01*
X181283096Y-50950715D02*
X181664048Y-50950715D01*
X181425953Y-50617382D02*
X181425953Y-51474525D01*
X181473572Y-51569763D01*
X181568810Y-51617382D01*
X181664048Y-51617382D01*
X181997382Y-51617382D02*
X181997382Y-50950715D01*
X181997382Y-51045953D02*
X182045001Y-50998334D01*
X182140239Y-50950715D01*
X182283097Y-50950715D01*
X182378335Y-50998334D01*
X182425954Y-51093572D01*
X182425954Y-51617382D01*
X182425954Y-51093572D02*
X182473573Y-50998334D01*
X182568811Y-50950715D01*
X182711668Y-50950715D01*
X182806906Y-50998334D01*
X182854525Y-51093572D01*
X182854525Y-51617382D01*
X183235477Y-50617382D02*
X183854525Y-50617382D01*
X183521191Y-50998334D01*
X183664049Y-50998334D01*
X183759287Y-51045953D01*
X183806906Y-51093572D01*
X183854525Y-51188811D01*
X183854525Y-51426906D01*
X183806906Y-51522144D01*
X183759287Y-51569763D01*
X183664049Y-51617382D01*
X183378334Y-51617382D01*
X183283096Y-51569763D01*
X183235477Y-51522144D01*
X184235477Y-50712620D02*
X184283096Y-50665001D01*
X184378334Y-50617382D01*
X184616430Y-50617382D01*
X184711668Y-50665001D01*
X184759287Y-50712620D01*
X184806906Y-50807858D01*
X184806906Y-50903096D01*
X184759287Y-51045953D01*
X184187858Y-51617382D01*
X184806906Y-51617382D01*
X185092620Y-50950715D02*
X185473572Y-50950715D01*
X185235477Y-51617382D02*
X185235477Y-50760239D01*
X185283096Y-50665001D01*
X185378334Y-50617382D01*
X185473572Y-50617382D01*
X186330716Y-51617382D02*
X185759287Y-51617382D01*
X186045001Y-51617382D02*
X186045001Y-50617382D01*
X185949763Y-50760239D01*
X185854525Y-50855477D01*
X185759287Y-50903096D01*
X186949763Y-50617382D02*
X187045002Y-50617382D01*
X187140240Y-50665001D01*
X187187859Y-50712620D01*
X187235478Y-50807858D01*
X187283097Y-50998334D01*
X187283097Y-51236430D01*
X187235478Y-51426906D01*
X187187859Y-51522144D01*
X187140240Y-51569763D01*
X187045002Y-51617382D01*
X186949763Y-51617382D01*
X186854525Y-51569763D01*
X186806906Y-51522144D01*
X186759287Y-51426906D01*
X186711668Y-51236430D01*
X186711668Y-50998334D01*
X186759287Y-50807858D01*
X186806906Y-50712620D01*
X186854525Y-50665001D01*
X186949763Y-50617382D01*
X187616430Y-50617382D02*
X188235478Y-50617382D01*
X187902144Y-50998334D01*
X188045002Y-50998334D01*
X188140240Y-51045953D01*
X188187859Y-51093572D01*
X188235478Y-51188811D01*
X188235478Y-51426906D01*
X188187859Y-51522144D01*
X188140240Y-51569763D01*
X188045002Y-51617382D01*
X187759287Y-51617382D01*
X187664049Y-51569763D01*
X187616430Y-51522144D01*
X189092621Y-51569763D02*
X188997383Y-51617382D01*
X188806906Y-51617382D01*
X188711668Y-51569763D01*
X188664049Y-51522144D01*
X188616430Y-51426906D01*
X188616430Y-51141191D01*
X188664049Y-51045953D01*
X188711668Y-50998334D01*
X188806906Y-50950715D01*
X188997383Y-50950715D01*
X189092621Y-50998334D01*
X189664049Y-51045953D02*
X189568811Y-50998334D01*
X189521192Y-50950715D01*
X189473573Y-50855477D01*
X189473573Y-50807858D01*
X189521192Y-50712620D01*
X189568811Y-50665001D01*
X189664049Y-50617382D01*
X189854526Y-50617382D01*
X189949764Y-50665001D01*
X189997383Y-50712620D01*
X190045002Y-50807858D01*
X190045002Y-50855477D01*
X189997383Y-50950715D01*
X189949764Y-50998334D01*
X189854526Y-51045953D01*
X189664049Y-51045953D01*
X189568811Y-51093572D01*
X189521192Y-51141191D01*
X189473573Y-51236430D01*
X189473573Y-51426906D01*
X189521192Y-51522144D01*
X189568811Y-51569763D01*
X189664049Y-51617382D01*
X189854526Y-51617382D01*
X189949764Y-51569763D01*
X189997383Y-51522144D01*
X190045002Y-51426906D01*
X190045002Y-51236430D01*
X189997383Y-51141191D01*
X189949764Y-51093572D01*
X189854526Y-51045953D01*
X190330716Y-50950715D02*
X190711668Y-50950715D01*
X190473573Y-50617382D02*
X190473573Y-51474525D01*
X190521192Y-51569763D01*
X190616430Y-51617382D01*
X190711668Y-51617382D01*
X191473574Y-50617382D02*
X191283097Y-50617382D01*
X191187859Y-50665001D01*
X191140240Y-50712620D01*
X191045002Y-50855477D01*
X190997383Y-51045953D01*
X190997383Y-51426906D01*
X191045002Y-51522144D01*
X191092621Y-51569763D01*
X191187859Y-51617382D01*
X191378336Y-51617382D01*
X191473574Y-51569763D01*
X191521193Y-51522144D01*
X191568812Y-51426906D01*
X191568812Y-51188811D01*
X191521193Y-51093572D01*
X191473574Y-51045953D01*
X191378336Y-50998334D01*
X191187859Y-50998334D01*
X191092621Y-51045953D01*
X191045002Y-51093572D01*
X190997383Y-51188811D01*
X191997383Y-51236430D02*
X192759288Y-51236430D01*
X193235478Y-51617382D02*
X193235478Y-50950715D01*
X193235478Y-51045953D02*
X193283097Y-50998334D01*
X193378335Y-50950715D01*
X193521193Y-50950715D01*
X193616431Y-50998334D01*
X193664050Y-51093572D01*
X193664050Y-51617382D01*
X193664050Y-51093572D02*
X193711669Y-50998334D01*
X193806907Y-50950715D01*
X193949764Y-50950715D01*
X194045002Y-50998334D01*
X194092621Y-51093572D01*
X194092621Y-51617382D01*
X194711668Y-51617382D02*
X194616430Y-51569763D01*
X194568811Y-51522144D01*
X194521192Y-51426906D01*
X194521192Y-51141191D01*
X194568811Y-51045953D01*
X194616430Y-50998334D01*
X194711668Y-50950715D01*
X194854526Y-50950715D01*
X194949764Y-50998334D01*
X194997383Y-51045953D01*
X195045002Y-51141191D01*
X195045002Y-51426906D01*
X194997383Y-51522144D01*
X194949764Y-51569763D01*
X194854526Y-51617382D01*
X194711668Y-51617382D01*
X195902145Y-51617382D02*
X195902145Y-50617382D01*
X195902145Y-51569763D02*
X195806907Y-51617382D01*
X195616430Y-51617382D01*
X195521192Y-51569763D01*
X195473573Y-51522144D01*
X195425954Y-51426906D01*
X195425954Y-51141191D01*
X195473573Y-51045953D01*
X195521192Y-50998334D01*
X195616430Y-50950715D01*
X195806907Y-50950715D01*
X195902145Y-50998334D01*
X196806907Y-50950715D02*
X196806907Y-51617382D01*
X196378335Y-50950715D02*
X196378335Y-51474525D01*
X196425954Y-51569763D01*
X196521192Y-51617382D01*
X196664050Y-51617382D01*
X196759288Y-51569763D01*
X196806907Y-51522144D01*
X197425954Y-51617382D02*
X197330716Y-51569763D01*
X197283097Y-51474525D01*
X197283097Y-50617382D01*
X198187860Y-51569763D02*
X198092622Y-51617382D01*
X197902145Y-51617382D01*
X197806907Y-51569763D01*
X197759288Y-51474525D01*
X197759288Y-51093572D01*
X197806907Y-50998334D01*
X197902145Y-50950715D01*
X198092622Y-50950715D01*
X198187860Y-50998334D01*
X198235479Y-51093572D01*
X198235479Y-51188811D01*
X197759288Y-51284049D01*
X198664050Y-51236430D02*
X199425955Y-51236430D01*
X200330717Y-51569763D02*
X200235479Y-51617382D01*
X200045002Y-51617382D01*
X199949764Y-51569763D01*
X199902145Y-51522144D01*
X199854526Y-51426906D01*
X199854526Y-51141191D01*
X199902145Y-51045953D01*
X199949764Y-50998334D01*
X200045002Y-50950715D01*
X200235479Y-50950715D01*
X200330717Y-50998334D01*
X200759288Y-51617382D02*
X200759288Y-50617382D01*
X201187860Y-51617382D02*
X201187860Y-51093572D01*
X201140241Y-50998334D01*
X201045003Y-50950715D01*
X200902145Y-50950715D01*
X200806907Y-50998334D01*
X200759288Y-51045953D01*
X201664050Y-51617382D02*
X201664050Y-50950715D01*
X201664050Y-50617382D02*
X201616431Y-50665001D01*
X201664050Y-50712620D01*
X201711669Y-50665001D01*
X201664050Y-50617382D01*
X201664050Y-50712620D01*
X202140240Y-50950715D02*
X202140240Y-51617382D01*
X202140240Y-51045953D02*
X202187859Y-50998334D01*
X202283097Y-50950715D01*
X202425955Y-50950715D01*
X202521193Y-50998334D01*
X202568812Y-51093572D01*
X202568812Y-51617382D01*
X203473574Y-51617382D02*
X203473574Y-51093572D01*
X203425955Y-50998334D01*
X203330717Y-50950715D01*
X203140240Y-50950715D01*
X203045002Y-50998334D01*
X203473574Y-51569763D02*
X203378336Y-51617382D01*
X203140240Y-51617382D01*
X203045002Y-51569763D01*
X202997383Y-51474525D01*
X202997383Y-51379287D01*
X203045002Y-51284049D01*
X203140240Y-51236430D01*
X203378336Y-51236430D01*
X203473574Y-51188811D01*
X181019763Y-48474049D02*
X181067382Y-48378811D01*
X181067382Y-48188335D01*
X181019763Y-48093096D01*
X180924525Y-48045477D01*
X180876906Y-48045477D01*
X180781668Y-48093096D01*
X180734049Y-48188335D01*
X180734049Y-48331192D01*
X180686430Y-48426430D01*
X180591191Y-48474049D01*
X180543572Y-48474049D01*
X180448334Y-48426430D01*
X180400715Y-48331192D01*
X180400715Y-48188335D01*
X180448334Y-48093096D01*
X181019763Y-47188334D02*
X181067382Y-47283572D01*
X181067382Y-47474049D01*
X181019763Y-47569287D01*
X180972144Y-47616906D01*
X180876906Y-47664525D01*
X180591191Y-47664525D01*
X180495953Y-47616906D01*
X180448334Y-47569287D01*
X180400715Y-47474049D01*
X180400715Y-47283572D01*
X180448334Y-47188334D01*
X180162620Y-46807382D02*
X180115001Y-46759763D01*
X180067382Y-46664525D01*
X180067382Y-46426429D01*
X180115001Y-46331191D01*
X180162620Y-46283572D01*
X180257858Y-46235953D01*
X180353096Y-46235953D01*
X180495953Y-46283572D01*
X181067382Y-46855001D01*
X181067382Y-46235953D01*
X178479763Y-48497858D02*
X178527382Y-48402620D01*
X178527382Y-48212144D01*
X178479763Y-48116905D01*
X178384525Y-48069286D01*
X178336906Y-48069286D01*
X178241668Y-48116905D01*
X178194049Y-48212144D01*
X178194049Y-48355001D01*
X178146430Y-48450239D01*
X178051191Y-48497858D01*
X178003572Y-48497858D01*
X177908334Y-48450239D01*
X177860715Y-48355001D01*
X177860715Y-48212144D01*
X177908334Y-48116905D01*
X178527382Y-47212143D02*
X177527382Y-47212143D01*
X178479763Y-47212143D02*
X178527382Y-47307381D01*
X178527382Y-47497858D01*
X178479763Y-47593096D01*
X178432144Y-47640715D01*
X178336906Y-47688334D01*
X178051191Y-47688334D01*
X177955953Y-47640715D01*
X177908334Y-47593096D01*
X177860715Y-47497858D01*
X177860715Y-47307381D01*
X177908334Y-47212143D01*
X177622620Y-46783572D02*
X177575001Y-46735953D01*
X177527382Y-46640715D01*
X177527382Y-46402619D01*
X177575001Y-46307381D01*
X177622620Y-46259762D01*
X177717858Y-46212143D01*
X177813096Y-46212143D01*
X177955953Y-46259762D01*
X178527382Y-46831191D01*
X178527382Y-46212143D01*
X174177858Y-63047382D02*
X174177858Y-62380715D01*
X174177858Y-62475953D02*
X174225477Y-62428334D01*
X174320715Y-62380715D01*
X174463573Y-62380715D01*
X174558811Y-62428334D01*
X174606430Y-62523572D01*
X174606430Y-63047382D01*
X174606430Y-62523572D02*
X174654049Y-62428334D01*
X174749287Y-62380715D01*
X174892144Y-62380715D01*
X174987382Y-62428334D01*
X175035001Y-62523572D01*
X175035001Y-63047382D01*
X175654048Y-63047382D02*
X175558810Y-62999763D01*
X175511191Y-62952144D01*
X175463572Y-62856906D01*
X175463572Y-62571191D01*
X175511191Y-62475953D01*
X175558810Y-62428334D01*
X175654048Y-62380715D01*
X175796906Y-62380715D01*
X175892144Y-62428334D01*
X175939763Y-62475953D01*
X175987382Y-62571191D01*
X175987382Y-62856906D01*
X175939763Y-62952144D01*
X175892144Y-62999763D01*
X175796906Y-63047382D01*
X175654048Y-63047382D01*
X176368334Y-62142620D02*
X176415953Y-62095001D01*
X176511191Y-62047382D01*
X176749287Y-62047382D01*
X176844525Y-62095001D01*
X176892144Y-62142620D01*
X176939763Y-62237858D01*
X176939763Y-62333096D01*
X176892144Y-62475953D01*
X176320715Y-63047382D01*
X176939763Y-63047382D01*
X172518811Y-63047382D02*
X172518811Y-62380715D01*
X172518811Y-62047382D02*
X172471192Y-62095001D01*
X172518811Y-62142620D01*
X172566430Y-62095001D01*
X172518811Y-62047382D01*
X172518811Y-62142620D01*
X172947382Y-62142620D02*
X172995001Y-62095001D01*
X173090239Y-62047382D01*
X173328335Y-62047382D01*
X173423573Y-62095001D01*
X173471192Y-62142620D01*
X173518811Y-62237858D01*
X173518811Y-62333096D01*
X173471192Y-62475953D01*
X172899763Y-63047382D01*
X173518811Y-63047382D01*
X170216906Y-62999763D02*
X170121668Y-63047382D01*
X169931191Y-63047382D01*
X169835953Y-62999763D01*
X169788334Y-62952144D01*
X169740715Y-62856906D01*
X169740715Y-62571191D01*
X169788334Y-62475953D01*
X169835953Y-62428334D01*
X169931191Y-62380715D01*
X170121668Y-62380715D01*
X170216906Y-62428334D01*
X170597858Y-62142620D02*
X170645477Y-62095001D01*
X170740715Y-62047382D01*
X170978811Y-62047382D01*
X171074049Y-62095001D01*
X171121668Y-62142620D01*
X171169287Y-62237858D01*
X171169287Y-62333096D01*
X171121668Y-62475953D01*
X170550239Y-63047382D01*
X171169287Y-63047382D01*
X166819763Y-62999763D02*
X166915001Y-63047382D01*
X167105477Y-63047382D01*
X167200716Y-62999763D01*
X167248335Y-62904525D01*
X167248335Y-62856906D01*
X167200716Y-62761668D01*
X167105477Y-62714049D01*
X166962620Y-62714049D01*
X166867382Y-62666430D01*
X166819763Y-62571191D01*
X166819763Y-62523572D01*
X166867382Y-62428334D01*
X166962620Y-62380715D01*
X167105477Y-62380715D01*
X167200716Y-62428334D01*
X167629287Y-62999763D02*
X167724525Y-63047382D01*
X167915001Y-63047382D01*
X168010240Y-62999763D01*
X168057859Y-62904525D01*
X168057859Y-62856906D01*
X168010240Y-62761668D01*
X167915001Y-62714049D01*
X167772144Y-62714049D01*
X167676906Y-62666430D01*
X167629287Y-62571191D01*
X167629287Y-62523572D01*
X167676906Y-62428334D01*
X167772144Y-62380715D01*
X167915001Y-62380715D01*
X168010240Y-62428334D01*
X168438811Y-62142620D02*
X168486430Y-62095001D01*
X168581668Y-62047382D01*
X168819764Y-62047382D01*
X168915002Y-62095001D01*
X168962621Y-62142620D01*
X169010240Y-62237858D01*
X169010240Y-62333096D01*
X168962621Y-62475953D01*
X168391192Y-63047382D01*
X169010240Y-63047382D01*
X203213097Y-63047382D02*
X203213097Y-62047382D01*
X203213097Y-62999763D02*
X203117859Y-63047382D01*
X202927382Y-63047382D01*
X202832144Y-62999763D01*
X202784525Y-62952144D01*
X202736906Y-62856906D01*
X202736906Y-62571191D01*
X202784525Y-62475953D01*
X202832144Y-62428334D01*
X202927382Y-62380715D01*
X203117859Y-62380715D01*
X203213097Y-62428334D01*
X204213097Y-63047382D02*
X203641668Y-63047382D01*
X203927382Y-63047382D02*
X203927382Y-62047382D01*
X203832144Y-62190239D01*
X203736906Y-62285477D01*
X203641668Y-62333096D01*
X199815953Y-62999763D02*
X199911191Y-63047382D01*
X200101667Y-63047382D01*
X200196906Y-62999763D01*
X200244525Y-62904525D01*
X200244525Y-62856906D01*
X200196906Y-62761668D01*
X200101667Y-62714049D01*
X199958810Y-62714049D01*
X199863572Y-62666430D01*
X199815953Y-62571191D01*
X199815953Y-62523572D01*
X199863572Y-62428334D01*
X199958810Y-62380715D01*
X200101667Y-62380715D01*
X200196906Y-62428334D01*
X201101668Y-62999763D02*
X201006430Y-63047382D01*
X200815953Y-63047382D01*
X200720715Y-62999763D01*
X200673096Y-62952144D01*
X200625477Y-62856906D01*
X200625477Y-62571191D01*
X200673096Y-62475953D01*
X200720715Y-62428334D01*
X200815953Y-62380715D01*
X201006430Y-62380715D01*
X201101668Y-62428334D01*
X202054049Y-63047382D02*
X201482620Y-63047382D01*
X201768334Y-63047382D02*
X201768334Y-62047382D01*
X201673096Y-62190239D01*
X201577858Y-62285477D01*
X201482620Y-62333096D01*
X200173096Y-41727382D02*
X200744525Y-41727382D01*
X200458810Y-42727382D02*
X200458810Y-41727382D01*
X201030239Y-41822620D02*
X201077858Y-41775001D01*
X201173096Y-41727382D01*
X201411192Y-41727382D01*
X201506430Y-41775001D01*
X201554049Y-41822620D01*
X201601668Y-41917858D01*
X201601668Y-42013096D01*
X201554049Y-42155953D01*
X200982620Y-42727382D01*
X201601668Y-42727382D01*
X198228335Y-42727382D02*
X197895001Y-42251191D01*
X197656906Y-42727382D02*
X197656906Y-41727382D01*
X198037859Y-41727382D01*
X198133097Y-41775001D01*
X198180716Y-41822620D01*
X198228335Y-41917858D01*
X198228335Y-42060715D01*
X198180716Y-42155953D01*
X198133097Y-42203572D01*
X198037859Y-42251191D01*
X197656906Y-42251191D01*
X198609287Y-41822620D02*
X198656906Y-41775001D01*
X198752144Y-41727382D01*
X198990240Y-41727382D01*
X199085478Y-41775001D01*
X199133097Y-41822620D01*
X199180716Y-41917858D01*
X199180716Y-42013096D01*
X199133097Y-42155953D01*
X198561668Y-42727382D01*
X199180716Y-42727382D01*
X194759763Y-42679763D02*
X194855001Y-42727382D01*
X195045477Y-42727382D01*
X195140716Y-42679763D01*
X195188335Y-42584525D01*
X195188335Y-42536906D01*
X195140716Y-42441668D01*
X195045477Y-42394049D01*
X194902620Y-42394049D01*
X194807382Y-42346430D01*
X194759763Y-42251191D01*
X194759763Y-42203572D01*
X194807382Y-42108334D01*
X194902620Y-42060715D01*
X195045477Y-42060715D01*
X195140716Y-42108334D01*
X195569287Y-42679763D02*
X195664525Y-42727382D01*
X195855001Y-42727382D01*
X195950240Y-42679763D01*
X195997859Y-42584525D01*
X195997859Y-42536906D01*
X195950240Y-42441668D01*
X195855001Y-42394049D01*
X195712144Y-42394049D01*
X195616906Y-42346430D01*
X195569287Y-42251191D01*
X195569287Y-42203572D01*
X195616906Y-42108334D01*
X195712144Y-42060715D01*
X195855001Y-42060715D01*
X195950240Y-42108334D01*
X196950240Y-42727382D02*
X196378811Y-42727382D01*
X196664525Y-42727382D02*
X196664525Y-41727382D01*
X196569287Y-41870239D01*
X196474049Y-41965477D01*
X196378811Y-42013096D01*
X193076906Y-42679763D02*
X192981668Y-42727382D01*
X192791191Y-42727382D01*
X192695953Y-42679763D01*
X192648334Y-42632144D01*
X192600715Y-42536906D01*
X192600715Y-42251191D01*
X192648334Y-42155953D01*
X192695953Y-42108334D01*
X192791191Y-42060715D01*
X192981668Y-42060715D01*
X193076906Y-42108334D01*
X194029287Y-42727382D02*
X193457858Y-42727382D01*
X193743572Y-42727382D02*
X193743572Y-41727382D01*
X193648334Y-41870239D01*
X193553096Y-41965477D01*
X193457858Y-42013096D01*
X190298811Y-42727382D02*
X190298811Y-42060715D01*
X190298811Y-41727382D02*
X190251192Y-41775001D01*
X190298811Y-41822620D01*
X190346430Y-41775001D01*
X190298811Y-41727382D01*
X190298811Y-41822620D01*
X191298811Y-42727382D02*
X190727382Y-42727382D01*
X191013096Y-42727382D02*
X191013096Y-41727382D01*
X190917858Y-41870239D01*
X190822620Y-41965477D01*
X190727382Y-42013096D01*
X186877858Y-42727382D02*
X186877858Y-42060715D01*
X186877858Y-42155953D02*
X186925477Y-42108334D01*
X187020715Y-42060715D01*
X187163573Y-42060715D01*
X187258811Y-42108334D01*
X187306430Y-42203572D01*
X187306430Y-42727382D01*
X187306430Y-42203572D02*
X187354049Y-42108334D01*
X187449287Y-42060715D01*
X187592144Y-42060715D01*
X187687382Y-42108334D01*
X187735001Y-42203572D01*
X187735001Y-42727382D01*
X188354048Y-42727382D02*
X188258810Y-42679763D01*
X188211191Y-42632144D01*
X188163572Y-42536906D01*
X188163572Y-42251191D01*
X188211191Y-42155953D01*
X188258810Y-42108334D01*
X188354048Y-42060715D01*
X188496906Y-42060715D01*
X188592144Y-42108334D01*
X188639763Y-42155953D01*
X188687382Y-42251191D01*
X188687382Y-42536906D01*
X188639763Y-42632144D01*
X188592144Y-42679763D01*
X188496906Y-42727382D01*
X188354048Y-42727382D01*
X189639763Y-42727382D02*
X189068334Y-42727382D01*
X189354048Y-42727382D02*
X189354048Y-41727382D01*
X189258810Y-41870239D01*
X189163572Y-41965477D01*
X189068334Y-42013096D01*
X179853096Y-41727382D02*
X180424525Y-41727382D01*
X180138810Y-42727382D02*
X180138810Y-41727382D01*
X180662620Y-41727382D02*
X181281668Y-41727382D01*
X180948334Y-42108334D01*
X181091192Y-42108334D01*
X181186430Y-42155953D01*
X181234049Y-42203572D01*
X181281668Y-42298811D01*
X181281668Y-42536906D01*
X181234049Y-42632144D01*
X181186430Y-42679763D01*
X181091192Y-42727382D01*
X180805477Y-42727382D01*
X180710239Y-42679763D01*
X180662620Y-42632144D01*
X177908335Y-42727382D02*
X177575001Y-42251191D01*
X177336906Y-42727382D02*
X177336906Y-41727382D01*
X177717859Y-41727382D01*
X177813097Y-41775001D01*
X177860716Y-41822620D01*
X177908335Y-41917858D01*
X177908335Y-42060715D01*
X177860716Y-42155953D01*
X177813097Y-42203572D01*
X177717859Y-42251191D01*
X177336906Y-42251191D01*
X178241668Y-41727382D02*
X178860716Y-41727382D01*
X178527382Y-42108334D01*
X178670240Y-42108334D01*
X178765478Y-42155953D01*
X178813097Y-42203572D01*
X178860716Y-42298811D01*
X178860716Y-42536906D01*
X178813097Y-42632144D01*
X178765478Y-42679763D01*
X178670240Y-42727382D01*
X178384525Y-42727382D01*
X178289287Y-42679763D01*
X178241668Y-42632144D01*
X208483573Y-62952144D02*
X208435954Y-62999763D01*
X208293097Y-63047382D01*
X208197859Y-63047382D01*
X208055001Y-62999763D01*
X207959763Y-62904525D01*
X207912144Y-62809287D01*
X207864525Y-62618811D01*
X207864525Y-62475953D01*
X207912144Y-62285477D01*
X207959763Y-62190239D01*
X208055001Y-62095001D01*
X208197859Y-62047382D01*
X208293097Y-62047382D01*
X208435954Y-62095001D01*
X208483573Y-62142620D01*
X208769287Y-62047382D02*
X209340716Y-62047382D01*
X209055001Y-63047382D02*
X209055001Y-62047382D01*
X205824525Y-62952144D02*
X205776906Y-62999763D01*
X205634049Y-63047382D01*
X205538811Y-63047382D01*
X205395953Y-62999763D01*
X205300715Y-62904525D01*
X205253096Y-62809287D01*
X205205477Y-62618811D01*
X205205477Y-62475953D01*
X205253096Y-62285477D01*
X205300715Y-62190239D01*
X205395953Y-62095001D01*
X205538811Y-62047382D01*
X205634049Y-62047382D01*
X205776906Y-62095001D01*
X205824525Y-62142620D01*
X206824525Y-63047382D02*
X206491191Y-62571191D01*
X206253096Y-63047382D02*
X206253096Y-62047382D01*
X206634049Y-62047382D01*
X206729287Y-62095001D01*
X206776906Y-62142620D01*
X206824525Y-62237858D01*
X206824525Y-62380715D01*
X206776906Y-62475953D01*
X206729287Y-62523572D01*
X206634049Y-62571191D01*
X206253096Y-62571191D01*
X187330239Y-62047382D02*
X187330239Y-62856906D01*
X187377858Y-62952144D01*
X187425477Y-62999763D01*
X187520715Y-63047382D01*
X187711192Y-63047382D01*
X187806430Y-62999763D01*
X187854049Y-62952144D01*
X187901668Y-62856906D01*
X187901668Y-62047382D01*
X188377858Y-62666430D02*
X189139763Y-62666430D01*
X188758811Y-63047382D02*
X188758811Y-62285477D01*
X184790239Y-62047382D02*
X184790239Y-62856906D01*
X184837858Y-62952144D01*
X184885477Y-62999763D01*
X184980715Y-63047382D01*
X185171192Y-63047382D01*
X185266430Y-62999763D01*
X185314049Y-62952144D01*
X185361668Y-62856906D01*
X185361668Y-62047382D01*
X185837858Y-62666430D02*
X186599763Y-62666430D01*
X182988335Y-63047382D02*
X182655001Y-62571191D01*
X182416906Y-63047382D02*
X182416906Y-62047382D01*
X182797859Y-62047382D01*
X182893097Y-62095001D01*
X182940716Y-62142620D01*
X182988335Y-62237858D01*
X182988335Y-62380715D01*
X182940716Y-62475953D01*
X182893097Y-62523572D01*
X182797859Y-62571191D01*
X182416906Y-62571191D01*
X183940716Y-63047382D02*
X183369287Y-63047382D01*
X183655001Y-63047382D02*
X183655001Y-62047382D01*
X183559763Y-62190239D01*
X183464525Y-62285477D01*
X183369287Y-62333096D01*
X179853096Y-62047382D02*
X180424525Y-62047382D01*
X180138810Y-63047382D02*
X180138810Y-62047382D01*
X181281668Y-63047382D02*
X180710239Y-63047382D01*
X180995953Y-63047382D02*
X180995953Y-62047382D01*
X180900715Y-62190239D01*
X180805477Y-62285477D01*
X180710239Y-62333096D01*
X213857382Y-55697382D02*
X214476430Y-55697382D01*
X214143096Y-56078334D01*
X214285954Y-56078334D01*
X214381192Y-56125953D01*
X214428811Y-56173572D01*
X214476430Y-56268811D01*
X214476430Y-56506906D01*
X214428811Y-56602144D01*
X214381192Y-56649763D01*
X214285954Y-56697382D01*
X214000239Y-56697382D01*
X213905001Y-56649763D01*
X213857382Y-56602144D01*
X214905001Y-56602144D02*
X214952620Y-56649763D01*
X214905001Y-56697382D01*
X214857382Y-56649763D01*
X214905001Y-56602144D01*
X214905001Y-56697382D01*
X215285953Y-55697382D02*
X215905001Y-55697382D01*
X215571667Y-56078334D01*
X215714525Y-56078334D01*
X215809763Y-56125953D01*
X215857382Y-56173572D01*
X215905001Y-56268811D01*
X215905001Y-56506906D01*
X215857382Y-56602144D01*
X215809763Y-56649763D01*
X215714525Y-56697382D01*
X215428810Y-56697382D01*
X215333572Y-56649763D01*
X215285953Y-56602144D01*
X212785954Y-54109763D02*
X212928811Y-54157382D01*
X213166907Y-54157382D01*
X213262145Y-54109763D01*
X213309764Y-54062144D01*
X213357383Y-53966906D01*
X213357383Y-53871668D01*
X213309764Y-53776430D01*
X213262145Y-53728811D01*
X213166907Y-53681191D01*
X212976430Y-53633572D01*
X212881192Y-53585953D01*
X212833573Y-53538334D01*
X212785954Y-53443096D01*
X212785954Y-53347858D01*
X212833573Y-53252620D01*
X212881192Y-53205001D01*
X212976430Y-53157382D01*
X213214526Y-53157382D01*
X213357383Y-53205001D01*
X213690716Y-53157382D02*
X213928811Y-54157382D01*
X214119288Y-53443096D01*
X214309764Y-54157382D01*
X214547859Y-53157382D01*
X214928811Y-54157382D02*
X214928811Y-53157382D01*
X215166906Y-53157382D01*
X215309764Y-53205001D01*
X215405002Y-53300239D01*
X215452621Y-53395477D01*
X215500240Y-53585953D01*
X215500240Y-53728811D01*
X215452621Y-53919287D01*
X215405002Y-54014525D01*
X215309764Y-54109763D01*
X215166906Y-54157382D01*
X214928811Y-54157382D01*
X215928811Y-54157382D02*
X215928811Y-53157382D01*
X216595477Y-53157382D02*
X216785954Y-53157382D01*
X216881192Y-53205001D01*
X216976430Y-53300239D01*
X217024049Y-53490715D01*
X217024049Y-53824049D01*
X216976430Y-54014525D01*
X216881192Y-54109763D01*
X216785954Y-54157382D01*
X216595477Y-54157382D01*
X216500239Y-54109763D01*
X216405001Y-54014525D01*
X216357382Y-53824049D01*
X216357382Y-53490715D01*
X216405001Y-53300239D01*
X216500239Y-53205001D01*
X216595477Y-53157382D01*
X212643096Y-51569763D02*
X212785953Y-51617382D01*
X213024049Y-51617382D01*
X213119287Y-51569763D01*
X213166906Y-51522144D01*
X213214525Y-51426906D01*
X213214525Y-51331668D01*
X213166906Y-51236430D01*
X213119287Y-51188811D01*
X213024049Y-51141191D01*
X212833572Y-51093572D01*
X212738334Y-51045953D01*
X212690715Y-50998334D01*
X212643096Y-50903096D01*
X212643096Y-50807858D01*
X212690715Y-50712620D01*
X212738334Y-50665001D01*
X212833572Y-50617382D01*
X213071668Y-50617382D01*
X213214525Y-50665001D01*
X213547858Y-50617382D02*
X213785953Y-51617382D01*
X213976430Y-50903096D01*
X214166906Y-51617382D01*
X214405001Y-50617382D01*
X215357382Y-51522144D02*
X215309763Y-51569763D01*
X215166906Y-51617382D01*
X215071668Y-51617382D01*
X214928810Y-51569763D01*
X214833572Y-51474525D01*
X214785953Y-51379287D01*
X214738334Y-51188811D01*
X214738334Y-51045953D01*
X214785953Y-50855477D01*
X214833572Y-50760239D01*
X214928810Y-50665001D01*
X215071668Y-50617382D01*
X215166906Y-50617382D01*
X215309763Y-50665001D01*
X215357382Y-50712620D01*
X216262144Y-51617382D02*
X215785953Y-51617382D01*
X215785953Y-50617382D01*
X216595477Y-51617382D02*
X216595477Y-50617382D01*
X217166906Y-51617382D02*
X216738334Y-51045953D01*
X217166906Y-50617382D02*
X216595477Y-51188811D01*
X214143097Y-48125001D02*
X214047859Y-48077382D01*
X213905002Y-48077382D01*
X213762144Y-48125001D01*
X213666906Y-48220239D01*
X213619287Y-48315477D01*
X213571668Y-48505953D01*
X213571668Y-48648811D01*
X213619287Y-48839287D01*
X213666906Y-48934525D01*
X213762144Y-49029763D01*
X213905002Y-49077382D01*
X214000240Y-49077382D01*
X214143097Y-49029763D01*
X214190716Y-48982144D01*
X214190716Y-48648811D01*
X214000240Y-48648811D01*
X214619287Y-49077382D02*
X214619287Y-48077382D01*
X215190716Y-49077382D01*
X215190716Y-48077382D01*
X215666906Y-49077382D02*
X215666906Y-48077382D01*
X215905001Y-48077382D01*
X216047859Y-48125001D01*
X216143097Y-48220239D01*
X216190716Y-48315477D01*
X216238335Y-48505953D01*
X216238335Y-48648811D01*
X216190716Y-48839287D01*
X216143097Y-48934525D01*
X216047859Y-49029763D01*
X215905001Y-49077382D01*
X215666906Y-49077382D01*
X215127382Y-62047382D02*
X215746430Y-62047382D01*
X215413096Y-62428334D01*
X215555954Y-62428334D01*
X215651192Y-62475953D01*
X215698811Y-62523572D01*
X215746430Y-62618811D01*
X215746430Y-62856906D01*
X215698811Y-62952144D01*
X215651192Y-62999763D01*
X215555954Y-63047382D01*
X215270239Y-63047382D01*
X215175001Y-62999763D01*
X215127382Y-62952144D01*
X216175001Y-62952144D02*
X216222620Y-62999763D01*
X216175001Y-63047382D01*
X216127382Y-62999763D01*
X216175001Y-62952144D01*
X216175001Y-63047382D01*
X216555953Y-62047382D02*
X217175001Y-62047382D01*
X216841667Y-62428334D01*
X216984525Y-62428334D01*
X217079763Y-62475953D01*
X217127382Y-62523572D01*
X217175001Y-62618811D01*
X217175001Y-62856906D01*
X217127382Y-62952144D01*
X217079763Y-62999763D01*
X216984525Y-63047382D01*
X216698810Y-63047382D01*
X216603572Y-62999763D01*
X216555953Y-62952144D01*
X213896906Y-62095001D02*
X213801668Y-62047382D01*
X213658811Y-62047382D01*
X213515953Y-62095001D01*
X213420715Y-62190239D01*
X213373096Y-62285477D01*
X213325477Y-62475953D01*
X213325477Y-62618811D01*
X213373096Y-62809287D01*
X213420715Y-62904525D01*
X213515953Y-62999763D01*
X213658811Y-63047382D01*
X213754049Y-63047382D01*
X213896906Y-62999763D01*
X213944525Y-62952144D01*
X213944525Y-62618811D01*
X213754049Y-62618811D01*
X175463573Y-41679763D02*
X174606430Y-42965477D01*
X176368335Y-42727382D02*
X176035001Y-42251191D01*
X175796906Y-42727382D02*
X175796906Y-41727382D01*
X176177859Y-41727382D01*
X176273097Y-41775001D01*
X176320716Y-41822620D01*
X176368335Y-41917858D01*
X176368335Y-42060715D01*
X176320716Y-42155953D01*
X176273097Y-42203572D01*
X176177859Y-42251191D01*
X175796906Y-42251191D01*
X171947382Y-41727382D02*
X172566430Y-41727382D01*
X172233096Y-42108334D01*
X172375954Y-42108334D01*
X172471192Y-42155953D01*
X172518811Y-42203572D01*
X172566430Y-42298811D01*
X172566430Y-42536906D01*
X172518811Y-42632144D01*
X172471192Y-42679763D01*
X172375954Y-42727382D01*
X172090239Y-42727382D01*
X171995001Y-42679763D01*
X171947382Y-42632144D01*
X172995001Y-42632144D02*
X173042620Y-42679763D01*
X172995001Y-42727382D01*
X172947382Y-42679763D01*
X172995001Y-42632144D01*
X172995001Y-42727382D01*
X173375953Y-41727382D02*
X173995001Y-41727382D01*
X173661667Y-42108334D01*
X173804525Y-42108334D01*
X173899763Y-42155953D01*
X173947382Y-42203572D01*
X173995001Y-42298811D01*
X173995001Y-42536906D01*
X173947382Y-42632144D01*
X173899763Y-42679763D01*
X173804525Y-42727382D01*
X173518810Y-42727382D01*
X173423572Y-42679763D01*
X173375953Y-42632144D01*
X170716906Y-41775001D02*
X170621668Y-41727382D01*
X170478811Y-41727382D01*
X170335953Y-41775001D01*
X170240715Y-41870239D01*
X170193096Y-41965477D01*
X170145477Y-42155953D01*
X170145477Y-42298811D01*
X170193096Y-42489287D01*
X170240715Y-42584525D01*
X170335953Y-42679763D01*
X170478811Y-42727382D01*
X170574049Y-42727382D01*
X170716906Y-42679763D01*
X170764525Y-42632144D01*
X170764525Y-42298811D01*
X170574049Y-42298811D01*
X168176906Y-41775001D02*
X168081668Y-41727382D01*
X167938811Y-41727382D01*
X167795953Y-41775001D01*
X167700715Y-41870239D01*
X167653096Y-41965477D01*
X167605477Y-42155953D01*
X167605477Y-42298811D01*
X167653096Y-42489287D01*
X167700715Y-42584525D01*
X167795953Y-42679763D01*
X167938811Y-42727382D01*
X168034049Y-42727382D01*
X168176906Y-42679763D01*
X168224525Y-42632144D01*
X168224525Y-42298811D01*
X168034049Y-42298811D01*
X215341668Y-41727382D02*
X215675001Y-42727382D01*
X216008335Y-41727382D01*
X216675002Y-42203572D02*
X216817859Y-42251191D01*
X216865478Y-42298811D01*
X216913097Y-42394049D01*
X216913097Y-42536906D01*
X216865478Y-42632144D01*
X216817859Y-42679763D01*
X216722621Y-42727382D01*
X216341668Y-42727382D01*
X216341668Y-41727382D01*
X216675002Y-41727382D01*
X216770240Y-41775001D01*
X216817859Y-41822620D01*
X216865478Y-41917858D01*
X216865478Y-42013096D01*
X216817859Y-42108334D01*
X216770240Y-42155953D01*
X216675002Y-42203572D01*
X216341668Y-42203572D01*
X210904525Y-62047382D02*
X210428334Y-62047382D01*
X210380715Y-62523572D01*
X210428334Y-62475953D01*
X210523572Y-62428334D01*
X210761668Y-62428334D01*
X210856906Y-62475953D01*
X210904525Y-62523572D01*
X210952144Y-62618811D01*
X210952144Y-62856906D01*
X210904525Y-62952144D01*
X210856906Y-62999763D01*
X210761668Y-63047382D01*
X210523572Y-63047382D01*
X210428334Y-62999763D01*
X210380715Y-62952144D01*
X211237858Y-62047382D02*
X211571191Y-63047382D01*
X211904525Y-62047382D01*
X167367382Y-53696906D02*
X168176906Y-53696906D01*
X168272144Y-53649287D01*
X168319763Y-53601668D01*
X168367382Y-53506430D01*
X168367382Y-53315953D01*
X168319763Y-53220715D01*
X168272144Y-53173096D01*
X168176906Y-53125477D01*
X167367382Y-53125477D01*
X168319763Y-52696906D02*
X168367382Y-52554049D01*
X168367382Y-52315953D01*
X168319763Y-52220715D01*
X168272144Y-52173096D01*
X168176906Y-52125477D01*
X168081668Y-52125477D01*
X167986430Y-52173096D01*
X167938811Y-52220715D01*
X167891191Y-52315953D01*
X167843572Y-52506430D01*
X167795953Y-52601668D01*
X167748334Y-52649287D01*
X167653096Y-52696906D01*
X167557858Y-52696906D01*
X167462620Y-52649287D01*
X167415001Y-52601668D01*
X167367382Y-52506430D01*
X167367382Y-52268334D01*
X167415001Y-52125477D01*
X167843572Y-51363572D02*
X167891191Y-51220715D01*
X167938811Y-51173096D01*
X168034049Y-51125477D01*
X168176906Y-51125477D01*
X168272144Y-51173096D01*
X168319763Y-51220715D01*
X168367382Y-51315953D01*
X168367382Y-51696906D01*
X167367382Y-51696906D01*
X167367382Y-51363572D01*
X167415001Y-51268334D01*
X167462620Y-51220715D01*
X167557858Y-51173096D01*
X167653096Y-51173096D01*
X167748334Y-51220715D01*
X167795953Y-51268334D01*
X167843572Y-51363572D01*
X167843572Y-51696906D01*
M02*
