G04 #@! TF.FileFunction,Copper,L2,Bot,Signal*
%FSLAX46Y46*%
G04 Gerber Fmt 4.6, Leading zero omitted, Abs format (unit mm)*
G04 Created by KiCad (PCBNEW 4.0.6) date Tue Apr 18 22:00:09 2017*
%MOMM*%
%LPD*%
G01*
G04 APERTURE LIST*
%ADD10C,0.100000*%
%ADD11R,1.700000X1.700000*%
%ADD12O,1.700000X1.700000*%
%ADD13C,1.524000*%
%ADD14C,0.600000*%
%ADD15C,0.250000*%
G04 APERTURE END LIST*
D10*
D11*
X110490000Y-96520000D03*
D12*
X113030000Y-96520000D03*
X110490000Y-99060000D03*
X113030000Y-99060000D03*
X110490000Y-101600000D03*
X113030000Y-101600000D03*
D13*
X52345001Y-108225001D03*
X54885001Y-108225001D03*
X57425001Y-108225001D03*
X59965001Y-108225001D03*
X62505001Y-108225001D03*
X65045001Y-108225001D03*
X67585001Y-108225001D03*
X70125001Y-108225001D03*
X72665001Y-108225001D03*
X75205001Y-108225001D03*
X77745001Y-108225001D03*
X80285001Y-108225001D03*
X82825001Y-108225001D03*
X85365001Y-108225001D03*
X87905001Y-108225001D03*
X90445001Y-108225001D03*
X92985001Y-108225001D03*
X95525001Y-108225001D03*
X98065001Y-108225001D03*
X100605001Y-108225001D03*
X100605001Y-92985001D03*
X98065001Y-92985001D03*
X95525001Y-92985001D03*
X92985001Y-92985001D03*
X90445001Y-92985001D03*
X87905001Y-92985001D03*
X85365001Y-92985001D03*
X82825001Y-92985001D03*
X80285001Y-92985001D03*
X77745001Y-92985001D03*
X75205001Y-92985001D03*
X72665001Y-92985001D03*
X70125001Y-92985001D03*
X67585001Y-92985001D03*
X65045001Y-92985001D03*
X62505001Y-92985001D03*
X59965001Y-92985001D03*
X57425001Y-92985001D03*
X54885001Y-92985001D03*
X52345001Y-92985001D03*
D11*
X110490000Y-128860000D03*
D12*
X113030000Y-128860000D03*
X110490000Y-131400000D03*
X113030000Y-131400000D03*
X110490000Y-133940000D03*
X113030000Y-133940000D03*
D13*
X52345001Y-140565001D03*
X54885001Y-140565001D03*
X57425001Y-140565001D03*
X59965001Y-140565001D03*
X62505001Y-140565001D03*
X65045001Y-140565001D03*
X67585001Y-140565001D03*
X70125001Y-140565001D03*
X72665001Y-140565001D03*
X75205001Y-140565001D03*
X77745001Y-140565001D03*
X80285001Y-140565001D03*
X82825001Y-140565001D03*
X85365001Y-140565001D03*
X87905001Y-140565001D03*
X90445001Y-140565001D03*
X92985001Y-140565001D03*
X95525001Y-140565001D03*
X98065001Y-140565001D03*
X100605001Y-140565001D03*
X100605001Y-125325001D03*
X98065001Y-125325001D03*
X95525001Y-125325001D03*
X92985001Y-125325001D03*
X90445001Y-125325001D03*
X87905001Y-125325001D03*
X85365001Y-125325001D03*
X82825001Y-125325001D03*
X80285001Y-125325001D03*
X77745001Y-125325001D03*
X75205001Y-125325001D03*
X72665001Y-125325001D03*
X70125001Y-125325001D03*
X67585001Y-125325001D03*
X65045001Y-125325001D03*
X62505001Y-125325001D03*
X59965001Y-125325001D03*
X57425001Y-125325001D03*
X54885001Y-125325001D03*
X52345001Y-125325001D03*
D11*
X110490000Y-64180000D03*
D12*
X113030000Y-64180000D03*
X110490000Y-66720000D03*
X113030000Y-66720000D03*
X110490000Y-69260000D03*
X113030000Y-69260000D03*
D13*
X52345001Y-75885001D03*
X54885001Y-75885001D03*
X57425001Y-75885001D03*
X59965001Y-75885001D03*
X62505001Y-75885001D03*
X65045001Y-75885001D03*
X67585001Y-75885001D03*
X70125001Y-75885001D03*
X72665001Y-75885001D03*
X75205001Y-75885001D03*
X77745001Y-75885001D03*
X80285001Y-75885001D03*
X82825001Y-75885001D03*
X85365001Y-75885001D03*
X87905001Y-75885001D03*
X90445001Y-75885001D03*
X92985001Y-75885001D03*
X95525001Y-75885001D03*
X98065001Y-75885001D03*
X100605001Y-75885001D03*
X100605001Y-60645001D03*
X98065001Y-60645001D03*
X95525001Y-60645001D03*
X92985001Y-60645001D03*
X90445001Y-60645001D03*
X87905001Y-60645001D03*
X85365001Y-60645001D03*
X82825001Y-60645001D03*
X80285001Y-60645001D03*
X77745001Y-60645001D03*
X75205001Y-60645001D03*
X72665001Y-60645001D03*
X70125001Y-60645001D03*
X67585001Y-60645001D03*
X65045001Y-60645001D03*
X62505001Y-60645001D03*
X59965001Y-60645001D03*
X57425001Y-60645001D03*
X54885001Y-60645001D03*
X52345001Y-60645001D03*
D11*
X110490000Y-31840000D03*
D12*
X113030000Y-31840000D03*
X110490000Y-34380000D03*
X113030000Y-34380000D03*
X110490000Y-36920000D03*
X113030000Y-36920000D03*
D13*
X52345001Y-43545001D03*
X54885001Y-43545001D03*
X57425001Y-43545001D03*
X59965001Y-43545001D03*
X62505001Y-43545001D03*
X65045001Y-43545001D03*
X67585001Y-43545001D03*
X70125001Y-43545001D03*
X72665001Y-43545001D03*
X75205001Y-43545001D03*
X77745001Y-43545001D03*
X80285001Y-43545001D03*
X82825001Y-43545001D03*
X85365001Y-43545001D03*
X87905001Y-43545001D03*
X90445001Y-43545001D03*
X92985001Y-43545001D03*
X95525001Y-43545001D03*
X98065001Y-43545001D03*
X100605001Y-43545001D03*
X100605001Y-28305001D03*
X98065001Y-28305001D03*
X95525001Y-28305001D03*
X92985001Y-28305001D03*
X90445001Y-28305001D03*
X87905001Y-28305001D03*
X85365001Y-28305001D03*
X82825001Y-28305001D03*
X80285001Y-28305001D03*
X77745001Y-28305001D03*
X75205001Y-28305001D03*
X72665001Y-28305001D03*
X70125001Y-28305001D03*
X67585001Y-28305001D03*
X65045001Y-28305001D03*
X62505001Y-28305001D03*
X59965001Y-28305001D03*
X57425001Y-28305001D03*
X54885001Y-28305001D03*
X52345001Y-28305001D03*
D14*
X116840000Y-92710000D03*
X116840000Y-125050000D03*
X116840000Y-60370000D03*
X116840000Y-28030000D03*
D15*
X75205001Y-92985001D02*
X75205001Y-91164999D01*
X104140000Y-90170000D02*
X110490000Y-96520000D01*
X76200000Y-90170000D02*
X104140000Y-90170000D01*
X75205001Y-91164999D02*
X76200000Y-90170000D01*
X77745001Y-92985001D02*
X77745001Y-96795001D01*
X80010000Y-99060000D02*
X110490000Y-99060000D01*
X77745001Y-96795001D02*
X80010000Y-99060000D01*
X72665001Y-92985001D02*
X72665001Y-91164999D01*
X113030000Y-88900000D02*
X116840000Y-92710000D01*
X74930000Y-88900000D02*
X113030000Y-88900000D01*
X72665001Y-91164999D02*
X74930000Y-88900000D01*
X62505001Y-108225001D02*
X62505001Y-106404999D01*
X67310000Y-101600000D02*
X110490000Y-101600000D01*
X62505001Y-106404999D02*
X67310000Y-101600000D01*
X100605001Y-108225001D02*
X111484999Y-108225001D01*
X116840000Y-96520000D02*
X113030000Y-96520000D01*
X118110000Y-97790000D02*
X116840000Y-96520000D01*
X118110000Y-101600000D02*
X118110000Y-97790000D01*
X111484999Y-108225001D02*
X118110000Y-101600000D01*
X75205001Y-125325001D02*
X75205001Y-123504999D01*
X104140000Y-122510000D02*
X110490000Y-128860000D01*
X76200000Y-122510000D02*
X104140000Y-122510000D01*
X75205001Y-123504999D02*
X76200000Y-122510000D01*
X100605001Y-140565001D02*
X111484999Y-140565001D01*
X116840000Y-128860000D02*
X113030000Y-128860000D01*
X118110000Y-130130000D02*
X116840000Y-128860000D01*
X118110000Y-133940000D02*
X118110000Y-130130000D01*
X111484999Y-140565001D02*
X118110000Y-133940000D01*
X77745001Y-125325001D02*
X77745001Y-129135001D01*
X80010000Y-131400000D02*
X110490000Y-131400000D01*
X77745001Y-129135001D02*
X80010000Y-131400000D01*
X72665001Y-125325001D02*
X72665001Y-123504999D01*
X113030000Y-121240000D02*
X116840000Y-125050000D01*
X74930000Y-121240000D02*
X113030000Y-121240000D01*
X72665001Y-123504999D02*
X74930000Y-121240000D01*
X62505001Y-140565001D02*
X62505001Y-138744999D01*
X67310000Y-133940000D02*
X110490000Y-133940000D01*
X62505001Y-138744999D02*
X67310000Y-133940000D01*
X75205001Y-60645001D02*
X75205001Y-58824999D01*
X104140000Y-57830000D02*
X110490000Y-64180000D01*
X76200000Y-57830000D02*
X104140000Y-57830000D01*
X75205001Y-58824999D02*
X76200000Y-57830000D01*
X100605001Y-75885001D02*
X111484999Y-75885001D01*
X116840000Y-64180000D02*
X113030000Y-64180000D01*
X118110000Y-65450000D02*
X116840000Y-64180000D01*
X118110000Y-69260000D02*
X118110000Y-65450000D01*
X111484999Y-75885001D02*
X118110000Y-69260000D01*
X77745001Y-60645001D02*
X77745001Y-64455001D01*
X80010000Y-66720000D02*
X110490000Y-66720000D01*
X77745001Y-64455001D02*
X80010000Y-66720000D01*
X72665001Y-60645001D02*
X72665001Y-58824999D01*
X113030000Y-56560000D02*
X116840000Y-60370000D01*
X74930000Y-56560000D02*
X113030000Y-56560000D01*
X72665001Y-58824999D02*
X74930000Y-56560000D01*
X62505001Y-75885001D02*
X62505001Y-74064999D01*
X67310000Y-69260000D02*
X110490000Y-69260000D01*
X62505001Y-74064999D02*
X67310000Y-69260000D01*
X75205001Y-28305001D02*
X75205001Y-26484999D01*
X104140000Y-25490000D02*
X110490000Y-31840000D01*
X76200000Y-25490000D02*
X104140000Y-25490000D01*
X75205001Y-26484999D02*
X76200000Y-25490000D01*
X100605001Y-43545001D02*
X111484999Y-43545001D01*
X116840000Y-31840000D02*
X113030000Y-31840000D01*
X118110000Y-33110000D02*
X116840000Y-31840000D01*
X118110000Y-36920000D02*
X118110000Y-33110000D01*
X111484999Y-43545001D02*
X118110000Y-36920000D01*
X77745001Y-28305001D02*
X77745001Y-32115001D01*
X80010000Y-34380000D02*
X110490000Y-34380000D01*
X77745001Y-32115001D02*
X80010000Y-34380000D01*
X72665001Y-28305001D02*
X72665001Y-26484999D01*
X113030000Y-24220000D02*
X116840000Y-28030000D01*
X74930000Y-24220000D02*
X113030000Y-24220000D01*
X72665001Y-26484999D02*
X74930000Y-24220000D01*
X62505001Y-43545001D02*
X62505001Y-41724999D01*
X67310000Y-36920000D02*
X110490000Y-36920000D01*
X62505001Y-41724999D02*
X67310000Y-36920000D01*
M02*
