M48
;DRILL file {KiCad 4.0.6} date Tue Apr 18 22:00:13 2017
;FORMAT={-:-/ absolute / inch / decimal}
FMAT,2
INCH,TZ
T1C0.016
T2C0.039
T3C0.040
%
G90
G05
M72
T1
X4.6Y-1.1035
X4.6Y-2.3768
X4.6Y-3.65
X4.6Y-4.9232
T2
X4.35Y-1.2535
X4.35Y-1.3535
X4.35Y-1.4535
X4.35Y-2.5268
X4.35Y-2.6268
X4.35Y-2.7268
X4.35Y-3.8
X4.35Y-3.9
X4.35Y-4.
X4.35Y-5.0732
X4.35Y-5.1732
X4.35Y-5.2732
X4.45Y-1.2535
X4.45Y-1.3535
X4.45Y-1.4535
X4.45Y-2.5268
X4.45Y-2.6268
X4.45Y-2.7268
X4.45Y-3.8
X4.45Y-3.9
X4.45Y-4.
X4.45Y-5.0732
X4.45Y-5.1732
X4.45Y-5.2732
T3
X2.0608Y-1.1144
X2.0608Y-1.7144
X2.0608Y-2.3876
X2.0608Y-2.9876
X2.0608Y-3.6608
X2.0608Y-4.2608
X2.0608Y-4.9341
X2.0608Y-5.5341
X2.1608Y-1.1144
X2.1608Y-1.7144
X2.1608Y-2.3876
X2.1608Y-2.9876
X2.1608Y-3.6608
X2.1608Y-4.2608
X2.1608Y-4.9341
X2.1608Y-5.5341
X2.2608Y-1.1144
X2.2608Y-1.7144
X2.2608Y-2.3876
X2.2608Y-2.9876
X2.2608Y-3.6608
X2.2608Y-4.2608
X2.2608Y-4.9341
X2.2608Y-5.5341
X2.3608Y-1.1144
X2.3608Y-1.7144
X2.3608Y-2.3876
X2.3608Y-2.9876
X2.3608Y-3.6608
X2.3608Y-4.2608
X2.3608Y-4.9341
X2.3608Y-5.5341
X2.4608Y-1.1144
X2.4608Y-1.7144
X2.4608Y-2.3876
X2.4608Y-2.9876
X2.4608Y-3.6608
X2.4608Y-4.2608
X2.4608Y-4.9341
X2.4608Y-5.5341
X2.5608Y-1.1144
X2.5608Y-1.7144
X2.5608Y-2.3876
X2.5608Y-2.9876
X2.5608Y-3.6608
X2.5608Y-4.2608
X2.5608Y-4.9341
X2.5608Y-5.5341
X2.6608Y-1.1144
X2.6608Y-1.7144
X2.6608Y-2.3876
X2.6608Y-2.9876
X2.6608Y-3.6608
X2.6608Y-4.2608
X2.6608Y-4.9341
X2.6608Y-5.5341
X2.7608Y-1.1144
X2.7608Y-1.7144
X2.7608Y-2.3876
X2.7608Y-2.9876
X2.7608Y-3.6608
X2.7608Y-4.2608
X2.7608Y-4.9341
X2.7608Y-5.5341
X2.8608Y-1.1144
X2.8608Y-1.7144
X2.8608Y-2.3876
X2.8608Y-2.9876
X2.8608Y-3.6608
X2.8608Y-4.2608
X2.8608Y-4.9341
X2.8608Y-5.5341
X2.9608Y-1.1144
X2.9608Y-1.7144
X2.9608Y-2.3876
X2.9608Y-2.9876
X2.9608Y-3.6608
X2.9608Y-4.2608
X2.9608Y-4.9341
X2.9608Y-5.5341
X3.0608Y-1.1144
X3.0608Y-1.7144
X3.0608Y-2.3876
X3.0608Y-2.9876
X3.0608Y-3.6608
X3.0608Y-4.2608
X3.0608Y-4.9341
X3.0608Y-5.5341
X3.1608Y-1.1144
X3.1608Y-1.7144
X3.1608Y-2.3876
X3.1608Y-2.9876
X3.1608Y-3.6608
X3.1608Y-4.2608
X3.1608Y-4.9341
X3.1608Y-5.5341
X3.2608Y-1.1144
X3.2608Y-1.7144
X3.2608Y-2.3876
X3.2608Y-2.9876
X3.2608Y-3.6608
X3.2608Y-4.2608
X3.2608Y-4.9341
X3.2608Y-5.5341
X3.3608Y-1.1144
X3.3608Y-1.7144
X3.3608Y-2.3876
X3.3608Y-2.9876
X3.3608Y-3.6608
X3.3608Y-4.2608
X3.3608Y-4.9341
X3.3608Y-5.5341
X3.4608Y-1.1144
X3.4608Y-1.7144
X3.4608Y-2.3876
X3.4608Y-2.9876
X3.4608Y-3.6608
X3.4608Y-4.2608
X3.4608Y-4.9341
X3.4608Y-5.5341
X3.5608Y-1.1144
X3.5608Y-1.7144
X3.5608Y-2.3876
X3.5608Y-2.9876
X3.5608Y-3.6608
X3.5608Y-4.2608
X3.5608Y-4.9341
X3.5608Y-5.5341
X3.6608Y-1.1144
X3.6608Y-1.7144
X3.6608Y-2.3876
X3.6608Y-2.9876
X3.6608Y-3.6608
X3.6608Y-4.2608
X3.6608Y-4.9341
X3.6608Y-5.5341
X3.7608Y-1.1144
X3.7608Y-1.7144
X3.7608Y-2.3876
X3.7608Y-2.9876
X3.7608Y-3.6608
X3.7608Y-4.2608
X3.7608Y-4.9341
X3.7608Y-5.5341
X3.8608Y-1.1144
X3.8608Y-1.7144
X3.8608Y-2.3876
X3.8608Y-2.9876
X3.8608Y-3.6608
X3.8608Y-4.2608
X3.8608Y-4.9341
X3.8608Y-5.5341
X3.9608Y-1.1144
X3.9608Y-1.7144
X3.9608Y-2.3876
X3.9608Y-2.9876
X3.9608Y-3.6608
X3.9608Y-4.2608
X3.9608Y-4.9341
X3.9608Y-5.5341
T0
M30
