M48
;DRILL file {KiCad 4.0.6} date Mon Apr 17 21:44:22 2017
;FORMAT={-:-/ absolute / inch / decimal}
FMAT,2
INCH,TZ
T1C0.016
T2C0.039
T3C0.040
%
G90
G05
M72
T1
X9.15Y-1.7535
X9.15Y-3.0268
X9.15Y-4.3
X9.15Y-5.5732
T2
X8.9Y-1.9035
X8.9Y-2.0035
X8.9Y-2.1035
X8.9Y-3.1768
X8.9Y-3.2768
X8.9Y-3.3768
X8.9Y-4.45
X8.9Y-4.55
X8.9Y-4.65
X8.9Y-5.7232
X8.9Y-5.8232
X8.9Y-5.9232
X9.Y-1.9035
X9.Y-2.0035
X9.Y-2.1035
X9.Y-3.1768
X9.Y-3.2768
X9.Y-3.3768
X9.Y-4.45
X9.Y-4.55
X9.Y-4.65
X9.Y-5.7232
X9.Y-5.8232
X9.Y-5.9232
T3
X6.6108Y-1.7644
X6.6108Y-2.3644
X6.6108Y-3.0376
X6.6108Y-3.6376
X6.6108Y-4.3108
X6.6108Y-4.9108
X6.6108Y-5.5841
X6.6108Y-6.1841
X6.7108Y-1.7644
X6.7108Y-2.3644
X6.7108Y-3.0376
X6.7108Y-3.6376
X6.7108Y-4.3108
X6.7108Y-4.9108
X6.7108Y-5.5841
X6.7108Y-6.1841
X6.8108Y-1.7644
X6.8108Y-2.3644
X6.8108Y-3.0376
X6.8108Y-3.6376
X6.8108Y-4.3108
X6.8108Y-4.9108
X6.8108Y-5.5841
X6.8108Y-6.1841
X6.9108Y-1.7644
X6.9108Y-2.3644
X6.9108Y-3.0376
X6.9108Y-3.6376
X6.9108Y-4.3108
X6.9108Y-4.9108
X6.9108Y-5.5841
X6.9108Y-6.1841
X7.0108Y-1.7644
X7.0108Y-2.3644
X7.0108Y-3.0376
X7.0108Y-3.6376
X7.0108Y-4.3108
X7.0108Y-4.9108
X7.0108Y-5.5841
X7.0108Y-6.1841
X7.1108Y-1.7644
X7.1108Y-2.3644
X7.1108Y-3.0376
X7.1108Y-3.6376
X7.1108Y-4.3108
X7.1108Y-4.9108
X7.1108Y-5.5841
X7.1108Y-6.1841
X7.2108Y-1.7644
X7.2108Y-2.3644
X7.2108Y-3.0376
X7.2108Y-3.6376
X7.2108Y-4.3108
X7.2108Y-4.9108
X7.2108Y-5.5841
X7.2108Y-6.1841
X7.3108Y-1.7644
X7.3108Y-2.3644
X7.3108Y-3.0376
X7.3108Y-3.6376
X7.3108Y-4.3108
X7.3108Y-4.9108
X7.3108Y-5.5841
X7.3108Y-6.1841
X7.4108Y-1.7644
X7.4108Y-2.3644
X7.4108Y-3.0376
X7.4108Y-3.6376
X7.4108Y-4.3108
X7.4108Y-4.9108
X7.4108Y-5.5841
X7.4108Y-6.1841
X7.5108Y-1.7644
X7.5108Y-2.3644
X7.5108Y-3.0376
X7.5108Y-3.6376
X7.5108Y-4.3108
X7.5108Y-4.9108
X7.5108Y-5.5841
X7.5108Y-6.1841
X7.6108Y-1.7644
X7.6108Y-2.3644
X7.6108Y-3.0376
X7.6108Y-3.6376
X7.6108Y-4.3108
X7.6108Y-4.9108
X7.6108Y-5.5841
X7.6108Y-6.1841
X7.7108Y-1.7644
X7.7108Y-2.3644
X7.7108Y-3.0376
X7.7108Y-3.6376
X7.7108Y-4.3108
X7.7108Y-4.9108
X7.7108Y-5.5841
X7.7108Y-6.1841
X7.8108Y-1.7644
X7.8108Y-2.3644
X7.8108Y-3.0376
X7.8108Y-3.6376
X7.8108Y-4.3108
X7.8108Y-4.9108
X7.8108Y-5.5841
X7.8108Y-6.1841
X7.9108Y-1.7644
X7.9108Y-2.3644
X7.9108Y-3.0376
X7.9108Y-3.6376
X7.9108Y-4.3108
X7.9108Y-4.9108
X7.9108Y-5.5841
X7.9108Y-6.1841
X8.0108Y-1.7644
X8.0108Y-2.3644
X8.0108Y-3.0376
X8.0108Y-3.6376
X8.0108Y-4.3108
X8.0108Y-4.9108
X8.0108Y-5.5841
X8.0108Y-6.1841
X8.1108Y-1.7644
X8.1108Y-2.3644
X8.1108Y-3.0376
X8.1108Y-3.6376
X8.1108Y-4.3108
X8.1108Y-4.9108
X8.1108Y-5.5841
X8.1108Y-6.1841
X8.2108Y-1.7644
X8.2108Y-2.3644
X8.2108Y-3.0376
X8.2108Y-3.6376
X8.2108Y-4.3108
X8.2108Y-4.9108
X8.2108Y-5.5841
X8.2108Y-6.1841
X8.3108Y-1.7644
X8.3108Y-2.3644
X8.3108Y-3.0376
X8.3108Y-3.6376
X8.3108Y-4.3108
X8.3108Y-4.9108
X8.3108Y-5.5841
X8.3108Y-6.1841
X8.4108Y-1.7644
X8.4108Y-2.3644
X8.4108Y-3.0376
X8.4108Y-3.6376
X8.4108Y-4.3108
X8.4108Y-4.9108
X8.4108Y-5.5841
X8.4108Y-6.1841
X8.5108Y-1.7644
X8.5108Y-2.3644
X8.5108Y-3.0376
X8.5108Y-3.6376
X8.5108Y-4.3108
X8.5108Y-4.9108
X8.5108Y-5.5841
X8.5108Y-6.1841
T0
M30
