G04 #@! TF.FileFunction,Copper,L1,Top,Signal*
%FSLAX46Y46*%
G04 Gerber Fmt 4.6, Leading zero omitted, Abs format (unit mm)*
G04 Created by KiCad (PCBNEW 4.0.6) date Sun May 21 14:11:35 2017*
%MOMM*%
%LPD*%
G01*
G04 APERTURE LIST*
%ADD10C,0.100000*%
%ADD11R,1.700000X1.700000*%
%ADD12O,1.700000X1.700000*%
%ADD13C,1.524000*%
%ADD14C,0.600000*%
%ADD15C,0.250000*%
%ADD16C,0.254000*%
G04 APERTURE END LIST*
D10*
D11*
X144780000Y-80010000D03*
D12*
X147320000Y-80010000D03*
X144780000Y-82550000D03*
X147320000Y-82550000D03*
X144780000Y-85090000D03*
X147320000Y-85090000D03*
D13*
X86635001Y-91715001D03*
X89175001Y-91715001D03*
X91715001Y-91715001D03*
X94255001Y-91715001D03*
X96795001Y-91715001D03*
X99335001Y-91715001D03*
X101875001Y-91715001D03*
X104415001Y-91715001D03*
X106955001Y-91715001D03*
X109495001Y-91715001D03*
X112035001Y-91715001D03*
X114575001Y-91715001D03*
X117115001Y-91715001D03*
X119655001Y-91715001D03*
X122195001Y-91715001D03*
X124735001Y-91715001D03*
X127275001Y-91715001D03*
X129815001Y-91715001D03*
X132355001Y-91715001D03*
X134895001Y-91715001D03*
X134895001Y-76475001D03*
X132355001Y-76475001D03*
X129815001Y-76475001D03*
X127275001Y-76475001D03*
X124735001Y-76475001D03*
X122195001Y-76475001D03*
X119655001Y-76475001D03*
X117115001Y-76475001D03*
X114575001Y-76475001D03*
X112035001Y-76475001D03*
X109495001Y-76475001D03*
X106955001Y-76475001D03*
X104415001Y-76475001D03*
X101875001Y-76475001D03*
X99335001Y-76475001D03*
X96795001Y-76475001D03*
X94255001Y-76475001D03*
X91715001Y-76475001D03*
X89175001Y-76475001D03*
X86635001Y-76475001D03*
D11*
X154940000Y-92710000D03*
D12*
X152400000Y-92710000D03*
X149860000Y-92710000D03*
X147320000Y-92710000D03*
X144780000Y-92710000D03*
X142240000Y-92710000D03*
D11*
X144780000Y-112350000D03*
D12*
X147320000Y-112350000D03*
X144780000Y-114890000D03*
X147320000Y-114890000D03*
X144780000Y-117430000D03*
X147320000Y-117430000D03*
D13*
X86635001Y-124055001D03*
X89175001Y-124055001D03*
X91715001Y-124055001D03*
X94255001Y-124055001D03*
X96795001Y-124055001D03*
X99335001Y-124055001D03*
X101875001Y-124055001D03*
X104415001Y-124055001D03*
X106955001Y-124055001D03*
X109495001Y-124055001D03*
X112035001Y-124055001D03*
X114575001Y-124055001D03*
X117115001Y-124055001D03*
X119655001Y-124055001D03*
X122195001Y-124055001D03*
X124735001Y-124055001D03*
X127275001Y-124055001D03*
X129815001Y-124055001D03*
X132355001Y-124055001D03*
X134895001Y-124055001D03*
X134895001Y-108815001D03*
X132355001Y-108815001D03*
X129815001Y-108815001D03*
X127275001Y-108815001D03*
X124735001Y-108815001D03*
X122195001Y-108815001D03*
X119655001Y-108815001D03*
X117115001Y-108815001D03*
X114575001Y-108815001D03*
X112035001Y-108815001D03*
X109495001Y-108815001D03*
X106955001Y-108815001D03*
X104415001Y-108815001D03*
X101875001Y-108815001D03*
X99335001Y-108815001D03*
X96795001Y-108815001D03*
X94255001Y-108815001D03*
X91715001Y-108815001D03*
X89175001Y-108815001D03*
X86635001Y-108815001D03*
D11*
X154940000Y-125050000D03*
D12*
X152400000Y-125050000D03*
X149860000Y-125050000D03*
X147320000Y-125050000D03*
X144780000Y-125050000D03*
X142240000Y-125050000D03*
D11*
X144780000Y-47670000D03*
D12*
X147320000Y-47670000D03*
X144780000Y-50210000D03*
X147320000Y-50210000D03*
X144780000Y-52750000D03*
X147320000Y-52750000D03*
D13*
X86635001Y-59375001D03*
X89175001Y-59375001D03*
X91715001Y-59375001D03*
X94255001Y-59375001D03*
X96795001Y-59375001D03*
X99335001Y-59375001D03*
X101875001Y-59375001D03*
X104415001Y-59375001D03*
X106955001Y-59375001D03*
X109495001Y-59375001D03*
X112035001Y-59375001D03*
X114575001Y-59375001D03*
X117115001Y-59375001D03*
X119655001Y-59375001D03*
X122195001Y-59375001D03*
X124735001Y-59375001D03*
X127275001Y-59375001D03*
X129815001Y-59375001D03*
X132355001Y-59375001D03*
X134895001Y-59375001D03*
X134895001Y-44135001D03*
X132355001Y-44135001D03*
X129815001Y-44135001D03*
X127275001Y-44135001D03*
X124735001Y-44135001D03*
X122195001Y-44135001D03*
X119655001Y-44135001D03*
X117115001Y-44135001D03*
X114575001Y-44135001D03*
X112035001Y-44135001D03*
X109495001Y-44135001D03*
X106955001Y-44135001D03*
X104415001Y-44135001D03*
X101875001Y-44135001D03*
X99335001Y-44135001D03*
X96795001Y-44135001D03*
X94255001Y-44135001D03*
X91715001Y-44135001D03*
X89175001Y-44135001D03*
X86635001Y-44135001D03*
D11*
X154940000Y-60370000D03*
D12*
X152400000Y-60370000D03*
X149860000Y-60370000D03*
X147320000Y-60370000D03*
X144780000Y-60370000D03*
X142240000Y-60370000D03*
D14*
X109220000Y-87630000D03*
X138430000Y-90170000D03*
X140970000Y-83820000D03*
X140970000Y-87630000D03*
X151130000Y-76200000D03*
X109220000Y-119970000D03*
X138430000Y-122510000D03*
X140970000Y-116160000D03*
X140970000Y-119970000D03*
X151130000Y-108540000D03*
X109220000Y-55290000D03*
X138430000Y-57830000D03*
X140970000Y-51480000D03*
X140970000Y-55290000D03*
X151130000Y-43860000D03*
D15*
X134895001Y-91715001D02*
X134895001Y-81004999D01*
X147320000Y-77470000D02*
X147320000Y-80010000D01*
X146050000Y-76200000D02*
X147320000Y-77470000D01*
X139700000Y-76200000D02*
X146050000Y-76200000D01*
X134895001Y-81004999D02*
X139700000Y-76200000D01*
X152400000Y-92710000D02*
X152400000Y-93980000D01*
X106680000Y-79290002D02*
X109495001Y-76475001D01*
X106680000Y-85090000D02*
X106680000Y-79290002D01*
X109220000Y-87630000D02*
X106680000Y-85090000D01*
X138430000Y-92710000D02*
X138430000Y-90170000D01*
X140970000Y-95250000D02*
X138430000Y-92710000D01*
X151130000Y-95250000D02*
X140970000Y-95250000D01*
X152400000Y-93980000D02*
X151130000Y-95250000D01*
X140970000Y-87630000D02*
X140970000Y-83820000D01*
X154940000Y-92710000D02*
X154940000Y-82550000D01*
X153670000Y-81280000D02*
X151130000Y-81280000D01*
X154940000Y-82550000D02*
X153670000Y-81280000D01*
X151130000Y-81280000D02*
X149860000Y-82550000D01*
X151130000Y-76200000D02*
X151130000Y-81280000D01*
X149860000Y-82550000D02*
X147320000Y-82550000D01*
X152400000Y-125050000D02*
X152400000Y-126320000D01*
X106680000Y-111630002D02*
X109495001Y-108815001D01*
X106680000Y-117430000D02*
X106680000Y-111630002D01*
X109220000Y-119970000D02*
X106680000Y-117430000D01*
X138430000Y-125050000D02*
X138430000Y-122510000D01*
X140970000Y-127590000D02*
X138430000Y-125050000D01*
X151130000Y-127590000D02*
X140970000Y-127590000D01*
X152400000Y-126320000D02*
X151130000Y-127590000D01*
X134895001Y-124055001D02*
X134895001Y-113344999D01*
X147320000Y-109810000D02*
X147320000Y-112350000D01*
X146050000Y-108540000D02*
X147320000Y-109810000D01*
X139700000Y-108540000D02*
X146050000Y-108540000D01*
X134895001Y-113344999D02*
X139700000Y-108540000D01*
X140970000Y-119970000D02*
X140970000Y-116160000D01*
X154940000Y-125050000D02*
X154940000Y-114890000D01*
X153670000Y-113620000D02*
X151130000Y-113620000D01*
X154940000Y-114890000D02*
X153670000Y-113620000D01*
X151130000Y-113620000D02*
X149860000Y-114890000D01*
X151130000Y-108540000D02*
X151130000Y-113620000D01*
X149860000Y-114890000D02*
X147320000Y-114890000D01*
X152400000Y-60370000D02*
X152400000Y-61640000D01*
X106680000Y-46950002D02*
X109495001Y-44135001D01*
X106680000Y-52750000D02*
X106680000Y-46950002D01*
X109220000Y-55290000D02*
X106680000Y-52750000D01*
X138430000Y-60370000D02*
X138430000Y-57830000D01*
X140970000Y-62910000D02*
X138430000Y-60370000D01*
X151130000Y-62910000D02*
X140970000Y-62910000D01*
X152400000Y-61640000D02*
X151130000Y-62910000D01*
X134895001Y-59375001D02*
X134895001Y-48664999D01*
X147320000Y-45130000D02*
X147320000Y-47670000D01*
X146050000Y-43860000D02*
X147320000Y-45130000D01*
X139700000Y-43860000D02*
X146050000Y-43860000D01*
X134895001Y-48664999D02*
X139700000Y-43860000D01*
X140970000Y-55290000D02*
X140970000Y-51480000D01*
X154940000Y-60370000D02*
X154940000Y-50210000D01*
X153670000Y-48940000D02*
X151130000Y-48940000D01*
X154940000Y-50210000D02*
X153670000Y-48940000D01*
X151130000Y-48940000D02*
X149860000Y-50210000D01*
X151130000Y-43860000D02*
X151130000Y-48940000D01*
X149860000Y-50210000D02*
X147320000Y-50210000D01*
D16*
G36*
X158623000Y-96393000D02*
X82677000Y-96393000D01*
X82677000Y-91991662D01*
X85237759Y-91991662D01*
X85449991Y-92505304D01*
X85842631Y-92898630D01*
X86355901Y-93111758D01*
X86911662Y-93112243D01*
X87425304Y-92900011D01*
X87818630Y-92507371D01*
X87904950Y-92299489D01*
X87989991Y-92505304D01*
X88382631Y-92898630D01*
X88895901Y-93111758D01*
X89451662Y-93112243D01*
X89965304Y-92900011D01*
X90358630Y-92507371D01*
X90444950Y-92299489D01*
X90529991Y-92505304D01*
X90922631Y-92898630D01*
X91435901Y-93111758D01*
X91991662Y-93112243D01*
X92505304Y-92900011D01*
X92898630Y-92507371D01*
X92984950Y-92299489D01*
X93069991Y-92505304D01*
X93462631Y-92898630D01*
X93975901Y-93111758D01*
X94531662Y-93112243D01*
X95045304Y-92900011D01*
X95438630Y-92507371D01*
X95524950Y-92299489D01*
X95609991Y-92505304D01*
X96002631Y-92898630D01*
X96515901Y-93111758D01*
X97071662Y-93112243D01*
X97585304Y-92900011D01*
X97978630Y-92507371D01*
X98064950Y-92299489D01*
X98149991Y-92505304D01*
X98542631Y-92898630D01*
X99055901Y-93111758D01*
X99611662Y-93112243D01*
X100125304Y-92900011D01*
X100518630Y-92507371D01*
X100604950Y-92299489D01*
X100689991Y-92505304D01*
X101082631Y-92898630D01*
X101595901Y-93111758D01*
X102151662Y-93112243D01*
X102665304Y-92900011D01*
X103058630Y-92507371D01*
X103144950Y-92299489D01*
X103229991Y-92505304D01*
X103622631Y-92898630D01*
X104135901Y-93111758D01*
X104691662Y-93112243D01*
X105205304Y-92900011D01*
X105598630Y-92507371D01*
X105684950Y-92299489D01*
X105769991Y-92505304D01*
X106162631Y-92898630D01*
X106675901Y-93111758D01*
X107231662Y-93112243D01*
X107745304Y-92900011D01*
X108138630Y-92507371D01*
X108224950Y-92299489D01*
X108309991Y-92505304D01*
X108702631Y-92898630D01*
X109215901Y-93111758D01*
X109771662Y-93112243D01*
X110285304Y-92900011D01*
X110678630Y-92507371D01*
X110764950Y-92299489D01*
X110849991Y-92505304D01*
X111242631Y-92898630D01*
X111755901Y-93111758D01*
X112311662Y-93112243D01*
X112825304Y-92900011D01*
X113218630Y-92507371D01*
X113304950Y-92299489D01*
X113389991Y-92505304D01*
X113782631Y-92898630D01*
X114295901Y-93111758D01*
X114851662Y-93112243D01*
X115365304Y-92900011D01*
X115758630Y-92507371D01*
X115844950Y-92299489D01*
X115929991Y-92505304D01*
X116322631Y-92898630D01*
X116835901Y-93111758D01*
X117391662Y-93112243D01*
X117905304Y-92900011D01*
X118298630Y-92507371D01*
X118384950Y-92299489D01*
X118469991Y-92505304D01*
X118862631Y-92898630D01*
X119375901Y-93111758D01*
X119931662Y-93112243D01*
X120445304Y-92900011D01*
X120838630Y-92507371D01*
X120924950Y-92299489D01*
X121009991Y-92505304D01*
X121402631Y-92898630D01*
X121915901Y-93111758D01*
X122471662Y-93112243D01*
X122985304Y-92900011D01*
X123378630Y-92507371D01*
X123464950Y-92299489D01*
X123549991Y-92505304D01*
X123942631Y-92898630D01*
X124455901Y-93111758D01*
X125011662Y-93112243D01*
X125525304Y-92900011D01*
X125918630Y-92507371D01*
X126004950Y-92299489D01*
X126089991Y-92505304D01*
X126482631Y-92898630D01*
X126995901Y-93111758D01*
X127551662Y-93112243D01*
X128065304Y-92900011D01*
X128458630Y-92507371D01*
X128544950Y-92299489D01*
X128629991Y-92505304D01*
X129022631Y-92898630D01*
X129535901Y-93111758D01*
X130091662Y-93112243D01*
X130605304Y-92900011D01*
X130810458Y-92695214D01*
X131554393Y-92695214D01*
X131623858Y-92937398D01*
X132147303Y-93124145D01*
X132702369Y-93096363D01*
X133086144Y-92937398D01*
X133155609Y-92695214D01*
X132355001Y-91894606D01*
X131554393Y-92695214D01*
X130810458Y-92695214D01*
X130998630Y-92507371D01*
X131078396Y-92315274D01*
X131132604Y-92446144D01*
X131374788Y-92515609D01*
X132175396Y-91715001D01*
X132534606Y-91715001D01*
X133335214Y-92515609D01*
X133577398Y-92446144D01*
X133627510Y-92305683D01*
X133709991Y-92505304D01*
X134102631Y-92898630D01*
X134615901Y-93111758D01*
X135171662Y-93112243D01*
X135685304Y-92900011D01*
X136078630Y-92507371D01*
X136291758Y-91994101D01*
X136292243Y-91438340D01*
X136080011Y-90924698D01*
X135687371Y-90531372D01*
X135655001Y-90517931D01*
X135655001Y-84005167D01*
X140034838Y-84005167D01*
X140176883Y-84348943D01*
X140210000Y-84382118D01*
X140210000Y-87067537D01*
X140177808Y-87099673D01*
X140035162Y-87443201D01*
X140034838Y-87815167D01*
X140176883Y-88158943D01*
X140439673Y-88422192D01*
X140783201Y-88564838D01*
X141155167Y-88565162D01*
X141498943Y-88423117D01*
X141762192Y-88160327D01*
X141904838Y-87816799D01*
X141905162Y-87444833D01*
X141763117Y-87101057D01*
X141730000Y-87067882D01*
X141730000Y-84382463D01*
X141762192Y-84350327D01*
X141904838Y-84006799D01*
X141905162Y-83634833D01*
X141763117Y-83291057D01*
X141500327Y-83027808D01*
X141156799Y-82885162D01*
X140784833Y-82884838D01*
X140441057Y-83026883D01*
X140177808Y-83289673D01*
X140035162Y-83633201D01*
X140034838Y-84005167D01*
X135655001Y-84005167D01*
X135655001Y-81319801D01*
X140014802Y-76960000D01*
X145735198Y-76960000D01*
X146560000Y-77784802D01*
X146560000Y-78746699D01*
X146240853Y-78959946D01*
X146240029Y-78961179D01*
X146233162Y-78924683D01*
X146094090Y-78708559D01*
X145881890Y-78563569D01*
X145630000Y-78512560D01*
X143930000Y-78512560D01*
X143694683Y-78556838D01*
X143478559Y-78695910D01*
X143333569Y-78908110D01*
X143282560Y-79160000D01*
X143282560Y-80860000D01*
X143326838Y-81095317D01*
X143465910Y-81311441D01*
X143678110Y-81456431D01*
X143745541Y-81470086D01*
X143700853Y-81499946D01*
X143378946Y-81981715D01*
X143265907Y-82550000D01*
X143378946Y-83118285D01*
X143700853Y-83600054D01*
X144030026Y-83820000D01*
X143700853Y-84039946D01*
X143378946Y-84521715D01*
X143265907Y-85090000D01*
X143378946Y-85658285D01*
X143700853Y-86140054D01*
X144182622Y-86461961D01*
X144750907Y-86575000D01*
X144809093Y-86575000D01*
X145377378Y-86461961D01*
X145859147Y-86140054D01*
X146048345Y-85856899D01*
X146048355Y-85856924D01*
X146438642Y-86285183D01*
X146963108Y-86531486D01*
X147193000Y-86410819D01*
X147193000Y-85217000D01*
X147447000Y-85217000D01*
X147447000Y-86410819D01*
X147676892Y-86531486D01*
X148201358Y-86285183D01*
X148591645Y-85856924D01*
X148761476Y-85446890D01*
X148640155Y-85217000D01*
X147447000Y-85217000D01*
X147193000Y-85217000D01*
X147173000Y-85217000D01*
X147173000Y-84963000D01*
X147193000Y-84963000D01*
X147193000Y-84943000D01*
X147447000Y-84943000D01*
X147447000Y-84963000D01*
X148640155Y-84963000D01*
X148761476Y-84733110D01*
X148591645Y-84323076D01*
X148201358Y-83894817D01*
X148058447Y-83827702D01*
X148399147Y-83600054D01*
X148592954Y-83310000D01*
X149860000Y-83310000D01*
X150150839Y-83252148D01*
X150397401Y-83087401D01*
X151444802Y-82040000D01*
X153355198Y-82040000D01*
X154180000Y-82864802D01*
X154180000Y-91212560D01*
X154090000Y-91212560D01*
X153854683Y-91256838D01*
X153638559Y-91395910D01*
X153493569Y-91608110D01*
X153479914Y-91675541D01*
X153450054Y-91630853D01*
X152968285Y-91308946D01*
X152400000Y-91195907D01*
X151831715Y-91308946D01*
X151349946Y-91630853D01*
X151130000Y-91960026D01*
X150910054Y-91630853D01*
X150428285Y-91308946D01*
X149860000Y-91195907D01*
X149291715Y-91308946D01*
X148809946Y-91630853D01*
X148590000Y-91960026D01*
X148370054Y-91630853D01*
X147888285Y-91308946D01*
X147320000Y-91195907D01*
X146751715Y-91308946D01*
X146269946Y-91630853D01*
X146050000Y-91960026D01*
X145830054Y-91630853D01*
X145348285Y-91308946D01*
X144780000Y-91195907D01*
X144211715Y-91308946D01*
X143729946Y-91630853D01*
X143502298Y-91971553D01*
X143435183Y-91828642D01*
X143006924Y-91438355D01*
X142596890Y-91268524D01*
X142367000Y-91389845D01*
X142367000Y-92583000D01*
X142387000Y-92583000D01*
X142387000Y-92837000D01*
X142367000Y-92837000D01*
X142367000Y-94030155D01*
X142596890Y-94151476D01*
X143006924Y-93981645D01*
X143435183Y-93591358D01*
X143502298Y-93448447D01*
X143729946Y-93789147D01*
X144211715Y-94111054D01*
X144780000Y-94224093D01*
X145348285Y-94111054D01*
X145830054Y-93789147D01*
X146050000Y-93459974D01*
X146269946Y-93789147D01*
X146751715Y-94111054D01*
X147320000Y-94224093D01*
X147888285Y-94111054D01*
X148370054Y-93789147D01*
X148590000Y-93459974D01*
X148809946Y-93789147D01*
X149291715Y-94111054D01*
X149860000Y-94224093D01*
X150428285Y-94111054D01*
X150910054Y-93789147D01*
X151130000Y-93459974D01*
X151349946Y-93789147D01*
X151449519Y-93855679D01*
X150815198Y-94490000D01*
X141284802Y-94490000D01*
X139861694Y-93066892D01*
X140798514Y-93066892D01*
X141044817Y-93591358D01*
X141473076Y-93981645D01*
X141883110Y-94151476D01*
X142113000Y-94030155D01*
X142113000Y-92837000D01*
X140919181Y-92837000D01*
X140798514Y-93066892D01*
X139861694Y-93066892D01*
X139190000Y-92395198D01*
X139190000Y-92353108D01*
X140798514Y-92353108D01*
X140919181Y-92583000D01*
X142113000Y-92583000D01*
X142113000Y-91389845D01*
X141883110Y-91268524D01*
X141473076Y-91438355D01*
X141044817Y-91828642D01*
X140798514Y-92353108D01*
X139190000Y-92353108D01*
X139190000Y-90732463D01*
X139222192Y-90700327D01*
X139364838Y-90356799D01*
X139365162Y-89984833D01*
X139223117Y-89641057D01*
X138960327Y-89377808D01*
X138616799Y-89235162D01*
X138244833Y-89234838D01*
X137901057Y-89376883D01*
X137637808Y-89639673D01*
X137495162Y-89983201D01*
X137494838Y-90355167D01*
X137636883Y-90698943D01*
X137670000Y-90732118D01*
X137670000Y-92710000D01*
X137727852Y-93000839D01*
X137892599Y-93247401D01*
X140432599Y-95787401D01*
X140679160Y-95952148D01*
X140727414Y-95961746D01*
X140970000Y-96010000D01*
X151130000Y-96010000D01*
X151420839Y-95952148D01*
X151667401Y-95787401D01*
X152937401Y-94517401D01*
X153102148Y-94270840D01*
X153159322Y-93983407D01*
X153450054Y-93789147D01*
X153477850Y-93747548D01*
X153486838Y-93795317D01*
X153625910Y-94011441D01*
X153838110Y-94156431D01*
X154090000Y-94207440D01*
X155790000Y-94207440D01*
X156025317Y-94163162D01*
X156241441Y-94024090D01*
X156386431Y-93811890D01*
X156437440Y-93560000D01*
X156437440Y-91860000D01*
X156393162Y-91624683D01*
X156254090Y-91408559D01*
X156041890Y-91263569D01*
X155790000Y-91212560D01*
X155700000Y-91212560D01*
X155700000Y-82550000D01*
X155642148Y-82259161D01*
X155642148Y-82259160D01*
X155477401Y-82012599D01*
X154207401Y-80742599D01*
X153960839Y-80577852D01*
X153670000Y-80520000D01*
X151890000Y-80520000D01*
X151890000Y-76762463D01*
X151922192Y-76730327D01*
X152064838Y-76386799D01*
X152065162Y-76014833D01*
X151923117Y-75671057D01*
X151660327Y-75407808D01*
X151316799Y-75265162D01*
X150944833Y-75264838D01*
X150601057Y-75406883D01*
X150337808Y-75669673D01*
X150195162Y-76013201D01*
X150194838Y-76385167D01*
X150336883Y-76728943D01*
X150370000Y-76762118D01*
X150370000Y-80965198D01*
X149545198Y-81790000D01*
X148592954Y-81790000D01*
X148399147Y-81499946D01*
X148069974Y-81280000D01*
X148399147Y-81060054D01*
X148721054Y-80578285D01*
X148834093Y-80010000D01*
X148721054Y-79441715D01*
X148399147Y-78959946D01*
X148080000Y-78746699D01*
X148080000Y-77470000D01*
X148022148Y-77179161D01*
X148022148Y-77179160D01*
X147857401Y-76932599D01*
X146587401Y-75662599D01*
X146340839Y-75497852D01*
X146050000Y-75440000D01*
X139700000Y-75440000D01*
X139409161Y-75497852D01*
X139162599Y-75662599D01*
X134357600Y-80467598D01*
X134192853Y-80714160D01*
X134135001Y-81004999D01*
X134135001Y-90517470D01*
X134104698Y-90529991D01*
X133711372Y-90922631D01*
X133631606Y-91114728D01*
X133577398Y-90983858D01*
X133335214Y-90914393D01*
X132534606Y-91715001D01*
X132175396Y-91715001D01*
X131374788Y-90914393D01*
X131132604Y-90983858D01*
X131082492Y-91124319D01*
X131000011Y-90924698D01*
X130810433Y-90734788D01*
X131554393Y-90734788D01*
X132355001Y-91535396D01*
X133155609Y-90734788D01*
X133086144Y-90492604D01*
X132562699Y-90305857D01*
X132007633Y-90333639D01*
X131623858Y-90492604D01*
X131554393Y-90734788D01*
X130810433Y-90734788D01*
X130607371Y-90531372D01*
X130094101Y-90318244D01*
X129538340Y-90317759D01*
X129024698Y-90529991D01*
X128631372Y-90922631D01*
X128545052Y-91130513D01*
X128460011Y-90924698D01*
X128067371Y-90531372D01*
X127554101Y-90318244D01*
X126998340Y-90317759D01*
X126484698Y-90529991D01*
X126091372Y-90922631D01*
X126005052Y-91130513D01*
X125920011Y-90924698D01*
X125527371Y-90531372D01*
X125014101Y-90318244D01*
X124458340Y-90317759D01*
X123944698Y-90529991D01*
X123551372Y-90922631D01*
X123465052Y-91130513D01*
X123380011Y-90924698D01*
X122987371Y-90531372D01*
X122474101Y-90318244D01*
X121918340Y-90317759D01*
X121404698Y-90529991D01*
X121011372Y-90922631D01*
X120925052Y-91130513D01*
X120840011Y-90924698D01*
X120447371Y-90531372D01*
X119934101Y-90318244D01*
X119378340Y-90317759D01*
X118864698Y-90529991D01*
X118471372Y-90922631D01*
X118385052Y-91130513D01*
X118300011Y-90924698D01*
X117907371Y-90531372D01*
X117394101Y-90318244D01*
X116838340Y-90317759D01*
X116324698Y-90529991D01*
X115931372Y-90922631D01*
X115845052Y-91130513D01*
X115760011Y-90924698D01*
X115367371Y-90531372D01*
X114854101Y-90318244D01*
X114298340Y-90317759D01*
X113784698Y-90529991D01*
X113391372Y-90922631D01*
X113305052Y-91130513D01*
X113220011Y-90924698D01*
X112827371Y-90531372D01*
X112314101Y-90318244D01*
X111758340Y-90317759D01*
X111244698Y-90529991D01*
X110851372Y-90922631D01*
X110765052Y-91130513D01*
X110680011Y-90924698D01*
X110287371Y-90531372D01*
X109774101Y-90318244D01*
X109218340Y-90317759D01*
X108704698Y-90529991D01*
X108311372Y-90922631D01*
X108225052Y-91130513D01*
X108140011Y-90924698D01*
X107747371Y-90531372D01*
X107234101Y-90318244D01*
X106678340Y-90317759D01*
X106164698Y-90529991D01*
X105771372Y-90922631D01*
X105685052Y-91130513D01*
X105600011Y-90924698D01*
X105207371Y-90531372D01*
X104694101Y-90318244D01*
X104138340Y-90317759D01*
X103624698Y-90529991D01*
X103231372Y-90922631D01*
X103145052Y-91130513D01*
X103060011Y-90924698D01*
X102667371Y-90531372D01*
X102154101Y-90318244D01*
X101598340Y-90317759D01*
X101084698Y-90529991D01*
X100691372Y-90922631D01*
X100605052Y-91130513D01*
X100520011Y-90924698D01*
X100127371Y-90531372D01*
X99614101Y-90318244D01*
X99058340Y-90317759D01*
X98544698Y-90529991D01*
X98151372Y-90922631D01*
X98065052Y-91130513D01*
X97980011Y-90924698D01*
X97587371Y-90531372D01*
X97074101Y-90318244D01*
X96518340Y-90317759D01*
X96004698Y-90529991D01*
X95611372Y-90922631D01*
X95525052Y-91130513D01*
X95440011Y-90924698D01*
X95047371Y-90531372D01*
X94534101Y-90318244D01*
X93978340Y-90317759D01*
X93464698Y-90529991D01*
X93071372Y-90922631D01*
X92985052Y-91130513D01*
X92900011Y-90924698D01*
X92507371Y-90531372D01*
X91994101Y-90318244D01*
X91438340Y-90317759D01*
X90924698Y-90529991D01*
X90531372Y-90922631D01*
X90445052Y-91130513D01*
X90360011Y-90924698D01*
X89967371Y-90531372D01*
X89454101Y-90318244D01*
X88898340Y-90317759D01*
X88384698Y-90529991D01*
X87991372Y-90922631D01*
X87905052Y-91130513D01*
X87820011Y-90924698D01*
X87427371Y-90531372D01*
X86914101Y-90318244D01*
X86358340Y-90317759D01*
X85844698Y-90529991D01*
X85451372Y-90922631D01*
X85238244Y-91435901D01*
X85237759Y-91991662D01*
X82677000Y-91991662D01*
X82677000Y-76751662D01*
X85237759Y-76751662D01*
X85449991Y-77265304D01*
X85842631Y-77658630D01*
X86355901Y-77871758D01*
X86911662Y-77872243D01*
X87425304Y-77660011D01*
X87818630Y-77267371D01*
X87904950Y-77059489D01*
X87989991Y-77265304D01*
X88382631Y-77658630D01*
X88895901Y-77871758D01*
X89451662Y-77872243D01*
X89965304Y-77660011D01*
X90358630Y-77267371D01*
X90444950Y-77059489D01*
X90529991Y-77265304D01*
X90922631Y-77658630D01*
X91435901Y-77871758D01*
X91991662Y-77872243D01*
X92505304Y-77660011D01*
X92898630Y-77267371D01*
X92984950Y-77059489D01*
X93069991Y-77265304D01*
X93462631Y-77658630D01*
X93975901Y-77871758D01*
X94531662Y-77872243D01*
X95045304Y-77660011D01*
X95438630Y-77267371D01*
X95524950Y-77059489D01*
X95609991Y-77265304D01*
X96002631Y-77658630D01*
X96515901Y-77871758D01*
X97071662Y-77872243D01*
X97585304Y-77660011D01*
X97978630Y-77267371D01*
X98064950Y-77059489D01*
X98149991Y-77265304D01*
X98542631Y-77658630D01*
X99055901Y-77871758D01*
X99611662Y-77872243D01*
X100125304Y-77660011D01*
X100518630Y-77267371D01*
X100604950Y-77059489D01*
X100689991Y-77265304D01*
X101082631Y-77658630D01*
X101595901Y-77871758D01*
X102151662Y-77872243D01*
X102665304Y-77660011D01*
X103058630Y-77267371D01*
X103144950Y-77059489D01*
X103229991Y-77265304D01*
X103622631Y-77658630D01*
X104135901Y-77871758D01*
X104691662Y-77872243D01*
X105205304Y-77660011D01*
X105598630Y-77267371D01*
X105684950Y-77059489D01*
X105769991Y-77265304D01*
X106162631Y-77658630D01*
X106675901Y-77871758D01*
X107023139Y-77872061D01*
X106142599Y-78752601D01*
X105977852Y-78999163D01*
X105920000Y-79290002D01*
X105920000Y-85090000D01*
X105977852Y-85380839D01*
X106142599Y-85627401D01*
X108284878Y-87769680D01*
X108284838Y-87815167D01*
X108426883Y-88158943D01*
X108689673Y-88422192D01*
X109033201Y-88564838D01*
X109405167Y-88565162D01*
X109748943Y-88423117D01*
X110012192Y-88160327D01*
X110154838Y-87816799D01*
X110155162Y-87444833D01*
X110013117Y-87101057D01*
X109750327Y-86837808D01*
X109406799Y-86695162D01*
X109359923Y-86695121D01*
X107440000Y-84775198D01*
X107440000Y-79604804D01*
X109185620Y-77859184D01*
X109215901Y-77871758D01*
X109771662Y-77872243D01*
X110285304Y-77660011D01*
X110678630Y-77267371D01*
X110764950Y-77059489D01*
X110849991Y-77265304D01*
X111242631Y-77658630D01*
X111755901Y-77871758D01*
X112311662Y-77872243D01*
X112825304Y-77660011D01*
X113218630Y-77267371D01*
X113304950Y-77059489D01*
X113389991Y-77265304D01*
X113782631Y-77658630D01*
X114295901Y-77871758D01*
X114851662Y-77872243D01*
X115365304Y-77660011D01*
X115758630Y-77267371D01*
X115844950Y-77059489D01*
X115929991Y-77265304D01*
X116322631Y-77658630D01*
X116835901Y-77871758D01*
X117391662Y-77872243D01*
X117905304Y-77660011D01*
X118298630Y-77267371D01*
X118384950Y-77059489D01*
X118469991Y-77265304D01*
X118862631Y-77658630D01*
X119375901Y-77871758D01*
X119931662Y-77872243D01*
X120445304Y-77660011D01*
X120838630Y-77267371D01*
X120924950Y-77059489D01*
X121009991Y-77265304D01*
X121402631Y-77658630D01*
X121915901Y-77871758D01*
X122471662Y-77872243D01*
X122985304Y-77660011D01*
X123378630Y-77267371D01*
X123464950Y-77059489D01*
X123549991Y-77265304D01*
X123942631Y-77658630D01*
X124455901Y-77871758D01*
X125011662Y-77872243D01*
X125525304Y-77660011D01*
X125918630Y-77267371D01*
X126004950Y-77059489D01*
X126089991Y-77265304D01*
X126482631Y-77658630D01*
X126995901Y-77871758D01*
X127551662Y-77872243D01*
X128065304Y-77660011D01*
X128458630Y-77267371D01*
X128544950Y-77059489D01*
X128629991Y-77265304D01*
X129022631Y-77658630D01*
X129535901Y-77871758D01*
X130091662Y-77872243D01*
X130605304Y-77660011D01*
X130998630Y-77267371D01*
X131084950Y-77059489D01*
X131169991Y-77265304D01*
X131562631Y-77658630D01*
X132075901Y-77871758D01*
X132631662Y-77872243D01*
X133145304Y-77660011D01*
X133538630Y-77267371D01*
X133624950Y-77059489D01*
X133709991Y-77265304D01*
X134102631Y-77658630D01*
X134615901Y-77871758D01*
X135171662Y-77872243D01*
X135685304Y-77660011D01*
X136078630Y-77267371D01*
X136291758Y-76754101D01*
X136292243Y-76198340D01*
X136080011Y-75684698D01*
X135687371Y-75291372D01*
X135174101Y-75078244D01*
X134618340Y-75077759D01*
X134104698Y-75289991D01*
X133711372Y-75682631D01*
X133625052Y-75890513D01*
X133540011Y-75684698D01*
X133147371Y-75291372D01*
X132634101Y-75078244D01*
X132078340Y-75077759D01*
X131564698Y-75289991D01*
X131171372Y-75682631D01*
X131085052Y-75890513D01*
X131000011Y-75684698D01*
X130607371Y-75291372D01*
X130094101Y-75078244D01*
X129538340Y-75077759D01*
X129024698Y-75289991D01*
X128631372Y-75682631D01*
X128545052Y-75890513D01*
X128460011Y-75684698D01*
X128067371Y-75291372D01*
X127554101Y-75078244D01*
X126998340Y-75077759D01*
X126484698Y-75289991D01*
X126091372Y-75682631D01*
X126005052Y-75890513D01*
X125920011Y-75684698D01*
X125527371Y-75291372D01*
X125014101Y-75078244D01*
X124458340Y-75077759D01*
X123944698Y-75289991D01*
X123551372Y-75682631D01*
X123465052Y-75890513D01*
X123380011Y-75684698D01*
X122987371Y-75291372D01*
X122474101Y-75078244D01*
X121918340Y-75077759D01*
X121404698Y-75289991D01*
X121011372Y-75682631D01*
X120925052Y-75890513D01*
X120840011Y-75684698D01*
X120447371Y-75291372D01*
X119934101Y-75078244D01*
X119378340Y-75077759D01*
X118864698Y-75289991D01*
X118471372Y-75682631D01*
X118385052Y-75890513D01*
X118300011Y-75684698D01*
X117907371Y-75291372D01*
X117394101Y-75078244D01*
X116838340Y-75077759D01*
X116324698Y-75289991D01*
X115931372Y-75682631D01*
X115845052Y-75890513D01*
X115760011Y-75684698D01*
X115367371Y-75291372D01*
X114854101Y-75078244D01*
X114298340Y-75077759D01*
X113784698Y-75289991D01*
X113391372Y-75682631D01*
X113305052Y-75890513D01*
X113220011Y-75684698D01*
X112827371Y-75291372D01*
X112314101Y-75078244D01*
X111758340Y-75077759D01*
X111244698Y-75289991D01*
X110851372Y-75682631D01*
X110765052Y-75890513D01*
X110680011Y-75684698D01*
X110287371Y-75291372D01*
X109774101Y-75078244D01*
X109218340Y-75077759D01*
X108704698Y-75289991D01*
X108311372Y-75682631D01*
X108225052Y-75890513D01*
X108140011Y-75684698D01*
X107747371Y-75291372D01*
X107234101Y-75078244D01*
X106678340Y-75077759D01*
X106164698Y-75289991D01*
X105771372Y-75682631D01*
X105685052Y-75890513D01*
X105600011Y-75684698D01*
X105207371Y-75291372D01*
X104694101Y-75078244D01*
X104138340Y-75077759D01*
X103624698Y-75289991D01*
X103231372Y-75682631D01*
X103145052Y-75890513D01*
X103060011Y-75684698D01*
X102667371Y-75291372D01*
X102154101Y-75078244D01*
X101598340Y-75077759D01*
X101084698Y-75289991D01*
X100691372Y-75682631D01*
X100605052Y-75890513D01*
X100520011Y-75684698D01*
X100127371Y-75291372D01*
X99614101Y-75078244D01*
X99058340Y-75077759D01*
X98544698Y-75289991D01*
X98151372Y-75682631D01*
X98065052Y-75890513D01*
X97980011Y-75684698D01*
X97587371Y-75291372D01*
X97074101Y-75078244D01*
X96518340Y-75077759D01*
X96004698Y-75289991D01*
X95611372Y-75682631D01*
X95525052Y-75890513D01*
X95440011Y-75684698D01*
X95047371Y-75291372D01*
X94534101Y-75078244D01*
X93978340Y-75077759D01*
X93464698Y-75289991D01*
X93071372Y-75682631D01*
X92985052Y-75890513D01*
X92900011Y-75684698D01*
X92507371Y-75291372D01*
X91994101Y-75078244D01*
X91438340Y-75077759D01*
X90924698Y-75289991D01*
X90531372Y-75682631D01*
X90445052Y-75890513D01*
X90360011Y-75684698D01*
X89967371Y-75291372D01*
X89454101Y-75078244D01*
X88898340Y-75077759D01*
X88384698Y-75289991D01*
X87991372Y-75682631D01*
X87905052Y-75890513D01*
X87820011Y-75684698D01*
X87427371Y-75291372D01*
X86914101Y-75078244D01*
X86358340Y-75077759D01*
X85844698Y-75289991D01*
X85451372Y-75682631D01*
X85238244Y-76195901D01*
X85237759Y-76751662D01*
X82677000Y-76751662D01*
X82677000Y-69977000D01*
X158623000Y-69977000D01*
X158623000Y-96393000D01*
X158623000Y-96393000D01*
G37*
X158623000Y-96393000D02*
X82677000Y-96393000D01*
X82677000Y-91991662D01*
X85237759Y-91991662D01*
X85449991Y-92505304D01*
X85842631Y-92898630D01*
X86355901Y-93111758D01*
X86911662Y-93112243D01*
X87425304Y-92900011D01*
X87818630Y-92507371D01*
X87904950Y-92299489D01*
X87989991Y-92505304D01*
X88382631Y-92898630D01*
X88895901Y-93111758D01*
X89451662Y-93112243D01*
X89965304Y-92900011D01*
X90358630Y-92507371D01*
X90444950Y-92299489D01*
X90529991Y-92505304D01*
X90922631Y-92898630D01*
X91435901Y-93111758D01*
X91991662Y-93112243D01*
X92505304Y-92900011D01*
X92898630Y-92507371D01*
X92984950Y-92299489D01*
X93069991Y-92505304D01*
X93462631Y-92898630D01*
X93975901Y-93111758D01*
X94531662Y-93112243D01*
X95045304Y-92900011D01*
X95438630Y-92507371D01*
X95524950Y-92299489D01*
X95609991Y-92505304D01*
X96002631Y-92898630D01*
X96515901Y-93111758D01*
X97071662Y-93112243D01*
X97585304Y-92900011D01*
X97978630Y-92507371D01*
X98064950Y-92299489D01*
X98149991Y-92505304D01*
X98542631Y-92898630D01*
X99055901Y-93111758D01*
X99611662Y-93112243D01*
X100125304Y-92900011D01*
X100518630Y-92507371D01*
X100604950Y-92299489D01*
X100689991Y-92505304D01*
X101082631Y-92898630D01*
X101595901Y-93111758D01*
X102151662Y-93112243D01*
X102665304Y-92900011D01*
X103058630Y-92507371D01*
X103144950Y-92299489D01*
X103229991Y-92505304D01*
X103622631Y-92898630D01*
X104135901Y-93111758D01*
X104691662Y-93112243D01*
X105205304Y-92900011D01*
X105598630Y-92507371D01*
X105684950Y-92299489D01*
X105769991Y-92505304D01*
X106162631Y-92898630D01*
X106675901Y-93111758D01*
X107231662Y-93112243D01*
X107745304Y-92900011D01*
X108138630Y-92507371D01*
X108224950Y-92299489D01*
X108309991Y-92505304D01*
X108702631Y-92898630D01*
X109215901Y-93111758D01*
X109771662Y-93112243D01*
X110285304Y-92900011D01*
X110678630Y-92507371D01*
X110764950Y-92299489D01*
X110849991Y-92505304D01*
X111242631Y-92898630D01*
X111755901Y-93111758D01*
X112311662Y-93112243D01*
X112825304Y-92900011D01*
X113218630Y-92507371D01*
X113304950Y-92299489D01*
X113389991Y-92505304D01*
X113782631Y-92898630D01*
X114295901Y-93111758D01*
X114851662Y-93112243D01*
X115365304Y-92900011D01*
X115758630Y-92507371D01*
X115844950Y-92299489D01*
X115929991Y-92505304D01*
X116322631Y-92898630D01*
X116835901Y-93111758D01*
X117391662Y-93112243D01*
X117905304Y-92900011D01*
X118298630Y-92507371D01*
X118384950Y-92299489D01*
X118469991Y-92505304D01*
X118862631Y-92898630D01*
X119375901Y-93111758D01*
X119931662Y-93112243D01*
X120445304Y-92900011D01*
X120838630Y-92507371D01*
X120924950Y-92299489D01*
X121009991Y-92505304D01*
X121402631Y-92898630D01*
X121915901Y-93111758D01*
X122471662Y-93112243D01*
X122985304Y-92900011D01*
X123378630Y-92507371D01*
X123464950Y-92299489D01*
X123549991Y-92505304D01*
X123942631Y-92898630D01*
X124455901Y-93111758D01*
X125011662Y-93112243D01*
X125525304Y-92900011D01*
X125918630Y-92507371D01*
X126004950Y-92299489D01*
X126089991Y-92505304D01*
X126482631Y-92898630D01*
X126995901Y-93111758D01*
X127551662Y-93112243D01*
X128065304Y-92900011D01*
X128458630Y-92507371D01*
X128544950Y-92299489D01*
X128629991Y-92505304D01*
X129022631Y-92898630D01*
X129535901Y-93111758D01*
X130091662Y-93112243D01*
X130605304Y-92900011D01*
X130810458Y-92695214D01*
X131554393Y-92695214D01*
X131623858Y-92937398D01*
X132147303Y-93124145D01*
X132702369Y-93096363D01*
X133086144Y-92937398D01*
X133155609Y-92695214D01*
X132355001Y-91894606D01*
X131554393Y-92695214D01*
X130810458Y-92695214D01*
X130998630Y-92507371D01*
X131078396Y-92315274D01*
X131132604Y-92446144D01*
X131374788Y-92515609D01*
X132175396Y-91715001D01*
X132534606Y-91715001D01*
X133335214Y-92515609D01*
X133577398Y-92446144D01*
X133627510Y-92305683D01*
X133709991Y-92505304D01*
X134102631Y-92898630D01*
X134615901Y-93111758D01*
X135171662Y-93112243D01*
X135685304Y-92900011D01*
X136078630Y-92507371D01*
X136291758Y-91994101D01*
X136292243Y-91438340D01*
X136080011Y-90924698D01*
X135687371Y-90531372D01*
X135655001Y-90517931D01*
X135655001Y-84005167D01*
X140034838Y-84005167D01*
X140176883Y-84348943D01*
X140210000Y-84382118D01*
X140210000Y-87067537D01*
X140177808Y-87099673D01*
X140035162Y-87443201D01*
X140034838Y-87815167D01*
X140176883Y-88158943D01*
X140439673Y-88422192D01*
X140783201Y-88564838D01*
X141155167Y-88565162D01*
X141498943Y-88423117D01*
X141762192Y-88160327D01*
X141904838Y-87816799D01*
X141905162Y-87444833D01*
X141763117Y-87101057D01*
X141730000Y-87067882D01*
X141730000Y-84382463D01*
X141762192Y-84350327D01*
X141904838Y-84006799D01*
X141905162Y-83634833D01*
X141763117Y-83291057D01*
X141500327Y-83027808D01*
X141156799Y-82885162D01*
X140784833Y-82884838D01*
X140441057Y-83026883D01*
X140177808Y-83289673D01*
X140035162Y-83633201D01*
X140034838Y-84005167D01*
X135655001Y-84005167D01*
X135655001Y-81319801D01*
X140014802Y-76960000D01*
X145735198Y-76960000D01*
X146560000Y-77784802D01*
X146560000Y-78746699D01*
X146240853Y-78959946D01*
X146240029Y-78961179D01*
X146233162Y-78924683D01*
X146094090Y-78708559D01*
X145881890Y-78563569D01*
X145630000Y-78512560D01*
X143930000Y-78512560D01*
X143694683Y-78556838D01*
X143478559Y-78695910D01*
X143333569Y-78908110D01*
X143282560Y-79160000D01*
X143282560Y-80860000D01*
X143326838Y-81095317D01*
X143465910Y-81311441D01*
X143678110Y-81456431D01*
X143745541Y-81470086D01*
X143700853Y-81499946D01*
X143378946Y-81981715D01*
X143265907Y-82550000D01*
X143378946Y-83118285D01*
X143700853Y-83600054D01*
X144030026Y-83820000D01*
X143700853Y-84039946D01*
X143378946Y-84521715D01*
X143265907Y-85090000D01*
X143378946Y-85658285D01*
X143700853Y-86140054D01*
X144182622Y-86461961D01*
X144750907Y-86575000D01*
X144809093Y-86575000D01*
X145377378Y-86461961D01*
X145859147Y-86140054D01*
X146048345Y-85856899D01*
X146048355Y-85856924D01*
X146438642Y-86285183D01*
X146963108Y-86531486D01*
X147193000Y-86410819D01*
X147193000Y-85217000D01*
X147447000Y-85217000D01*
X147447000Y-86410819D01*
X147676892Y-86531486D01*
X148201358Y-86285183D01*
X148591645Y-85856924D01*
X148761476Y-85446890D01*
X148640155Y-85217000D01*
X147447000Y-85217000D01*
X147193000Y-85217000D01*
X147173000Y-85217000D01*
X147173000Y-84963000D01*
X147193000Y-84963000D01*
X147193000Y-84943000D01*
X147447000Y-84943000D01*
X147447000Y-84963000D01*
X148640155Y-84963000D01*
X148761476Y-84733110D01*
X148591645Y-84323076D01*
X148201358Y-83894817D01*
X148058447Y-83827702D01*
X148399147Y-83600054D01*
X148592954Y-83310000D01*
X149860000Y-83310000D01*
X150150839Y-83252148D01*
X150397401Y-83087401D01*
X151444802Y-82040000D01*
X153355198Y-82040000D01*
X154180000Y-82864802D01*
X154180000Y-91212560D01*
X154090000Y-91212560D01*
X153854683Y-91256838D01*
X153638559Y-91395910D01*
X153493569Y-91608110D01*
X153479914Y-91675541D01*
X153450054Y-91630853D01*
X152968285Y-91308946D01*
X152400000Y-91195907D01*
X151831715Y-91308946D01*
X151349946Y-91630853D01*
X151130000Y-91960026D01*
X150910054Y-91630853D01*
X150428285Y-91308946D01*
X149860000Y-91195907D01*
X149291715Y-91308946D01*
X148809946Y-91630853D01*
X148590000Y-91960026D01*
X148370054Y-91630853D01*
X147888285Y-91308946D01*
X147320000Y-91195907D01*
X146751715Y-91308946D01*
X146269946Y-91630853D01*
X146050000Y-91960026D01*
X145830054Y-91630853D01*
X145348285Y-91308946D01*
X144780000Y-91195907D01*
X144211715Y-91308946D01*
X143729946Y-91630853D01*
X143502298Y-91971553D01*
X143435183Y-91828642D01*
X143006924Y-91438355D01*
X142596890Y-91268524D01*
X142367000Y-91389845D01*
X142367000Y-92583000D01*
X142387000Y-92583000D01*
X142387000Y-92837000D01*
X142367000Y-92837000D01*
X142367000Y-94030155D01*
X142596890Y-94151476D01*
X143006924Y-93981645D01*
X143435183Y-93591358D01*
X143502298Y-93448447D01*
X143729946Y-93789147D01*
X144211715Y-94111054D01*
X144780000Y-94224093D01*
X145348285Y-94111054D01*
X145830054Y-93789147D01*
X146050000Y-93459974D01*
X146269946Y-93789147D01*
X146751715Y-94111054D01*
X147320000Y-94224093D01*
X147888285Y-94111054D01*
X148370054Y-93789147D01*
X148590000Y-93459974D01*
X148809946Y-93789147D01*
X149291715Y-94111054D01*
X149860000Y-94224093D01*
X150428285Y-94111054D01*
X150910054Y-93789147D01*
X151130000Y-93459974D01*
X151349946Y-93789147D01*
X151449519Y-93855679D01*
X150815198Y-94490000D01*
X141284802Y-94490000D01*
X139861694Y-93066892D01*
X140798514Y-93066892D01*
X141044817Y-93591358D01*
X141473076Y-93981645D01*
X141883110Y-94151476D01*
X142113000Y-94030155D01*
X142113000Y-92837000D01*
X140919181Y-92837000D01*
X140798514Y-93066892D01*
X139861694Y-93066892D01*
X139190000Y-92395198D01*
X139190000Y-92353108D01*
X140798514Y-92353108D01*
X140919181Y-92583000D01*
X142113000Y-92583000D01*
X142113000Y-91389845D01*
X141883110Y-91268524D01*
X141473076Y-91438355D01*
X141044817Y-91828642D01*
X140798514Y-92353108D01*
X139190000Y-92353108D01*
X139190000Y-90732463D01*
X139222192Y-90700327D01*
X139364838Y-90356799D01*
X139365162Y-89984833D01*
X139223117Y-89641057D01*
X138960327Y-89377808D01*
X138616799Y-89235162D01*
X138244833Y-89234838D01*
X137901057Y-89376883D01*
X137637808Y-89639673D01*
X137495162Y-89983201D01*
X137494838Y-90355167D01*
X137636883Y-90698943D01*
X137670000Y-90732118D01*
X137670000Y-92710000D01*
X137727852Y-93000839D01*
X137892599Y-93247401D01*
X140432599Y-95787401D01*
X140679160Y-95952148D01*
X140727414Y-95961746D01*
X140970000Y-96010000D01*
X151130000Y-96010000D01*
X151420839Y-95952148D01*
X151667401Y-95787401D01*
X152937401Y-94517401D01*
X153102148Y-94270840D01*
X153159322Y-93983407D01*
X153450054Y-93789147D01*
X153477850Y-93747548D01*
X153486838Y-93795317D01*
X153625910Y-94011441D01*
X153838110Y-94156431D01*
X154090000Y-94207440D01*
X155790000Y-94207440D01*
X156025317Y-94163162D01*
X156241441Y-94024090D01*
X156386431Y-93811890D01*
X156437440Y-93560000D01*
X156437440Y-91860000D01*
X156393162Y-91624683D01*
X156254090Y-91408559D01*
X156041890Y-91263569D01*
X155790000Y-91212560D01*
X155700000Y-91212560D01*
X155700000Y-82550000D01*
X155642148Y-82259161D01*
X155642148Y-82259160D01*
X155477401Y-82012599D01*
X154207401Y-80742599D01*
X153960839Y-80577852D01*
X153670000Y-80520000D01*
X151890000Y-80520000D01*
X151890000Y-76762463D01*
X151922192Y-76730327D01*
X152064838Y-76386799D01*
X152065162Y-76014833D01*
X151923117Y-75671057D01*
X151660327Y-75407808D01*
X151316799Y-75265162D01*
X150944833Y-75264838D01*
X150601057Y-75406883D01*
X150337808Y-75669673D01*
X150195162Y-76013201D01*
X150194838Y-76385167D01*
X150336883Y-76728943D01*
X150370000Y-76762118D01*
X150370000Y-80965198D01*
X149545198Y-81790000D01*
X148592954Y-81790000D01*
X148399147Y-81499946D01*
X148069974Y-81280000D01*
X148399147Y-81060054D01*
X148721054Y-80578285D01*
X148834093Y-80010000D01*
X148721054Y-79441715D01*
X148399147Y-78959946D01*
X148080000Y-78746699D01*
X148080000Y-77470000D01*
X148022148Y-77179161D01*
X148022148Y-77179160D01*
X147857401Y-76932599D01*
X146587401Y-75662599D01*
X146340839Y-75497852D01*
X146050000Y-75440000D01*
X139700000Y-75440000D01*
X139409161Y-75497852D01*
X139162599Y-75662599D01*
X134357600Y-80467598D01*
X134192853Y-80714160D01*
X134135001Y-81004999D01*
X134135001Y-90517470D01*
X134104698Y-90529991D01*
X133711372Y-90922631D01*
X133631606Y-91114728D01*
X133577398Y-90983858D01*
X133335214Y-90914393D01*
X132534606Y-91715001D01*
X132175396Y-91715001D01*
X131374788Y-90914393D01*
X131132604Y-90983858D01*
X131082492Y-91124319D01*
X131000011Y-90924698D01*
X130810433Y-90734788D01*
X131554393Y-90734788D01*
X132355001Y-91535396D01*
X133155609Y-90734788D01*
X133086144Y-90492604D01*
X132562699Y-90305857D01*
X132007633Y-90333639D01*
X131623858Y-90492604D01*
X131554393Y-90734788D01*
X130810433Y-90734788D01*
X130607371Y-90531372D01*
X130094101Y-90318244D01*
X129538340Y-90317759D01*
X129024698Y-90529991D01*
X128631372Y-90922631D01*
X128545052Y-91130513D01*
X128460011Y-90924698D01*
X128067371Y-90531372D01*
X127554101Y-90318244D01*
X126998340Y-90317759D01*
X126484698Y-90529991D01*
X126091372Y-90922631D01*
X126005052Y-91130513D01*
X125920011Y-90924698D01*
X125527371Y-90531372D01*
X125014101Y-90318244D01*
X124458340Y-90317759D01*
X123944698Y-90529991D01*
X123551372Y-90922631D01*
X123465052Y-91130513D01*
X123380011Y-90924698D01*
X122987371Y-90531372D01*
X122474101Y-90318244D01*
X121918340Y-90317759D01*
X121404698Y-90529991D01*
X121011372Y-90922631D01*
X120925052Y-91130513D01*
X120840011Y-90924698D01*
X120447371Y-90531372D01*
X119934101Y-90318244D01*
X119378340Y-90317759D01*
X118864698Y-90529991D01*
X118471372Y-90922631D01*
X118385052Y-91130513D01*
X118300011Y-90924698D01*
X117907371Y-90531372D01*
X117394101Y-90318244D01*
X116838340Y-90317759D01*
X116324698Y-90529991D01*
X115931372Y-90922631D01*
X115845052Y-91130513D01*
X115760011Y-90924698D01*
X115367371Y-90531372D01*
X114854101Y-90318244D01*
X114298340Y-90317759D01*
X113784698Y-90529991D01*
X113391372Y-90922631D01*
X113305052Y-91130513D01*
X113220011Y-90924698D01*
X112827371Y-90531372D01*
X112314101Y-90318244D01*
X111758340Y-90317759D01*
X111244698Y-90529991D01*
X110851372Y-90922631D01*
X110765052Y-91130513D01*
X110680011Y-90924698D01*
X110287371Y-90531372D01*
X109774101Y-90318244D01*
X109218340Y-90317759D01*
X108704698Y-90529991D01*
X108311372Y-90922631D01*
X108225052Y-91130513D01*
X108140011Y-90924698D01*
X107747371Y-90531372D01*
X107234101Y-90318244D01*
X106678340Y-90317759D01*
X106164698Y-90529991D01*
X105771372Y-90922631D01*
X105685052Y-91130513D01*
X105600011Y-90924698D01*
X105207371Y-90531372D01*
X104694101Y-90318244D01*
X104138340Y-90317759D01*
X103624698Y-90529991D01*
X103231372Y-90922631D01*
X103145052Y-91130513D01*
X103060011Y-90924698D01*
X102667371Y-90531372D01*
X102154101Y-90318244D01*
X101598340Y-90317759D01*
X101084698Y-90529991D01*
X100691372Y-90922631D01*
X100605052Y-91130513D01*
X100520011Y-90924698D01*
X100127371Y-90531372D01*
X99614101Y-90318244D01*
X99058340Y-90317759D01*
X98544698Y-90529991D01*
X98151372Y-90922631D01*
X98065052Y-91130513D01*
X97980011Y-90924698D01*
X97587371Y-90531372D01*
X97074101Y-90318244D01*
X96518340Y-90317759D01*
X96004698Y-90529991D01*
X95611372Y-90922631D01*
X95525052Y-91130513D01*
X95440011Y-90924698D01*
X95047371Y-90531372D01*
X94534101Y-90318244D01*
X93978340Y-90317759D01*
X93464698Y-90529991D01*
X93071372Y-90922631D01*
X92985052Y-91130513D01*
X92900011Y-90924698D01*
X92507371Y-90531372D01*
X91994101Y-90318244D01*
X91438340Y-90317759D01*
X90924698Y-90529991D01*
X90531372Y-90922631D01*
X90445052Y-91130513D01*
X90360011Y-90924698D01*
X89967371Y-90531372D01*
X89454101Y-90318244D01*
X88898340Y-90317759D01*
X88384698Y-90529991D01*
X87991372Y-90922631D01*
X87905052Y-91130513D01*
X87820011Y-90924698D01*
X87427371Y-90531372D01*
X86914101Y-90318244D01*
X86358340Y-90317759D01*
X85844698Y-90529991D01*
X85451372Y-90922631D01*
X85238244Y-91435901D01*
X85237759Y-91991662D01*
X82677000Y-91991662D01*
X82677000Y-76751662D01*
X85237759Y-76751662D01*
X85449991Y-77265304D01*
X85842631Y-77658630D01*
X86355901Y-77871758D01*
X86911662Y-77872243D01*
X87425304Y-77660011D01*
X87818630Y-77267371D01*
X87904950Y-77059489D01*
X87989991Y-77265304D01*
X88382631Y-77658630D01*
X88895901Y-77871758D01*
X89451662Y-77872243D01*
X89965304Y-77660011D01*
X90358630Y-77267371D01*
X90444950Y-77059489D01*
X90529991Y-77265304D01*
X90922631Y-77658630D01*
X91435901Y-77871758D01*
X91991662Y-77872243D01*
X92505304Y-77660011D01*
X92898630Y-77267371D01*
X92984950Y-77059489D01*
X93069991Y-77265304D01*
X93462631Y-77658630D01*
X93975901Y-77871758D01*
X94531662Y-77872243D01*
X95045304Y-77660011D01*
X95438630Y-77267371D01*
X95524950Y-77059489D01*
X95609991Y-77265304D01*
X96002631Y-77658630D01*
X96515901Y-77871758D01*
X97071662Y-77872243D01*
X97585304Y-77660011D01*
X97978630Y-77267371D01*
X98064950Y-77059489D01*
X98149991Y-77265304D01*
X98542631Y-77658630D01*
X99055901Y-77871758D01*
X99611662Y-77872243D01*
X100125304Y-77660011D01*
X100518630Y-77267371D01*
X100604950Y-77059489D01*
X100689991Y-77265304D01*
X101082631Y-77658630D01*
X101595901Y-77871758D01*
X102151662Y-77872243D01*
X102665304Y-77660011D01*
X103058630Y-77267371D01*
X103144950Y-77059489D01*
X103229991Y-77265304D01*
X103622631Y-77658630D01*
X104135901Y-77871758D01*
X104691662Y-77872243D01*
X105205304Y-77660011D01*
X105598630Y-77267371D01*
X105684950Y-77059489D01*
X105769991Y-77265304D01*
X106162631Y-77658630D01*
X106675901Y-77871758D01*
X107023139Y-77872061D01*
X106142599Y-78752601D01*
X105977852Y-78999163D01*
X105920000Y-79290002D01*
X105920000Y-85090000D01*
X105977852Y-85380839D01*
X106142599Y-85627401D01*
X108284878Y-87769680D01*
X108284838Y-87815167D01*
X108426883Y-88158943D01*
X108689673Y-88422192D01*
X109033201Y-88564838D01*
X109405167Y-88565162D01*
X109748943Y-88423117D01*
X110012192Y-88160327D01*
X110154838Y-87816799D01*
X110155162Y-87444833D01*
X110013117Y-87101057D01*
X109750327Y-86837808D01*
X109406799Y-86695162D01*
X109359923Y-86695121D01*
X107440000Y-84775198D01*
X107440000Y-79604804D01*
X109185620Y-77859184D01*
X109215901Y-77871758D01*
X109771662Y-77872243D01*
X110285304Y-77660011D01*
X110678630Y-77267371D01*
X110764950Y-77059489D01*
X110849991Y-77265304D01*
X111242631Y-77658630D01*
X111755901Y-77871758D01*
X112311662Y-77872243D01*
X112825304Y-77660011D01*
X113218630Y-77267371D01*
X113304950Y-77059489D01*
X113389991Y-77265304D01*
X113782631Y-77658630D01*
X114295901Y-77871758D01*
X114851662Y-77872243D01*
X115365304Y-77660011D01*
X115758630Y-77267371D01*
X115844950Y-77059489D01*
X115929991Y-77265304D01*
X116322631Y-77658630D01*
X116835901Y-77871758D01*
X117391662Y-77872243D01*
X117905304Y-77660011D01*
X118298630Y-77267371D01*
X118384950Y-77059489D01*
X118469991Y-77265304D01*
X118862631Y-77658630D01*
X119375901Y-77871758D01*
X119931662Y-77872243D01*
X120445304Y-77660011D01*
X120838630Y-77267371D01*
X120924950Y-77059489D01*
X121009991Y-77265304D01*
X121402631Y-77658630D01*
X121915901Y-77871758D01*
X122471662Y-77872243D01*
X122985304Y-77660011D01*
X123378630Y-77267371D01*
X123464950Y-77059489D01*
X123549991Y-77265304D01*
X123942631Y-77658630D01*
X124455901Y-77871758D01*
X125011662Y-77872243D01*
X125525304Y-77660011D01*
X125918630Y-77267371D01*
X126004950Y-77059489D01*
X126089991Y-77265304D01*
X126482631Y-77658630D01*
X126995901Y-77871758D01*
X127551662Y-77872243D01*
X128065304Y-77660011D01*
X128458630Y-77267371D01*
X128544950Y-77059489D01*
X128629991Y-77265304D01*
X129022631Y-77658630D01*
X129535901Y-77871758D01*
X130091662Y-77872243D01*
X130605304Y-77660011D01*
X130998630Y-77267371D01*
X131084950Y-77059489D01*
X131169991Y-77265304D01*
X131562631Y-77658630D01*
X132075901Y-77871758D01*
X132631662Y-77872243D01*
X133145304Y-77660011D01*
X133538630Y-77267371D01*
X133624950Y-77059489D01*
X133709991Y-77265304D01*
X134102631Y-77658630D01*
X134615901Y-77871758D01*
X135171662Y-77872243D01*
X135685304Y-77660011D01*
X136078630Y-77267371D01*
X136291758Y-76754101D01*
X136292243Y-76198340D01*
X136080011Y-75684698D01*
X135687371Y-75291372D01*
X135174101Y-75078244D01*
X134618340Y-75077759D01*
X134104698Y-75289991D01*
X133711372Y-75682631D01*
X133625052Y-75890513D01*
X133540011Y-75684698D01*
X133147371Y-75291372D01*
X132634101Y-75078244D01*
X132078340Y-75077759D01*
X131564698Y-75289991D01*
X131171372Y-75682631D01*
X131085052Y-75890513D01*
X131000011Y-75684698D01*
X130607371Y-75291372D01*
X130094101Y-75078244D01*
X129538340Y-75077759D01*
X129024698Y-75289991D01*
X128631372Y-75682631D01*
X128545052Y-75890513D01*
X128460011Y-75684698D01*
X128067371Y-75291372D01*
X127554101Y-75078244D01*
X126998340Y-75077759D01*
X126484698Y-75289991D01*
X126091372Y-75682631D01*
X126005052Y-75890513D01*
X125920011Y-75684698D01*
X125527371Y-75291372D01*
X125014101Y-75078244D01*
X124458340Y-75077759D01*
X123944698Y-75289991D01*
X123551372Y-75682631D01*
X123465052Y-75890513D01*
X123380011Y-75684698D01*
X122987371Y-75291372D01*
X122474101Y-75078244D01*
X121918340Y-75077759D01*
X121404698Y-75289991D01*
X121011372Y-75682631D01*
X120925052Y-75890513D01*
X120840011Y-75684698D01*
X120447371Y-75291372D01*
X119934101Y-75078244D01*
X119378340Y-75077759D01*
X118864698Y-75289991D01*
X118471372Y-75682631D01*
X118385052Y-75890513D01*
X118300011Y-75684698D01*
X117907371Y-75291372D01*
X117394101Y-75078244D01*
X116838340Y-75077759D01*
X116324698Y-75289991D01*
X115931372Y-75682631D01*
X115845052Y-75890513D01*
X115760011Y-75684698D01*
X115367371Y-75291372D01*
X114854101Y-75078244D01*
X114298340Y-75077759D01*
X113784698Y-75289991D01*
X113391372Y-75682631D01*
X113305052Y-75890513D01*
X113220011Y-75684698D01*
X112827371Y-75291372D01*
X112314101Y-75078244D01*
X111758340Y-75077759D01*
X111244698Y-75289991D01*
X110851372Y-75682631D01*
X110765052Y-75890513D01*
X110680011Y-75684698D01*
X110287371Y-75291372D01*
X109774101Y-75078244D01*
X109218340Y-75077759D01*
X108704698Y-75289991D01*
X108311372Y-75682631D01*
X108225052Y-75890513D01*
X108140011Y-75684698D01*
X107747371Y-75291372D01*
X107234101Y-75078244D01*
X106678340Y-75077759D01*
X106164698Y-75289991D01*
X105771372Y-75682631D01*
X105685052Y-75890513D01*
X105600011Y-75684698D01*
X105207371Y-75291372D01*
X104694101Y-75078244D01*
X104138340Y-75077759D01*
X103624698Y-75289991D01*
X103231372Y-75682631D01*
X103145052Y-75890513D01*
X103060011Y-75684698D01*
X102667371Y-75291372D01*
X102154101Y-75078244D01*
X101598340Y-75077759D01*
X101084698Y-75289991D01*
X100691372Y-75682631D01*
X100605052Y-75890513D01*
X100520011Y-75684698D01*
X100127371Y-75291372D01*
X99614101Y-75078244D01*
X99058340Y-75077759D01*
X98544698Y-75289991D01*
X98151372Y-75682631D01*
X98065052Y-75890513D01*
X97980011Y-75684698D01*
X97587371Y-75291372D01*
X97074101Y-75078244D01*
X96518340Y-75077759D01*
X96004698Y-75289991D01*
X95611372Y-75682631D01*
X95525052Y-75890513D01*
X95440011Y-75684698D01*
X95047371Y-75291372D01*
X94534101Y-75078244D01*
X93978340Y-75077759D01*
X93464698Y-75289991D01*
X93071372Y-75682631D01*
X92985052Y-75890513D01*
X92900011Y-75684698D01*
X92507371Y-75291372D01*
X91994101Y-75078244D01*
X91438340Y-75077759D01*
X90924698Y-75289991D01*
X90531372Y-75682631D01*
X90445052Y-75890513D01*
X90360011Y-75684698D01*
X89967371Y-75291372D01*
X89454101Y-75078244D01*
X88898340Y-75077759D01*
X88384698Y-75289991D01*
X87991372Y-75682631D01*
X87905052Y-75890513D01*
X87820011Y-75684698D01*
X87427371Y-75291372D01*
X86914101Y-75078244D01*
X86358340Y-75077759D01*
X85844698Y-75289991D01*
X85451372Y-75682631D01*
X85238244Y-76195901D01*
X85237759Y-76751662D01*
X82677000Y-76751662D01*
X82677000Y-69977000D01*
X158623000Y-69977000D01*
X158623000Y-96393000D01*
G36*
X158623000Y-128733000D02*
X82677000Y-128733000D01*
X82677000Y-124331662D01*
X85237759Y-124331662D01*
X85449991Y-124845304D01*
X85842631Y-125238630D01*
X86355901Y-125451758D01*
X86911662Y-125452243D01*
X87425304Y-125240011D01*
X87818630Y-124847371D01*
X87904950Y-124639489D01*
X87989991Y-124845304D01*
X88382631Y-125238630D01*
X88895901Y-125451758D01*
X89451662Y-125452243D01*
X89965304Y-125240011D01*
X90358630Y-124847371D01*
X90444950Y-124639489D01*
X90529991Y-124845304D01*
X90922631Y-125238630D01*
X91435901Y-125451758D01*
X91991662Y-125452243D01*
X92505304Y-125240011D01*
X92898630Y-124847371D01*
X92984950Y-124639489D01*
X93069991Y-124845304D01*
X93462631Y-125238630D01*
X93975901Y-125451758D01*
X94531662Y-125452243D01*
X95045304Y-125240011D01*
X95438630Y-124847371D01*
X95524950Y-124639489D01*
X95609991Y-124845304D01*
X96002631Y-125238630D01*
X96515901Y-125451758D01*
X97071662Y-125452243D01*
X97585304Y-125240011D01*
X97978630Y-124847371D01*
X98064950Y-124639489D01*
X98149991Y-124845304D01*
X98542631Y-125238630D01*
X99055901Y-125451758D01*
X99611662Y-125452243D01*
X100125304Y-125240011D01*
X100518630Y-124847371D01*
X100604950Y-124639489D01*
X100689991Y-124845304D01*
X101082631Y-125238630D01*
X101595901Y-125451758D01*
X102151662Y-125452243D01*
X102665304Y-125240011D01*
X103058630Y-124847371D01*
X103144950Y-124639489D01*
X103229991Y-124845304D01*
X103622631Y-125238630D01*
X104135901Y-125451758D01*
X104691662Y-125452243D01*
X105205304Y-125240011D01*
X105598630Y-124847371D01*
X105684950Y-124639489D01*
X105769991Y-124845304D01*
X106162631Y-125238630D01*
X106675901Y-125451758D01*
X107231662Y-125452243D01*
X107745304Y-125240011D01*
X108138630Y-124847371D01*
X108224950Y-124639489D01*
X108309991Y-124845304D01*
X108702631Y-125238630D01*
X109215901Y-125451758D01*
X109771662Y-125452243D01*
X110285304Y-125240011D01*
X110678630Y-124847371D01*
X110764950Y-124639489D01*
X110849991Y-124845304D01*
X111242631Y-125238630D01*
X111755901Y-125451758D01*
X112311662Y-125452243D01*
X112825304Y-125240011D01*
X113218630Y-124847371D01*
X113304950Y-124639489D01*
X113389991Y-124845304D01*
X113782631Y-125238630D01*
X114295901Y-125451758D01*
X114851662Y-125452243D01*
X115365304Y-125240011D01*
X115758630Y-124847371D01*
X115844950Y-124639489D01*
X115929991Y-124845304D01*
X116322631Y-125238630D01*
X116835901Y-125451758D01*
X117391662Y-125452243D01*
X117905304Y-125240011D01*
X118298630Y-124847371D01*
X118384950Y-124639489D01*
X118469991Y-124845304D01*
X118862631Y-125238630D01*
X119375901Y-125451758D01*
X119931662Y-125452243D01*
X120445304Y-125240011D01*
X120838630Y-124847371D01*
X120924950Y-124639489D01*
X121009991Y-124845304D01*
X121402631Y-125238630D01*
X121915901Y-125451758D01*
X122471662Y-125452243D01*
X122985304Y-125240011D01*
X123378630Y-124847371D01*
X123464950Y-124639489D01*
X123549991Y-124845304D01*
X123942631Y-125238630D01*
X124455901Y-125451758D01*
X125011662Y-125452243D01*
X125525304Y-125240011D01*
X125918630Y-124847371D01*
X126004950Y-124639489D01*
X126089991Y-124845304D01*
X126482631Y-125238630D01*
X126995901Y-125451758D01*
X127551662Y-125452243D01*
X128065304Y-125240011D01*
X128458630Y-124847371D01*
X128544950Y-124639489D01*
X128629991Y-124845304D01*
X129022631Y-125238630D01*
X129535901Y-125451758D01*
X130091662Y-125452243D01*
X130605304Y-125240011D01*
X130810458Y-125035214D01*
X131554393Y-125035214D01*
X131623858Y-125277398D01*
X132147303Y-125464145D01*
X132702369Y-125436363D01*
X133086144Y-125277398D01*
X133155609Y-125035214D01*
X132355001Y-124234606D01*
X131554393Y-125035214D01*
X130810458Y-125035214D01*
X130998630Y-124847371D01*
X131078396Y-124655274D01*
X131132604Y-124786144D01*
X131374788Y-124855609D01*
X132175396Y-124055001D01*
X132534606Y-124055001D01*
X133335214Y-124855609D01*
X133577398Y-124786144D01*
X133627510Y-124645683D01*
X133709991Y-124845304D01*
X134102631Y-125238630D01*
X134615901Y-125451758D01*
X135171662Y-125452243D01*
X135685304Y-125240011D01*
X136078630Y-124847371D01*
X136291758Y-124334101D01*
X136292243Y-123778340D01*
X136080011Y-123264698D01*
X135687371Y-122871372D01*
X135655001Y-122857931D01*
X135655001Y-116345167D01*
X140034838Y-116345167D01*
X140176883Y-116688943D01*
X140210000Y-116722118D01*
X140210000Y-119407537D01*
X140177808Y-119439673D01*
X140035162Y-119783201D01*
X140034838Y-120155167D01*
X140176883Y-120498943D01*
X140439673Y-120762192D01*
X140783201Y-120904838D01*
X141155167Y-120905162D01*
X141498943Y-120763117D01*
X141762192Y-120500327D01*
X141904838Y-120156799D01*
X141905162Y-119784833D01*
X141763117Y-119441057D01*
X141730000Y-119407882D01*
X141730000Y-116722463D01*
X141762192Y-116690327D01*
X141904838Y-116346799D01*
X141905162Y-115974833D01*
X141763117Y-115631057D01*
X141500327Y-115367808D01*
X141156799Y-115225162D01*
X140784833Y-115224838D01*
X140441057Y-115366883D01*
X140177808Y-115629673D01*
X140035162Y-115973201D01*
X140034838Y-116345167D01*
X135655001Y-116345167D01*
X135655001Y-113659801D01*
X140014802Y-109300000D01*
X145735198Y-109300000D01*
X146560000Y-110124802D01*
X146560000Y-111086699D01*
X146240853Y-111299946D01*
X146240029Y-111301179D01*
X146233162Y-111264683D01*
X146094090Y-111048559D01*
X145881890Y-110903569D01*
X145630000Y-110852560D01*
X143930000Y-110852560D01*
X143694683Y-110896838D01*
X143478559Y-111035910D01*
X143333569Y-111248110D01*
X143282560Y-111500000D01*
X143282560Y-113200000D01*
X143326838Y-113435317D01*
X143465910Y-113651441D01*
X143678110Y-113796431D01*
X143745541Y-113810086D01*
X143700853Y-113839946D01*
X143378946Y-114321715D01*
X143265907Y-114890000D01*
X143378946Y-115458285D01*
X143700853Y-115940054D01*
X144030026Y-116160000D01*
X143700853Y-116379946D01*
X143378946Y-116861715D01*
X143265907Y-117430000D01*
X143378946Y-117998285D01*
X143700853Y-118480054D01*
X144182622Y-118801961D01*
X144750907Y-118915000D01*
X144809093Y-118915000D01*
X145377378Y-118801961D01*
X145859147Y-118480054D01*
X146048345Y-118196899D01*
X146048355Y-118196924D01*
X146438642Y-118625183D01*
X146963108Y-118871486D01*
X147193000Y-118750819D01*
X147193000Y-117557000D01*
X147447000Y-117557000D01*
X147447000Y-118750819D01*
X147676892Y-118871486D01*
X148201358Y-118625183D01*
X148591645Y-118196924D01*
X148761476Y-117786890D01*
X148640155Y-117557000D01*
X147447000Y-117557000D01*
X147193000Y-117557000D01*
X147173000Y-117557000D01*
X147173000Y-117303000D01*
X147193000Y-117303000D01*
X147193000Y-117283000D01*
X147447000Y-117283000D01*
X147447000Y-117303000D01*
X148640155Y-117303000D01*
X148761476Y-117073110D01*
X148591645Y-116663076D01*
X148201358Y-116234817D01*
X148058447Y-116167702D01*
X148399147Y-115940054D01*
X148592954Y-115650000D01*
X149860000Y-115650000D01*
X150150839Y-115592148D01*
X150397401Y-115427401D01*
X151444802Y-114380000D01*
X153355198Y-114380000D01*
X154180000Y-115204802D01*
X154180000Y-123552560D01*
X154090000Y-123552560D01*
X153854683Y-123596838D01*
X153638559Y-123735910D01*
X153493569Y-123948110D01*
X153479914Y-124015541D01*
X153450054Y-123970853D01*
X152968285Y-123648946D01*
X152400000Y-123535907D01*
X151831715Y-123648946D01*
X151349946Y-123970853D01*
X151130000Y-124300026D01*
X150910054Y-123970853D01*
X150428285Y-123648946D01*
X149860000Y-123535907D01*
X149291715Y-123648946D01*
X148809946Y-123970853D01*
X148590000Y-124300026D01*
X148370054Y-123970853D01*
X147888285Y-123648946D01*
X147320000Y-123535907D01*
X146751715Y-123648946D01*
X146269946Y-123970853D01*
X146050000Y-124300026D01*
X145830054Y-123970853D01*
X145348285Y-123648946D01*
X144780000Y-123535907D01*
X144211715Y-123648946D01*
X143729946Y-123970853D01*
X143502298Y-124311553D01*
X143435183Y-124168642D01*
X143006924Y-123778355D01*
X142596890Y-123608524D01*
X142367000Y-123729845D01*
X142367000Y-124923000D01*
X142387000Y-124923000D01*
X142387000Y-125177000D01*
X142367000Y-125177000D01*
X142367000Y-126370155D01*
X142596890Y-126491476D01*
X143006924Y-126321645D01*
X143435183Y-125931358D01*
X143502298Y-125788447D01*
X143729946Y-126129147D01*
X144211715Y-126451054D01*
X144780000Y-126564093D01*
X145348285Y-126451054D01*
X145830054Y-126129147D01*
X146050000Y-125799974D01*
X146269946Y-126129147D01*
X146751715Y-126451054D01*
X147320000Y-126564093D01*
X147888285Y-126451054D01*
X148370054Y-126129147D01*
X148590000Y-125799974D01*
X148809946Y-126129147D01*
X149291715Y-126451054D01*
X149860000Y-126564093D01*
X150428285Y-126451054D01*
X150910054Y-126129147D01*
X151130000Y-125799974D01*
X151349946Y-126129147D01*
X151449519Y-126195679D01*
X150815198Y-126830000D01*
X141284802Y-126830000D01*
X139861694Y-125406892D01*
X140798514Y-125406892D01*
X141044817Y-125931358D01*
X141473076Y-126321645D01*
X141883110Y-126491476D01*
X142113000Y-126370155D01*
X142113000Y-125177000D01*
X140919181Y-125177000D01*
X140798514Y-125406892D01*
X139861694Y-125406892D01*
X139190000Y-124735198D01*
X139190000Y-124693108D01*
X140798514Y-124693108D01*
X140919181Y-124923000D01*
X142113000Y-124923000D01*
X142113000Y-123729845D01*
X141883110Y-123608524D01*
X141473076Y-123778355D01*
X141044817Y-124168642D01*
X140798514Y-124693108D01*
X139190000Y-124693108D01*
X139190000Y-123072463D01*
X139222192Y-123040327D01*
X139364838Y-122696799D01*
X139365162Y-122324833D01*
X139223117Y-121981057D01*
X138960327Y-121717808D01*
X138616799Y-121575162D01*
X138244833Y-121574838D01*
X137901057Y-121716883D01*
X137637808Y-121979673D01*
X137495162Y-122323201D01*
X137494838Y-122695167D01*
X137636883Y-123038943D01*
X137670000Y-123072118D01*
X137670000Y-125050000D01*
X137727852Y-125340839D01*
X137892599Y-125587401D01*
X140432599Y-128127401D01*
X140679160Y-128292148D01*
X140727414Y-128301746D01*
X140970000Y-128350000D01*
X151130000Y-128350000D01*
X151420839Y-128292148D01*
X151667401Y-128127401D01*
X152937401Y-126857401D01*
X153102148Y-126610840D01*
X153159322Y-126323407D01*
X153450054Y-126129147D01*
X153477850Y-126087548D01*
X153486838Y-126135317D01*
X153625910Y-126351441D01*
X153838110Y-126496431D01*
X154090000Y-126547440D01*
X155790000Y-126547440D01*
X156025317Y-126503162D01*
X156241441Y-126364090D01*
X156386431Y-126151890D01*
X156437440Y-125900000D01*
X156437440Y-124200000D01*
X156393162Y-123964683D01*
X156254090Y-123748559D01*
X156041890Y-123603569D01*
X155790000Y-123552560D01*
X155700000Y-123552560D01*
X155700000Y-114890000D01*
X155642148Y-114599161D01*
X155642148Y-114599160D01*
X155477401Y-114352599D01*
X154207401Y-113082599D01*
X153960839Y-112917852D01*
X153670000Y-112860000D01*
X151890000Y-112860000D01*
X151890000Y-109102463D01*
X151922192Y-109070327D01*
X152064838Y-108726799D01*
X152065162Y-108354833D01*
X151923117Y-108011057D01*
X151660327Y-107747808D01*
X151316799Y-107605162D01*
X150944833Y-107604838D01*
X150601057Y-107746883D01*
X150337808Y-108009673D01*
X150195162Y-108353201D01*
X150194838Y-108725167D01*
X150336883Y-109068943D01*
X150370000Y-109102118D01*
X150370000Y-113305198D01*
X149545198Y-114130000D01*
X148592954Y-114130000D01*
X148399147Y-113839946D01*
X148069974Y-113620000D01*
X148399147Y-113400054D01*
X148721054Y-112918285D01*
X148834093Y-112350000D01*
X148721054Y-111781715D01*
X148399147Y-111299946D01*
X148080000Y-111086699D01*
X148080000Y-109810000D01*
X148022148Y-109519161D01*
X148022148Y-109519160D01*
X147857401Y-109272599D01*
X146587401Y-108002599D01*
X146340839Y-107837852D01*
X146050000Y-107780000D01*
X139700000Y-107780000D01*
X139409161Y-107837852D01*
X139162599Y-108002599D01*
X134357600Y-112807598D01*
X134192853Y-113054160D01*
X134135001Y-113344999D01*
X134135001Y-122857470D01*
X134104698Y-122869991D01*
X133711372Y-123262631D01*
X133631606Y-123454728D01*
X133577398Y-123323858D01*
X133335214Y-123254393D01*
X132534606Y-124055001D01*
X132175396Y-124055001D01*
X131374788Y-123254393D01*
X131132604Y-123323858D01*
X131082492Y-123464319D01*
X131000011Y-123264698D01*
X130810433Y-123074788D01*
X131554393Y-123074788D01*
X132355001Y-123875396D01*
X133155609Y-123074788D01*
X133086144Y-122832604D01*
X132562699Y-122645857D01*
X132007633Y-122673639D01*
X131623858Y-122832604D01*
X131554393Y-123074788D01*
X130810433Y-123074788D01*
X130607371Y-122871372D01*
X130094101Y-122658244D01*
X129538340Y-122657759D01*
X129024698Y-122869991D01*
X128631372Y-123262631D01*
X128545052Y-123470513D01*
X128460011Y-123264698D01*
X128067371Y-122871372D01*
X127554101Y-122658244D01*
X126998340Y-122657759D01*
X126484698Y-122869991D01*
X126091372Y-123262631D01*
X126005052Y-123470513D01*
X125920011Y-123264698D01*
X125527371Y-122871372D01*
X125014101Y-122658244D01*
X124458340Y-122657759D01*
X123944698Y-122869991D01*
X123551372Y-123262631D01*
X123465052Y-123470513D01*
X123380011Y-123264698D01*
X122987371Y-122871372D01*
X122474101Y-122658244D01*
X121918340Y-122657759D01*
X121404698Y-122869991D01*
X121011372Y-123262631D01*
X120925052Y-123470513D01*
X120840011Y-123264698D01*
X120447371Y-122871372D01*
X119934101Y-122658244D01*
X119378340Y-122657759D01*
X118864698Y-122869991D01*
X118471372Y-123262631D01*
X118385052Y-123470513D01*
X118300011Y-123264698D01*
X117907371Y-122871372D01*
X117394101Y-122658244D01*
X116838340Y-122657759D01*
X116324698Y-122869991D01*
X115931372Y-123262631D01*
X115845052Y-123470513D01*
X115760011Y-123264698D01*
X115367371Y-122871372D01*
X114854101Y-122658244D01*
X114298340Y-122657759D01*
X113784698Y-122869991D01*
X113391372Y-123262631D01*
X113305052Y-123470513D01*
X113220011Y-123264698D01*
X112827371Y-122871372D01*
X112314101Y-122658244D01*
X111758340Y-122657759D01*
X111244698Y-122869991D01*
X110851372Y-123262631D01*
X110765052Y-123470513D01*
X110680011Y-123264698D01*
X110287371Y-122871372D01*
X109774101Y-122658244D01*
X109218340Y-122657759D01*
X108704698Y-122869991D01*
X108311372Y-123262631D01*
X108225052Y-123470513D01*
X108140011Y-123264698D01*
X107747371Y-122871372D01*
X107234101Y-122658244D01*
X106678340Y-122657759D01*
X106164698Y-122869991D01*
X105771372Y-123262631D01*
X105685052Y-123470513D01*
X105600011Y-123264698D01*
X105207371Y-122871372D01*
X104694101Y-122658244D01*
X104138340Y-122657759D01*
X103624698Y-122869991D01*
X103231372Y-123262631D01*
X103145052Y-123470513D01*
X103060011Y-123264698D01*
X102667371Y-122871372D01*
X102154101Y-122658244D01*
X101598340Y-122657759D01*
X101084698Y-122869991D01*
X100691372Y-123262631D01*
X100605052Y-123470513D01*
X100520011Y-123264698D01*
X100127371Y-122871372D01*
X99614101Y-122658244D01*
X99058340Y-122657759D01*
X98544698Y-122869991D01*
X98151372Y-123262631D01*
X98065052Y-123470513D01*
X97980011Y-123264698D01*
X97587371Y-122871372D01*
X97074101Y-122658244D01*
X96518340Y-122657759D01*
X96004698Y-122869991D01*
X95611372Y-123262631D01*
X95525052Y-123470513D01*
X95440011Y-123264698D01*
X95047371Y-122871372D01*
X94534101Y-122658244D01*
X93978340Y-122657759D01*
X93464698Y-122869991D01*
X93071372Y-123262631D01*
X92985052Y-123470513D01*
X92900011Y-123264698D01*
X92507371Y-122871372D01*
X91994101Y-122658244D01*
X91438340Y-122657759D01*
X90924698Y-122869991D01*
X90531372Y-123262631D01*
X90445052Y-123470513D01*
X90360011Y-123264698D01*
X89967371Y-122871372D01*
X89454101Y-122658244D01*
X88898340Y-122657759D01*
X88384698Y-122869991D01*
X87991372Y-123262631D01*
X87905052Y-123470513D01*
X87820011Y-123264698D01*
X87427371Y-122871372D01*
X86914101Y-122658244D01*
X86358340Y-122657759D01*
X85844698Y-122869991D01*
X85451372Y-123262631D01*
X85238244Y-123775901D01*
X85237759Y-124331662D01*
X82677000Y-124331662D01*
X82677000Y-109091662D01*
X85237759Y-109091662D01*
X85449991Y-109605304D01*
X85842631Y-109998630D01*
X86355901Y-110211758D01*
X86911662Y-110212243D01*
X87425304Y-110000011D01*
X87818630Y-109607371D01*
X87904950Y-109399489D01*
X87989991Y-109605304D01*
X88382631Y-109998630D01*
X88895901Y-110211758D01*
X89451662Y-110212243D01*
X89965304Y-110000011D01*
X90358630Y-109607371D01*
X90444950Y-109399489D01*
X90529991Y-109605304D01*
X90922631Y-109998630D01*
X91435901Y-110211758D01*
X91991662Y-110212243D01*
X92505304Y-110000011D01*
X92898630Y-109607371D01*
X92984950Y-109399489D01*
X93069991Y-109605304D01*
X93462631Y-109998630D01*
X93975901Y-110211758D01*
X94531662Y-110212243D01*
X95045304Y-110000011D01*
X95438630Y-109607371D01*
X95524950Y-109399489D01*
X95609991Y-109605304D01*
X96002631Y-109998630D01*
X96515901Y-110211758D01*
X97071662Y-110212243D01*
X97585304Y-110000011D01*
X97978630Y-109607371D01*
X98064950Y-109399489D01*
X98149991Y-109605304D01*
X98542631Y-109998630D01*
X99055901Y-110211758D01*
X99611662Y-110212243D01*
X100125304Y-110000011D01*
X100518630Y-109607371D01*
X100604950Y-109399489D01*
X100689991Y-109605304D01*
X101082631Y-109998630D01*
X101595901Y-110211758D01*
X102151662Y-110212243D01*
X102665304Y-110000011D01*
X103058630Y-109607371D01*
X103144950Y-109399489D01*
X103229991Y-109605304D01*
X103622631Y-109998630D01*
X104135901Y-110211758D01*
X104691662Y-110212243D01*
X105205304Y-110000011D01*
X105598630Y-109607371D01*
X105684950Y-109399489D01*
X105769991Y-109605304D01*
X106162631Y-109998630D01*
X106675901Y-110211758D01*
X107023139Y-110212061D01*
X106142599Y-111092601D01*
X105977852Y-111339163D01*
X105920000Y-111630002D01*
X105920000Y-117430000D01*
X105977852Y-117720839D01*
X106142599Y-117967401D01*
X108284878Y-120109680D01*
X108284838Y-120155167D01*
X108426883Y-120498943D01*
X108689673Y-120762192D01*
X109033201Y-120904838D01*
X109405167Y-120905162D01*
X109748943Y-120763117D01*
X110012192Y-120500327D01*
X110154838Y-120156799D01*
X110155162Y-119784833D01*
X110013117Y-119441057D01*
X109750327Y-119177808D01*
X109406799Y-119035162D01*
X109359923Y-119035121D01*
X107440000Y-117115198D01*
X107440000Y-111944804D01*
X109185620Y-110199184D01*
X109215901Y-110211758D01*
X109771662Y-110212243D01*
X110285304Y-110000011D01*
X110678630Y-109607371D01*
X110764950Y-109399489D01*
X110849991Y-109605304D01*
X111242631Y-109998630D01*
X111755901Y-110211758D01*
X112311662Y-110212243D01*
X112825304Y-110000011D01*
X113218630Y-109607371D01*
X113304950Y-109399489D01*
X113389991Y-109605304D01*
X113782631Y-109998630D01*
X114295901Y-110211758D01*
X114851662Y-110212243D01*
X115365304Y-110000011D01*
X115758630Y-109607371D01*
X115844950Y-109399489D01*
X115929991Y-109605304D01*
X116322631Y-109998630D01*
X116835901Y-110211758D01*
X117391662Y-110212243D01*
X117905304Y-110000011D01*
X118298630Y-109607371D01*
X118384950Y-109399489D01*
X118469991Y-109605304D01*
X118862631Y-109998630D01*
X119375901Y-110211758D01*
X119931662Y-110212243D01*
X120445304Y-110000011D01*
X120838630Y-109607371D01*
X120924950Y-109399489D01*
X121009991Y-109605304D01*
X121402631Y-109998630D01*
X121915901Y-110211758D01*
X122471662Y-110212243D01*
X122985304Y-110000011D01*
X123378630Y-109607371D01*
X123464950Y-109399489D01*
X123549991Y-109605304D01*
X123942631Y-109998630D01*
X124455901Y-110211758D01*
X125011662Y-110212243D01*
X125525304Y-110000011D01*
X125918630Y-109607371D01*
X126004950Y-109399489D01*
X126089991Y-109605304D01*
X126482631Y-109998630D01*
X126995901Y-110211758D01*
X127551662Y-110212243D01*
X128065304Y-110000011D01*
X128458630Y-109607371D01*
X128544950Y-109399489D01*
X128629991Y-109605304D01*
X129022631Y-109998630D01*
X129535901Y-110211758D01*
X130091662Y-110212243D01*
X130605304Y-110000011D01*
X130998630Y-109607371D01*
X131084950Y-109399489D01*
X131169991Y-109605304D01*
X131562631Y-109998630D01*
X132075901Y-110211758D01*
X132631662Y-110212243D01*
X133145304Y-110000011D01*
X133538630Y-109607371D01*
X133624950Y-109399489D01*
X133709991Y-109605304D01*
X134102631Y-109998630D01*
X134615901Y-110211758D01*
X135171662Y-110212243D01*
X135685304Y-110000011D01*
X136078630Y-109607371D01*
X136291758Y-109094101D01*
X136292243Y-108538340D01*
X136080011Y-108024698D01*
X135687371Y-107631372D01*
X135174101Y-107418244D01*
X134618340Y-107417759D01*
X134104698Y-107629991D01*
X133711372Y-108022631D01*
X133625052Y-108230513D01*
X133540011Y-108024698D01*
X133147371Y-107631372D01*
X132634101Y-107418244D01*
X132078340Y-107417759D01*
X131564698Y-107629991D01*
X131171372Y-108022631D01*
X131085052Y-108230513D01*
X131000011Y-108024698D01*
X130607371Y-107631372D01*
X130094101Y-107418244D01*
X129538340Y-107417759D01*
X129024698Y-107629991D01*
X128631372Y-108022631D01*
X128545052Y-108230513D01*
X128460011Y-108024698D01*
X128067371Y-107631372D01*
X127554101Y-107418244D01*
X126998340Y-107417759D01*
X126484698Y-107629991D01*
X126091372Y-108022631D01*
X126005052Y-108230513D01*
X125920011Y-108024698D01*
X125527371Y-107631372D01*
X125014101Y-107418244D01*
X124458340Y-107417759D01*
X123944698Y-107629991D01*
X123551372Y-108022631D01*
X123465052Y-108230513D01*
X123380011Y-108024698D01*
X122987371Y-107631372D01*
X122474101Y-107418244D01*
X121918340Y-107417759D01*
X121404698Y-107629991D01*
X121011372Y-108022631D01*
X120925052Y-108230513D01*
X120840011Y-108024698D01*
X120447371Y-107631372D01*
X119934101Y-107418244D01*
X119378340Y-107417759D01*
X118864698Y-107629991D01*
X118471372Y-108022631D01*
X118385052Y-108230513D01*
X118300011Y-108024698D01*
X117907371Y-107631372D01*
X117394101Y-107418244D01*
X116838340Y-107417759D01*
X116324698Y-107629991D01*
X115931372Y-108022631D01*
X115845052Y-108230513D01*
X115760011Y-108024698D01*
X115367371Y-107631372D01*
X114854101Y-107418244D01*
X114298340Y-107417759D01*
X113784698Y-107629991D01*
X113391372Y-108022631D01*
X113305052Y-108230513D01*
X113220011Y-108024698D01*
X112827371Y-107631372D01*
X112314101Y-107418244D01*
X111758340Y-107417759D01*
X111244698Y-107629991D01*
X110851372Y-108022631D01*
X110765052Y-108230513D01*
X110680011Y-108024698D01*
X110287371Y-107631372D01*
X109774101Y-107418244D01*
X109218340Y-107417759D01*
X108704698Y-107629991D01*
X108311372Y-108022631D01*
X108225052Y-108230513D01*
X108140011Y-108024698D01*
X107747371Y-107631372D01*
X107234101Y-107418244D01*
X106678340Y-107417759D01*
X106164698Y-107629991D01*
X105771372Y-108022631D01*
X105685052Y-108230513D01*
X105600011Y-108024698D01*
X105207371Y-107631372D01*
X104694101Y-107418244D01*
X104138340Y-107417759D01*
X103624698Y-107629991D01*
X103231372Y-108022631D01*
X103145052Y-108230513D01*
X103060011Y-108024698D01*
X102667371Y-107631372D01*
X102154101Y-107418244D01*
X101598340Y-107417759D01*
X101084698Y-107629991D01*
X100691372Y-108022631D01*
X100605052Y-108230513D01*
X100520011Y-108024698D01*
X100127371Y-107631372D01*
X99614101Y-107418244D01*
X99058340Y-107417759D01*
X98544698Y-107629991D01*
X98151372Y-108022631D01*
X98065052Y-108230513D01*
X97980011Y-108024698D01*
X97587371Y-107631372D01*
X97074101Y-107418244D01*
X96518340Y-107417759D01*
X96004698Y-107629991D01*
X95611372Y-108022631D01*
X95525052Y-108230513D01*
X95440011Y-108024698D01*
X95047371Y-107631372D01*
X94534101Y-107418244D01*
X93978340Y-107417759D01*
X93464698Y-107629991D01*
X93071372Y-108022631D01*
X92985052Y-108230513D01*
X92900011Y-108024698D01*
X92507371Y-107631372D01*
X91994101Y-107418244D01*
X91438340Y-107417759D01*
X90924698Y-107629991D01*
X90531372Y-108022631D01*
X90445052Y-108230513D01*
X90360011Y-108024698D01*
X89967371Y-107631372D01*
X89454101Y-107418244D01*
X88898340Y-107417759D01*
X88384698Y-107629991D01*
X87991372Y-108022631D01*
X87905052Y-108230513D01*
X87820011Y-108024698D01*
X87427371Y-107631372D01*
X86914101Y-107418244D01*
X86358340Y-107417759D01*
X85844698Y-107629991D01*
X85451372Y-108022631D01*
X85238244Y-108535901D01*
X85237759Y-109091662D01*
X82677000Y-109091662D01*
X82677000Y-102317000D01*
X158623000Y-102317000D01*
X158623000Y-128733000D01*
X158623000Y-128733000D01*
G37*
X158623000Y-128733000D02*
X82677000Y-128733000D01*
X82677000Y-124331662D01*
X85237759Y-124331662D01*
X85449991Y-124845304D01*
X85842631Y-125238630D01*
X86355901Y-125451758D01*
X86911662Y-125452243D01*
X87425304Y-125240011D01*
X87818630Y-124847371D01*
X87904950Y-124639489D01*
X87989991Y-124845304D01*
X88382631Y-125238630D01*
X88895901Y-125451758D01*
X89451662Y-125452243D01*
X89965304Y-125240011D01*
X90358630Y-124847371D01*
X90444950Y-124639489D01*
X90529991Y-124845304D01*
X90922631Y-125238630D01*
X91435901Y-125451758D01*
X91991662Y-125452243D01*
X92505304Y-125240011D01*
X92898630Y-124847371D01*
X92984950Y-124639489D01*
X93069991Y-124845304D01*
X93462631Y-125238630D01*
X93975901Y-125451758D01*
X94531662Y-125452243D01*
X95045304Y-125240011D01*
X95438630Y-124847371D01*
X95524950Y-124639489D01*
X95609991Y-124845304D01*
X96002631Y-125238630D01*
X96515901Y-125451758D01*
X97071662Y-125452243D01*
X97585304Y-125240011D01*
X97978630Y-124847371D01*
X98064950Y-124639489D01*
X98149991Y-124845304D01*
X98542631Y-125238630D01*
X99055901Y-125451758D01*
X99611662Y-125452243D01*
X100125304Y-125240011D01*
X100518630Y-124847371D01*
X100604950Y-124639489D01*
X100689991Y-124845304D01*
X101082631Y-125238630D01*
X101595901Y-125451758D01*
X102151662Y-125452243D01*
X102665304Y-125240011D01*
X103058630Y-124847371D01*
X103144950Y-124639489D01*
X103229991Y-124845304D01*
X103622631Y-125238630D01*
X104135901Y-125451758D01*
X104691662Y-125452243D01*
X105205304Y-125240011D01*
X105598630Y-124847371D01*
X105684950Y-124639489D01*
X105769991Y-124845304D01*
X106162631Y-125238630D01*
X106675901Y-125451758D01*
X107231662Y-125452243D01*
X107745304Y-125240011D01*
X108138630Y-124847371D01*
X108224950Y-124639489D01*
X108309991Y-124845304D01*
X108702631Y-125238630D01*
X109215901Y-125451758D01*
X109771662Y-125452243D01*
X110285304Y-125240011D01*
X110678630Y-124847371D01*
X110764950Y-124639489D01*
X110849991Y-124845304D01*
X111242631Y-125238630D01*
X111755901Y-125451758D01*
X112311662Y-125452243D01*
X112825304Y-125240011D01*
X113218630Y-124847371D01*
X113304950Y-124639489D01*
X113389991Y-124845304D01*
X113782631Y-125238630D01*
X114295901Y-125451758D01*
X114851662Y-125452243D01*
X115365304Y-125240011D01*
X115758630Y-124847371D01*
X115844950Y-124639489D01*
X115929991Y-124845304D01*
X116322631Y-125238630D01*
X116835901Y-125451758D01*
X117391662Y-125452243D01*
X117905304Y-125240011D01*
X118298630Y-124847371D01*
X118384950Y-124639489D01*
X118469991Y-124845304D01*
X118862631Y-125238630D01*
X119375901Y-125451758D01*
X119931662Y-125452243D01*
X120445304Y-125240011D01*
X120838630Y-124847371D01*
X120924950Y-124639489D01*
X121009991Y-124845304D01*
X121402631Y-125238630D01*
X121915901Y-125451758D01*
X122471662Y-125452243D01*
X122985304Y-125240011D01*
X123378630Y-124847371D01*
X123464950Y-124639489D01*
X123549991Y-124845304D01*
X123942631Y-125238630D01*
X124455901Y-125451758D01*
X125011662Y-125452243D01*
X125525304Y-125240011D01*
X125918630Y-124847371D01*
X126004950Y-124639489D01*
X126089991Y-124845304D01*
X126482631Y-125238630D01*
X126995901Y-125451758D01*
X127551662Y-125452243D01*
X128065304Y-125240011D01*
X128458630Y-124847371D01*
X128544950Y-124639489D01*
X128629991Y-124845304D01*
X129022631Y-125238630D01*
X129535901Y-125451758D01*
X130091662Y-125452243D01*
X130605304Y-125240011D01*
X130810458Y-125035214D01*
X131554393Y-125035214D01*
X131623858Y-125277398D01*
X132147303Y-125464145D01*
X132702369Y-125436363D01*
X133086144Y-125277398D01*
X133155609Y-125035214D01*
X132355001Y-124234606D01*
X131554393Y-125035214D01*
X130810458Y-125035214D01*
X130998630Y-124847371D01*
X131078396Y-124655274D01*
X131132604Y-124786144D01*
X131374788Y-124855609D01*
X132175396Y-124055001D01*
X132534606Y-124055001D01*
X133335214Y-124855609D01*
X133577398Y-124786144D01*
X133627510Y-124645683D01*
X133709991Y-124845304D01*
X134102631Y-125238630D01*
X134615901Y-125451758D01*
X135171662Y-125452243D01*
X135685304Y-125240011D01*
X136078630Y-124847371D01*
X136291758Y-124334101D01*
X136292243Y-123778340D01*
X136080011Y-123264698D01*
X135687371Y-122871372D01*
X135655001Y-122857931D01*
X135655001Y-116345167D01*
X140034838Y-116345167D01*
X140176883Y-116688943D01*
X140210000Y-116722118D01*
X140210000Y-119407537D01*
X140177808Y-119439673D01*
X140035162Y-119783201D01*
X140034838Y-120155167D01*
X140176883Y-120498943D01*
X140439673Y-120762192D01*
X140783201Y-120904838D01*
X141155167Y-120905162D01*
X141498943Y-120763117D01*
X141762192Y-120500327D01*
X141904838Y-120156799D01*
X141905162Y-119784833D01*
X141763117Y-119441057D01*
X141730000Y-119407882D01*
X141730000Y-116722463D01*
X141762192Y-116690327D01*
X141904838Y-116346799D01*
X141905162Y-115974833D01*
X141763117Y-115631057D01*
X141500327Y-115367808D01*
X141156799Y-115225162D01*
X140784833Y-115224838D01*
X140441057Y-115366883D01*
X140177808Y-115629673D01*
X140035162Y-115973201D01*
X140034838Y-116345167D01*
X135655001Y-116345167D01*
X135655001Y-113659801D01*
X140014802Y-109300000D01*
X145735198Y-109300000D01*
X146560000Y-110124802D01*
X146560000Y-111086699D01*
X146240853Y-111299946D01*
X146240029Y-111301179D01*
X146233162Y-111264683D01*
X146094090Y-111048559D01*
X145881890Y-110903569D01*
X145630000Y-110852560D01*
X143930000Y-110852560D01*
X143694683Y-110896838D01*
X143478559Y-111035910D01*
X143333569Y-111248110D01*
X143282560Y-111500000D01*
X143282560Y-113200000D01*
X143326838Y-113435317D01*
X143465910Y-113651441D01*
X143678110Y-113796431D01*
X143745541Y-113810086D01*
X143700853Y-113839946D01*
X143378946Y-114321715D01*
X143265907Y-114890000D01*
X143378946Y-115458285D01*
X143700853Y-115940054D01*
X144030026Y-116160000D01*
X143700853Y-116379946D01*
X143378946Y-116861715D01*
X143265907Y-117430000D01*
X143378946Y-117998285D01*
X143700853Y-118480054D01*
X144182622Y-118801961D01*
X144750907Y-118915000D01*
X144809093Y-118915000D01*
X145377378Y-118801961D01*
X145859147Y-118480054D01*
X146048345Y-118196899D01*
X146048355Y-118196924D01*
X146438642Y-118625183D01*
X146963108Y-118871486D01*
X147193000Y-118750819D01*
X147193000Y-117557000D01*
X147447000Y-117557000D01*
X147447000Y-118750819D01*
X147676892Y-118871486D01*
X148201358Y-118625183D01*
X148591645Y-118196924D01*
X148761476Y-117786890D01*
X148640155Y-117557000D01*
X147447000Y-117557000D01*
X147193000Y-117557000D01*
X147173000Y-117557000D01*
X147173000Y-117303000D01*
X147193000Y-117303000D01*
X147193000Y-117283000D01*
X147447000Y-117283000D01*
X147447000Y-117303000D01*
X148640155Y-117303000D01*
X148761476Y-117073110D01*
X148591645Y-116663076D01*
X148201358Y-116234817D01*
X148058447Y-116167702D01*
X148399147Y-115940054D01*
X148592954Y-115650000D01*
X149860000Y-115650000D01*
X150150839Y-115592148D01*
X150397401Y-115427401D01*
X151444802Y-114380000D01*
X153355198Y-114380000D01*
X154180000Y-115204802D01*
X154180000Y-123552560D01*
X154090000Y-123552560D01*
X153854683Y-123596838D01*
X153638559Y-123735910D01*
X153493569Y-123948110D01*
X153479914Y-124015541D01*
X153450054Y-123970853D01*
X152968285Y-123648946D01*
X152400000Y-123535907D01*
X151831715Y-123648946D01*
X151349946Y-123970853D01*
X151130000Y-124300026D01*
X150910054Y-123970853D01*
X150428285Y-123648946D01*
X149860000Y-123535907D01*
X149291715Y-123648946D01*
X148809946Y-123970853D01*
X148590000Y-124300026D01*
X148370054Y-123970853D01*
X147888285Y-123648946D01*
X147320000Y-123535907D01*
X146751715Y-123648946D01*
X146269946Y-123970853D01*
X146050000Y-124300026D01*
X145830054Y-123970853D01*
X145348285Y-123648946D01*
X144780000Y-123535907D01*
X144211715Y-123648946D01*
X143729946Y-123970853D01*
X143502298Y-124311553D01*
X143435183Y-124168642D01*
X143006924Y-123778355D01*
X142596890Y-123608524D01*
X142367000Y-123729845D01*
X142367000Y-124923000D01*
X142387000Y-124923000D01*
X142387000Y-125177000D01*
X142367000Y-125177000D01*
X142367000Y-126370155D01*
X142596890Y-126491476D01*
X143006924Y-126321645D01*
X143435183Y-125931358D01*
X143502298Y-125788447D01*
X143729946Y-126129147D01*
X144211715Y-126451054D01*
X144780000Y-126564093D01*
X145348285Y-126451054D01*
X145830054Y-126129147D01*
X146050000Y-125799974D01*
X146269946Y-126129147D01*
X146751715Y-126451054D01*
X147320000Y-126564093D01*
X147888285Y-126451054D01*
X148370054Y-126129147D01*
X148590000Y-125799974D01*
X148809946Y-126129147D01*
X149291715Y-126451054D01*
X149860000Y-126564093D01*
X150428285Y-126451054D01*
X150910054Y-126129147D01*
X151130000Y-125799974D01*
X151349946Y-126129147D01*
X151449519Y-126195679D01*
X150815198Y-126830000D01*
X141284802Y-126830000D01*
X139861694Y-125406892D01*
X140798514Y-125406892D01*
X141044817Y-125931358D01*
X141473076Y-126321645D01*
X141883110Y-126491476D01*
X142113000Y-126370155D01*
X142113000Y-125177000D01*
X140919181Y-125177000D01*
X140798514Y-125406892D01*
X139861694Y-125406892D01*
X139190000Y-124735198D01*
X139190000Y-124693108D01*
X140798514Y-124693108D01*
X140919181Y-124923000D01*
X142113000Y-124923000D01*
X142113000Y-123729845D01*
X141883110Y-123608524D01*
X141473076Y-123778355D01*
X141044817Y-124168642D01*
X140798514Y-124693108D01*
X139190000Y-124693108D01*
X139190000Y-123072463D01*
X139222192Y-123040327D01*
X139364838Y-122696799D01*
X139365162Y-122324833D01*
X139223117Y-121981057D01*
X138960327Y-121717808D01*
X138616799Y-121575162D01*
X138244833Y-121574838D01*
X137901057Y-121716883D01*
X137637808Y-121979673D01*
X137495162Y-122323201D01*
X137494838Y-122695167D01*
X137636883Y-123038943D01*
X137670000Y-123072118D01*
X137670000Y-125050000D01*
X137727852Y-125340839D01*
X137892599Y-125587401D01*
X140432599Y-128127401D01*
X140679160Y-128292148D01*
X140727414Y-128301746D01*
X140970000Y-128350000D01*
X151130000Y-128350000D01*
X151420839Y-128292148D01*
X151667401Y-128127401D01*
X152937401Y-126857401D01*
X153102148Y-126610840D01*
X153159322Y-126323407D01*
X153450054Y-126129147D01*
X153477850Y-126087548D01*
X153486838Y-126135317D01*
X153625910Y-126351441D01*
X153838110Y-126496431D01*
X154090000Y-126547440D01*
X155790000Y-126547440D01*
X156025317Y-126503162D01*
X156241441Y-126364090D01*
X156386431Y-126151890D01*
X156437440Y-125900000D01*
X156437440Y-124200000D01*
X156393162Y-123964683D01*
X156254090Y-123748559D01*
X156041890Y-123603569D01*
X155790000Y-123552560D01*
X155700000Y-123552560D01*
X155700000Y-114890000D01*
X155642148Y-114599161D01*
X155642148Y-114599160D01*
X155477401Y-114352599D01*
X154207401Y-113082599D01*
X153960839Y-112917852D01*
X153670000Y-112860000D01*
X151890000Y-112860000D01*
X151890000Y-109102463D01*
X151922192Y-109070327D01*
X152064838Y-108726799D01*
X152065162Y-108354833D01*
X151923117Y-108011057D01*
X151660327Y-107747808D01*
X151316799Y-107605162D01*
X150944833Y-107604838D01*
X150601057Y-107746883D01*
X150337808Y-108009673D01*
X150195162Y-108353201D01*
X150194838Y-108725167D01*
X150336883Y-109068943D01*
X150370000Y-109102118D01*
X150370000Y-113305198D01*
X149545198Y-114130000D01*
X148592954Y-114130000D01*
X148399147Y-113839946D01*
X148069974Y-113620000D01*
X148399147Y-113400054D01*
X148721054Y-112918285D01*
X148834093Y-112350000D01*
X148721054Y-111781715D01*
X148399147Y-111299946D01*
X148080000Y-111086699D01*
X148080000Y-109810000D01*
X148022148Y-109519161D01*
X148022148Y-109519160D01*
X147857401Y-109272599D01*
X146587401Y-108002599D01*
X146340839Y-107837852D01*
X146050000Y-107780000D01*
X139700000Y-107780000D01*
X139409161Y-107837852D01*
X139162599Y-108002599D01*
X134357600Y-112807598D01*
X134192853Y-113054160D01*
X134135001Y-113344999D01*
X134135001Y-122857470D01*
X134104698Y-122869991D01*
X133711372Y-123262631D01*
X133631606Y-123454728D01*
X133577398Y-123323858D01*
X133335214Y-123254393D01*
X132534606Y-124055001D01*
X132175396Y-124055001D01*
X131374788Y-123254393D01*
X131132604Y-123323858D01*
X131082492Y-123464319D01*
X131000011Y-123264698D01*
X130810433Y-123074788D01*
X131554393Y-123074788D01*
X132355001Y-123875396D01*
X133155609Y-123074788D01*
X133086144Y-122832604D01*
X132562699Y-122645857D01*
X132007633Y-122673639D01*
X131623858Y-122832604D01*
X131554393Y-123074788D01*
X130810433Y-123074788D01*
X130607371Y-122871372D01*
X130094101Y-122658244D01*
X129538340Y-122657759D01*
X129024698Y-122869991D01*
X128631372Y-123262631D01*
X128545052Y-123470513D01*
X128460011Y-123264698D01*
X128067371Y-122871372D01*
X127554101Y-122658244D01*
X126998340Y-122657759D01*
X126484698Y-122869991D01*
X126091372Y-123262631D01*
X126005052Y-123470513D01*
X125920011Y-123264698D01*
X125527371Y-122871372D01*
X125014101Y-122658244D01*
X124458340Y-122657759D01*
X123944698Y-122869991D01*
X123551372Y-123262631D01*
X123465052Y-123470513D01*
X123380011Y-123264698D01*
X122987371Y-122871372D01*
X122474101Y-122658244D01*
X121918340Y-122657759D01*
X121404698Y-122869991D01*
X121011372Y-123262631D01*
X120925052Y-123470513D01*
X120840011Y-123264698D01*
X120447371Y-122871372D01*
X119934101Y-122658244D01*
X119378340Y-122657759D01*
X118864698Y-122869991D01*
X118471372Y-123262631D01*
X118385052Y-123470513D01*
X118300011Y-123264698D01*
X117907371Y-122871372D01*
X117394101Y-122658244D01*
X116838340Y-122657759D01*
X116324698Y-122869991D01*
X115931372Y-123262631D01*
X115845052Y-123470513D01*
X115760011Y-123264698D01*
X115367371Y-122871372D01*
X114854101Y-122658244D01*
X114298340Y-122657759D01*
X113784698Y-122869991D01*
X113391372Y-123262631D01*
X113305052Y-123470513D01*
X113220011Y-123264698D01*
X112827371Y-122871372D01*
X112314101Y-122658244D01*
X111758340Y-122657759D01*
X111244698Y-122869991D01*
X110851372Y-123262631D01*
X110765052Y-123470513D01*
X110680011Y-123264698D01*
X110287371Y-122871372D01*
X109774101Y-122658244D01*
X109218340Y-122657759D01*
X108704698Y-122869991D01*
X108311372Y-123262631D01*
X108225052Y-123470513D01*
X108140011Y-123264698D01*
X107747371Y-122871372D01*
X107234101Y-122658244D01*
X106678340Y-122657759D01*
X106164698Y-122869991D01*
X105771372Y-123262631D01*
X105685052Y-123470513D01*
X105600011Y-123264698D01*
X105207371Y-122871372D01*
X104694101Y-122658244D01*
X104138340Y-122657759D01*
X103624698Y-122869991D01*
X103231372Y-123262631D01*
X103145052Y-123470513D01*
X103060011Y-123264698D01*
X102667371Y-122871372D01*
X102154101Y-122658244D01*
X101598340Y-122657759D01*
X101084698Y-122869991D01*
X100691372Y-123262631D01*
X100605052Y-123470513D01*
X100520011Y-123264698D01*
X100127371Y-122871372D01*
X99614101Y-122658244D01*
X99058340Y-122657759D01*
X98544698Y-122869991D01*
X98151372Y-123262631D01*
X98065052Y-123470513D01*
X97980011Y-123264698D01*
X97587371Y-122871372D01*
X97074101Y-122658244D01*
X96518340Y-122657759D01*
X96004698Y-122869991D01*
X95611372Y-123262631D01*
X95525052Y-123470513D01*
X95440011Y-123264698D01*
X95047371Y-122871372D01*
X94534101Y-122658244D01*
X93978340Y-122657759D01*
X93464698Y-122869991D01*
X93071372Y-123262631D01*
X92985052Y-123470513D01*
X92900011Y-123264698D01*
X92507371Y-122871372D01*
X91994101Y-122658244D01*
X91438340Y-122657759D01*
X90924698Y-122869991D01*
X90531372Y-123262631D01*
X90445052Y-123470513D01*
X90360011Y-123264698D01*
X89967371Y-122871372D01*
X89454101Y-122658244D01*
X88898340Y-122657759D01*
X88384698Y-122869991D01*
X87991372Y-123262631D01*
X87905052Y-123470513D01*
X87820011Y-123264698D01*
X87427371Y-122871372D01*
X86914101Y-122658244D01*
X86358340Y-122657759D01*
X85844698Y-122869991D01*
X85451372Y-123262631D01*
X85238244Y-123775901D01*
X85237759Y-124331662D01*
X82677000Y-124331662D01*
X82677000Y-109091662D01*
X85237759Y-109091662D01*
X85449991Y-109605304D01*
X85842631Y-109998630D01*
X86355901Y-110211758D01*
X86911662Y-110212243D01*
X87425304Y-110000011D01*
X87818630Y-109607371D01*
X87904950Y-109399489D01*
X87989991Y-109605304D01*
X88382631Y-109998630D01*
X88895901Y-110211758D01*
X89451662Y-110212243D01*
X89965304Y-110000011D01*
X90358630Y-109607371D01*
X90444950Y-109399489D01*
X90529991Y-109605304D01*
X90922631Y-109998630D01*
X91435901Y-110211758D01*
X91991662Y-110212243D01*
X92505304Y-110000011D01*
X92898630Y-109607371D01*
X92984950Y-109399489D01*
X93069991Y-109605304D01*
X93462631Y-109998630D01*
X93975901Y-110211758D01*
X94531662Y-110212243D01*
X95045304Y-110000011D01*
X95438630Y-109607371D01*
X95524950Y-109399489D01*
X95609991Y-109605304D01*
X96002631Y-109998630D01*
X96515901Y-110211758D01*
X97071662Y-110212243D01*
X97585304Y-110000011D01*
X97978630Y-109607371D01*
X98064950Y-109399489D01*
X98149991Y-109605304D01*
X98542631Y-109998630D01*
X99055901Y-110211758D01*
X99611662Y-110212243D01*
X100125304Y-110000011D01*
X100518630Y-109607371D01*
X100604950Y-109399489D01*
X100689991Y-109605304D01*
X101082631Y-109998630D01*
X101595901Y-110211758D01*
X102151662Y-110212243D01*
X102665304Y-110000011D01*
X103058630Y-109607371D01*
X103144950Y-109399489D01*
X103229991Y-109605304D01*
X103622631Y-109998630D01*
X104135901Y-110211758D01*
X104691662Y-110212243D01*
X105205304Y-110000011D01*
X105598630Y-109607371D01*
X105684950Y-109399489D01*
X105769991Y-109605304D01*
X106162631Y-109998630D01*
X106675901Y-110211758D01*
X107023139Y-110212061D01*
X106142599Y-111092601D01*
X105977852Y-111339163D01*
X105920000Y-111630002D01*
X105920000Y-117430000D01*
X105977852Y-117720839D01*
X106142599Y-117967401D01*
X108284878Y-120109680D01*
X108284838Y-120155167D01*
X108426883Y-120498943D01*
X108689673Y-120762192D01*
X109033201Y-120904838D01*
X109405167Y-120905162D01*
X109748943Y-120763117D01*
X110012192Y-120500327D01*
X110154838Y-120156799D01*
X110155162Y-119784833D01*
X110013117Y-119441057D01*
X109750327Y-119177808D01*
X109406799Y-119035162D01*
X109359923Y-119035121D01*
X107440000Y-117115198D01*
X107440000Y-111944804D01*
X109185620Y-110199184D01*
X109215901Y-110211758D01*
X109771662Y-110212243D01*
X110285304Y-110000011D01*
X110678630Y-109607371D01*
X110764950Y-109399489D01*
X110849991Y-109605304D01*
X111242631Y-109998630D01*
X111755901Y-110211758D01*
X112311662Y-110212243D01*
X112825304Y-110000011D01*
X113218630Y-109607371D01*
X113304950Y-109399489D01*
X113389991Y-109605304D01*
X113782631Y-109998630D01*
X114295901Y-110211758D01*
X114851662Y-110212243D01*
X115365304Y-110000011D01*
X115758630Y-109607371D01*
X115844950Y-109399489D01*
X115929991Y-109605304D01*
X116322631Y-109998630D01*
X116835901Y-110211758D01*
X117391662Y-110212243D01*
X117905304Y-110000011D01*
X118298630Y-109607371D01*
X118384950Y-109399489D01*
X118469991Y-109605304D01*
X118862631Y-109998630D01*
X119375901Y-110211758D01*
X119931662Y-110212243D01*
X120445304Y-110000011D01*
X120838630Y-109607371D01*
X120924950Y-109399489D01*
X121009991Y-109605304D01*
X121402631Y-109998630D01*
X121915901Y-110211758D01*
X122471662Y-110212243D01*
X122985304Y-110000011D01*
X123378630Y-109607371D01*
X123464950Y-109399489D01*
X123549991Y-109605304D01*
X123942631Y-109998630D01*
X124455901Y-110211758D01*
X125011662Y-110212243D01*
X125525304Y-110000011D01*
X125918630Y-109607371D01*
X126004950Y-109399489D01*
X126089991Y-109605304D01*
X126482631Y-109998630D01*
X126995901Y-110211758D01*
X127551662Y-110212243D01*
X128065304Y-110000011D01*
X128458630Y-109607371D01*
X128544950Y-109399489D01*
X128629991Y-109605304D01*
X129022631Y-109998630D01*
X129535901Y-110211758D01*
X130091662Y-110212243D01*
X130605304Y-110000011D01*
X130998630Y-109607371D01*
X131084950Y-109399489D01*
X131169991Y-109605304D01*
X131562631Y-109998630D01*
X132075901Y-110211758D01*
X132631662Y-110212243D01*
X133145304Y-110000011D01*
X133538630Y-109607371D01*
X133624950Y-109399489D01*
X133709991Y-109605304D01*
X134102631Y-109998630D01*
X134615901Y-110211758D01*
X135171662Y-110212243D01*
X135685304Y-110000011D01*
X136078630Y-109607371D01*
X136291758Y-109094101D01*
X136292243Y-108538340D01*
X136080011Y-108024698D01*
X135687371Y-107631372D01*
X135174101Y-107418244D01*
X134618340Y-107417759D01*
X134104698Y-107629991D01*
X133711372Y-108022631D01*
X133625052Y-108230513D01*
X133540011Y-108024698D01*
X133147371Y-107631372D01*
X132634101Y-107418244D01*
X132078340Y-107417759D01*
X131564698Y-107629991D01*
X131171372Y-108022631D01*
X131085052Y-108230513D01*
X131000011Y-108024698D01*
X130607371Y-107631372D01*
X130094101Y-107418244D01*
X129538340Y-107417759D01*
X129024698Y-107629991D01*
X128631372Y-108022631D01*
X128545052Y-108230513D01*
X128460011Y-108024698D01*
X128067371Y-107631372D01*
X127554101Y-107418244D01*
X126998340Y-107417759D01*
X126484698Y-107629991D01*
X126091372Y-108022631D01*
X126005052Y-108230513D01*
X125920011Y-108024698D01*
X125527371Y-107631372D01*
X125014101Y-107418244D01*
X124458340Y-107417759D01*
X123944698Y-107629991D01*
X123551372Y-108022631D01*
X123465052Y-108230513D01*
X123380011Y-108024698D01*
X122987371Y-107631372D01*
X122474101Y-107418244D01*
X121918340Y-107417759D01*
X121404698Y-107629991D01*
X121011372Y-108022631D01*
X120925052Y-108230513D01*
X120840011Y-108024698D01*
X120447371Y-107631372D01*
X119934101Y-107418244D01*
X119378340Y-107417759D01*
X118864698Y-107629991D01*
X118471372Y-108022631D01*
X118385052Y-108230513D01*
X118300011Y-108024698D01*
X117907371Y-107631372D01*
X117394101Y-107418244D01*
X116838340Y-107417759D01*
X116324698Y-107629991D01*
X115931372Y-108022631D01*
X115845052Y-108230513D01*
X115760011Y-108024698D01*
X115367371Y-107631372D01*
X114854101Y-107418244D01*
X114298340Y-107417759D01*
X113784698Y-107629991D01*
X113391372Y-108022631D01*
X113305052Y-108230513D01*
X113220011Y-108024698D01*
X112827371Y-107631372D01*
X112314101Y-107418244D01*
X111758340Y-107417759D01*
X111244698Y-107629991D01*
X110851372Y-108022631D01*
X110765052Y-108230513D01*
X110680011Y-108024698D01*
X110287371Y-107631372D01*
X109774101Y-107418244D01*
X109218340Y-107417759D01*
X108704698Y-107629991D01*
X108311372Y-108022631D01*
X108225052Y-108230513D01*
X108140011Y-108024698D01*
X107747371Y-107631372D01*
X107234101Y-107418244D01*
X106678340Y-107417759D01*
X106164698Y-107629991D01*
X105771372Y-108022631D01*
X105685052Y-108230513D01*
X105600011Y-108024698D01*
X105207371Y-107631372D01*
X104694101Y-107418244D01*
X104138340Y-107417759D01*
X103624698Y-107629991D01*
X103231372Y-108022631D01*
X103145052Y-108230513D01*
X103060011Y-108024698D01*
X102667371Y-107631372D01*
X102154101Y-107418244D01*
X101598340Y-107417759D01*
X101084698Y-107629991D01*
X100691372Y-108022631D01*
X100605052Y-108230513D01*
X100520011Y-108024698D01*
X100127371Y-107631372D01*
X99614101Y-107418244D01*
X99058340Y-107417759D01*
X98544698Y-107629991D01*
X98151372Y-108022631D01*
X98065052Y-108230513D01*
X97980011Y-108024698D01*
X97587371Y-107631372D01*
X97074101Y-107418244D01*
X96518340Y-107417759D01*
X96004698Y-107629991D01*
X95611372Y-108022631D01*
X95525052Y-108230513D01*
X95440011Y-108024698D01*
X95047371Y-107631372D01*
X94534101Y-107418244D01*
X93978340Y-107417759D01*
X93464698Y-107629991D01*
X93071372Y-108022631D01*
X92985052Y-108230513D01*
X92900011Y-108024698D01*
X92507371Y-107631372D01*
X91994101Y-107418244D01*
X91438340Y-107417759D01*
X90924698Y-107629991D01*
X90531372Y-108022631D01*
X90445052Y-108230513D01*
X90360011Y-108024698D01*
X89967371Y-107631372D01*
X89454101Y-107418244D01*
X88898340Y-107417759D01*
X88384698Y-107629991D01*
X87991372Y-108022631D01*
X87905052Y-108230513D01*
X87820011Y-108024698D01*
X87427371Y-107631372D01*
X86914101Y-107418244D01*
X86358340Y-107417759D01*
X85844698Y-107629991D01*
X85451372Y-108022631D01*
X85238244Y-108535901D01*
X85237759Y-109091662D01*
X82677000Y-109091662D01*
X82677000Y-102317000D01*
X158623000Y-102317000D01*
X158623000Y-128733000D01*
G36*
X158623000Y-64053000D02*
X82677000Y-64053000D01*
X82677000Y-59651662D01*
X85237759Y-59651662D01*
X85449991Y-60165304D01*
X85842631Y-60558630D01*
X86355901Y-60771758D01*
X86911662Y-60772243D01*
X87425304Y-60560011D01*
X87818630Y-60167371D01*
X87904950Y-59959489D01*
X87989991Y-60165304D01*
X88382631Y-60558630D01*
X88895901Y-60771758D01*
X89451662Y-60772243D01*
X89965304Y-60560011D01*
X90358630Y-60167371D01*
X90444950Y-59959489D01*
X90529991Y-60165304D01*
X90922631Y-60558630D01*
X91435901Y-60771758D01*
X91991662Y-60772243D01*
X92505304Y-60560011D01*
X92898630Y-60167371D01*
X92984950Y-59959489D01*
X93069991Y-60165304D01*
X93462631Y-60558630D01*
X93975901Y-60771758D01*
X94531662Y-60772243D01*
X95045304Y-60560011D01*
X95438630Y-60167371D01*
X95524950Y-59959489D01*
X95609991Y-60165304D01*
X96002631Y-60558630D01*
X96515901Y-60771758D01*
X97071662Y-60772243D01*
X97585304Y-60560011D01*
X97978630Y-60167371D01*
X98064950Y-59959489D01*
X98149991Y-60165304D01*
X98542631Y-60558630D01*
X99055901Y-60771758D01*
X99611662Y-60772243D01*
X100125304Y-60560011D01*
X100518630Y-60167371D01*
X100604950Y-59959489D01*
X100689991Y-60165304D01*
X101082631Y-60558630D01*
X101595901Y-60771758D01*
X102151662Y-60772243D01*
X102665304Y-60560011D01*
X103058630Y-60167371D01*
X103144950Y-59959489D01*
X103229991Y-60165304D01*
X103622631Y-60558630D01*
X104135901Y-60771758D01*
X104691662Y-60772243D01*
X105205304Y-60560011D01*
X105598630Y-60167371D01*
X105684950Y-59959489D01*
X105769991Y-60165304D01*
X106162631Y-60558630D01*
X106675901Y-60771758D01*
X107231662Y-60772243D01*
X107745304Y-60560011D01*
X108138630Y-60167371D01*
X108224950Y-59959489D01*
X108309991Y-60165304D01*
X108702631Y-60558630D01*
X109215901Y-60771758D01*
X109771662Y-60772243D01*
X110285304Y-60560011D01*
X110678630Y-60167371D01*
X110764950Y-59959489D01*
X110849991Y-60165304D01*
X111242631Y-60558630D01*
X111755901Y-60771758D01*
X112311662Y-60772243D01*
X112825304Y-60560011D01*
X113218630Y-60167371D01*
X113304950Y-59959489D01*
X113389991Y-60165304D01*
X113782631Y-60558630D01*
X114295901Y-60771758D01*
X114851662Y-60772243D01*
X115365304Y-60560011D01*
X115758630Y-60167371D01*
X115844950Y-59959489D01*
X115929991Y-60165304D01*
X116322631Y-60558630D01*
X116835901Y-60771758D01*
X117391662Y-60772243D01*
X117905304Y-60560011D01*
X118298630Y-60167371D01*
X118384950Y-59959489D01*
X118469991Y-60165304D01*
X118862631Y-60558630D01*
X119375901Y-60771758D01*
X119931662Y-60772243D01*
X120445304Y-60560011D01*
X120838630Y-60167371D01*
X120924950Y-59959489D01*
X121009991Y-60165304D01*
X121402631Y-60558630D01*
X121915901Y-60771758D01*
X122471662Y-60772243D01*
X122985304Y-60560011D01*
X123378630Y-60167371D01*
X123464950Y-59959489D01*
X123549991Y-60165304D01*
X123942631Y-60558630D01*
X124455901Y-60771758D01*
X125011662Y-60772243D01*
X125525304Y-60560011D01*
X125918630Y-60167371D01*
X126004950Y-59959489D01*
X126089991Y-60165304D01*
X126482631Y-60558630D01*
X126995901Y-60771758D01*
X127551662Y-60772243D01*
X128065304Y-60560011D01*
X128458630Y-60167371D01*
X128544950Y-59959489D01*
X128629991Y-60165304D01*
X129022631Y-60558630D01*
X129535901Y-60771758D01*
X130091662Y-60772243D01*
X130605304Y-60560011D01*
X130810458Y-60355214D01*
X131554393Y-60355214D01*
X131623858Y-60597398D01*
X132147303Y-60784145D01*
X132702369Y-60756363D01*
X133086144Y-60597398D01*
X133155609Y-60355214D01*
X132355001Y-59554606D01*
X131554393Y-60355214D01*
X130810458Y-60355214D01*
X130998630Y-60167371D01*
X131078396Y-59975274D01*
X131132604Y-60106144D01*
X131374788Y-60175609D01*
X132175396Y-59375001D01*
X132534606Y-59375001D01*
X133335214Y-60175609D01*
X133577398Y-60106144D01*
X133627510Y-59965683D01*
X133709991Y-60165304D01*
X134102631Y-60558630D01*
X134615901Y-60771758D01*
X135171662Y-60772243D01*
X135685304Y-60560011D01*
X136078630Y-60167371D01*
X136291758Y-59654101D01*
X136292243Y-59098340D01*
X136080011Y-58584698D01*
X135687371Y-58191372D01*
X135655001Y-58177931D01*
X135655001Y-51665167D01*
X140034838Y-51665167D01*
X140176883Y-52008943D01*
X140210000Y-52042118D01*
X140210000Y-54727537D01*
X140177808Y-54759673D01*
X140035162Y-55103201D01*
X140034838Y-55475167D01*
X140176883Y-55818943D01*
X140439673Y-56082192D01*
X140783201Y-56224838D01*
X141155167Y-56225162D01*
X141498943Y-56083117D01*
X141762192Y-55820327D01*
X141904838Y-55476799D01*
X141905162Y-55104833D01*
X141763117Y-54761057D01*
X141730000Y-54727882D01*
X141730000Y-52042463D01*
X141762192Y-52010327D01*
X141904838Y-51666799D01*
X141905162Y-51294833D01*
X141763117Y-50951057D01*
X141500327Y-50687808D01*
X141156799Y-50545162D01*
X140784833Y-50544838D01*
X140441057Y-50686883D01*
X140177808Y-50949673D01*
X140035162Y-51293201D01*
X140034838Y-51665167D01*
X135655001Y-51665167D01*
X135655001Y-48979801D01*
X140014802Y-44620000D01*
X145735198Y-44620000D01*
X146560000Y-45444802D01*
X146560000Y-46406699D01*
X146240853Y-46619946D01*
X146240029Y-46621179D01*
X146233162Y-46584683D01*
X146094090Y-46368559D01*
X145881890Y-46223569D01*
X145630000Y-46172560D01*
X143930000Y-46172560D01*
X143694683Y-46216838D01*
X143478559Y-46355910D01*
X143333569Y-46568110D01*
X143282560Y-46820000D01*
X143282560Y-48520000D01*
X143326838Y-48755317D01*
X143465910Y-48971441D01*
X143678110Y-49116431D01*
X143745541Y-49130086D01*
X143700853Y-49159946D01*
X143378946Y-49641715D01*
X143265907Y-50210000D01*
X143378946Y-50778285D01*
X143700853Y-51260054D01*
X144030026Y-51480000D01*
X143700853Y-51699946D01*
X143378946Y-52181715D01*
X143265907Y-52750000D01*
X143378946Y-53318285D01*
X143700853Y-53800054D01*
X144182622Y-54121961D01*
X144750907Y-54235000D01*
X144809093Y-54235000D01*
X145377378Y-54121961D01*
X145859147Y-53800054D01*
X146048345Y-53516899D01*
X146048355Y-53516924D01*
X146438642Y-53945183D01*
X146963108Y-54191486D01*
X147193000Y-54070819D01*
X147193000Y-52877000D01*
X147447000Y-52877000D01*
X147447000Y-54070819D01*
X147676892Y-54191486D01*
X148201358Y-53945183D01*
X148591645Y-53516924D01*
X148761476Y-53106890D01*
X148640155Y-52877000D01*
X147447000Y-52877000D01*
X147193000Y-52877000D01*
X147173000Y-52877000D01*
X147173000Y-52623000D01*
X147193000Y-52623000D01*
X147193000Y-52603000D01*
X147447000Y-52603000D01*
X147447000Y-52623000D01*
X148640155Y-52623000D01*
X148761476Y-52393110D01*
X148591645Y-51983076D01*
X148201358Y-51554817D01*
X148058447Y-51487702D01*
X148399147Y-51260054D01*
X148592954Y-50970000D01*
X149860000Y-50970000D01*
X150150839Y-50912148D01*
X150397401Y-50747401D01*
X151444802Y-49700000D01*
X153355198Y-49700000D01*
X154180000Y-50524802D01*
X154180000Y-58872560D01*
X154090000Y-58872560D01*
X153854683Y-58916838D01*
X153638559Y-59055910D01*
X153493569Y-59268110D01*
X153479914Y-59335541D01*
X153450054Y-59290853D01*
X152968285Y-58968946D01*
X152400000Y-58855907D01*
X151831715Y-58968946D01*
X151349946Y-59290853D01*
X151130000Y-59620026D01*
X150910054Y-59290853D01*
X150428285Y-58968946D01*
X149860000Y-58855907D01*
X149291715Y-58968946D01*
X148809946Y-59290853D01*
X148590000Y-59620026D01*
X148370054Y-59290853D01*
X147888285Y-58968946D01*
X147320000Y-58855907D01*
X146751715Y-58968946D01*
X146269946Y-59290853D01*
X146050000Y-59620026D01*
X145830054Y-59290853D01*
X145348285Y-58968946D01*
X144780000Y-58855907D01*
X144211715Y-58968946D01*
X143729946Y-59290853D01*
X143502298Y-59631553D01*
X143435183Y-59488642D01*
X143006924Y-59098355D01*
X142596890Y-58928524D01*
X142367000Y-59049845D01*
X142367000Y-60243000D01*
X142387000Y-60243000D01*
X142387000Y-60497000D01*
X142367000Y-60497000D01*
X142367000Y-61690155D01*
X142596890Y-61811476D01*
X143006924Y-61641645D01*
X143435183Y-61251358D01*
X143502298Y-61108447D01*
X143729946Y-61449147D01*
X144211715Y-61771054D01*
X144780000Y-61884093D01*
X145348285Y-61771054D01*
X145830054Y-61449147D01*
X146050000Y-61119974D01*
X146269946Y-61449147D01*
X146751715Y-61771054D01*
X147320000Y-61884093D01*
X147888285Y-61771054D01*
X148370054Y-61449147D01*
X148590000Y-61119974D01*
X148809946Y-61449147D01*
X149291715Y-61771054D01*
X149860000Y-61884093D01*
X150428285Y-61771054D01*
X150910054Y-61449147D01*
X151130000Y-61119974D01*
X151349946Y-61449147D01*
X151449519Y-61515679D01*
X150815198Y-62150000D01*
X141284802Y-62150000D01*
X139861694Y-60726892D01*
X140798514Y-60726892D01*
X141044817Y-61251358D01*
X141473076Y-61641645D01*
X141883110Y-61811476D01*
X142113000Y-61690155D01*
X142113000Y-60497000D01*
X140919181Y-60497000D01*
X140798514Y-60726892D01*
X139861694Y-60726892D01*
X139190000Y-60055198D01*
X139190000Y-60013108D01*
X140798514Y-60013108D01*
X140919181Y-60243000D01*
X142113000Y-60243000D01*
X142113000Y-59049845D01*
X141883110Y-58928524D01*
X141473076Y-59098355D01*
X141044817Y-59488642D01*
X140798514Y-60013108D01*
X139190000Y-60013108D01*
X139190000Y-58392463D01*
X139222192Y-58360327D01*
X139364838Y-58016799D01*
X139365162Y-57644833D01*
X139223117Y-57301057D01*
X138960327Y-57037808D01*
X138616799Y-56895162D01*
X138244833Y-56894838D01*
X137901057Y-57036883D01*
X137637808Y-57299673D01*
X137495162Y-57643201D01*
X137494838Y-58015167D01*
X137636883Y-58358943D01*
X137670000Y-58392118D01*
X137670000Y-60370000D01*
X137727852Y-60660839D01*
X137892599Y-60907401D01*
X140432599Y-63447401D01*
X140679160Y-63612148D01*
X140727414Y-63621746D01*
X140970000Y-63670000D01*
X151130000Y-63670000D01*
X151420839Y-63612148D01*
X151667401Y-63447401D01*
X152937401Y-62177401D01*
X153102148Y-61930840D01*
X153159322Y-61643407D01*
X153450054Y-61449147D01*
X153477850Y-61407548D01*
X153486838Y-61455317D01*
X153625910Y-61671441D01*
X153838110Y-61816431D01*
X154090000Y-61867440D01*
X155790000Y-61867440D01*
X156025317Y-61823162D01*
X156241441Y-61684090D01*
X156386431Y-61471890D01*
X156437440Y-61220000D01*
X156437440Y-59520000D01*
X156393162Y-59284683D01*
X156254090Y-59068559D01*
X156041890Y-58923569D01*
X155790000Y-58872560D01*
X155700000Y-58872560D01*
X155700000Y-50210000D01*
X155642148Y-49919161D01*
X155642148Y-49919160D01*
X155477401Y-49672599D01*
X154207401Y-48402599D01*
X153960839Y-48237852D01*
X153670000Y-48180000D01*
X151890000Y-48180000D01*
X151890000Y-44422463D01*
X151922192Y-44390327D01*
X152064838Y-44046799D01*
X152065162Y-43674833D01*
X151923117Y-43331057D01*
X151660327Y-43067808D01*
X151316799Y-42925162D01*
X150944833Y-42924838D01*
X150601057Y-43066883D01*
X150337808Y-43329673D01*
X150195162Y-43673201D01*
X150194838Y-44045167D01*
X150336883Y-44388943D01*
X150370000Y-44422118D01*
X150370000Y-48625198D01*
X149545198Y-49450000D01*
X148592954Y-49450000D01*
X148399147Y-49159946D01*
X148069974Y-48940000D01*
X148399147Y-48720054D01*
X148721054Y-48238285D01*
X148834093Y-47670000D01*
X148721054Y-47101715D01*
X148399147Y-46619946D01*
X148080000Y-46406699D01*
X148080000Y-45130000D01*
X148022148Y-44839161D01*
X148022148Y-44839160D01*
X147857401Y-44592599D01*
X146587401Y-43322599D01*
X146340839Y-43157852D01*
X146050000Y-43100000D01*
X139700000Y-43100000D01*
X139409161Y-43157852D01*
X139162599Y-43322599D01*
X134357600Y-48127598D01*
X134192853Y-48374160D01*
X134135001Y-48664999D01*
X134135001Y-58177470D01*
X134104698Y-58189991D01*
X133711372Y-58582631D01*
X133631606Y-58774728D01*
X133577398Y-58643858D01*
X133335214Y-58574393D01*
X132534606Y-59375001D01*
X132175396Y-59375001D01*
X131374788Y-58574393D01*
X131132604Y-58643858D01*
X131082492Y-58784319D01*
X131000011Y-58584698D01*
X130810433Y-58394788D01*
X131554393Y-58394788D01*
X132355001Y-59195396D01*
X133155609Y-58394788D01*
X133086144Y-58152604D01*
X132562699Y-57965857D01*
X132007633Y-57993639D01*
X131623858Y-58152604D01*
X131554393Y-58394788D01*
X130810433Y-58394788D01*
X130607371Y-58191372D01*
X130094101Y-57978244D01*
X129538340Y-57977759D01*
X129024698Y-58189991D01*
X128631372Y-58582631D01*
X128545052Y-58790513D01*
X128460011Y-58584698D01*
X128067371Y-58191372D01*
X127554101Y-57978244D01*
X126998340Y-57977759D01*
X126484698Y-58189991D01*
X126091372Y-58582631D01*
X126005052Y-58790513D01*
X125920011Y-58584698D01*
X125527371Y-58191372D01*
X125014101Y-57978244D01*
X124458340Y-57977759D01*
X123944698Y-58189991D01*
X123551372Y-58582631D01*
X123465052Y-58790513D01*
X123380011Y-58584698D01*
X122987371Y-58191372D01*
X122474101Y-57978244D01*
X121918340Y-57977759D01*
X121404698Y-58189991D01*
X121011372Y-58582631D01*
X120925052Y-58790513D01*
X120840011Y-58584698D01*
X120447371Y-58191372D01*
X119934101Y-57978244D01*
X119378340Y-57977759D01*
X118864698Y-58189991D01*
X118471372Y-58582631D01*
X118385052Y-58790513D01*
X118300011Y-58584698D01*
X117907371Y-58191372D01*
X117394101Y-57978244D01*
X116838340Y-57977759D01*
X116324698Y-58189991D01*
X115931372Y-58582631D01*
X115845052Y-58790513D01*
X115760011Y-58584698D01*
X115367371Y-58191372D01*
X114854101Y-57978244D01*
X114298340Y-57977759D01*
X113784698Y-58189991D01*
X113391372Y-58582631D01*
X113305052Y-58790513D01*
X113220011Y-58584698D01*
X112827371Y-58191372D01*
X112314101Y-57978244D01*
X111758340Y-57977759D01*
X111244698Y-58189991D01*
X110851372Y-58582631D01*
X110765052Y-58790513D01*
X110680011Y-58584698D01*
X110287371Y-58191372D01*
X109774101Y-57978244D01*
X109218340Y-57977759D01*
X108704698Y-58189991D01*
X108311372Y-58582631D01*
X108225052Y-58790513D01*
X108140011Y-58584698D01*
X107747371Y-58191372D01*
X107234101Y-57978244D01*
X106678340Y-57977759D01*
X106164698Y-58189991D01*
X105771372Y-58582631D01*
X105685052Y-58790513D01*
X105600011Y-58584698D01*
X105207371Y-58191372D01*
X104694101Y-57978244D01*
X104138340Y-57977759D01*
X103624698Y-58189991D01*
X103231372Y-58582631D01*
X103145052Y-58790513D01*
X103060011Y-58584698D01*
X102667371Y-58191372D01*
X102154101Y-57978244D01*
X101598340Y-57977759D01*
X101084698Y-58189991D01*
X100691372Y-58582631D01*
X100605052Y-58790513D01*
X100520011Y-58584698D01*
X100127371Y-58191372D01*
X99614101Y-57978244D01*
X99058340Y-57977759D01*
X98544698Y-58189991D01*
X98151372Y-58582631D01*
X98065052Y-58790513D01*
X97980011Y-58584698D01*
X97587371Y-58191372D01*
X97074101Y-57978244D01*
X96518340Y-57977759D01*
X96004698Y-58189991D01*
X95611372Y-58582631D01*
X95525052Y-58790513D01*
X95440011Y-58584698D01*
X95047371Y-58191372D01*
X94534101Y-57978244D01*
X93978340Y-57977759D01*
X93464698Y-58189991D01*
X93071372Y-58582631D01*
X92985052Y-58790513D01*
X92900011Y-58584698D01*
X92507371Y-58191372D01*
X91994101Y-57978244D01*
X91438340Y-57977759D01*
X90924698Y-58189991D01*
X90531372Y-58582631D01*
X90445052Y-58790513D01*
X90360011Y-58584698D01*
X89967371Y-58191372D01*
X89454101Y-57978244D01*
X88898340Y-57977759D01*
X88384698Y-58189991D01*
X87991372Y-58582631D01*
X87905052Y-58790513D01*
X87820011Y-58584698D01*
X87427371Y-58191372D01*
X86914101Y-57978244D01*
X86358340Y-57977759D01*
X85844698Y-58189991D01*
X85451372Y-58582631D01*
X85238244Y-59095901D01*
X85237759Y-59651662D01*
X82677000Y-59651662D01*
X82677000Y-44411662D01*
X85237759Y-44411662D01*
X85449991Y-44925304D01*
X85842631Y-45318630D01*
X86355901Y-45531758D01*
X86911662Y-45532243D01*
X87425304Y-45320011D01*
X87818630Y-44927371D01*
X87904950Y-44719489D01*
X87989991Y-44925304D01*
X88382631Y-45318630D01*
X88895901Y-45531758D01*
X89451662Y-45532243D01*
X89965304Y-45320011D01*
X90358630Y-44927371D01*
X90444950Y-44719489D01*
X90529991Y-44925304D01*
X90922631Y-45318630D01*
X91435901Y-45531758D01*
X91991662Y-45532243D01*
X92505304Y-45320011D01*
X92898630Y-44927371D01*
X92984950Y-44719489D01*
X93069991Y-44925304D01*
X93462631Y-45318630D01*
X93975901Y-45531758D01*
X94531662Y-45532243D01*
X95045304Y-45320011D01*
X95438630Y-44927371D01*
X95524950Y-44719489D01*
X95609991Y-44925304D01*
X96002631Y-45318630D01*
X96515901Y-45531758D01*
X97071662Y-45532243D01*
X97585304Y-45320011D01*
X97978630Y-44927371D01*
X98064950Y-44719489D01*
X98149991Y-44925304D01*
X98542631Y-45318630D01*
X99055901Y-45531758D01*
X99611662Y-45532243D01*
X100125304Y-45320011D01*
X100518630Y-44927371D01*
X100604950Y-44719489D01*
X100689991Y-44925304D01*
X101082631Y-45318630D01*
X101595901Y-45531758D01*
X102151662Y-45532243D01*
X102665304Y-45320011D01*
X103058630Y-44927371D01*
X103144950Y-44719489D01*
X103229991Y-44925304D01*
X103622631Y-45318630D01*
X104135901Y-45531758D01*
X104691662Y-45532243D01*
X105205304Y-45320011D01*
X105598630Y-44927371D01*
X105684950Y-44719489D01*
X105769991Y-44925304D01*
X106162631Y-45318630D01*
X106675901Y-45531758D01*
X107023139Y-45532061D01*
X106142599Y-46412601D01*
X105977852Y-46659163D01*
X105920000Y-46950002D01*
X105920000Y-52750000D01*
X105977852Y-53040839D01*
X106142599Y-53287401D01*
X108284878Y-55429680D01*
X108284838Y-55475167D01*
X108426883Y-55818943D01*
X108689673Y-56082192D01*
X109033201Y-56224838D01*
X109405167Y-56225162D01*
X109748943Y-56083117D01*
X110012192Y-55820327D01*
X110154838Y-55476799D01*
X110155162Y-55104833D01*
X110013117Y-54761057D01*
X109750327Y-54497808D01*
X109406799Y-54355162D01*
X109359923Y-54355121D01*
X107440000Y-52435198D01*
X107440000Y-47264804D01*
X109185620Y-45519184D01*
X109215901Y-45531758D01*
X109771662Y-45532243D01*
X110285304Y-45320011D01*
X110678630Y-44927371D01*
X110764950Y-44719489D01*
X110849991Y-44925304D01*
X111242631Y-45318630D01*
X111755901Y-45531758D01*
X112311662Y-45532243D01*
X112825304Y-45320011D01*
X113218630Y-44927371D01*
X113304950Y-44719489D01*
X113389991Y-44925304D01*
X113782631Y-45318630D01*
X114295901Y-45531758D01*
X114851662Y-45532243D01*
X115365304Y-45320011D01*
X115758630Y-44927371D01*
X115844950Y-44719489D01*
X115929991Y-44925304D01*
X116322631Y-45318630D01*
X116835901Y-45531758D01*
X117391662Y-45532243D01*
X117905304Y-45320011D01*
X118298630Y-44927371D01*
X118384950Y-44719489D01*
X118469991Y-44925304D01*
X118862631Y-45318630D01*
X119375901Y-45531758D01*
X119931662Y-45532243D01*
X120445304Y-45320011D01*
X120838630Y-44927371D01*
X120924950Y-44719489D01*
X121009991Y-44925304D01*
X121402631Y-45318630D01*
X121915901Y-45531758D01*
X122471662Y-45532243D01*
X122985304Y-45320011D01*
X123378630Y-44927371D01*
X123464950Y-44719489D01*
X123549991Y-44925304D01*
X123942631Y-45318630D01*
X124455901Y-45531758D01*
X125011662Y-45532243D01*
X125525304Y-45320011D01*
X125918630Y-44927371D01*
X126004950Y-44719489D01*
X126089991Y-44925304D01*
X126482631Y-45318630D01*
X126995901Y-45531758D01*
X127551662Y-45532243D01*
X128065304Y-45320011D01*
X128458630Y-44927371D01*
X128544950Y-44719489D01*
X128629991Y-44925304D01*
X129022631Y-45318630D01*
X129535901Y-45531758D01*
X130091662Y-45532243D01*
X130605304Y-45320011D01*
X130998630Y-44927371D01*
X131084950Y-44719489D01*
X131169991Y-44925304D01*
X131562631Y-45318630D01*
X132075901Y-45531758D01*
X132631662Y-45532243D01*
X133145304Y-45320011D01*
X133538630Y-44927371D01*
X133624950Y-44719489D01*
X133709991Y-44925304D01*
X134102631Y-45318630D01*
X134615901Y-45531758D01*
X135171662Y-45532243D01*
X135685304Y-45320011D01*
X136078630Y-44927371D01*
X136291758Y-44414101D01*
X136292243Y-43858340D01*
X136080011Y-43344698D01*
X135687371Y-42951372D01*
X135174101Y-42738244D01*
X134618340Y-42737759D01*
X134104698Y-42949991D01*
X133711372Y-43342631D01*
X133625052Y-43550513D01*
X133540011Y-43344698D01*
X133147371Y-42951372D01*
X132634101Y-42738244D01*
X132078340Y-42737759D01*
X131564698Y-42949991D01*
X131171372Y-43342631D01*
X131085052Y-43550513D01*
X131000011Y-43344698D01*
X130607371Y-42951372D01*
X130094101Y-42738244D01*
X129538340Y-42737759D01*
X129024698Y-42949991D01*
X128631372Y-43342631D01*
X128545052Y-43550513D01*
X128460011Y-43344698D01*
X128067371Y-42951372D01*
X127554101Y-42738244D01*
X126998340Y-42737759D01*
X126484698Y-42949991D01*
X126091372Y-43342631D01*
X126005052Y-43550513D01*
X125920011Y-43344698D01*
X125527371Y-42951372D01*
X125014101Y-42738244D01*
X124458340Y-42737759D01*
X123944698Y-42949991D01*
X123551372Y-43342631D01*
X123465052Y-43550513D01*
X123380011Y-43344698D01*
X122987371Y-42951372D01*
X122474101Y-42738244D01*
X121918340Y-42737759D01*
X121404698Y-42949991D01*
X121011372Y-43342631D01*
X120925052Y-43550513D01*
X120840011Y-43344698D01*
X120447371Y-42951372D01*
X119934101Y-42738244D01*
X119378340Y-42737759D01*
X118864698Y-42949991D01*
X118471372Y-43342631D01*
X118385052Y-43550513D01*
X118300011Y-43344698D01*
X117907371Y-42951372D01*
X117394101Y-42738244D01*
X116838340Y-42737759D01*
X116324698Y-42949991D01*
X115931372Y-43342631D01*
X115845052Y-43550513D01*
X115760011Y-43344698D01*
X115367371Y-42951372D01*
X114854101Y-42738244D01*
X114298340Y-42737759D01*
X113784698Y-42949991D01*
X113391372Y-43342631D01*
X113305052Y-43550513D01*
X113220011Y-43344698D01*
X112827371Y-42951372D01*
X112314101Y-42738244D01*
X111758340Y-42737759D01*
X111244698Y-42949991D01*
X110851372Y-43342631D01*
X110765052Y-43550513D01*
X110680011Y-43344698D01*
X110287371Y-42951372D01*
X109774101Y-42738244D01*
X109218340Y-42737759D01*
X108704698Y-42949991D01*
X108311372Y-43342631D01*
X108225052Y-43550513D01*
X108140011Y-43344698D01*
X107747371Y-42951372D01*
X107234101Y-42738244D01*
X106678340Y-42737759D01*
X106164698Y-42949991D01*
X105771372Y-43342631D01*
X105685052Y-43550513D01*
X105600011Y-43344698D01*
X105207371Y-42951372D01*
X104694101Y-42738244D01*
X104138340Y-42737759D01*
X103624698Y-42949991D01*
X103231372Y-43342631D01*
X103145052Y-43550513D01*
X103060011Y-43344698D01*
X102667371Y-42951372D01*
X102154101Y-42738244D01*
X101598340Y-42737759D01*
X101084698Y-42949991D01*
X100691372Y-43342631D01*
X100605052Y-43550513D01*
X100520011Y-43344698D01*
X100127371Y-42951372D01*
X99614101Y-42738244D01*
X99058340Y-42737759D01*
X98544698Y-42949991D01*
X98151372Y-43342631D01*
X98065052Y-43550513D01*
X97980011Y-43344698D01*
X97587371Y-42951372D01*
X97074101Y-42738244D01*
X96518340Y-42737759D01*
X96004698Y-42949991D01*
X95611372Y-43342631D01*
X95525052Y-43550513D01*
X95440011Y-43344698D01*
X95047371Y-42951372D01*
X94534101Y-42738244D01*
X93978340Y-42737759D01*
X93464698Y-42949991D01*
X93071372Y-43342631D01*
X92985052Y-43550513D01*
X92900011Y-43344698D01*
X92507371Y-42951372D01*
X91994101Y-42738244D01*
X91438340Y-42737759D01*
X90924698Y-42949991D01*
X90531372Y-43342631D01*
X90445052Y-43550513D01*
X90360011Y-43344698D01*
X89967371Y-42951372D01*
X89454101Y-42738244D01*
X88898340Y-42737759D01*
X88384698Y-42949991D01*
X87991372Y-43342631D01*
X87905052Y-43550513D01*
X87820011Y-43344698D01*
X87427371Y-42951372D01*
X86914101Y-42738244D01*
X86358340Y-42737759D01*
X85844698Y-42949991D01*
X85451372Y-43342631D01*
X85238244Y-43855901D01*
X85237759Y-44411662D01*
X82677000Y-44411662D01*
X82677000Y-37637000D01*
X158623000Y-37637000D01*
X158623000Y-64053000D01*
X158623000Y-64053000D01*
G37*
X158623000Y-64053000D02*
X82677000Y-64053000D01*
X82677000Y-59651662D01*
X85237759Y-59651662D01*
X85449991Y-60165304D01*
X85842631Y-60558630D01*
X86355901Y-60771758D01*
X86911662Y-60772243D01*
X87425304Y-60560011D01*
X87818630Y-60167371D01*
X87904950Y-59959489D01*
X87989991Y-60165304D01*
X88382631Y-60558630D01*
X88895901Y-60771758D01*
X89451662Y-60772243D01*
X89965304Y-60560011D01*
X90358630Y-60167371D01*
X90444950Y-59959489D01*
X90529991Y-60165304D01*
X90922631Y-60558630D01*
X91435901Y-60771758D01*
X91991662Y-60772243D01*
X92505304Y-60560011D01*
X92898630Y-60167371D01*
X92984950Y-59959489D01*
X93069991Y-60165304D01*
X93462631Y-60558630D01*
X93975901Y-60771758D01*
X94531662Y-60772243D01*
X95045304Y-60560011D01*
X95438630Y-60167371D01*
X95524950Y-59959489D01*
X95609991Y-60165304D01*
X96002631Y-60558630D01*
X96515901Y-60771758D01*
X97071662Y-60772243D01*
X97585304Y-60560011D01*
X97978630Y-60167371D01*
X98064950Y-59959489D01*
X98149991Y-60165304D01*
X98542631Y-60558630D01*
X99055901Y-60771758D01*
X99611662Y-60772243D01*
X100125304Y-60560011D01*
X100518630Y-60167371D01*
X100604950Y-59959489D01*
X100689991Y-60165304D01*
X101082631Y-60558630D01*
X101595901Y-60771758D01*
X102151662Y-60772243D01*
X102665304Y-60560011D01*
X103058630Y-60167371D01*
X103144950Y-59959489D01*
X103229991Y-60165304D01*
X103622631Y-60558630D01*
X104135901Y-60771758D01*
X104691662Y-60772243D01*
X105205304Y-60560011D01*
X105598630Y-60167371D01*
X105684950Y-59959489D01*
X105769991Y-60165304D01*
X106162631Y-60558630D01*
X106675901Y-60771758D01*
X107231662Y-60772243D01*
X107745304Y-60560011D01*
X108138630Y-60167371D01*
X108224950Y-59959489D01*
X108309991Y-60165304D01*
X108702631Y-60558630D01*
X109215901Y-60771758D01*
X109771662Y-60772243D01*
X110285304Y-60560011D01*
X110678630Y-60167371D01*
X110764950Y-59959489D01*
X110849991Y-60165304D01*
X111242631Y-60558630D01*
X111755901Y-60771758D01*
X112311662Y-60772243D01*
X112825304Y-60560011D01*
X113218630Y-60167371D01*
X113304950Y-59959489D01*
X113389991Y-60165304D01*
X113782631Y-60558630D01*
X114295901Y-60771758D01*
X114851662Y-60772243D01*
X115365304Y-60560011D01*
X115758630Y-60167371D01*
X115844950Y-59959489D01*
X115929991Y-60165304D01*
X116322631Y-60558630D01*
X116835901Y-60771758D01*
X117391662Y-60772243D01*
X117905304Y-60560011D01*
X118298630Y-60167371D01*
X118384950Y-59959489D01*
X118469991Y-60165304D01*
X118862631Y-60558630D01*
X119375901Y-60771758D01*
X119931662Y-60772243D01*
X120445304Y-60560011D01*
X120838630Y-60167371D01*
X120924950Y-59959489D01*
X121009991Y-60165304D01*
X121402631Y-60558630D01*
X121915901Y-60771758D01*
X122471662Y-60772243D01*
X122985304Y-60560011D01*
X123378630Y-60167371D01*
X123464950Y-59959489D01*
X123549991Y-60165304D01*
X123942631Y-60558630D01*
X124455901Y-60771758D01*
X125011662Y-60772243D01*
X125525304Y-60560011D01*
X125918630Y-60167371D01*
X126004950Y-59959489D01*
X126089991Y-60165304D01*
X126482631Y-60558630D01*
X126995901Y-60771758D01*
X127551662Y-60772243D01*
X128065304Y-60560011D01*
X128458630Y-60167371D01*
X128544950Y-59959489D01*
X128629991Y-60165304D01*
X129022631Y-60558630D01*
X129535901Y-60771758D01*
X130091662Y-60772243D01*
X130605304Y-60560011D01*
X130810458Y-60355214D01*
X131554393Y-60355214D01*
X131623858Y-60597398D01*
X132147303Y-60784145D01*
X132702369Y-60756363D01*
X133086144Y-60597398D01*
X133155609Y-60355214D01*
X132355001Y-59554606D01*
X131554393Y-60355214D01*
X130810458Y-60355214D01*
X130998630Y-60167371D01*
X131078396Y-59975274D01*
X131132604Y-60106144D01*
X131374788Y-60175609D01*
X132175396Y-59375001D01*
X132534606Y-59375001D01*
X133335214Y-60175609D01*
X133577398Y-60106144D01*
X133627510Y-59965683D01*
X133709991Y-60165304D01*
X134102631Y-60558630D01*
X134615901Y-60771758D01*
X135171662Y-60772243D01*
X135685304Y-60560011D01*
X136078630Y-60167371D01*
X136291758Y-59654101D01*
X136292243Y-59098340D01*
X136080011Y-58584698D01*
X135687371Y-58191372D01*
X135655001Y-58177931D01*
X135655001Y-51665167D01*
X140034838Y-51665167D01*
X140176883Y-52008943D01*
X140210000Y-52042118D01*
X140210000Y-54727537D01*
X140177808Y-54759673D01*
X140035162Y-55103201D01*
X140034838Y-55475167D01*
X140176883Y-55818943D01*
X140439673Y-56082192D01*
X140783201Y-56224838D01*
X141155167Y-56225162D01*
X141498943Y-56083117D01*
X141762192Y-55820327D01*
X141904838Y-55476799D01*
X141905162Y-55104833D01*
X141763117Y-54761057D01*
X141730000Y-54727882D01*
X141730000Y-52042463D01*
X141762192Y-52010327D01*
X141904838Y-51666799D01*
X141905162Y-51294833D01*
X141763117Y-50951057D01*
X141500327Y-50687808D01*
X141156799Y-50545162D01*
X140784833Y-50544838D01*
X140441057Y-50686883D01*
X140177808Y-50949673D01*
X140035162Y-51293201D01*
X140034838Y-51665167D01*
X135655001Y-51665167D01*
X135655001Y-48979801D01*
X140014802Y-44620000D01*
X145735198Y-44620000D01*
X146560000Y-45444802D01*
X146560000Y-46406699D01*
X146240853Y-46619946D01*
X146240029Y-46621179D01*
X146233162Y-46584683D01*
X146094090Y-46368559D01*
X145881890Y-46223569D01*
X145630000Y-46172560D01*
X143930000Y-46172560D01*
X143694683Y-46216838D01*
X143478559Y-46355910D01*
X143333569Y-46568110D01*
X143282560Y-46820000D01*
X143282560Y-48520000D01*
X143326838Y-48755317D01*
X143465910Y-48971441D01*
X143678110Y-49116431D01*
X143745541Y-49130086D01*
X143700853Y-49159946D01*
X143378946Y-49641715D01*
X143265907Y-50210000D01*
X143378946Y-50778285D01*
X143700853Y-51260054D01*
X144030026Y-51480000D01*
X143700853Y-51699946D01*
X143378946Y-52181715D01*
X143265907Y-52750000D01*
X143378946Y-53318285D01*
X143700853Y-53800054D01*
X144182622Y-54121961D01*
X144750907Y-54235000D01*
X144809093Y-54235000D01*
X145377378Y-54121961D01*
X145859147Y-53800054D01*
X146048345Y-53516899D01*
X146048355Y-53516924D01*
X146438642Y-53945183D01*
X146963108Y-54191486D01*
X147193000Y-54070819D01*
X147193000Y-52877000D01*
X147447000Y-52877000D01*
X147447000Y-54070819D01*
X147676892Y-54191486D01*
X148201358Y-53945183D01*
X148591645Y-53516924D01*
X148761476Y-53106890D01*
X148640155Y-52877000D01*
X147447000Y-52877000D01*
X147193000Y-52877000D01*
X147173000Y-52877000D01*
X147173000Y-52623000D01*
X147193000Y-52623000D01*
X147193000Y-52603000D01*
X147447000Y-52603000D01*
X147447000Y-52623000D01*
X148640155Y-52623000D01*
X148761476Y-52393110D01*
X148591645Y-51983076D01*
X148201358Y-51554817D01*
X148058447Y-51487702D01*
X148399147Y-51260054D01*
X148592954Y-50970000D01*
X149860000Y-50970000D01*
X150150839Y-50912148D01*
X150397401Y-50747401D01*
X151444802Y-49700000D01*
X153355198Y-49700000D01*
X154180000Y-50524802D01*
X154180000Y-58872560D01*
X154090000Y-58872560D01*
X153854683Y-58916838D01*
X153638559Y-59055910D01*
X153493569Y-59268110D01*
X153479914Y-59335541D01*
X153450054Y-59290853D01*
X152968285Y-58968946D01*
X152400000Y-58855907D01*
X151831715Y-58968946D01*
X151349946Y-59290853D01*
X151130000Y-59620026D01*
X150910054Y-59290853D01*
X150428285Y-58968946D01*
X149860000Y-58855907D01*
X149291715Y-58968946D01*
X148809946Y-59290853D01*
X148590000Y-59620026D01*
X148370054Y-59290853D01*
X147888285Y-58968946D01*
X147320000Y-58855907D01*
X146751715Y-58968946D01*
X146269946Y-59290853D01*
X146050000Y-59620026D01*
X145830054Y-59290853D01*
X145348285Y-58968946D01*
X144780000Y-58855907D01*
X144211715Y-58968946D01*
X143729946Y-59290853D01*
X143502298Y-59631553D01*
X143435183Y-59488642D01*
X143006924Y-59098355D01*
X142596890Y-58928524D01*
X142367000Y-59049845D01*
X142367000Y-60243000D01*
X142387000Y-60243000D01*
X142387000Y-60497000D01*
X142367000Y-60497000D01*
X142367000Y-61690155D01*
X142596890Y-61811476D01*
X143006924Y-61641645D01*
X143435183Y-61251358D01*
X143502298Y-61108447D01*
X143729946Y-61449147D01*
X144211715Y-61771054D01*
X144780000Y-61884093D01*
X145348285Y-61771054D01*
X145830054Y-61449147D01*
X146050000Y-61119974D01*
X146269946Y-61449147D01*
X146751715Y-61771054D01*
X147320000Y-61884093D01*
X147888285Y-61771054D01*
X148370054Y-61449147D01*
X148590000Y-61119974D01*
X148809946Y-61449147D01*
X149291715Y-61771054D01*
X149860000Y-61884093D01*
X150428285Y-61771054D01*
X150910054Y-61449147D01*
X151130000Y-61119974D01*
X151349946Y-61449147D01*
X151449519Y-61515679D01*
X150815198Y-62150000D01*
X141284802Y-62150000D01*
X139861694Y-60726892D01*
X140798514Y-60726892D01*
X141044817Y-61251358D01*
X141473076Y-61641645D01*
X141883110Y-61811476D01*
X142113000Y-61690155D01*
X142113000Y-60497000D01*
X140919181Y-60497000D01*
X140798514Y-60726892D01*
X139861694Y-60726892D01*
X139190000Y-60055198D01*
X139190000Y-60013108D01*
X140798514Y-60013108D01*
X140919181Y-60243000D01*
X142113000Y-60243000D01*
X142113000Y-59049845D01*
X141883110Y-58928524D01*
X141473076Y-59098355D01*
X141044817Y-59488642D01*
X140798514Y-60013108D01*
X139190000Y-60013108D01*
X139190000Y-58392463D01*
X139222192Y-58360327D01*
X139364838Y-58016799D01*
X139365162Y-57644833D01*
X139223117Y-57301057D01*
X138960327Y-57037808D01*
X138616799Y-56895162D01*
X138244833Y-56894838D01*
X137901057Y-57036883D01*
X137637808Y-57299673D01*
X137495162Y-57643201D01*
X137494838Y-58015167D01*
X137636883Y-58358943D01*
X137670000Y-58392118D01*
X137670000Y-60370000D01*
X137727852Y-60660839D01*
X137892599Y-60907401D01*
X140432599Y-63447401D01*
X140679160Y-63612148D01*
X140727414Y-63621746D01*
X140970000Y-63670000D01*
X151130000Y-63670000D01*
X151420839Y-63612148D01*
X151667401Y-63447401D01*
X152937401Y-62177401D01*
X153102148Y-61930840D01*
X153159322Y-61643407D01*
X153450054Y-61449147D01*
X153477850Y-61407548D01*
X153486838Y-61455317D01*
X153625910Y-61671441D01*
X153838110Y-61816431D01*
X154090000Y-61867440D01*
X155790000Y-61867440D01*
X156025317Y-61823162D01*
X156241441Y-61684090D01*
X156386431Y-61471890D01*
X156437440Y-61220000D01*
X156437440Y-59520000D01*
X156393162Y-59284683D01*
X156254090Y-59068559D01*
X156041890Y-58923569D01*
X155790000Y-58872560D01*
X155700000Y-58872560D01*
X155700000Y-50210000D01*
X155642148Y-49919161D01*
X155642148Y-49919160D01*
X155477401Y-49672599D01*
X154207401Y-48402599D01*
X153960839Y-48237852D01*
X153670000Y-48180000D01*
X151890000Y-48180000D01*
X151890000Y-44422463D01*
X151922192Y-44390327D01*
X152064838Y-44046799D01*
X152065162Y-43674833D01*
X151923117Y-43331057D01*
X151660327Y-43067808D01*
X151316799Y-42925162D01*
X150944833Y-42924838D01*
X150601057Y-43066883D01*
X150337808Y-43329673D01*
X150195162Y-43673201D01*
X150194838Y-44045167D01*
X150336883Y-44388943D01*
X150370000Y-44422118D01*
X150370000Y-48625198D01*
X149545198Y-49450000D01*
X148592954Y-49450000D01*
X148399147Y-49159946D01*
X148069974Y-48940000D01*
X148399147Y-48720054D01*
X148721054Y-48238285D01*
X148834093Y-47670000D01*
X148721054Y-47101715D01*
X148399147Y-46619946D01*
X148080000Y-46406699D01*
X148080000Y-45130000D01*
X148022148Y-44839161D01*
X148022148Y-44839160D01*
X147857401Y-44592599D01*
X146587401Y-43322599D01*
X146340839Y-43157852D01*
X146050000Y-43100000D01*
X139700000Y-43100000D01*
X139409161Y-43157852D01*
X139162599Y-43322599D01*
X134357600Y-48127598D01*
X134192853Y-48374160D01*
X134135001Y-48664999D01*
X134135001Y-58177470D01*
X134104698Y-58189991D01*
X133711372Y-58582631D01*
X133631606Y-58774728D01*
X133577398Y-58643858D01*
X133335214Y-58574393D01*
X132534606Y-59375001D01*
X132175396Y-59375001D01*
X131374788Y-58574393D01*
X131132604Y-58643858D01*
X131082492Y-58784319D01*
X131000011Y-58584698D01*
X130810433Y-58394788D01*
X131554393Y-58394788D01*
X132355001Y-59195396D01*
X133155609Y-58394788D01*
X133086144Y-58152604D01*
X132562699Y-57965857D01*
X132007633Y-57993639D01*
X131623858Y-58152604D01*
X131554393Y-58394788D01*
X130810433Y-58394788D01*
X130607371Y-58191372D01*
X130094101Y-57978244D01*
X129538340Y-57977759D01*
X129024698Y-58189991D01*
X128631372Y-58582631D01*
X128545052Y-58790513D01*
X128460011Y-58584698D01*
X128067371Y-58191372D01*
X127554101Y-57978244D01*
X126998340Y-57977759D01*
X126484698Y-58189991D01*
X126091372Y-58582631D01*
X126005052Y-58790513D01*
X125920011Y-58584698D01*
X125527371Y-58191372D01*
X125014101Y-57978244D01*
X124458340Y-57977759D01*
X123944698Y-58189991D01*
X123551372Y-58582631D01*
X123465052Y-58790513D01*
X123380011Y-58584698D01*
X122987371Y-58191372D01*
X122474101Y-57978244D01*
X121918340Y-57977759D01*
X121404698Y-58189991D01*
X121011372Y-58582631D01*
X120925052Y-58790513D01*
X120840011Y-58584698D01*
X120447371Y-58191372D01*
X119934101Y-57978244D01*
X119378340Y-57977759D01*
X118864698Y-58189991D01*
X118471372Y-58582631D01*
X118385052Y-58790513D01*
X118300011Y-58584698D01*
X117907371Y-58191372D01*
X117394101Y-57978244D01*
X116838340Y-57977759D01*
X116324698Y-58189991D01*
X115931372Y-58582631D01*
X115845052Y-58790513D01*
X115760011Y-58584698D01*
X115367371Y-58191372D01*
X114854101Y-57978244D01*
X114298340Y-57977759D01*
X113784698Y-58189991D01*
X113391372Y-58582631D01*
X113305052Y-58790513D01*
X113220011Y-58584698D01*
X112827371Y-58191372D01*
X112314101Y-57978244D01*
X111758340Y-57977759D01*
X111244698Y-58189991D01*
X110851372Y-58582631D01*
X110765052Y-58790513D01*
X110680011Y-58584698D01*
X110287371Y-58191372D01*
X109774101Y-57978244D01*
X109218340Y-57977759D01*
X108704698Y-58189991D01*
X108311372Y-58582631D01*
X108225052Y-58790513D01*
X108140011Y-58584698D01*
X107747371Y-58191372D01*
X107234101Y-57978244D01*
X106678340Y-57977759D01*
X106164698Y-58189991D01*
X105771372Y-58582631D01*
X105685052Y-58790513D01*
X105600011Y-58584698D01*
X105207371Y-58191372D01*
X104694101Y-57978244D01*
X104138340Y-57977759D01*
X103624698Y-58189991D01*
X103231372Y-58582631D01*
X103145052Y-58790513D01*
X103060011Y-58584698D01*
X102667371Y-58191372D01*
X102154101Y-57978244D01*
X101598340Y-57977759D01*
X101084698Y-58189991D01*
X100691372Y-58582631D01*
X100605052Y-58790513D01*
X100520011Y-58584698D01*
X100127371Y-58191372D01*
X99614101Y-57978244D01*
X99058340Y-57977759D01*
X98544698Y-58189991D01*
X98151372Y-58582631D01*
X98065052Y-58790513D01*
X97980011Y-58584698D01*
X97587371Y-58191372D01*
X97074101Y-57978244D01*
X96518340Y-57977759D01*
X96004698Y-58189991D01*
X95611372Y-58582631D01*
X95525052Y-58790513D01*
X95440011Y-58584698D01*
X95047371Y-58191372D01*
X94534101Y-57978244D01*
X93978340Y-57977759D01*
X93464698Y-58189991D01*
X93071372Y-58582631D01*
X92985052Y-58790513D01*
X92900011Y-58584698D01*
X92507371Y-58191372D01*
X91994101Y-57978244D01*
X91438340Y-57977759D01*
X90924698Y-58189991D01*
X90531372Y-58582631D01*
X90445052Y-58790513D01*
X90360011Y-58584698D01*
X89967371Y-58191372D01*
X89454101Y-57978244D01*
X88898340Y-57977759D01*
X88384698Y-58189991D01*
X87991372Y-58582631D01*
X87905052Y-58790513D01*
X87820011Y-58584698D01*
X87427371Y-58191372D01*
X86914101Y-57978244D01*
X86358340Y-57977759D01*
X85844698Y-58189991D01*
X85451372Y-58582631D01*
X85238244Y-59095901D01*
X85237759Y-59651662D01*
X82677000Y-59651662D01*
X82677000Y-44411662D01*
X85237759Y-44411662D01*
X85449991Y-44925304D01*
X85842631Y-45318630D01*
X86355901Y-45531758D01*
X86911662Y-45532243D01*
X87425304Y-45320011D01*
X87818630Y-44927371D01*
X87904950Y-44719489D01*
X87989991Y-44925304D01*
X88382631Y-45318630D01*
X88895901Y-45531758D01*
X89451662Y-45532243D01*
X89965304Y-45320011D01*
X90358630Y-44927371D01*
X90444950Y-44719489D01*
X90529991Y-44925304D01*
X90922631Y-45318630D01*
X91435901Y-45531758D01*
X91991662Y-45532243D01*
X92505304Y-45320011D01*
X92898630Y-44927371D01*
X92984950Y-44719489D01*
X93069991Y-44925304D01*
X93462631Y-45318630D01*
X93975901Y-45531758D01*
X94531662Y-45532243D01*
X95045304Y-45320011D01*
X95438630Y-44927371D01*
X95524950Y-44719489D01*
X95609991Y-44925304D01*
X96002631Y-45318630D01*
X96515901Y-45531758D01*
X97071662Y-45532243D01*
X97585304Y-45320011D01*
X97978630Y-44927371D01*
X98064950Y-44719489D01*
X98149991Y-44925304D01*
X98542631Y-45318630D01*
X99055901Y-45531758D01*
X99611662Y-45532243D01*
X100125304Y-45320011D01*
X100518630Y-44927371D01*
X100604950Y-44719489D01*
X100689991Y-44925304D01*
X101082631Y-45318630D01*
X101595901Y-45531758D01*
X102151662Y-45532243D01*
X102665304Y-45320011D01*
X103058630Y-44927371D01*
X103144950Y-44719489D01*
X103229991Y-44925304D01*
X103622631Y-45318630D01*
X104135901Y-45531758D01*
X104691662Y-45532243D01*
X105205304Y-45320011D01*
X105598630Y-44927371D01*
X105684950Y-44719489D01*
X105769991Y-44925304D01*
X106162631Y-45318630D01*
X106675901Y-45531758D01*
X107023139Y-45532061D01*
X106142599Y-46412601D01*
X105977852Y-46659163D01*
X105920000Y-46950002D01*
X105920000Y-52750000D01*
X105977852Y-53040839D01*
X106142599Y-53287401D01*
X108284878Y-55429680D01*
X108284838Y-55475167D01*
X108426883Y-55818943D01*
X108689673Y-56082192D01*
X109033201Y-56224838D01*
X109405167Y-56225162D01*
X109748943Y-56083117D01*
X110012192Y-55820327D01*
X110154838Y-55476799D01*
X110155162Y-55104833D01*
X110013117Y-54761057D01*
X109750327Y-54497808D01*
X109406799Y-54355162D01*
X109359923Y-54355121D01*
X107440000Y-52435198D01*
X107440000Y-47264804D01*
X109185620Y-45519184D01*
X109215901Y-45531758D01*
X109771662Y-45532243D01*
X110285304Y-45320011D01*
X110678630Y-44927371D01*
X110764950Y-44719489D01*
X110849991Y-44925304D01*
X111242631Y-45318630D01*
X111755901Y-45531758D01*
X112311662Y-45532243D01*
X112825304Y-45320011D01*
X113218630Y-44927371D01*
X113304950Y-44719489D01*
X113389991Y-44925304D01*
X113782631Y-45318630D01*
X114295901Y-45531758D01*
X114851662Y-45532243D01*
X115365304Y-45320011D01*
X115758630Y-44927371D01*
X115844950Y-44719489D01*
X115929991Y-44925304D01*
X116322631Y-45318630D01*
X116835901Y-45531758D01*
X117391662Y-45532243D01*
X117905304Y-45320011D01*
X118298630Y-44927371D01*
X118384950Y-44719489D01*
X118469991Y-44925304D01*
X118862631Y-45318630D01*
X119375901Y-45531758D01*
X119931662Y-45532243D01*
X120445304Y-45320011D01*
X120838630Y-44927371D01*
X120924950Y-44719489D01*
X121009991Y-44925304D01*
X121402631Y-45318630D01*
X121915901Y-45531758D01*
X122471662Y-45532243D01*
X122985304Y-45320011D01*
X123378630Y-44927371D01*
X123464950Y-44719489D01*
X123549991Y-44925304D01*
X123942631Y-45318630D01*
X124455901Y-45531758D01*
X125011662Y-45532243D01*
X125525304Y-45320011D01*
X125918630Y-44927371D01*
X126004950Y-44719489D01*
X126089991Y-44925304D01*
X126482631Y-45318630D01*
X126995901Y-45531758D01*
X127551662Y-45532243D01*
X128065304Y-45320011D01*
X128458630Y-44927371D01*
X128544950Y-44719489D01*
X128629991Y-44925304D01*
X129022631Y-45318630D01*
X129535901Y-45531758D01*
X130091662Y-45532243D01*
X130605304Y-45320011D01*
X130998630Y-44927371D01*
X131084950Y-44719489D01*
X131169991Y-44925304D01*
X131562631Y-45318630D01*
X132075901Y-45531758D01*
X132631662Y-45532243D01*
X133145304Y-45320011D01*
X133538630Y-44927371D01*
X133624950Y-44719489D01*
X133709991Y-44925304D01*
X134102631Y-45318630D01*
X134615901Y-45531758D01*
X135171662Y-45532243D01*
X135685304Y-45320011D01*
X136078630Y-44927371D01*
X136291758Y-44414101D01*
X136292243Y-43858340D01*
X136080011Y-43344698D01*
X135687371Y-42951372D01*
X135174101Y-42738244D01*
X134618340Y-42737759D01*
X134104698Y-42949991D01*
X133711372Y-43342631D01*
X133625052Y-43550513D01*
X133540011Y-43344698D01*
X133147371Y-42951372D01*
X132634101Y-42738244D01*
X132078340Y-42737759D01*
X131564698Y-42949991D01*
X131171372Y-43342631D01*
X131085052Y-43550513D01*
X131000011Y-43344698D01*
X130607371Y-42951372D01*
X130094101Y-42738244D01*
X129538340Y-42737759D01*
X129024698Y-42949991D01*
X128631372Y-43342631D01*
X128545052Y-43550513D01*
X128460011Y-43344698D01*
X128067371Y-42951372D01*
X127554101Y-42738244D01*
X126998340Y-42737759D01*
X126484698Y-42949991D01*
X126091372Y-43342631D01*
X126005052Y-43550513D01*
X125920011Y-43344698D01*
X125527371Y-42951372D01*
X125014101Y-42738244D01*
X124458340Y-42737759D01*
X123944698Y-42949991D01*
X123551372Y-43342631D01*
X123465052Y-43550513D01*
X123380011Y-43344698D01*
X122987371Y-42951372D01*
X122474101Y-42738244D01*
X121918340Y-42737759D01*
X121404698Y-42949991D01*
X121011372Y-43342631D01*
X120925052Y-43550513D01*
X120840011Y-43344698D01*
X120447371Y-42951372D01*
X119934101Y-42738244D01*
X119378340Y-42737759D01*
X118864698Y-42949991D01*
X118471372Y-43342631D01*
X118385052Y-43550513D01*
X118300011Y-43344698D01*
X117907371Y-42951372D01*
X117394101Y-42738244D01*
X116838340Y-42737759D01*
X116324698Y-42949991D01*
X115931372Y-43342631D01*
X115845052Y-43550513D01*
X115760011Y-43344698D01*
X115367371Y-42951372D01*
X114854101Y-42738244D01*
X114298340Y-42737759D01*
X113784698Y-42949991D01*
X113391372Y-43342631D01*
X113305052Y-43550513D01*
X113220011Y-43344698D01*
X112827371Y-42951372D01*
X112314101Y-42738244D01*
X111758340Y-42737759D01*
X111244698Y-42949991D01*
X110851372Y-43342631D01*
X110765052Y-43550513D01*
X110680011Y-43344698D01*
X110287371Y-42951372D01*
X109774101Y-42738244D01*
X109218340Y-42737759D01*
X108704698Y-42949991D01*
X108311372Y-43342631D01*
X108225052Y-43550513D01*
X108140011Y-43344698D01*
X107747371Y-42951372D01*
X107234101Y-42738244D01*
X106678340Y-42737759D01*
X106164698Y-42949991D01*
X105771372Y-43342631D01*
X105685052Y-43550513D01*
X105600011Y-43344698D01*
X105207371Y-42951372D01*
X104694101Y-42738244D01*
X104138340Y-42737759D01*
X103624698Y-42949991D01*
X103231372Y-43342631D01*
X103145052Y-43550513D01*
X103060011Y-43344698D01*
X102667371Y-42951372D01*
X102154101Y-42738244D01*
X101598340Y-42737759D01*
X101084698Y-42949991D01*
X100691372Y-43342631D01*
X100605052Y-43550513D01*
X100520011Y-43344698D01*
X100127371Y-42951372D01*
X99614101Y-42738244D01*
X99058340Y-42737759D01*
X98544698Y-42949991D01*
X98151372Y-43342631D01*
X98065052Y-43550513D01*
X97980011Y-43344698D01*
X97587371Y-42951372D01*
X97074101Y-42738244D01*
X96518340Y-42737759D01*
X96004698Y-42949991D01*
X95611372Y-43342631D01*
X95525052Y-43550513D01*
X95440011Y-43344698D01*
X95047371Y-42951372D01*
X94534101Y-42738244D01*
X93978340Y-42737759D01*
X93464698Y-42949991D01*
X93071372Y-43342631D01*
X92985052Y-43550513D01*
X92900011Y-43344698D01*
X92507371Y-42951372D01*
X91994101Y-42738244D01*
X91438340Y-42737759D01*
X90924698Y-42949991D01*
X90531372Y-43342631D01*
X90445052Y-43550513D01*
X90360011Y-43344698D01*
X89967371Y-42951372D01*
X89454101Y-42738244D01*
X88898340Y-42737759D01*
X88384698Y-42949991D01*
X87991372Y-43342631D01*
X87905052Y-43550513D01*
X87820011Y-43344698D01*
X87427371Y-42951372D01*
X86914101Y-42738244D01*
X86358340Y-42737759D01*
X85844698Y-42949991D01*
X85451372Y-43342631D01*
X85238244Y-43855901D01*
X85237759Y-44411662D01*
X82677000Y-44411662D01*
X82677000Y-37637000D01*
X158623000Y-37637000D01*
X158623000Y-64053000D01*
M02*
