M48
;DRILL file {KiCad 4.0.6} date Sun May 21 14:15:01 2017
;FORMAT={-:-/ absolute / inch / decimal}
FMAT,2
INCH,TZ
T1C0.016
T2C0.039
T3C0.040
%
G90
G05
M72
T1
X4.3Y-2.1768
X4.3Y-3.45
X4.3Y-4.7232
X5.45Y-2.2768
X5.45Y-3.55
X5.45Y-4.8232
X5.55Y-2.0268
X5.55Y-2.1768
X5.55Y-3.3
X5.55Y-3.45
X5.55Y-4.5732
X5.55Y-4.7232
X5.95Y-1.7268
X5.95Y-3.
X5.95Y-4.2732
T2
X5.6Y-2.3768
X5.6Y-3.65
X5.6Y-4.9232
X5.7Y-1.8768
X5.7Y-1.9768
X5.7Y-2.0768
X5.7Y-2.3768
X5.7Y-3.15
X5.7Y-3.25
X5.7Y-3.35
X5.7Y-3.65
X5.7Y-4.4232
X5.7Y-4.5232
X5.7Y-4.6232
X5.7Y-4.9232
X5.8Y-1.8768
X5.8Y-1.9768
X5.8Y-2.0768
X5.8Y-2.3768
X5.8Y-3.15
X5.8Y-3.25
X5.8Y-3.35
X5.8Y-3.65
X5.8Y-4.4232
X5.8Y-4.5232
X5.8Y-4.6232
X5.8Y-4.9232
X5.9Y-2.3768
X5.9Y-3.65
X5.9Y-4.9232
X6.Y-2.3768
X6.Y-3.65
X6.Y-4.9232
X6.1Y-2.3768
X6.1Y-3.65
X6.1Y-4.9232
T3
X3.4108Y-1.7376
X3.4108Y-2.3376
X3.4108Y-3.0108
X3.4108Y-3.6108
X3.4108Y-4.2841
X3.4108Y-4.8841
X3.5108Y-1.7376
X3.5108Y-2.3376
X3.5108Y-3.0108
X3.5108Y-3.6108
X3.5108Y-4.2841
X3.5108Y-4.8841
X3.6108Y-1.7376
X3.6108Y-2.3376
X3.6108Y-3.0108
X3.6108Y-3.6108
X3.6108Y-4.2841
X3.6108Y-4.8841
X3.7108Y-1.7376
X3.7108Y-2.3376
X3.7108Y-3.0108
X3.7108Y-3.6108
X3.7108Y-4.2841
X3.7108Y-4.8841
X3.8108Y-1.7376
X3.8108Y-2.3376
X3.8108Y-3.0108
X3.8108Y-3.6108
X3.8108Y-4.2841
X3.8108Y-4.8841
X3.9108Y-1.7376
X3.9108Y-2.3376
X3.9108Y-3.0108
X3.9108Y-3.6108
X3.9108Y-4.2841
X3.9108Y-4.8841
X4.0108Y-1.7376
X4.0108Y-2.3376
X4.0108Y-3.0108
X4.0108Y-3.6108
X4.0108Y-4.2841
X4.0108Y-4.8841
X4.1108Y-1.7376
X4.1108Y-2.3376
X4.1108Y-3.0108
X4.1108Y-3.6108
X4.1108Y-4.2841
X4.1108Y-4.8841
X4.2108Y-1.7376
X4.2108Y-2.3376
X4.2108Y-3.0108
X4.2108Y-3.6108
X4.2108Y-4.2841
X4.2108Y-4.8841
X4.3108Y-1.7376
X4.3108Y-2.3376
X4.3108Y-3.0108
X4.3108Y-3.6108
X4.3108Y-4.2841
X4.3108Y-4.8841
X4.4108Y-1.7376
X4.4108Y-2.3376
X4.4108Y-3.0108
X4.4108Y-3.6108
X4.4108Y-4.2841
X4.4108Y-4.8841
X4.5108Y-1.7376
X4.5108Y-2.3376
X4.5108Y-3.0108
X4.5108Y-3.6108
X4.5108Y-4.2841
X4.5108Y-4.8841
X4.6108Y-1.7376
X4.6108Y-2.3376
X4.6108Y-3.0108
X4.6108Y-3.6108
X4.6108Y-4.2841
X4.6108Y-4.8841
X4.7108Y-1.7376
X4.7108Y-2.3376
X4.7108Y-3.0108
X4.7108Y-3.6108
X4.7108Y-4.2841
X4.7108Y-4.8841
X4.8108Y-1.7376
X4.8108Y-2.3376
X4.8108Y-3.0108
X4.8108Y-3.6108
X4.8108Y-4.2841
X4.8108Y-4.8841
X4.9108Y-1.7376
X4.9108Y-2.3376
X4.9108Y-3.0108
X4.9108Y-3.6108
X4.9108Y-4.2841
X4.9108Y-4.8841
X5.0108Y-1.7376
X5.0108Y-2.3376
X5.0108Y-3.0108
X5.0108Y-3.6108
X5.0108Y-4.2841
X5.0108Y-4.8841
X5.1108Y-1.7376
X5.1108Y-2.3376
X5.1108Y-3.0108
X5.1108Y-3.6108
X5.1108Y-4.2841
X5.1108Y-4.8841
X5.2108Y-1.7376
X5.2108Y-2.3376
X5.2108Y-3.0108
X5.2108Y-3.6108
X5.2108Y-4.2841
X5.2108Y-4.8841
X5.3108Y-1.7376
X5.3108Y-2.3376
X5.3108Y-3.0108
X5.3108Y-3.6108
X5.3108Y-4.2841
X5.3108Y-4.8841
T0
M30
