G04 #@! TF.FileFunction,Legend,Top*
%FSLAX46Y46*%
G04 Gerber Fmt 4.6, Leading zero omitted, Abs format (unit mm)*
G04 Created by KiCad (PCBNEW 4.0.7-e1-6374~58~ubuntu16.04.1) date Mon Aug  7 21:59:43 2017*
%MOMM*%
%LPD*%
G01*
G04 APERTURE LIST*
%ADD10C,0.100000*%
%ADD11C,0.150000*%
%ADD12C,0.300000*%
%ADD13C,0.200000*%
%ADD14C,0.120000*%
G04 APERTURE END LIST*
D10*
D11*
X161404761Y-138166667D02*
X161880952Y-138166667D01*
X161309523Y-138452381D02*
X161642856Y-137452381D01*
X161976190Y-138452381D01*
X162166666Y-137452381D02*
X162499999Y-138452381D01*
X162833333Y-137452381D01*
X163738095Y-138452381D02*
X163404761Y-137976190D01*
X163166666Y-138452381D02*
X163166666Y-137452381D01*
X163547619Y-137452381D01*
X163642857Y-137500000D01*
X163690476Y-137547619D01*
X163738095Y-137642857D01*
X163738095Y-137785714D01*
X163690476Y-137880952D01*
X163642857Y-137928571D01*
X163547619Y-137976190D01*
X163166666Y-137976190D01*
X164928571Y-138452381D02*
X164928571Y-137452381D01*
X165309524Y-137452381D01*
X165404762Y-137500000D01*
X165452381Y-137547619D01*
X165500000Y-137642857D01*
X165500000Y-137785714D01*
X165452381Y-137880952D01*
X165404762Y-137928571D01*
X165309524Y-137976190D01*
X164928571Y-137976190D01*
X165928571Y-138452381D02*
X165928571Y-137785714D01*
X165928571Y-137976190D02*
X165976190Y-137880952D01*
X166023809Y-137833333D01*
X166119047Y-137785714D01*
X166214286Y-137785714D01*
X166690476Y-138452381D02*
X166595238Y-138404762D01*
X166547619Y-138357143D01*
X166500000Y-138261905D01*
X166500000Y-137976190D01*
X166547619Y-137880952D01*
X166595238Y-137833333D01*
X166690476Y-137785714D01*
X166833334Y-137785714D01*
X166928572Y-137833333D01*
X166976191Y-137880952D01*
X167023810Y-137976190D01*
X167023810Y-138261905D01*
X166976191Y-138357143D01*
X166928572Y-138404762D01*
X166833334Y-138452381D01*
X166690476Y-138452381D01*
X167880953Y-137785714D02*
X167880953Y-138595238D01*
X167833334Y-138690476D01*
X167785715Y-138738095D01*
X167690476Y-138785714D01*
X167547619Y-138785714D01*
X167452381Y-138738095D01*
X167880953Y-138404762D02*
X167785715Y-138452381D01*
X167595238Y-138452381D01*
X167500000Y-138404762D01*
X167452381Y-138357143D01*
X167404762Y-138261905D01*
X167404762Y-137976190D01*
X167452381Y-137880952D01*
X167500000Y-137833333D01*
X167595238Y-137785714D01*
X167785715Y-137785714D01*
X167880953Y-137833333D01*
X168357143Y-138452381D02*
X168357143Y-137785714D01*
X168357143Y-137976190D02*
X168404762Y-137880952D01*
X168452381Y-137833333D01*
X168547619Y-137785714D01*
X168642858Y-137785714D01*
X169404763Y-138452381D02*
X169404763Y-137928571D01*
X169357144Y-137833333D01*
X169261906Y-137785714D01*
X169071429Y-137785714D01*
X168976191Y-137833333D01*
X169404763Y-138404762D02*
X169309525Y-138452381D01*
X169071429Y-138452381D01*
X168976191Y-138404762D01*
X168928572Y-138309524D01*
X168928572Y-138214286D01*
X168976191Y-138119048D01*
X169071429Y-138071429D01*
X169309525Y-138071429D01*
X169404763Y-138023810D01*
X169880953Y-138452381D02*
X169880953Y-137785714D01*
X169880953Y-137880952D02*
X169928572Y-137833333D01*
X170023810Y-137785714D01*
X170166668Y-137785714D01*
X170261906Y-137833333D01*
X170309525Y-137928571D01*
X170309525Y-138452381D01*
X170309525Y-137928571D02*
X170357144Y-137833333D01*
X170452382Y-137785714D01*
X170595239Y-137785714D01*
X170690477Y-137833333D01*
X170738096Y-137928571D01*
X170738096Y-138452381D01*
X171214286Y-138452381D02*
X171214286Y-137785714D01*
X171214286Y-137880952D02*
X171261905Y-137833333D01*
X171357143Y-137785714D01*
X171500001Y-137785714D01*
X171595239Y-137833333D01*
X171642858Y-137928571D01*
X171642858Y-138452381D01*
X171642858Y-137928571D02*
X171690477Y-137833333D01*
X171785715Y-137785714D01*
X171928572Y-137785714D01*
X172023810Y-137833333D01*
X172071429Y-137928571D01*
X172071429Y-138452381D01*
X172928572Y-138404762D02*
X172833334Y-138452381D01*
X172642857Y-138452381D01*
X172547619Y-138404762D01*
X172500000Y-138309524D01*
X172500000Y-137928571D01*
X172547619Y-137833333D01*
X172642857Y-137785714D01*
X172833334Y-137785714D01*
X172928572Y-137833333D01*
X172976191Y-137928571D01*
X172976191Y-138023810D01*
X172500000Y-138119048D01*
X173404762Y-138452381D02*
X173404762Y-137785714D01*
X173404762Y-137976190D02*
X173452381Y-137880952D01*
X173500000Y-137833333D01*
X173595238Y-137785714D01*
X173690477Y-137785714D01*
D10*
X240369047Y-111500000D02*
X240321428Y-111476190D01*
X240250000Y-111476190D01*
X240178571Y-111500000D01*
X240130952Y-111547619D01*
X240107143Y-111595238D01*
X240083333Y-111690476D01*
X240083333Y-111761905D01*
X240107143Y-111857143D01*
X240130952Y-111904762D01*
X240178571Y-111952381D01*
X240250000Y-111976190D01*
X240297619Y-111976190D01*
X240369047Y-111952381D01*
X240392857Y-111928571D01*
X240392857Y-111761905D01*
X240297619Y-111761905D01*
X240607143Y-111976190D02*
X240607143Y-111476190D01*
X240892857Y-111976190D01*
X240892857Y-111476190D01*
X241130953Y-111976190D02*
X241130953Y-111476190D01*
X241250000Y-111476190D01*
X241321429Y-111500000D01*
X241369048Y-111547619D01*
X241392857Y-111595238D01*
X241416667Y-111690476D01*
X241416667Y-111761905D01*
X241392857Y-111857143D01*
X241369048Y-111904762D01*
X241321429Y-111952381D01*
X241250000Y-111976190D01*
X241130953Y-111976190D01*
X240904763Y-113476190D02*
X240666668Y-113476190D01*
X240642858Y-113714286D01*
X240666668Y-113690476D01*
X240714287Y-113666667D01*
X240833334Y-113666667D01*
X240880953Y-113690476D01*
X240904763Y-113714286D01*
X240928572Y-113761905D01*
X240928572Y-113880952D01*
X240904763Y-113928571D01*
X240880953Y-113952381D01*
X240833334Y-113976190D01*
X240714287Y-113976190D01*
X240666668Y-113952381D01*
X240642858Y-113928571D01*
X241071429Y-113476190D02*
X241238096Y-113976190D01*
X241404762Y-113476190D01*
X240726191Y-115976190D02*
X240559524Y-115738095D01*
X240440477Y-115976190D02*
X240440477Y-115476190D01*
X240630953Y-115476190D01*
X240678572Y-115500000D01*
X240702381Y-115523810D01*
X240726191Y-115571429D01*
X240726191Y-115642857D01*
X240702381Y-115690476D01*
X240678572Y-115714286D01*
X240630953Y-115738095D01*
X240440477Y-115738095D01*
X240916667Y-115952381D02*
X240988096Y-115976190D01*
X241107143Y-115976190D01*
X241154762Y-115952381D01*
X241178572Y-115928571D01*
X241202381Y-115880952D01*
X241202381Y-115833333D01*
X241178572Y-115785714D01*
X241154762Y-115761905D01*
X241107143Y-115738095D01*
X241011905Y-115714286D01*
X240964286Y-115690476D01*
X240940477Y-115666667D01*
X240916667Y-115619048D01*
X240916667Y-115571429D01*
X240940477Y-115523810D01*
X240964286Y-115500000D01*
X241011905Y-115476190D01*
X241130953Y-115476190D01*
X241202381Y-115500000D01*
X241345238Y-115476190D02*
X241630952Y-115476190D01*
X241488095Y-115976190D02*
X241488095Y-115476190D01*
X240357143Y-118452381D02*
X240428572Y-118476190D01*
X240547619Y-118476190D01*
X240595238Y-118452381D01*
X240619048Y-118428571D01*
X240642857Y-118380952D01*
X240642857Y-118333333D01*
X240619048Y-118285714D01*
X240595238Y-118261905D01*
X240547619Y-118238095D01*
X240452381Y-118214286D01*
X240404762Y-118190476D01*
X240380953Y-118166667D01*
X240357143Y-118119048D01*
X240357143Y-118071429D01*
X240380953Y-118023810D01*
X240404762Y-118000000D01*
X240452381Y-117976190D01*
X240571429Y-117976190D01*
X240642857Y-118000000D01*
X241142857Y-118428571D02*
X241119047Y-118452381D01*
X241047619Y-118476190D01*
X241000000Y-118476190D01*
X240928571Y-118452381D01*
X240880952Y-118404762D01*
X240857143Y-118357143D01*
X240833333Y-118261905D01*
X240833333Y-118190476D01*
X240857143Y-118095238D01*
X240880952Y-118047619D01*
X240928571Y-118000000D01*
X241000000Y-117976190D01*
X241047619Y-117976190D01*
X241119047Y-118000000D01*
X241142857Y-118023810D01*
X241357143Y-118476190D02*
X241357143Y-117976190D01*
X241642857Y-118476190D02*
X241428571Y-118190476D01*
X241642857Y-117976190D02*
X241357143Y-118261905D01*
X240214286Y-119976190D02*
X240214286Y-119476190D01*
X240380952Y-119833333D01*
X240547619Y-119476190D01*
X240547619Y-119976190D01*
X240785715Y-119976190D02*
X240785715Y-119476190D01*
X241000000Y-119952381D02*
X241071429Y-119976190D01*
X241190476Y-119976190D01*
X241238095Y-119952381D01*
X241261905Y-119928571D01*
X241285714Y-119880952D01*
X241285714Y-119833333D01*
X241261905Y-119785714D01*
X241238095Y-119761905D01*
X241190476Y-119738095D01*
X241095238Y-119714286D01*
X241047619Y-119690476D01*
X241023810Y-119666667D01*
X241000000Y-119619048D01*
X241000000Y-119571429D01*
X241023810Y-119523810D01*
X241047619Y-119500000D01*
X241095238Y-119476190D01*
X241214286Y-119476190D01*
X241285714Y-119500000D01*
X241595238Y-119476190D02*
X241690476Y-119476190D01*
X241738095Y-119500000D01*
X241785714Y-119547619D01*
X241809523Y-119642857D01*
X241809523Y-119809524D01*
X241785714Y-119904762D01*
X241738095Y-119952381D01*
X241690476Y-119976190D01*
X241595238Y-119976190D01*
X241547619Y-119952381D01*
X241500000Y-119904762D01*
X241476190Y-119809524D01*
X241476190Y-119642857D01*
X241500000Y-119547619D01*
X241547619Y-119500000D01*
X241595238Y-119476190D01*
X240214286Y-122476190D02*
X240214286Y-121976190D01*
X240380952Y-122333333D01*
X240547619Y-121976190D01*
X240547619Y-122476190D01*
X240880953Y-121976190D02*
X240976191Y-121976190D01*
X241023810Y-122000000D01*
X241071429Y-122047619D01*
X241095238Y-122142857D01*
X241095238Y-122309524D01*
X241071429Y-122404762D01*
X241023810Y-122452381D01*
X240976191Y-122476190D01*
X240880953Y-122476190D01*
X240833334Y-122452381D01*
X240785715Y-122404762D01*
X240761905Y-122309524D01*
X240761905Y-122142857D01*
X240785715Y-122047619D01*
X240833334Y-122000000D01*
X240880953Y-121976190D01*
X241285715Y-122452381D02*
X241357144Y-122476190D01*
X241476191Y-122476190D01*
X241523810Y-122452381D01*
X241547620Y-122428571D01*
X241571429Y-122380952D01*
X241571429Y-122333333D01*
X241547620Y-122285714D01*
X241523810Y-122261905D01*
X241476191Y-122238095D01*
X241380953Y-122214286D01*
X241333334Y-122190476D01*
X241309525Y-122166667D01*
X241285715Y-122119048D01*
X241285715Y-122071429D01*
X241309525Y-122023810D01*
X241333334Y-122000000D01*
X241380953Y-121976190D01*
X241500001Y-121976190D01*
X241571429Y-122000000D01*
X241785715Y-122476190D02*
X241785715Y-121976190D01*
D12*
X190107144Y-137392857D02*
X189607144Y-137392857D01*
X189607144Y-138178571D02*
X189607144Y-136678571D01*
X190321430Y-136678571D01*
X190821429Y-137750000D02*
X191535715Y-137750000D01*
X190678572Y-138178571D02*
X191178572Y-136678571D01*
X191678572Y-138178571D01*
X192107143Y-138107143D02*
X192321429Y-138178571D01*
X192678572Y-138178571D01*
X192821429Y-138107143D01*
X192892858Y-138035714D01*
X192964286Y-137892857D01*
X192964286Y-137750000D01*
X192892858Y-137607143D01*
X192821429Y-137535714D01*
X192678572Y-137464286D01*
X192392858Y-137392857D01*
X192250000Y-137321429D01*
X192178572Y-137250000D01*
X192107143Y-137107143D01*
X192107143Y-136964286D01*
X192178572Y-136821429D01*
X192250000Y-136750000D01*
X192392858Y-136678571D01*
X192750000Y-136678571D01*
X192964286Y-136750000D01*
X193392857Y-136678571D02*
X194250000Y-136678571D01*
X193821429Y-138178571D02*
X193821429Y-136678571D01*
X194750000Y-136678571D02*
X194750000Y-137892857D01*
X194821428Y-138035714D01*
X194892857Y-138107143D01*
X195035714Y-138178571D01*
X195321428Y-138178571D01*
X195464286Y-138107143D01*
X195535714Y-138035714D01*
X195607143Y-137892857D01*
X195607143Y-136678571D01*
X196250000Y-138107143D02*
X196464286Y-138178571D01*
X196821429Y-138178571D01*
X196964286Y-138107143D01*
X197035715Y-138035714D01*
X197107143Y-137892857D01*
X197107143Y-137750000D01*
X197035715Y-137607143D01*
X196964286Y-137535714D01*
X196821429Y-137464286D01*
X196535715Y-137392857D01*
X196392857Y-137321429D01*
X196321429Y-137250000D01*
X196250000Y-137107143D01*
X196250000Y-136964286D01*
X196321429Y-136821429D01*
X196392857Y-136750000D01*
X196535715Y-136678571D01*
X196892857Y-136678571D01*
X197107143Y-136750000D01*
X198250000Y-137392857D02*
X198464286Y-137464286D01*
X198535714Y-137535714D01*
X198607143Y-137678571D01*
X198607143Y-137892857D01*
X198535714Y-138035714D01*
X198464286Y-138107143D01*
X198321428Y-138178571D01*
X197750000Y-138178571D01*
X197750000Y-136678571D01*
X198250000Y-136678571D01*
X198392857Y-136750000D01*
X198464286Y-136821429D01*
X198535714Y-136964286D01*
X198535714Y-137107143D01*
X198464286Y-137250000D01*
X198392857Y-137321429D01*
X198250000Y-137392857D01*
X197750000Y-137392857D01*
X199892857Y-138178571D02*
X199892857Y-137392857D01*
X199821428Y-137250000D01*
X199678571Y-137178571D01*
X199392857Y-137178571D01*
X199250000Y-137250000D01*
X199892857Y-138107143D02*
X199750000Y-138178571D01*
X199392857Y-138178571D01*
X199250000Y-138107143D01*
X199178571Y-137964286D01*
X199178571Y-137821429D01*
X199250000Y-137678571D01*
X199392857Y-137607143D01*
X199750000Y-137607143D01*
X199892857Y-137535714D01*
X200535714Y-138107143D02*
X200678571Y-138178571D01*
X200964286Y-138178571D01*
X201107143Y-138107143D01*
X201178571Y-137964286D01*
X201178571Y-137892857D01*
X201107143Y-137750000D01*
X200964286Y-137678571D01*
X200750000Y-137678571D01*
X200607143Y-137607143D01*
X200535714Y-137464286D01*
X200535714Y-137392857D01*
X200607143Y-137250000D01*
X200750000Y-137178571D01*
X200964286Y-137178571D01*
X201107143Y-137250000D01*
X201821429Y-137178571D02*
X201821429Y-138678571D01*
X201821429Y-137250000D02*
X201964286Y-137178571D01*
X202250000Y-137178571D01*
X202392857Y-137250000D01*
X202464286Y-137321429D01*
X202535715Y-137464286D01*
X202535715Y-137892857D01*
X202464286Y-138035714D01*
X202392857Y-138107143D01*
X202250000Y-138178571D01*
X201964286Y-138178571D01*
X201821429Y-138107143D01*
X204250000Y-137750000D02*
X204964286Y-137750000D01*
X204107143Y-138178571D02*
X204607143Y-136678571D01*
X205107143Y-138178571D01*
X206250000Y-138178571D02*
X206250000Y-136678571D01*
X206250000Y-138107143D02*
X206107143Y-138178571D01*
X205821429Y-138178571D01*
X205678571Y-138107143D01*
X205607143Y-138035714D01*
X205535714Y-137892857D01*
X205535714Y-137464286D01*
X205607143Y-137321429D01*
X205678571Y-137250000D01*
X205821429Y-137178571D01*
X206107143Y-137178571D01*
X206250000Y-137250000D01*
X207607143Y-138178571D02*
X207607143Y-137392857D01*
X207535714Y-137250000D01*
X207392857Y-137178571D01*
X207107143Y-137178571D01*
X206964286Y-137250000D01*
X207607143Y-138107143D02*
X207464286Y-138178571D01*
X207107143Y-138178571D01*
X206964286Y-138107143D01*
X206892857Y-137964286D01*
X206892857Y-137821429D01*
X206964286Y-137678571D01*
X207107143Y-137607143D01*
X207464286Y-137607143D01*
X207607143Y-137535714D01*
X208321429Y-137178571D02*
X208321429Y-138678571D01*
X208321429Y-137250000D02*
X208464286Y-137178571D01*
X208750000Y-137178571D01*
X208892857Y-137250000D01*
X208964286Y-137321429D01*
X209035715Y-137464286D01*
X209035715Y-137892857D01*
X208964286Y-138035714D01*
X208892857Y-138107143D01*
X208750000Y-138178571D01*
X208464286Y-138178571D01*
X208321429Y-138107143D01*
X209464286Y-137178571D02*
X210035715Y-137178571D01*
X209678572Y-136678571D02*
X209678572Y-137964286D01*
X209750000Y-138107143D01*
X209892858Y-138178571D01*
X210035715Y-138178571D01*
X211107143Y-138107143D02*
X210964286Y-138178571D01*
X210678572Y-138178571D01*
X210535715Y-138107143D01*
X210464286Y-137964286D01*
X210464286Y-137392857D01*
X210535715Y-137250000D01*
X210678572Y-137178571D01*
X210964286Y-137178571D01*
X211107143Y-137250000D01*
X211178572Y-137392857D01*
X211178572Y-137535714D01*
X210464286Y-137678571D01*
X211821429Y-138178571D02*
X211821429Y-137178571D01*
X211821429Y-137464286D02*
X211892857Y-137321429D01*
X211964286Y-137250000D01*
X212107143Y-137178571D01*
X212250000Y-137178571D01*
X213892857Y-138178571D02*
X213892857Y-136678571D01*
X213892857Y-137250000D02*
X214035714Y-137178571D01*
X214321428Y-137178571D01*
X214464285Y-137250000D01*
X214535714Y-137321429D01*
X214607143Y-137464286D01*
X214607143Y-137892857D01*
X214535714Y-138035714D01*
X214464285Y-138107143D01*
X214321428Y-138178571D01*
X214035714Y-138178571D01*
X213892857Y-138107143D01*
X215464286Y-138178571D02*
X215321428Y-138107143D01*
X215250000Y-138035714D01*
X215178571Y-137892857D01*
X215178571Y-137464286D01*
X215250000Y-137321429D01*
X215321428Y-137250000D01*
X215464286Y-137178571D01*
X215678571Y-137178571D01*
X215821428Y-137250000D01*
X215892857Y-137321429D01*
X215964286Y-137464286D01*
X215964286Y-137892857D01*
X215892857Y-138035714D01*
X215821428Y-138107143D01*
X215678571Y-138178571D01*
X215464286Y-138178571D01*
X217250000Y-138178571D02*
X217250000Y-137392857D01*
X217178571Y-137250000D01*
X217035714Y-137178571D01*
X216750000Y-137178571D01*
X216607143Y-137250000D01*
X217250000Y-138107143D02*
X217107143Y-138178571D01*
X216750000Y-138178571D01*
X216607143Y-138107143D01*
X216535714Y-137964286D01*
X216535714Y-137821429D01*
X216607143Y-137678571D01*
X216750000Y-137607143D01*
X217107143Y-137607143D01*
X217250000Y-137535714D01*
X217964286Y-138178571D02*
X217964286Y-137178571D01*
X217964286Y-137464286D02*
X218035714Y-137321429D01*
X218107143Y-137250000D01*
X218250000Y-137178571D01*
X218392857Y-137178571D01*
X219535714Y-138178571D02*
X219535714Y-136678571D01*
X219535714Y-138107143D02*
X219392857Y-138178571D01*
X219107143Y-138178571D01*
X218964285Y-138107143D01*
X218892857Y-138035714D01*
X218821428Y-137892857D01*
X218821428Y-137464286D01*
X218892857Y-137321429D01*
X218964285Y-137250000D01*
X219107143Y-137178571D01*
X219392857Y-137178571D01*
X219535714Y-137250000D01*
X221250000Y-137178571D02*
X221607143Y-138178571D01*
X221964285Y-137178571D01*
X222821428Y-136678571D02*
X222964285Y-136678571D01*
X223107142Y-136750000D01*
X223178571Y-136821429D01*
X223250000Y-136964286D01*
X223321428Y-137250000D01*
X223321428Y-137607143D01*
X223250000Y-137892857D01*
X223178571Y-138035714D01*
X223107142Y-138107143D01*
X222964285Y-138178571D01*
X222821428Y-138178571D01*
X222678571Y-138107143D01*
X222607142Y-138035714D01*
X222535714Y-137892857D01*
X222464285Y-137607143D01*
X222464285Y-137250000D01*
X222535714Y-136964286D01*
X222607142Y-136821429D01*
X222678571Y-136750000D01*
X222821428Y-136678571D01*
X223964285Y-138035714D02*
X224035713Y-138107143D01*
X223964285Y-138178571D01*
X223892856Y-138107143D01*
X223964285Y-138035714D01*
X223964285Y-138178571D01*
X225464285Y-138178571D02*
X224607142Y-138178571D01*
X225035714Y-138178571D02*
X225035714Y-136678571D01*
X224892857Y-136892857D01*
X224749999Y-137035714D01*
X224607142Y-137107143D01*
D13*
X214035714Y-97702381D02*
X214035714Y-97035714D01*
X214035714Y-97130952D02*
X214083333Y-97083333D01*
X214178571Y-97035714D01*
X214321429Y-97035714D01*
X214416667Y-97083333D01*
X214464286Y-97178571D01*
X214464286Y-97702381D01*
X214464286Y-97178571D02*
X214511905Y-97083333D01*
X214607143Y-97035714D01*
X214750000Y-97035714D01*
X214845238Y-97083333D01*
X214892857Y-97178571D01*
X214892857Y-97702381D01*
X215797619Y-97702381D02*
X215797619Y-97178571D01*
X215750000Y-97083333D01*
X215654762Y-97035714D01*
X215464285Y-97035714D01*
X215369047Y-97083333D01*
X215797619Y-97654762D02*
X215702381Y-97702381D01*
X215464285Y-97702381D01*
X215369047Y-97654762D01*
X215321428Y-97559524D01*
X215321428Y-97464286D01*
X215369047Y-97369048D01*
X215464285Y-97321429D01*
X215702381Y-97321429D01*
X215797619Y-97273810D01*
X216702381Y-97702381D02*
X216702381Y-96702381D01*
X216702381Y-97654762D02*
X216607143Y-97702381D01*
X216416666Y-97702381D01*
X216321428Y-97654762D01*
X216273809Y-97607143D01*
X216226190Y-97511905D01*
X216226190Y-97226190D01*
X216273809Y-97130952D01*
X216321428Y-97083333D01*
X216416666Y-97035714D01*
X216607143Y-97035714D01*
X216702381Y-97083333D01*
X217559524Y-97654762D02*
X217464286Y-97702381D01*
X217273809Y-97702381D01*
X217178571Y-97654762D01*
X217130952Y-97559524D01*
X217130952Y-97178571D01*
X217178571Y-97083333D01*
X217273809Y-97035714D01*
X217464286Y-97035714D01*
X217559524Y-97083333D01*
X217607143Y-97178571D01*
X217607143Y-97273810D01*
X217130952Y-97369048D01*
X218797619Y-97702381D02*
X218797619Y-96702381D01*
X218797619Y-97083333D02*
X218892857Y-97035714D01*
X219083334Y-97035714D01*
X219178572Y-97083333D01*
X219226191Y-97130952D01*
X219273810Y-97226190D01*
X219273810Y-97511905D01*
X219226191Y-97607143D01*
X219178572Y-97654762D01*
X219083334Y-97702381D01*
X218892857Y-97702381D01*
X218797619Y-97654762D01*
X219607143Y-97035714D02*
X219845238Y-97702381D01*
X220083334Y-97035714D02*
X219845238Y-97702381D01*
X219750000Y-97940476D01*
X219702381Y-97988095D01*
X219607143Y-98035714D01*
X221654763Y-97702381D02*
X221654763Y-97178571D01*
X221607144Y-97083333D01*
X221511906Y-97035714D01*
X221321429Y-97035714D01*
X221226191Y-97083333D01*
X221654763Y-97654762D02*
X221559525Y-97702381D01*
X221321429Y-97702381D01*
X221226191Y-97654762D01*
X221178572Y-97559524D01*
X221178572Y-97464286D01*
X221226191Y-97369048D01*
X221321429Y-97321429D01*
X221559525Y-97321429D01*
X221654763Y-97273810D01*
X222130953Y-97702381D02*
X222130953Y-97035714D01*
X222130953Y-97130952D02*
X222178572Y-97083333D01*
X222273810Y-97035714D01*
X222416668Y-97035714D01*
X222511906Y-97083333D01*
X222559525Y-97178571D01*
X222559525Y-97702381D01*
X222559525Y-97178571D02*
X222607144Y-97083333D01*
X222702382Y-97035714D01*
X222845239Y-97035714D01*
X222940477Y-97083333D01*
X222988096Y-97178571D01*
X222988096Y-97702381D01*
X223464286Y-97702381D02*
X223464286Y-97035714D01*
X223464286Y-96702381D02*
X223416667Y-96750000D01*
X223464286Y-96797619D01*
X223511905Y-96750000D01*
X223464286Y-96702381D01*
X223464286Y-96797619D01*
D10*
X223750000Y-123630953D02*
X223726190Y-123678572D01*
X223726190Y-123750000D01*
X223750000Y-123821429D01*
X223797619Y-123869048D01*
X223845238Y-123892857D01*
X223940476Y-123916667D01*
X224011905Y-123916667D01*
X224107143Y-123892857D01*
X224154762Y-123869048D01*
X224202381Y-123821429D01*
X224226190Y-123750000D01*
X224226190Y-123702381D01*
X224202381Y-123630953D01*
X224178571Y-123607143D01*
X224011905Y-123607143D01*
X224011905Y-123702381D01*
X224226190Y-123392857D02*
X223726190Y-123392857D01*
X224226190Y-123107143D01*
X223726190Y-123107143D01*
X224226190Y-122869047D02*
X223726190Y-122869047D01*
X223726190Y-122750000D01*
X223750000Y-122678571D01*
X223797619Y-122630952D01*
X223845238Y-122607143D01*
X223940476Y-122583333D01*
X224011905Y-122583333D01*
X224107143Y-122607143D01*
X224154762Y-122630952D01*
X224202381Y-122678571D01*
X224226190Y-122750000D01*
X224226190Y-122869047D01*
X225726190Y-123988094D02*
X225726190Y-123678571D01*
X225916667Y-123845237D01*
X225916667Y-123773809D01*
X225940476Y-123726190D01*
X225964286Y-123702380D01*
X226011905Y-123678571D01*
X226130952Y-123678571D01*
X226178571Y-123702380D01*
X226202381Y-123726190D01*
X226226190Y-123773809D01*
X226226190Y-123916666D01*
X226202381Y-123964285D01*
X226178571Y-123988094D01*
X226178571Y-123464285D02*
X226202381Y-123440476D01*
X226226190Y-123464285D01*
X226202381Y-123488095D01*
X226178571Y-123464285D01*
X226226190Y-123464285D01*
X225726190Y-123273809D02*
X225726190Y-122964286D01*
X225916667Y-123130952D01*
X225916667Y-123059524D01*
X225940476Y-123011905D01*
X225964286Y-122988095D01*
X226011905Y-122964286D01*
X226130952Y-122964286D01*
X226178571Y-122988095D01*
X226202381Y-123011905D01*
X226226190Y-123059524D01*
X226226190Y-123202381D01*
X226202381Y-123250000D01*
X226178571Y-123273809D01*
X225726190Y-122821429D02*
X226226190Y-122654762D01*
X225726190Y-122488096D01*
X228976190Y-123523809D02*
X228738095Y-123690476D01*
X228976190Y-123809523D02*
X228476190Y-123809523D01*
X228476190Y-123619047D01*
X228500000Y-123571428D01*
X228523810Y-123547619D01*
X228571429Y-123523809D01*
X228642857Y-123523809D01*
X228690476Y-123547619D01*
X228714286Y-123571428D01*
X228738095Y-123619047D01*
X228738095Y-123809523D01*
X228952381Y-123333333D02*
X228976190Y-123261904D01*
X228976190Y-123142857D01*
X228952381Y-123095238D01*
X228928571Y-123071428D01*
X228880952Y-123047619D01*
X228833333Y-123047619D01*
X228785714Y-123071428D01*
X228761905Y-123095238D01*
X228738095Y-123142857D01*
X228714286Y-123238095D01*
X228690476Y-123285714D01*
X228666667Y-123309523D01*
X228619048Y-123333333D01*
X228571429Y-123333333D01*
X228523810Y-123309523D01*
X228500000Y-123285714D01*
X228476190Y-123238095D01*
X228476190Y-123119047D01*
X228500000Y-123047619D01*
X228476190Y-122904762D02*
X228476190Y-122619048D01*
X228976190Y-122761905D02*
X228476190Y-122761905D01*
X231952381Y-123892857D02*
X231976190Y-123821428D01*
X231976190Y-123702381D01*
X231952381Y-123654762D01*
X231928571Y-123630952D01*
X231880952Y-123607143D01*
X231833333Y-123607143D01*
X231785714Y-123630952D01*
X231761905Y-123654762D01*
X231738095Y-123702381D01*
X231714286Y-123797619D01*
X231690476Y-123845238D01*
X231666667Y-123869047D01*
X231619048Y-123892857D01*
X231571429Y-123892857D01*
X231523810Y-123869047D01*
X231500000Y-123845238D01*
X231476190Y-123797619D01*
X231476190Y-123678571D01*
X231500000Y-123607143D01*
X231928571Y-123107143D02*
X231952381Y-123130953D01*
X231976190Y-123202381D01*
X231976190Y-123250000D01*
X231952381Y-123321429D01*
X231904762Y-123369048D01*
X231857143Y-123392857D01*
X231761905Y-123416667D01*
X231690476Y-123416667D01*
X231595238Y-123392857D01*
X231547619Y-123369048D01*
X231500000Y-123321429D01*
X231476190Y-123250000D01*
X231476190Y-123202381D01*
X231500000Y-123130953D01*
X231523810Y-123107143D01*
X231976190Y-122892857D02*
X231476190Y-122892857D01*
X231976190Y-122607143D02*
X231690476Y-122821429D01*
X231476190Y-122607143D02*
X231761905Y-122892857D01*
X233976190Y-124035714D02*
X233476190Y-124035714D01*
X233833333Y-123869048D01*
X233476190Y-123702381D01*
X233976190Y-123702381D01*
X233976190Y-123464285D02*
X233476190Y-123464285D01*
X233952381Y-123250000D02*
X233976190Y-123178571D01*
X233976190Y-123059524D01*
X233952381Y-123011905D01*
X233928571Y-122988095D01*
X233880952Y-122964286D01*
X233833333Y-122964286D01*
X233785714Y-122988095D01*
X233761905Y-123011905D01*
X233738095Y-123059524D01*
X233714286Y-123154762D01*
X233690476Y-123202381D01*
X233666667Y-123226190D01*
X233619048Y-123250000D01*
X233571429Y-123250000D01*
X233523810Y-123226190D01*
X233500000Y-123202381D01*
X233476190Y-123154762D01*
X233476190Y-123035714D01*
X233500000Y-122964286D01*
X233476190Y-122654762D02*
X233476190Y-122559524D01*
X233500000Y-122511905D01*
X233547619Y-122464286D01*
X233642857Y-122440477D01*
X233809524Y-122440477D01*
X233904762Y-122464286D01*
X233952381Y-122511905D01*
X233976190Y-122559524D01*
X233976190Y-122654762D01*
X233952381Y-122702381D01*
X233904762Y-122750000D01*
X233809524Y-122773810D01*
X233642857Y-122773810D01*
X233547619Y-122750000D01*
X233500000Y-122702381D01*
X233476190Y-122654762D01*
X237226190Y-123785714D02*
X236726190Y-123785714D01*
X237083333Y-123619048D01*
X236726190Y-123452381D01*
X237226190Y-123452381D01*
X236726190Y-123119047D02*
X236726190Y-123023809D01*
X236750000Y-122976190D01*
X236797619Y-122928571D01*
X236892857Y-122904762D01*
X237059524Y-122904762D01*
X237154762Y-122928571D01*
X237202381Y-122976190D01*
X237226190Y-123023809D01*
X237226190Y-123119047D01*
X237202381Y-123166666D01*
X237154762Y-123214285D01*
X237059524Y-123238095D01*
X236892857Y-123238095D01*
X236797619Y-123214285D01*
X236750000Y-123166666D01*
X236726190Y-123119047D01*
X237202381Y-122714285D02*
X237226190Y-122642856D01*
X237226190Y-122523809D01*
X237202381Y-122476190D01*
X237178571Y-122452380D01*
X237130952Y-122428571D01*
X237083333Y-122428571D01*
X237035714Y-122452380D01*
X237011905Y-122476190D01*
X236988095Y-122523809D01*
X236964286Y-122619047D01*
X236940476Y-122666666D01*
X236916667Y-122690475D01*
X236869048Y-122714285D01*
X236821429Y-122714285D01*
X236773810Y-122690475D01*
X236750000Y-122666666D01*
X236726190Y-122619047D01*
X236726190Y-122499999D01*
X236750000Y-122428571D01*
X237226190Y-122214285D02*
X236726190Y-122214285D01*
X230869047Y-117750000D02*
X230821428Y-117726190D01*
X230750000Y-117726190D01*
X230678571Y-117750000D01*
X230630952Y-117797619D01*
X230607143Y-117845238D01*
X230583333Y-117940476D01*
X230583333Y-118011905D01*
X230607143Y-118107143D01*
X230630952Y-118154762D01*
X230678571Y-118202381D01*
X230750000Y-118226190D01*
X230797619Y-118226190D01*
X230869047Y-118202381D01*
X230892857Y-118178571D01*
X230892857Y-118011905D01*
X230797619Y-118011905D01*
X231107143Y-118226190D02*
X231107143Y-117726190D01*
X231392857Y-118226190D01*
X231392857Y-117726190D01*
X231630953Y-118226190D02*
X231630953Y-117726190D01*
X231750000Y-117726190D01*
X231821429Y-117750000D01*
X231869048Y-117797619D01*
X231892857Y-117845238D01*
X231916667Y-117940476D01*
X231916667Y-118011905D01*
X231892857Y-118107143D01*
X231869048Y-118154762D01*
X231821429Y-118202381D01*
X231750000Y-118226190D01*
X231630953Y-118226190D01*
X230726190Y-115285714D02*
X230226190Y-115285714D01*
X230583333Y-115119048D01*
X230226190Y-114952381D01*
X230726190Y-114952381D01*
X230226190Y-114619047D02*
X230226190Y-114523809D01*
X230250000Y-114476190D01*
X230297619Y-114428571D01*
X230392857Y-114404762D01*
X230559524Y-114404762D01*
X230654762Y-114428571D01*
X230702381Y-114476190D01*
X230726190Y-114523809D01*
X230726190Y-114619047D01*
X230702381Y-114666666D01*
X230654762Y-114714285D01*
X230559524Y-114738095D01*
X230392857Y-114738095D01*
X230297619Y-114714285D01*
X230250000Y-114666666D01*
X230226190Y-114619047D01*
X230702381Y-114214285D02*
X230726190Y-114142856D01*
X230726190Y-114023809D01*
X230702381Y-113976190D01*
X230678571Y-113952380D01*
X230630952Y-113928571D01*
X230583333Y-113928571D01*
X230535714Y-113952380D01*
X230511905Y-113976190D01*
X230488095Y-114023809D01*
X230464286Y-114119047D01*
X230440476Y-114166666D01*
X230416667Y-114190475D01*
X230369048Y-114214285D01*
X230321429Y-114214285D01*
X230273810Y-114190475D01*
X230250000Y-114166666D01*
X230226190Y-114119047D01*
X230226190Y-113999999D01*
X230250000Y-113928571D01*
X230726190Y-113714285D02*
X230226190Y-113714285D01*
X230761906Y-112726190D02*
X231071429Y-112726190D01*
X230904763Y-112916667D01*
X230976191Y-112916667D01*
X231023810Y-112940476D01*
X231047620Y-112964286D01*
X231071429Y-113011905D01*
X231071429Y-113130952D01*
X231047620Y-113178571D01*
X231023810Y-113202381D01*
X230976191Y-113226190D01*
X230833334Y-113226190D01*
X230785715Y-113202381D01*
X230761906Y-113178571D01*
X231285715Y-113178571D02*
X231309524Y-113202381D01*
X231285715Y-113226190D01*
X231261905Y-113202381D01*
X231285715Y-113178571D01*
X231285715Y-113226190D01*
X231476191Y-112726190D02*
X231785714Y-112726190D01*
X231619048Y-112916667D01*
X231690476Y-112916667D01*
X231738095Y-112940476D01*
X231761905Y-112964286D01*
X231785714Y-113011905D01*
X231785714Y-113130952D01*
X231761905Y-113178571D01*
X231738095Y-113202381D01*
X231690476Y-113226190D01*
X231547619Y-113226190D01*
X231500000Y-113202381D01*
X231476191Y-113178571D01*
X231928571Y-112726190D02*
X232095238Y-113226190D01*
X232261904Y-112726190D01*
X237942381Y-119609524D02*
X236942381Y-119609524D01*
X237894762Y-119180953D02*
X237942381Y-119038096D01*
X237942381Y-118800000D01*
X237894762Y-118704762D01*
X237847143Y-118657143D01*
X237751905Y-118609524D01*
X237656667Y-118609524D01*
X237561429Y-118657143D01*
X237513810Y-118704762D01*
X237466190Y-118800000D01*
X237418571Y-118990477D01*
X237370952Y-119085715D01*
X237323333Y-119133334D01*
X237228095Y-119180953D01*
X237132857Y-119180953D01*
X237037619Y-119133334D01*
X236990000Y-119085715D01*
X236942381Y-118990477D01*
X236942381Y-118752381D01*
X236990000Y-118609524D01*
X237942381Y-118180953D02*
X236942381Y-118180953D01*
X236942381Y-117800000D01*
X236990000Y-117704762D01*
X237037619Y-117657143D01*
X237132857Y-117609524D01*
X237275714Y-117609524D01*
X237370952Y-117657143D01*
X237418571Y-117704762D01*
X237466190Y-117800000D01*
X237466190Y-118180953D01*
X237561429Y-117180953D02*
X237561429Y-116419048D01*
X236942381Y-115514286D02*
X236942381Y-115704763D01*
X236990000Y-115800001D01*
X237037619Y-115847620D01*
X237180476Y-115942858D01*
X237370952Y-115990477D01*
X237751905Y-115990477D01*
X237847143Y-115942858D01*
X237894762Y-115895239D01*
X237942381Y-115800001D01*
X237942381Y-115609524D01*
X237894762Y-115514286D01*
X237847143Y-115466667D01*
X237751905Y-115419048D01*
X237513810Y-115419048D01*
X237418571Y-115466667D01*
X237370952Y-115514286D01*
X237323333Y-115609524D01*
X237323333Y-115800001D01*
X237370952Y-115895239D01*
X237418571Y-115942858D01*
X237513810Y-115990477D01*
X237942381Y-114228572D02*
X236942381Y-114228572D01*
X237418571Y-114228572D02*
X237418571Y-113657143D01*
X237942381Y-113657143D02*
X236942381Y-113657143D01*
X237418571Y-113180953D02*
X237418571Y-112847619D01*
X237942381Y-112704762D02*
X237942381Y-113180953D01*
X236942381Y-113180953D01*
X236942381Y-112704762D01*
X237656667Y-112323810D02*
X237656667Y-111847619D01*
X237942381Y-112419048D02*
X236942381Y-112085715D01*
X237942381Y-111752381D01*
X237942381Y-111419048D02*
X236942381Y-111419048D01*
X236942381Y-111180953D01*
X236990000Y-111038095D01*
X237085238Y-110942857D01*
X237180476Y-110895238D01*
X237370952Y-110847619D01*
X237513810Y-110847619D01*
X237704286Y-110895238D01*
X237799524Y-110942857D01*
X237894762Y-111038095D01*
X237942381Y-111180953D01*
X237942381Y-111419048D01*
X237418571Y-110419048D02*
X237418571Y-110085714D01*
X237942381Y-109942857D02*
X237942381Y-110419048D01*
X236942381Y-110419048D01*
X236942381Y-109942857D01*
X237942381Y-108942857D02*
X237466190Y-109276191D01*
X237942381Y-109514286D02*
X236942381Y-109514286D01*
X236942381Y-109133333D01*
X236990000Y-109038095D01*
X237037619Y-108990476D01*
X237132857Y-108942857D01*
X237275714Y-108942857D01*
X237370952Y-108990476D01*
X237418571Y-109038095D01*
X237466190Y-109133333D01*
X237466190Y-109514286D01*
X223976190Y-119273809D02*
X223738095Y-119440476D01*
X223976190Y-119559523D02*
X223476190Y-119559523D01*
X223476190Y-119369047D01*
X223500000Y-119321428D01*
X223523810Y-119297619D01*
X223571429Y-119273809D01*
X223642857Y-119273809D01*
X223690476Y-119297619D01*
X223714286Y-119321428D01*
X223738095Y-119369047D01*
X223738095Y-119559523D01*
X223952381Y-119083333D02*
X223976190Y-119011904D01*
X223976190Y-118892857D01*
X223952381Y-118845238D01*
X223928571Y-118821428D01*
X223880952Y-118797619D01*
X223833333Y-118797619D01*
X223785714Y-118821428D01*
X223761905Y-118845238D01*
X223738095Y-118892857D01*
X223714286Y-118988095D01*
X223690476Y-119035714D01*
X223666667Y-119059523D01*
X223619048Y-119083333D01*
X223571429Y-119083333D01*
X223523810Y-119059523D01*
X223500000Y-119035714D01*
X223476190Y-118988095D01*
X223476190Y-118869047D01*
X223500000Y-118797619D01*
X223476190Y-118654762D02*
X223476190Y-118369048D01*
X223976190Y-118511905D02*
X223476190Y-118511905D01*
X222607143Y-115202381D02*
X222678572Y-115226190D01*
X222797619Y-115226190D01*
X222845238Y-115202381D01*
X222869048Y-115178571D01*
X222892857Y-115130952D01*
X222892857Y-115083333D01*
X222869048Y-115035714D01*
X222845238Y-115011905D01*
X222797619Y-114988095D01*
X222702381Y-114964286D01*
X222654762Y-114940476D01*
X222630953Y-114916667D01*
X222607143Y-114869048D01*
X222607143Y-114821429D01*
X222630953Y-114773810D01*
X222654762Y-114750000D01*
X222702381Y-114726190D01*
X222821429Y-114726190D01*
X222892857Y-114750000D01*
X223392857Y-115178571D02*
X223369047Y-115202381D01*
X223297619Y-115226190D01*
X223250000Y-115226190D01*
X223178571Y-115202381D01*
X223130952Y-115154762D01*
X223107143Y-115107143D01*
X223083333Y-115011905D01*
X223083333Y-114940476D01*
X223107143Y-114845238D01*
X223130952Y-114797619D01*
X223178571Y-114750000D01*
X223250000Y-114726190D01*
X223297619Y-114726190D01*
X223369047Y-114750000D01*
X223392857Y-114773810D01*
X223607143Y-115226190D02*
X223607143Y-114726190D01*
X223892857Y-115226190D02*
X223678571Y-114940476D01*
X223892857Y-114726190D02*
X223607143Y-115011905D01*
X222214286Y-113226190D02*
X222214286Y-112726190D01*
X222380952Y-113083333D01*
X222547619Y-112726190D01*
X222547619Y-113226190D01*
X222785715Y-113226190D02*
X222785715Y-112726190D01*
X223000000Y-113202381D02*
X223071429Y-113226190D01*
X223190476Y-113226190D01*
X223238095Y-113202381D01*
X223261905Y-113178571D01*
X223285714Y-113130952D01*
X223285714Y-113083333D01*
X223261905Y-113035714D01*
X223238095Y-113011905D01*
X223190476Y-112988095D01*
X223095238Y-112964286D01*
X223047619Y-112940476D01*
X223023810Y-112916667D01*
X223000000Y-112869048D01*
X223000000Y-112821429D01*
X223023810Y-112773810D01*
X223047619Y-112750000D01*
X223095238Y-112726190D01*
X223214286Y-112726190D01*
X223285714Y-112750000D01*
X223595238Y-112726190D02*
X223690476Y-112726190D01*
X223738095Y-112750000D01*
X223785714Y-112797619D01*
X223809523Y-112892857D01*
X223809523Y-113059524D01*
X223785714Y-113154762D01*
X223738095Y-113202381D01*
X223690476Y-113226190D01*
X223595238Y-113226190D01*
X223547619Y-113202381D01*
X223500000Y-113154762D01*
X223476190Y-113059524D01*
X223476190Y-112892857D01*
X223500000Y-112797619D01*
X223547619Y-112750000D01*
X223595238Y-112726190D01*
D14*
X254036000Y-136750000D02*
G75*
G03X254036000Y-136750000I-2286000J0D01*
G01*
X224730000Y-114300000D02*
X224730000Y-119440000D01*
X224730000Y-119440000D02*
X229930000Y-119440000D01*
X229930000Y-119440000D02*
X229930000Y-111700000D01*
X229930000Y-111700000D02*
X227330000Y-111700000D01*
X227330000Y-111700000D02*
X227330000Y-114300000D01*
X227330000Y-114300000D02*
X224730000Y-114300000D01*
X224730000Y-113030000D02*
X224730000Y-111700000D01*
X224730000Y-111700000D02*
X226060000Y-111700000D01*
D11*
X165375001Y-128545001D02*
X218715001Y-128545001D01*
X218715001Y-105685001D02*
X165375001Y-105685001D01*
X218715001Y-128545001D02*
X218715001Y-105685001D01*
X165375001Y-105685001D02*
X165375001Y-128545001D01*
D14*
X234950000Y-124400000D02*
X222190000Y-124400000D01*
X222190000Y-124400000D02*
X222190000Y-127060000D01*
X222190000Y-127060000D02*
X234950000Y-127060000D01*
X234950000Y-127060000D02*
X234950000Y-124400000D01*
X236220000Y-124400000D02*
X237550000Y-124400000D01*
X237550000Y-124400000D02*
X237550000Y-125730000D01*
X244560000Y-110640000D02*
X242440000Y-110640000D01*
X244560000Y-120700000D02*
X244560000Y-110640000D01*
X242440000Y-120700000D02*
X242440000Y-110640000D01*
X244560000Y-120700000D02*
X242440000Y-120700000D01*
X244560000Y-121700000D02*
X244560000Y-122760000D01*
X244560000Y-122760000D02*
X243500000Y-122760000D01*
X247250000Y-106000000D02*
X247250000Y-102800000D01*
X248750000Y-102800000D02*
X248750000Y-106000000D01*
X248750000Y-102800000D02*
X247250000Y-102800000D01*
X238880000Y-104400000D02*
X238880000Y-105600000D01*
X237120000Y-105600000D02*
X237120000Y-104400000D01*
X164036000Y-99750000D02*
G75*
G03X164036000Y-99750000I-2286000J0D01*
G01*
D11*
X191283096Y-117837382D02*
X191283096Y-118646906D01*
X191330715Y-118742144D01*
X191378334Y-118789763D01*
X191473572Y-118837382D01*
X191664049Y-118837382D01*
X191759287Y-118789763D01*
X191806906Y-118742144D01*
X191854525Y-118646906D01*
X191854525Y-117837382D01*
X192854525Y-118837382D02*
X192283096Y-118837382D01*
X192568810Y-118837382D02*
X192568810Y-117837382D01*
X192473572Y-117980239D01*
X192378334Y-118075477D01*
X192283096Y-118123096D01*
X180568810Y-116249763D02*
X180664048Y-116297382D01*
X180854524Y-116297382D01*
X180949763Y-116249763D01*
X180997382Y-116154525D01*
X180997382Y-116106906D01*
X180949763Y-116011668D01*
X180854524Y-115964049D01*
X180711667Y-115964049D01*
X180616429Y-115916430D01*
X180568810Y-115821191D01*
X180568810Y-115773572D01*
X180616429Y-115678334D01*
X180711667Y-115630715D01*
X180854524Y-115630715D01*
X180949763Y-115678334D01*
X181283096Y-115630715D02*
X181664048Y-115630715D01*
X181425953Y-115297382D02*
X181425953Y-116154525D01*
X181473572Y-116249763D01*
X181568810Y-116297382D01*
X181664048Y-116297382D01*
X181997382Y-116297382D02*
X181997382Y-115630715D01*
X181997382Y-115725953D02*
X182045001Y-115678334D01*
X182140239Y-115630715D01*
X182283097Y-115630715D01*
X182378335Y-115678334D01*
X182425954Y-115773572D01*
X182425954Y-116297382D01*
X182425954Y-115773572D02*
X182473573Y-115678334D01*
X182568811Y-115630715D01*
X182711668Y-115630715D01*
X182806906Y-115678334D01*
X182854525Y-115773572D01*
X182854525Y-116297382D01*
X183235477Y-115297382D02*
X183854525Y-115297382D01*
X183521191Y-115678334D01*
X183664049Y-115678334D01*
X183759287Y-115725953D01*
X183806906Y-115773572D01*
X183854525Y-115868811D01*
X183854525Y-116106906D01*
X183806906Y-116202144D01*
X183759287Y-116249763D01*
X183664049Y-116297382D01*
X183378334Y-116297382D01*
X183283096Y-116249763D01*
X183235477Y-116202144D01*
X184235477Y-115392620D02*
X184283096Y-115345001D01*
X184378334Y-115297382D01*
X184616430Y-115297382D01*
X184711668Y-115345001D01*
X184759287Y-115392620D01*
X184806906Y-115487858D01*
X184806906Y-115583096D01*
X184759287Y-115725953D01*
X184187858Y-116297382D01*
X184806906Y-116297382D01*
X185092620Y-115630715D02*
X185473572Y-115630715D01*
X185235477Y-116297382D02*
X185235477Y-115440239D01*
X185283096Y-115345001D01*
X185378334Y-115297382D01*
X185473572Y-115297382D01*
X186330716Y-116297382D02*
X185759287Y-116297382D01*
X186045001Y-116297382D02*
X186045001Y-115297382D01*
X185949763Y-115440239D01*
X185854525Y-115535477D01*
X185759287Y-115583096D01*
X186949763Y-115297382D02*
X187045002Y-115297382D01*
X187140240Y-115345001D01*
X187187859Y-115392620D01*
X187235478Y-115487858D01*
X187283097Y-115678334D01*
X187283097Y-115916430D01*
X187235478Y-116106906D01*
X187187859Y-116202144D01*
X187140240Y-116249763D01*
X187045002Y-116297382D01*
X186949763Y-116297382D01*
X186854525Y-116249763D01*
X186806906Y-116202144D01*
X186759287Y-116106906D01*
X186711668Y-115916430D01*
X186711668Y-115678334D01*
X186759287Y-115487858D01*
X186806906Y-115392620D01*
X186854525Y-115345001D01*
X186949763Y-115297382D01*
X187616430Y-115297382D02*
X188235478Y-115297382D01*
X187902144Y-115678334D01*
X188045002Y-115678334D01*
X188140240Y-115725953D01*
X188187859Y-115773572D01*
X188235478Y-115868811D01*
X188235478Y-116106906D01*
X188187859Y-116202144D01*
X188140240Y-116249763D01*
X188045002Y-116297382D01*
X187759287Y-116297382D01*
X187664049Y-116249763D01*
X187616430Y-116202144D01*
X189092621Y-116249763D02*
X188997383Y-116297382D01*
X188806906Y-116297382D01*
X188711668Y-116249763D01*
X188664049Y-116202144D01*
X188616430Y-116106906D01*
X188616430Y-115821191D01*
X188664049Y-115725953D01*
X188711668Y-115678334D01*
X188806906Y-115630715D01*
X188997383Y-115630715D01*
X189092621Y-115678334D01*
X189664049Y-115725953D02*
X189568811Y-115678334D01*
X189521192Y-115630715D01*
X189473573Y-115535477D01*
X189473573Y-115487858D01*
X189521192Y-115392620D01*
X189568811Y-115345001D01*
X189664049Y-115297382D01*
X189854526Y-115297382D01*
X189949764Y-115345001D01*
X189997383Y-115392620D01*
X190045002Y-115487858D01*
X190045002Y-115535477D01*
X189997383Y-115630715D01*
X189949764Y-115678334D01*
X189854526Y-115725953D01*
X189664049Y-115725953D01*
X189568811Y-115773572D01*
X189521192Y-115821191D01*
X189473573Y-115916430D01*
X189473573Y-116106906D01*
X189521192Y-116202144D01*
X189568811Y-116249763D01*
X189664049Y-116297382D01*
X189854526Y-116297382D01*
X189949764Y-116249763D01*
X189997383Y-116202144D01*
X190045002Y-116106906D01*
X190045002Y-115916430D01*
X189997383Y-115821191D01*
X189949764Y-115773572D01*
X189854526Y-115725953D01*
X190330716Y-115630715D02*
X190711668Y-115630715D01*
X190473573Y-115297382D02*
X190473573Y-116154525D01*
X190521192Y-116249763D01*
X190616430Y-116297382D01*
X190711668Y-116297382D01*
X191473574Y-115297382D02*
X191283097Y-115297382D01*
X191187859Y-115345001D01*
X191140240Y-115392620D01*
X191045002Y-115535477D01*
X190997383Y-115725953D01*
X190997383Y-116106906D01*
X191045002Y-116202144D01*
X191092621Y-116249763D01*
X191187859Y-116297382D01*
X191378336Y-116297382D01*
X191473574Y-116249763D01*
X191521193Y-116202144D01*
X191568812Y-116106906D01*
X191568812Y-115868811D01*
X191521193Y-115773572D01*
X191473574Y-115725953D01*
X191378336Y-115678334D01*
X191187859Y-115678334D01*
X191092621Y-115725953D01*
X191045002Y-115773572D01*
X190997383Y-115868811D01*
X191997383Y-115916430D02*
X192759288Y-115916430D01*
X193235478Y-116297382D02*
X193235478Y-115630715D01*
X193235478Y-115725953D02*
X193283097Y-115678334D01*
X193378335Y-115630715D01*
X193521193Y-115630715D01*
X193616431Y-115678334D01*
X193664050Y-115773572D01*
X193664050Y-116297382D01*
X193664050Y-115773572D02*
X193711669Y-115678334D01*
X193806907Y-115630715D01*
X193949764Y-115630715D01*
X194045002Y-115678334D01*
X194092621Y-115773572D01*
X194092621Y-116297382D01*
X194711668Y-116297382D02*
X194616430Y-116249763D01*
X194568811Y-116202144D01*
X194521192Y-116106906D01*
X194521192Y-115821191D01*
X194568811Y-115725953D01*
X194616430Y-115678334D01*
X194711668Y-115630715D01*
X194854526Y-115630715D01*
X194949764Y-115678334D01*
X194997383Y-115725953D01*
X195045002Y-115821191D01*
X195045002Y-116106906D01*
X194997383Y-116202144D01*
X194949764Y-116249763D01*
X194854526Y-116297382D01*
X194711668Y-116297382D01*
X195902145Y-116297382D02*
X195902145Y-115297382D01*
X195902145Y-116249763D02*
X195806907Y-116297382D01*
X195616430Y-116297382D01*
X195521192Y-116249763D01*
X195473573Y-116202144D01*
X195425954Y-116106906D01*
X195425954Y-115821191D01*
X195473573Y-115725953D01*
X195521192Y-115678334D01*
X195616430Y-115630715D01*
X195806907Y-115630715D01*
X195902145Y-115678334D01*
X196806907Y-115630715D02*
X196806907Y-116297382D01*
X196378335Y-115630715D02*
X196378335Y-116154525D01*
X196425954Y-116249763D01*
X196521192Y-116297382D01*
X196664050Y-116297382D01*
X196759288Y-116249763D01*
X196806907Y-116202144D01*
X197425954Y-116297382D02*
X197330716Y-116249763D01*
X197283097Y-116154525D01*
X197283097Y-115297382D01*
X198187860Y-116249763D02*
X198092622Y-116297382D01*
X197902145Y-116297382D01*
X197806907Y-116249763D01*
X197759288Y-116154525D01*
X197759288Y-115773572D01*
X197806907Y-115678334D01*
X197902145Y-115630715D01*
X198092622Y-115630715D01*
X198187860Y-115678334D01*
X198235479Y-115773572D01*
X198235479Y-115868811D01*
X197759288Y-115964049D01*
X198664050Y-115916430D02*
X199425955Y-115916430D01*
X200330717Y-116249763D02*
X200235479Y-116297382D01*
X200045002Y-116297382D01*
X199949764Y-116249763D01*
X199902145Y-116202144D01*
X199854526Y-116106906D01*
X199854526Y-115821191D01*
X199902145Y-115725953D01*
X199949764Y-115678334D01*
X200045002Y-115630715D01*
X200235479Y-115630715D01*
X200330717Y-115678334D01*
X200759288Y-116297382D02*
X200759288Y-115297382D01*
X201187860Y-116297382D02*
X201187860Y-115773572D01*
X201140241Y-115678334D01*
X201045003Y-115630715D01*
X200902145Y-115630715D01*
X200806907Y-115678334D01*
X200759288Y-115725953D01*
X201664050Y-116297382D02*
X201664050Y-115630715D01*
X201664050Y-115297382D02*
X201616431Y-115345001D01*
X201664050Y-115392620D01*
X201711669Y-115345001D01*
X201664050Y-115297382D01*
X201664050Y-115392620D01*
X202140240Y-115630715D02*
X202140240Y-116297382D01*
X202140240Y-115725953D02*
X202187859Y-115678334D01*
X202283097Y-115630715D01*
X202425955Y-115630715D01*
X202521193Y-115678334D01*
X202568812Y-115773572D01*
X202568812Y-116297382D01*
X203473574Y-116297382D02*
X203473574Y-115773572D01*
X203425955Y-115678334D01*
X203330717Y-115630715D01*
X203140240Y-115630715D01*
X203045002Y-115678334D01*
X203473574Y-116249763D02*
X203378336Y-116297382D01*
X203140240Y-116297382D01*
X203045002Y-116249763D01*
X202997383Y-116154525D01*
X202997383Y-116059287D01*
X203045002Y-115964049D01*
X203140240Y-115916430D01*
X203378336Y-115916430D01*
X203473574Y-115868811D01*
X181019763Y-113154049D02*
X181067382Y-113058811D01*
X181067382Y-112868335D01*
X181019763Y-112773096D01*
X180924525Y-112725477D01*
X180876906Y-112725477D01*
X180781668Y-112773096D01*
X180734049Y-112868335D01*
X180734049Y-113011192D01*
X180686430Y-113106430D01*
X180591191Y-113154049D01*
X180543572Y-113154049D01*
X180448334Y-113106430D01*
X180400715Y-113011192D01*
X180400715Y-112868335D01*
X180448334Y-112773096D01*
X181019763Y-111868334D02*
X181067382Y-111963572D01*
X181067382Y-112154049D01*
X181019763Y-112249287D01*
X180972144Y-112296906D01*
X180876906Y-112344525D01*
X180591191Y-112344525D01*
X180495953Y-112296906D01*
X180448334Y-112249287D01*
X180400715Y-112154049D01*
X180400715Y-111963572D01*
X180448334Y-111868334D01*
X180162620Y-111487382D02*
X180115001Y-111439763D01*
X180067382Y-111344525D01*
X180067382Y-111106429D01*
X180115001Y-111011191D01*
X180162620Y-110963572D01*
X180257858Y-110915953D01*
X180353096Y-110915953D01*
X180495953Y-110963572D01*
X181067382Y-111535001D01*
X181067382Y-110915953D01*
X178479763Y-113177858D02*
X178527382Y-113082620D01*
X178527382Y-112892144D01*
X178479763Y-112796905D01*
X178384525Y-112749286D01*
X178336906Y-112749286D01*
X178241668Y-112796905D01*
X178194049Y-112892144D01*
X178194049Y-113035001D01*
X178146430Y-113130239D01*
X178051191Y-113177858D01*
X178003572Y-113177858D01*
X177908334Y-113130239D01*
X177860715Y-113035001D01*
X177860715Y-112892144D01*
X177908334Y-112796905D01*
X178527382Y-111892143D02*
X177527382Y-111892143D01*
X178479763Y-111892143D02*
X178527382Y-111987381D01*
X178527382Y-112177858D01*
X178479763Y-112273096D01*
X178432144Y-112320715D01*
X178336906Y-112368334D01*
X178051191Y-112368334D01*
X177955953Y-112320715D01*
X177908334Y-112273096D01*
X177860715Y-112177858D01*
X177860715Y-111987381D01*
X177908334Y-111892143D01*
X177622620Y-111463572D02*
X177575001Y-111415953D01*
X177527382Y-111320715D01*
X177527382Y-111082619D01*
X177575001Y-110987381D01*
X177622620Y-110939762D01*
X177717858Y-110892143D01*
X177813096Y-110892143D01*
X177955953Y-110939762D01*
X178527382Y-111511191D01*
X178527382Y-110892143D01*
X174177858Y-127727382D02*
X174177858Y-127060715D01*
X174177858Y-127155953D02*
X174225477Y-127108334D01*
X174320715Y-127060715D01*
X174463573Y-127060715D01*
X174558811Y-127108334D01*
X174606430Y-127203572D01*
X174606430Y-127727382D01*
X174606430Y-127203572D02*
X174654049Y-127108334D01*
X174749287Y-127060715D01*
X174892144Y-127060715D01*
X174987382Y-127108334D01*
X175035001Y-127203572D01*
X175035001Y-127727382D01*
X175654048Y-127727382D02*
X175558810Y-127679763D01*
X175511191Y-127632144D01*
X175463572Y-127536906D01*
X175463572Y-127251191D01*
X175511191Y-127155953D01*
X175558810Y-127108334D01*
X175654048Y-127060715D01*
X175796906Y-127060715D01*
X175892144Y-127108334D01*
X175939763Y-127155953D01*
X175987382Y-127251191D01*
X175987382Y-127536906D01*
X175939763Y-127632144D01*
X175892144Y-127679763D01*
X175796906Y-127727382D01*
X175654048Y-127727382D01*
X176368334Y-126822620D02*
X176415953Y-126775001D01*
X176511191Y-126727382D01*
X176749287Y-126727382D01*
X176844525Y-126775001D01*
X176892144Y-126822620D01*
X176939763Y-126917858D01*
X176939763Y-127013096D01*
X176892144Y-127155953D01*
X176320715Y-127727382D01*
X176939763Y-127727382D01*
X172518811Y-127727382D02*
X172518811Y-127060715D01*
X172518811Y-126727382D02*
X172471192Y-126775001D01*
X172518811Y-126822620D01*
X172566430Y-126775001D01*
X172518811Y-126727382D01*
X172518811Y-126822620D01*
X172947382Y-126822620D02*
X172995001Y-126775001D01*
X173090239Y-126727382D01*
X173328335Y-126727382D01*
X173423573Y-126775001D01*
X173471192Y-126822620D01*
X173518811Y-126917858D01*
X173518811Y-127013096D01*
X173471192Y-127155953D01*
X172899763Y-127727382D01*
X173518811Y-127727382D01*
X170216906Y-127679763D02*
X170121668Y-127727382D01*
X169931191Y-127727382D01*
X169835953Y-127679763D01*
X169788334Y-127632144D01*
X169740715Y-127536906D01*
X169740715Y-127251191D01*
X169788334Y-127155953D01*
X169835953Y-127108334D01*
X169931191Y-127060715D01*
X170121668Y-127060715D01*
X170216906Y-127108334D01*
X170597858Y-126822620D02*
X170645477Y-126775001D01*
X170740715Y-126727382D01*
X170978811Y-126727382D01*
X171074049Y-126775001D01*
X171121668Y-126822620D01*
X171169287Y-126917858D01*
X171169287Y-127013096D01*
X171121668Y-127155953D01*
X170550239Y-127727382D01*
X171169287Y-127727382D01*
X166819763Y-127679763D02*
X166915001Y-127727382D01*
X167105477Y-127727382D01*
X167200716Y-127679763D01*
X167248335Y-127584525D01*
X167248335Y-127536906D01*
X167200716Y-127441668D01*
X167105477Y-127394049D01*
X166962620Y-127394049D01*
X166867382Y-127346430D01*
X166819763Y-127251191D01*
X166819763Y-127203572D01*
X166867382Y-127108334D01*
X166962620Y-127060715D01*
X167105477Y-127060715D01*
X167200716Y-127108334D01*
X167629287Y-127679763D02*
X167724525Y-127727382D01*
X167915001Y-127727382D01*
X168010240Y-127679763D01*
X168057859Y-127584525D01*
X168057859Y-127536906D01*
X168010240Y-127441668D01*
X167915001Y-127394049D01*
X167772144Y-127394049D01*
X167676906Y-127346430D01*
X167629287Y-127251191D01*
X167629287Y-127203572D01*
X167676906Y-127108334D01*
X167772144Y-127060715D01*
X167915001Y-127060715D01*
X168010240Y-127108334D01*
X168438811Y-126822620D02*
X168486430Y-126775001D01*
X168581668Y-126727382D01*
X168819764Y-126727382D01*
X168915002Y-126775001D01*
X168962621Y-126822620D01*
X169010240Y-126917858D01*
X169010240Y-127013096D01*
X168962621Y-127155953D01*
X168391192Y-127727382D01*
X169010240Y-127727382D01*
X203213097Y-127727382D02*
X203213097Y-126727382D01*
X203213097Y-127679763D02*
X203117859Y-127727382D01*
X202927382Y-127727382D01*
X202832144Y-127679763D01*
X202784525Y-127632144D01*
X202736906Y-127536906D01*
X202736906Y-127251191D01*
X202784525Y-127155953D01*
X202832144Y-127108334D01*
X202927382Y-127060715D01*
X203117859Y-127060715D01*
X203213097Y-127108334D01*
X204213097Y-127727382D02*
X203641668Y-127727382D01*
X203927382Y-127727382D02*
X203927382Y-126727382D01*
X203832144Y-126870239D01*
X203736906Y-126965477D01*
X203641668Y-127013096D01*
X199815953Y-127679763D02*
X199911191Y-127727382D01*
X200101667Y-127727382D01*
X200196906Y-127679763D01*
X200244525Y-127584525D01*
X200244525Y-127536906D01*
X200196906Y-127441668D01*
X200101667Y-127394049D01*
X199958810Y-127394049D01*
X199863572Y-127346430D01*
X199815953Y-127251191D01*
X199815953Y-127203572D01*
X199863572Y-127108334D01*
X199958810Y-127060715D01*
X200101667Y-127060715D01*
X200196906Y-127108334D01*
X201101668Y-127679763D02*
X201006430Y-127727382D01*
X200815953Y-127727382D01*
X200720715Y-127679763D01*
X200673096Y-127632144D01*
X200625477Y-127536906D01*
X200625477Y-127251191D01*
X200673096Y-127155953D01*
X200720715Y-127108334D01*
X200815953Y-127060715D01*
X201006430Y-127060715D01*
X201101668Y-127108334D01*
X202054049Y-127727382D02*
X201482620Y-127727382D01*
X201768334Y-127727382D02*
X201768334Y-126727382D01*
X201673096Y-126870239D01*
X201577858Y-126965477D01*
X201482620Y-127013096D01*
X200173096Y-106407382D02*
X200744525Y-106407382D01*
X200458810Y-107407382D02*
X200458810Y-106407382D01*
X201030239Y-106502620D02*
X201077858Y-106455001D01*
X201173096Y-106407382D01*
X201411192Y-106407382D01*
X201506430Y-106455001D01*
X201554049Y-106502620D01*
X201601668Y-106597858D01*
X201601668Y-106693096D01*
X201554049Y-106835953D01*
X200982620Y-107407382D01*
X201601668Y-107407382D01*
X198228335Y-107407382D02*
X197895001Y-106931191D01*
X197656906Y-107407382D02*
X197656906Y-106407382D01*
X198037859Y-106407382D01*
X198133097Y-106455001D01*
X198180716Y-106502620D01*
X198228335Y-106597858D01*
X198228335Y-106740715D01*
X198180716Y-106835953D01*
X198133097Y-106883572D01*
X198037859Y-106931191D01*
X197656906Y-106931191D01*
X198609287Y-106502620D02*
X198656906Y-106455001D01*
X198752144Y-106407382D01*
X198990240Y-106407382D01*
X199085478Y-106455001D01*
X199133097Y-106502620D01*
X199180716Y-106597858D01*
X199180716Y-106693096D01*
X199133097Y-106835953D01*
X198561668Y-107407382D01*
X199180716Y-107407382D01*
X194759763Y-107359763D02*
X194855001Y-107407382D01*
X195045477Y-107407382D01*
X195140716Y-107359763D01*
X195188335Y-107264525D01*
X195188335Y-107216906D01*
X195140716Y-107121668D01*
X195045477Y-107074049D01*
X194902620Y-107074049D01*
X194807382Y-107026430D01*
X194759763Y-106931191D01*
X194759763Y-106883572D01*
X194807382Y-106788334D01*
X194902620Y-106740715D01*
X195045477Y-106740715D01*
X195140716Y-106788334D01*
X195569287Y-107359763D02*
X195664525Y-107407382D01*
X195855001Y-107407382D01*
X195950240Y-107359763D01*
X195997859Y-107264525D01*
X195997859Y-107216906D01*
X195950240Y-107121668D01*
X195855001Y-107074049D01*
X195712144Y-107074049D01*
X195616906Y-107026430D01*
X195569287Y-106931191D01*
X195569287Y-106883572D01*
X195616906Y-106788334D01*
X195712144Y-106740715D01*
X195855001Y-106740715D01*
X195950240Y-106788334D01*
X196950240Y-107407382D02*
X196378811Y-107407382D01*
X196664525Y-107407382D02*
X196664525Y-106407382D01*
X196569287Y-106550239D01*
X196474049Y-106645477D01*
X196378811Y-106693096D01*
X193076906Y-107359763D02*
X192981668Y-107407382D01*
X192791191Y-107407382D01*
X192695953Y-107359763D01*
X192648334Y-107312144D01*
X192600715Y-107216906D01*
X192600715Y-106931191D01*
X192648334Y-106835953D01*
X192695953Y-106788334D01*
X192791191Y-106740715D01*
X192981668Y-106740715D01*
X193076906Y-106788334D01*
X194029287Y-107407382D02*
X193457858Y-107407382D01*
X193743572Y-107407382D02*
X193743572Y-106407382D01*
X193648334Y-106550239D01*
X193553096Y-106645477D01*
X193457858Y-106693096D01*
X190298811Y-107407382D02*
X190298811Y-106740715D01*
X190298811Y-106407382D02*
X190251192Y-106455001D01*
X190298811Y-106502620D01*
X190346430Y-106455001D01*
X190298811Y-106407382D01*
X190298811Y-106502620D01*
X191298811Y-107407382D02*
X190727382Y-107407382D01*
X191013096Y-107407382D02*
X191013096Y-106407382D01*
X190917858Y-106550239D01*
X190822620Y-106645477D01*
X190727382Y-106693096D01*
X186877858Y-107407382D02*
X186877858Y-106740715D01*
X186877858Y-106835953D02*
X186925477Y-106788334D01*
X187020715Y-106740715D01*
X187163573Y-106740715D01*
X187258811Y-106788334D01*
X187306430Y-106883572D01*
X187306430Y-107407382D01*
X187306430Y-106883572D02*
X187354049Y-106788334D01*
X187449287Y-106740715D01*
X187592144Y-106740715D01*
X187687382Y-106788334D01*
X187735001Y-106883572D01*
X187735001Y-107407382D01*
X188354048Y-107407382D02*
X188258810Y-107359763D01*
X188211191Y-107312144D01*
X188163572Y-107216906D01*
X188163572Y-106931191D01*
X188211191Y-106835953D01*
X188258810Y-106788334D01*
X188354048Y-106740715D01*
X188496906Y-106740715D01*
X188592144Y-106788334D01*
X188639763Y-106835953D01*
X188687382Y-106931191D01*
X188687382Y-107216906D01*
X188639763Y-107312144D01*
X188592144Y-107359763D01*
X188496906Y-107407382D01*
X188354048Y-107407382D01*
X189639763Y-107407382D02*
X189068334Y-107407382D01*
X189354048Y-107407382D02*
X189354048Y-106407382D01*
X189258810Y-106550239D01*
X189163572Y-106645477D01*
X189068334Y-106693096D01*
X179853096Y-106407382D02*
X180424525Y-106407382D01*
X180138810Y-107407382D02*
X180138810Y-106407382D01*
X180662620Y-106407382D02*
X181281668Y-106407382D01*
X180948334Y-106788334D01*
X181091192Y-106788334D01*
X181186430Y-106835953D01*
X181234049Y-106883572D01*
X181281668Y-106978811D01*
X181281668Y-107216906D01*
X181234049Y-107312144D01*
X181186430Y-107359763D01*
X181091192Y-107407382D01*
X180805477Y-107407382D01*
X180710239Y-107359763D01*
X180662620Y-107312144D01*
X177908335Y-107407382D02*
X177575001Y-106931191D01*
X177336906Y-107407382D02*
X177336906Y-106407382D01*
X177717859Y-106407382D01*
X177813097Y-106455001D01*
X177860716Y-106502620D01*
X177908335Y-106597858D01*
X177908335Y-106740715D01*
X177860716Y-106835953D01*
X177813097Y-106883572D01*
X177717859Y-106931191D01*
X177336906Y-106931191D01*
X178241668Y-106407382D02*
X178860716Y-106407382D01*
X178527382Y-106788334D01*
X178670240Y-106788334D01*
X178765478Y-106835953D01*
X178813097Y-106883572D01*
X178860716Y-106978811D01*
X178860716Y-107216906D01*
X178813097Y-107312144D01*
X178765478Y-107359763D01*
X178670240Y-107407382D01*
X178384525Y-107407382D01*
X178289287Y-107359763D01*
X178241668Y-107312144D01*
X208483573Y-127632144D02*
X208435954Y-127679763D01*
X208293097Y-127727382D01*
X208197859Y-127727382D01*
X208055001Y-127679763D01*
X207959763Y-127584525D01*
X207912144Y-127489287D01*
X207864525Y-127298811D01*
X207864525Y-127155953D01*
X207912144Y-126965477D01*
X207959763Y-126870239D01*
X208055001Y-126775001D01*
X208197859Y-126727382D01*
X208293097Y-126727382D01*
X208435954Y-126775001D01*
X208483573Y-126822620D01*
X208769287Y-126727382D02*
X209340716Y-126727382D01*
X209055001Y-127727382D02*
X209055001Y-126727382D01*
X205824525Y-127632144D02*
X205776906Y-127679763D01*
X205634049Y-127727382D01*
X205538811Y-127727382D01*
X205395953Y-127679763D01*
X205300715Y-127584525D01*
X205253096Y-127489287D01*
X205205477Y-127298811D01*
X205205477Y-127155953D01*
X205253096Y-126965477D01*
X205300715Y-126870239D01*
X205395953Y-126775001D01*
X205538811Y-126727382D01*
X205634049Y-126727382D01*
X205776906Y-126775001D01*
X205824525Y-126822620D01*
X206824525Y-127727382D02*
X206491191Y-127251191D01*
X206253096Y-127727382D02*
X206253096Y-126727382D01*
X206634049Y-126727382D01*
X206729287Y-126775001D01*
X206776906Y-126822620D01*
X206824525Y-126917858D01*
X206824525Y-127060715D01*
X206776906Y-127155953D01*
X206729287Y-127203572D01*
X206634049Y-127251191D01*
X206253096Y-127251191D01*
X187330239Y-126727382D02*
X187330239Y-127536906D01*
X187377858Y-127632144D01*
X187425477Y-127679763D01*
X187520715Y-127727382D01*
X187711192Y-127727382D01*
X187806430Y-127679763D01*
X187854049Y-127632144D01*
X187901668Y-127536906D01*
X187901668Y-126727382D01*
X188377858Y-127346430D02*
X189139763Y-127346430D01*
X188758811Y-127727382D02*
X188758811Y-126965477D01*
X184790239Y-126727382D02*
X184790239Y-127536906D01*
X184837858Y-127632144D01*
X184885477Y-127679763D01*
X184980715Y-127727382D01*
X185171192Y-127727382D01*
X185266430Y-127679763D01*
X185314049Y-127632144D01*
X185361668Y-127536906D01*
X185361668Y-126727382D01*
X185837858Y-127346430D02*
X186599763Y-127346430D01*
X182988335Y-127727382D02*
X182655001Y-127251191D01*
X182416906Y-127727382D02*
X182416906Y-126727382D01*
X182797859Y-126727382D01*
X182893097Y-126775001D01*
X182940716Y-126822620D01*
X182988335Y-126917858D01*
X182988335Y-127060715D01*
X182940716Y-127155953D01*
X182893097Y-127203572D01*
X182797859Y-127251191D01*
X182416906Y-127251191D01*
X183940716Y-127727382D02*
X183369287Y-127727382D01*
X183655001Y-127727382D02*
X183655001Y-126727382D01*
X183559763Y-126870239D01*
X183464525Y-126965477D01*
X183369287Y-127013096D01*
X179853096Y-126727382D02*
X180424525Y-126727382D01*
X180138810Y-127727382D02*
X180138810Y-126727382D01*
X181281668Y-127727382D02*
X180710239Y-127727382D01*
X180995953Y-127727382D02*
X180995953Y-126727382D01*
X180900715Y-126870239D01*
X180805477Y-126965477D01*
X180710239Y-127013096D01*
X213857382Y-120377382D02*
X214476430Y-120377382D01*
X214143096Y-120758334D01*
X214285954Y-120758334D01*
X214381192Y-120805953D01*
X214428811Y-120853572D01*
X214476430Y-120948811D01*
X214476430Y-121186906D01*
X214428811Y-121282144D01*
X214381192Y-121329763D01*
X214285954Y-121377382D01*
X214000239Y-121377382D01*
X213905001Y-121329763D01*
X213857382Y-121282144D01*
X214905001Y-121282144D02*
X214952620Y-121329763D01*
X214905001Y-121377382D01*
X214857382Y-121329763D01*
X214905001Y-121282144D01*
X214905001Y-121377382D01*
X215285953Y-120377382D02*
X215905001Y-120377382D01*
X215571667Y-120758334D01*
X215714525Y-120758334D01*
X215809763Y-120805953D01*
X215857382Y-120853572D01*
X215905001Y-120948811D01*
X215905001Y-121186906D01*
X215857382Y-121282144D01*
X215809763Y-121329763D01*
X215714525Y-121377382D01*
X215428810Y-121377382D01*
X215333572Y-121329763D01*
X215285953Y-121282144D01*
X212785954Y-118789763D02*
X212928811Y-118837382D01*
X213166907Y-118837382D01*
X213262145Y-118789763D01*
X213309764Y-118742144D01*
X213357383Y-118646906D01*
X213357383Y-118551668D01*
X213309764Y-118456430D01*
X213262145Y-118408811D01*
X213166907Y-118361191D01*
X212976430Y-118313572D01*
X212881192Y-118265953D01*
X212833573Y-118218334D01*
X212785954Y-118123096D01*
X212785954Y-118027858D01*
X212833573Y-117932620D01*
X212881192Y-117885001D01*
X212976430Y-117837382D01*
X213214526Y-117837382D01*
X213357383Y-117885001D01*
X213690716Y-117837382D02*
X213928811Y-118837382D01*
X214119288Y-118123096D01*
X214309764Y-118837382D01*
X214547859Y-117837382D01*
X214928811Y-118837382D02*
X214928811Y-117837382D01*
X215166906Y-117837382D01*
X215309764Y-117885001D01*
X215405002Y-117980239D01*
X215452621Y-118075477D01*
X215500240Y-118265953D01*
X215500240Y-118408811D01*
X215452621Y-118599287D01*
X215405002Y-118694525D01*
X215309764Y-118789763D01*
X215166906Y-118837382D01*
X214928811Y-118837382D01*
X215928811Y-118837382D02*
X215928811Y-117837382D01*
X216595477Y-117837382D02*
X216785954Y-117837382D01*
X216881192Y-117885001D01*
X216976430Y-117980239D01*
X217024049Y-118170715D01*
X217024049Y-118504049D01*
X216976430Y-118694525D01*
X216881192Y-118789763D01*
X216785954Y-118837382D01*
X216595477Y-118837382D01*
X216500239Y-118789763D01*
X216405001Y-118694525D01*
X216357382Y-118504049D01*
X216357382Y-118170715D01*
X216405001Y-117980239D01*
X216500239Y-117885001D01*
X216595477Y-117837382D01*
X212643096Y-116249763D02*
X212785953Y-116297382D01*
X213024049Y-116297382D01*
X213119287Y-116249763D01*
X213166906Y-116202144D01*
X213214525Y-116106906D01*
X213214525Y-116011668D01*
X213166906Y-115916430D01*
X213119287Y-115868811D01*
X213024049Y-115821191D01*
X212833572Y-115773572D01*
X212738334Y-115725953D01*
X212690715Y-115678334D01*
X212643096Y-115583096D01*
X212643096Y-115487858D01*
X212690715Y-115392620D01*
X212738334Y-115345001D01*
X212833572Y-115297382D01*
X213071668Y-115297382D01*
X213214525Y-115345001D01*
X213547858Y-115297382D02*
X213785953Y-116297382D01*
X213976430Y-115583096D01*
X214166906Y-116297382D01*
X214405001Y-115297382D01*
X215357382Y-116202144D02*
X215309763Y-116249763D01*
X215166906Y-116297382D01*
X215071668Y-116297382D01*
X214928810Y-116249763D01*
X214833572Y-116154525D01*
X214785953Y-116059287D01*
X214738334Y-115868811D01*
X214738334Y-115725953D01*
X214785953Y-115535477D01*
X214833572Y-115440239D01*
X214928810Y-115345001D01*
X215071668Y-115297382D01*
X215166906Y-115297382D01*
X215309763Y-115345001D01*
X215357382Y-115392620D01*
X216262144Y-116297382D02*
X215785953Y-116297382D01*
X215785953Y-115297382D01*
X216595477Y-116297382D02*
X216595477Y-115297382D01*
X217166906Y-116297382D02*
X216738334Y-115725953D01*
X217166906Y-115297382D02*
X216595477Y-115868811D01*
X214143097Y-112805001D02*
X214047859Y-112757382D01*
X213905002Y-112757382D01*
X213762144Y-112805001D01*
X213666906Y-112900239D01*
X213619287Y-112995477D01*
X213571668Y-113185953D01*
X213571668Y-113328811D01*
X213619287Y-113519287D01*
X213666906Y-113614525D01*
X213762144Y-113709763D01*
X213905002Y-113757382D01*
X214000240Y-113757382D01*
X214143097Y-113709763D01*
X214190716Y-113662144D01*
X214190716Y-113328811D01*
X214000240Y-113328811D01*
X214619287Y-113757382D02*
X214619287Y-112757382D01*
X215190716Y-113757382D01*
X215190716Y-112757382D01*
X215666906Y-113757382D02*
X215666906Y-112757382D01*
X215905001Y-112757382D01*
X216047859Y-112805001D01*
X216143097Y-112900239D01*
X216190716Y-112995477D01*
X216238335Y-113185953D01*
X216238335Y-113328811D01*
X216190716Y-113519287D01*
X216143097Y-113614525D01*
X216047859Y-113709763D01*
X215905001Y-113757382D01*
X215666906Y-113757382D01*
X215127382Y-126727382D02*
X215746430Y-126727382D01*
X215413096Y-127108334D01*
X215555954Y-127108334D01*
X215651192Y-127155953D01*
X215698811Y-127203572D01*
X215746430Y-127298811D01*
X215746430Y-127536906D01*
X215698811Y-127632144D01*
X215651192Y-127679763D01*
X215555954Y-127727382D01*
X215270239Y-127727382D01*
X215175001Y-127679763D01*
X215127382Y-127632144D01*
X216175001Y-127632144D02*
X216222620Y-127679763D01*
X216175001Y-127727382D01*
X216127382Y-127679763D01*
X216175001Y-127632144D01*
X216175001Y-127727382D01*
X216555953Y-126727382D02*
X217175001Y-126727382D01*
X216841667Y-127108334D01*
X216984525Y-127108334D01*
X217079763Y-127155953D01*
X217127382Y-127203572D01*
X217175001Y-127298811D01*
X217175001Y-127536906D01*
X217127382Y-127632144D01*
X217079763Y-127679763D01*
X216984525Y-127727382D01*
X216698810Y-127727382D01*
X216603572Y-127679763D01*
X216555953Y-127632144D01*
X213896906Y-126775001D02*
X213801668Y-126727382D01*
X213658811Y-126727382D01*
X213515953Y-126775001D01*
X213420715Y-126870239D01*
X213373096Y-126965477D01*
X213325477Y-127155953D01*
X213325477Y-127298811D01*
X213373096Y-127489287D01*
X213420715Y-127584525D01*
X213515953Y-127679763D01*
X213658811Y-127727382D01*
X213754049Y-127727382D01*
X213896906Y-127679763D01*
X213944525Y-127632144D01*
X213944525Y-127298811D01*
X213754049Y-127298811D01*
X175463573Y-106359763D02*
X174606430Y-107645477D01*
X176368335Y-107407382D02*
X176035001Y-106931191D01*
X175796906Y-107407382D02*
X175796906Y-106407382D01*
X176177859Y-106407382D01*
X176273097Y-106455001D01*
X176320716Y-106502620D01*
X176368335Y-106597858D01*
X176368335Y-106740715D01*
X176320716Y-106835953D01*
X176273097Y-106883572D01*
X176177859Y-106931191D01*
X175796906Y-106931191D01*
X171947382Y-106407382D02*
X172566430Y-106407382D01*
X172233096Y-106788334D01*
X172375954Y-106788334D01*
X172471192Y-106835953D01*
X172518811Y-106883572D01*
X172566430Y-106978811D01*
X172566430Y-107216906D01*
X172518811Y-107312144D01*
X172471192Y-107359763D01*
X172375954Y-107407382D01*
X172090239Y-107407382D01*
X171995001Y-107359763D01*
X171947382Y-107312144D01*
X172995001Y-107312144D02*
X173042620Y-107359763D01*
X172995001Y-107407382D01*
X172947382Y-107359763D01*
X172995001Y-107312144D01*
X172995001Y-107407382D01*
X173375953Y-106407382D02*
X173995001Y-106407382D01*
X173661667Y-106788334D01*
X173804525Y-106788334D01*
X173899763Y-106835953D01*
X173947382Y-106883572D01*
X173995001Y-106978811D01*
X173995001Y-107216906D01*
X173947382Y-107312144D01*
X173899763Y-107359763D01*
X173804525Y-107407382D01*
X173518810Y-107407382D01*
X173423572Y-107359763D01*
X173375953Y-107312144D01*
X170716906Y-106455001D02*
X170621668Y-106407382D01*
X170478811Y-106407382D01*
X170335953Y-106455001D01*
X170240715Y-106550239D01*
X170193096Y-106645477D01*
X170145477Y-106835953D01*
X170145477Y-106978811D01*
X170193096Y-107169287D01*
X170240715Y-107264525D01*
X170335953Y-107359763D01*
X170478811Y-107407382D01*
X170574049Y-107407382D01*
X170716906Y-107359763D01*
X170764525Y-107312144D01*
X170764525Y-106978811D01*
X170574049Y-106978811D01*
X168176906Y-106455001D02*
X168081668Y-106407382D01*
X167938811Y-106407382D01*
X167795953Y-106455001D01*
X167700715Y-106550239D01*
X167653096Y-106645477D01*
X167605477Y-106835953D01*
X167605477Y-106978811D01*
X167653096Y-107169287D01*
X167700715Y-107264525D01*
X167795953Y-107359763D01*
X167938811Y-107407382D01*
X168034049Y-107407382D01*
X168176906Y-107359763D01*
X168224525Y-107312144D01*
X168224525Y-106978811D01*
X168034049Y-106978811D01*
X215341668Y-106407382D02*
X215675001Y-107407382D01*
X216008335Y-106407382D01*
X216675002Y-106883572D02*
X216817859Y-106931191D01*
X216865478Y-106978811D01*
X216913097Y-107074049D01*
X216913097Y-107216906D01*
X216865478Y-107312144D01*
X216817859Y-107359763D01*
X216722621Y-107407382D01*
X216341668Y-107407382D01*
X216341668Y-106407382D01*
X216675002Y-106407382D01*
X216770240Y-106455001D01*
X216817859Y-106502620D01*
X216865478Y-106597858D01*
X216865478Y-106693096D01*
X216817859Y-106788334D01*
X216770240Y-106835953D01*
X216675002Y-106883572D01*
X216341668Y-106883572D01*
X210904525Y-126727382D02*
X210428334Y-126727382D01*
X210380715Y-127203572D01*
X210428334Y-127155953D01*
X210523572Y-127108334D01*
X210761668Y-127108334D01*
X210856906Y-127155953D01*
X210904525Y-127203572D01*
X210952144Y-127298811D01*
X210952144Y-127536906D01*
X210904525Y-127632144D01*
X210856906Y-127679763D01*
X210761668Y-127727382D01*
X210523572Y-127727382D01*
X210428334Y-127679763D01*
X210380715Y-127632144D01*
X211237858Y-126727382D02*
X211571191Y-127727382D01*
X211904525Y-126727382D01*
X167367382Y-118376906D02*
X168176906Y-118376906D01*
X168272144Y-118329287D01*
X168319763Y-118281668D01*
X168367382Y-118186430D01*
X168367382Y-117995953D01*
X168319763Y-117900715D01*
X168272144Y-117853096D01*
X168176906Y-117805477D01*
X167367382Y-117805477D01*
X168319763Y-117376906D02*
X168367382Y-117234049D01*
X168367382Y-116995953D01*
X168319763Y-116900715D01*
X168272144Y-116853096D01*
X168176906Y-116805477D01*
X168081668Y-116805477D01*
X167986430Y-116853096D01*
X167938811Y-116900715D01*
X167891191Y-116995953D01*
X167843572Y-117186430D01*
X167795953Y-117281668D01*
X167748334Y-117329287D01*
X167653096Y-117376906D01*
X167557858Y-117376906D01*
X167462620Y-117329287D01*
X167415001Y-117281668D01*
X167367382Y-117186430D01*
X167367382Y-116948334D01*
X167415001Y-116805477D01*
X167843572Y-116043572D02*
X167891191Y-115900715D01*
X167938811Y-115853096D01*
X168034049Y-115805477D01*
X168176906Y-115805477D01*
X168272144Y-115853096D01*
X168319763Y-115900715D01*
X168367382Y-115995953D01*
X168367382Y-116376906D01*
X167367382Y-116376906D01*
X167367382Y-116043572D01*
X167415001Y-115948334D01*
X167462620Y-115900715D01*
X167557858Y-115853096D01*
X167653096Y-115853096D01*
X167748334Y-115900715D01*
X167795953Y-115948334D01*
X167843572Y-116043572D01*
X167843572Y-116376906D01*
X238002381Y-126063333D02*
X238716667Y-126063333D01*
X238859524Y-126110953D01*
X238954762Y-126206191D01*
X239002381Y-126349048D01*
X239002381Y-126444286D01*
X239002381Y-125063333D02*
X239002381Y-125634762D01*
X239002381Y-125349048D02*
X238002381Y-125349048D01*
X238145238Y-125444286D01*
X238240476Y-125539524D01*
X238288095Y-125634762D01*
X242214286Y-108952381D02*
X241738095Y-108952381D01*
X241690476Y-109428571D01*
X241738095Y-109380952D01*
X241833333Y-109333333D01*
X242071429Y-109333333D01*
X242166667Y-109380952D01*
X242214286Y-109428571D01*
X242261905Y-109523810D01*
X242261905Y-109761905D01*
X242214286Y-109857143D01*
X242166667Y-109904762D01*
X242071429Y-109952381D01*
X241833333Y-109952381D01*
X241738095Y-109904762D01*
X241690476Y-109857143D01*
X242547619Y-108952381D02*
X242880952Y-109952381D01*
X243214286Y-108952381D01*
X244309524Y-109952381D02*
X244309524Y-108952381D01*
X244738095Y-109904762D02*
X244880952Y-109952381D01*
X245119048Y-109952381D01*
X245214286Y-109904762D01*
X245261905Y-109857143D01*
X245309524Y-109761905D01*
X245309524Y-109666667D01*
X245261905Y-109571429D01*
X245214286Y-109523810D01*
X245119048Y-109476190D01*
X244928571Y-109428571D01*
X244833333Y-109380952D01*
X244785714Y-109333333D01*
X244738095Y-109238095D01*
X244738095Y-109142857D01*
X244785714Y-109047619D01*
X244833333Y-109000000D01*
X244928571Y-108952381D01*
X245166667Y-108952381D01*
X245309524Y-109000000D01*
X245738095Y-109952381D02*
X245738095Y-108952381D01*
X246119048Y-108952381D01*
X246214286Y-109000000D01*
X246261905Y-109047619D01*
X246309524Y-109142857D01*
X246309524Y-109285714D01*
X246261905Y-109380952D01*
X246214286Y-109428571D01*
X246119048Y-109476190D01*
X245738095Y-109476190D01*
X250152381Y-105738095D02*
X249152381Y-105738095D01*
X249152381Y-105500000D01*
X249200000Y-105357142D01*
X249295238Y-105261904D01*
X249390476Y-105214285D01*
X249580952Y-105166666D01*
X249723810Y-105166666D01*
X249914286Y-105214285D01*
X250009524Y-105261904D01*
X250104762Y-105357142D01*
X250152381Y-105500000D01*
X250152381Y-105738095D01*
X250152381Y-104214285D02*
X250152381Y-104785714D01*
X250152381Y-104500000D02*
X249152381Y-104500000D01*
X249295238Y-104595238D01*
X249390476Y-104690476D01*
X249438095Y-104785714D01*
X236752381Y-105166666D02*
X236276190Y-105500000D01*
X236752381Y-105738095D02*
X235752381Y-105738095D01*
X235752381Y-105357142D01*
X235800000Y-105261904D01*
X235847619Y-105214285D01*
X235942857Y-105166666D01*
X236085714Y-105166666D01*
X236180952Y-105214285D01*
X236228571Y-105261904D01*
X236276190Y-105357142D01*
X236276190Y-105738095D01*
X236752381Y-104214285D02*
X236752381Y-104785714D01*
X236752381Y-104500000D02*
X235752381Y-104500000D01*
X235895238Y-104595238D01*
X235990476Y-104690476D01*
X236038095Y-104785714D01*
M02*
