M48
;DRILL file {KiCad 4.0.7-e1-6374~58~ubuntu16.04.1} date Mon Aug  7 21:59:47 2017
;FORMAT={-:-/ absolute / inch / decimal}
FMAT,2
INCH,TZ
T1C0.016
T2C0.031
T3C0.039
T4C0.040
T5C0.126
%
G90
G05
M72
T1
X7.5Y-4.75
X8.65Y-4.85
X8.75Y-4.6
X8.75Y-4.75
X9.15Y-4.3
T2
X9.5866Y-4.3976
X9.5866Y-4.4764
X9.5866Y-4.5551
X9.5866Y-4.6339
X9.5866Y-4.7126
X9.5866Y-4.7913
T3
X8.8Y-4.95
X8.9Y-4.45
X8.9Y-4.55
X8.9Y-4.65
X8.9Y-4.95
X9.Y-4.45
X9.Y-4.55
X9.Y-4.65
X9.Y-4.95
X9.1Y-4.95
X9.2Y-4.95
X9.3Y-4.95
T4
X6.6108Y-4.3108
X6.6108Y-4.9108
X6.7108Y-4.3108
X6.7108Y-4.9108
X6.8108Y-4.3108
X6.8108Y-4.9108
X6.9108Y-4.3108
X6.9108Y-4.9108
X7.0108Y-4.3108
X7.0108Y-4.9108
X7.1108Y-4.3108
X7.1108Y-4.9108
X7.2108Y-4.3108
X7.2108Y-4.9108
X7.3108Y-4.3108
X7.3108Y-4.9108
X7.4108Y-4.3108
X7.4108Y-4.9108
X7.5108Y-4.3108
X7.5108Y-4.9108
X7.6108Y-4.3108
X7.6108Y-4.9108
X7.7108Y-4.3108
X7.7108Y-4.9108
X7.8108Y-4.3108
X7.8108Y-4.9108
X7.9108Y-4.3108
X7.9108Y-4.9108
X8.0108Y-4.3108
X8.0108Y-4.9108
X8.1108Y-4.3108
X8.1108Y-4.9108
X8.2108Y-4.3108
X8.2108Y-4.9108
X8.3108Y-4.3108
X8.3108Y-4.9108
X8.4108Y-4.3108
X8.4108Y-4.9108
X8.5108Y-4.3108
X8.5108Y-4.9108
T5
X6.3681Y-3.9272
X9.9114Y-5.3839
T0
M30
