G04 #@! TF.FileFunction,Legend,Top*
%FSLAX46Y46*%
G04 Gerber Fmt 4.6, Leading zero omitted, Abs format (unit mm)*
G04 Created by KiCad (PCBNEW 4.0.6) date Mon Apr 17 18:07:37 2017*
%MOMM*%
%LPD*%
G01*
G04 APERTURE LIST*
%ADD10C,0.100000*%
%ADD11C,0.200000*%
%ADD12C,0.300000*%
%ADD13C,0.120000*%
%ADD14C,0.150000*%
G04 APERTURE END LIST*
D10*
D11*
X231544762Y-124411430D02*
X231592381Y-124316192D01*
X231592381Y-124125716D01*
X231544762Y-124030477D01*
X231449524Y-123982858D01*
X231401905Y-123982858D01*
X231306667Y-124030477D01*
X231259048Y-124125716D01*
X231259048Y-124268573D01*
X231211429Y-124363811D01*
X231116190Y-124411430D01*
X231068571Y-124411430D01*
X230973333Y-124363811D01*
X230925714Y-124268573D01*
X230925714Y-124125716D01*
X230973333Y-124030477D01*
X230925714Y-123697144D02*
X230925714Y-123316192D01*
X230592381Y-123554287D02*
X231449524Y-123554287D01*
X231544762Y-123506668D01*
X231592381Y-123411430D01*
X231592381Y-123316192D01*
X231592381Y-122554286D02*
X231068571Y-122554286D01*
X230973333Y-122601905D01*
X230925714Y-122697143D01*
X230925714Y-122887620D01*
X230973333Y-122982858D01*
X231544762Y-122554286D02*
X231592381Y-122649524D01*
X231592381Y-122887620D01*
X231544762Y-122982858D01*
X231449524Y-123030477D01*
X231354286Y-123030477D01*
X231259048Y-122982858D01*
X231211429Y-122887620D01*
X231211429Y-122649524D01*
X231163810Y-122554286D01*
X230925714Y-122078096D02*
X231592381Y-122078096D01*
X231020952Y-122078096D02*
X230973333Y-122030477D01*
X230925714Y-121935239D01*
X230925714Y-121792381D01*
X230973333Y-121697143D01*
X231068571Y-121649524D01*
X231592381Y-121649524D01*
X231592381Y-120744762D02*
X230592381Y-120744762D01*
X231544762Y-120744762D02*
X231592381Y-120840000D01*
X231592381Y-121030477D01*
X231544762Y-121125715D01*
X231497143Y-121173334D01*
X231401905Y-121220953D01*
X231116190Y-121220953D01*
X231020952Y-121173334D01*
X230973333Y-121125715D01*
X230925714Y-121030477D01*
X230925714Y-120840000D01*
X230973333Y-120744762D01*
X231592381Y-119840000D02*
X231068571Y-119840000D01*
X230973333Y-119887619D01*
X230925714Y-119982857D01*
X230925714Y-120173334D01*
X230973333Y-120268572D01*
X231544762Y-119840000D02*
X231592381Y-119935238D01*
X231592381Y-120173334D01*
X231544762Y-120268572D01*
X231449524Y-120316191D01*
X231354286Y-120316191D01*
X231259048Y-120268572D01*
X231211429Y-120173334D01*
X231211429Y-119935238D01*
X231163810Y-119840000D01*
X231592381Y-119363810D02*
X230925714Y-119363810D01*
X231116190Y-119363810D02*
X231020952Y-119316191D01*
X230973333Y-119268572D01*
X230925714Y-119173334D01*
X230925714Y-119078095D01*
X231592381Y-118316190D02*
X230592381Y-118316190D01*
X231544762Y-118316190D02*
X231592381Y-118411428D01*
X231592381Y-118601905D01*
X231544762Y-118697143D01*
X231497143Y-118744762D01*
X231401905Y-118792381D01*
X231116190Y-118792381D01*
X231020952Y-118744762D01*
X230973333Y-118697143D01*
X230925714Y-118601905D01*
X230925714Y-118411428D01*
X230973333Y-118316190D01*
X231592381Y-117078095D02*
X230592381Y-117078095D01*
X231544762Y-116649524D02*
X231592381Y-116506667D01*
X231592381Y-116268571D01*
X231544762Y-116173333D01*
X231497143Y-116125714D01*
X231401905Y-116078095D01*
X231306667Y-116078095D01*
X231211429Y-116125714D01*
X231163810Y-116173333D01*
X231116190Y-116268571D01*
X231068571Y-116459048D01*
X231020952Y-116554286D01*
X230973333Y-116601905D01*
X230878095Y-116649524D01*
X230782857Y-116649524D01*
X230687619Y-116601905D01*
X230640000Y-116554286D01*
X230592381Y-116459048D01*
X230592381Y-116220952D01*
X230640000Y-116078095D01*
X231592381Y-115649524D02*
X230592381Y-115649524D01*
X230592381Y-115268571D01*
X230640000Y-115173333D01*
X230687619Y-115125714D01*
X230782857Y-115078095D01*
X230925714Y-115078095D01*
X231020952Y-115125714D01*
X231068571Y-115173333D01*
X231116190Y-115268571D01*
X231116190Y-115649524D01*
X231592381Y-113887619D02*
X230592381Y-113887619D01*
X231592381Y-113459047D02*
X231068571Y-113459047D01*
X230973333Y-113506666D01*
X230925714Y-113601904D01*
X230925714Y-113744762D01*
X230973333Y-113840000D01*
X231020952Y-113887619D01*
X231544762Y-112601904D02*
X231592381Y-112697142D01*
X231592381Y-112887619D01*
X231544762Y-112982857D01*
X231449524Y-113030476D01*
X231068571Y-113030476D01*
X230973333Y-112982857D01*
X230925714Y-112887619D01*
X230925714Y-112697142D01*
X230973333Y-112601904D01*
X231068571Y-112554285D01*
X231163810Y-112554285D01*
X231259048Y-113030476D01*
X231592381Y-111697142D02*
X231068571Y-111697142D01*
X230973333Y-111744761D01*
X230925714Y-111839999D01*
X230925714Y-112030476D01*
X230973333Y-112125714D01*
X231544762Y-111697142D02*
X231592381Y-111792380D01*
X231592381Y-112030476D01*
X231544762Y-112125714D01*
X231449524Y-112173333D01*
X231354286Y-112173333D01*
X231259048Y-112125714D01*
X231211429Y-112030476D01*
X231211429Y-111792380D01*
X231163810Y-111697142D01*
X231592381Y-110792380D02*
X230592381Y-110792380D01*
X231544762Y-110792380D02*
X231592381Y-110887618D01*
X231592381Y-111078095D01*
X231544762Y-111173333D01*
X231497143Y-111220952D01*
X231401905Y-111268571D01*
X231116190Y-111268571D01*
X231020952Y-111220952D01*
X230973333Y-111173333D01*
X230925714Y-111078095D01*
X230925714Y-110887618D01*
X230973333Y-110792380D01*
X231544762Y-109935237D02*
X231592381Y-110030475D01*
X231592381Y-110220952D01*
X231544762Y-110316190D01*
X231449524Y-110363809D01*
X231068571Y-110363809D01*
X230973333Y-110316190D01*
X230925714Y-110220952D01*
X230925714Y-110030475D01*
X230973333Y-109935237D01*
X231068571Y-109887618D01*
X231163810Y-109887618D01*
X231259048Y-110363809D01*
X231592381Y-109459047D02*
X230925714Y-109459047D01*
X231116190Y-109459047D02*
X231020952Y-109411428D01*
X230973333Y-109363809D01*
X230925714Y-109268571D01*
X230925714Y-109173332D01*
X223885714Y-104592381D02*
X223885714Y-103925714D01*
X223885714Y-104020952D02*
X223933333Y-103973333D01*
X224028571Y-103925714D01*
X224171429Y-103925714D01*
X224266667Y-103973333D01*
X224314286Y-104068571D01*
X224314286Y-104592381D01*
X224314286Y-104068571D02*
X224361905Y-103973333D01*
X224457143Y-103925714D01*
X224600000Y-103925714D01*
X224695238Y-103973333D01*
X224742857Y-104068571D01*
X224742857Y-104592381D01*
X225647619Y-104592381D02*
X225647619Y-104068571D01*
X225600000Y-103973333D01*
X225504762Y-103925714D01*
X225314285Y-103925714D01*
X225219047Y-103973333D01*
X225647619Y-104544762D02*
X225552381Y-104592381D01*
X225314285Y-104592381D01*
X225219047Y-104544762D01*
X225171428Y-104449524D01*
X225171428Y-104354286D01*
X225219047Y-104259048D01*
X225314285Y-104211429D01*
X225552381Y-104211429D01*
X225647619Y-104163810D01*
X226552381Y-104592381D02*
X226552381Y-103592381D01*
X226552381Y-104544762D02*
X226457143Y-104592381D01*
X226266666Y-104592381D01*
X226171428Y-104544762D01*
X226123809Y-104497143D01*
X226076190Y-104401905D01*
X226076190Y-104116190D01*
X226123809Y-104020952D01*
X226171428Y-103973333D01*
X226266666Y-103925714D01*
X226457143Y-103925714D01*
X226552381Y-103973333D01*
X227409524Y-104544762D02*
X227314286Y-104592381D01*
X227123809Y-104592381D01*
X227028571Y-104544762D01*
X226980952Y-104449524D01*
X226980952Y-104068571D01*
X227028571Y-103973333D01*
X227123809Y-103925714D01*
X227314286Y-103925714D01*
X227409524Y-103973333D01*
X227457143Y-104068571D01*
X227457143Y-104163810D01*
X226980952Y-104259048D01*
X228647619Y-104592381D02*
X228647619Y-103592381D01*
X228647619Y-103973333D02*
X228742857Y-103925714D01*
X228933334Y-103925714D01*
X229028572Y-103973333D01*
X229076191Y-104020952D01*
X229123810Y-104116190D01*
X229123810Y-104401905D01*
X229076191Y-104497143D01*
X229028572Y-104544762D01*
X228933334Y-104592381D01*
X228742857Y-104592381D01*
X228647619Y-104544762D01*
X229457143Y-103925714D02*
X229695238Y-104592381D01*
X229933334Y-103925714D02*
X229695238Y-104592381D01*
X229600000Y-104830476D01*
X229552381Y-104878095D01*
X229457143Y-104925714D01*
X231504763Y-104592381D02*
X231504763Y-104068571D01*
X231457144Y-103973333D01*
X231361906Y-103925714D01*
X231171429Y-103925714D01*
X231076191Y-103973333D01*
X231504763Y-104544762D02*
X231409525Y-104592381D01*
X231171429Y-104592381D01*
X231076191Y-104544762D01*
X231028572Y-104449524D01*
X231028572Y-104354286D01*
X231076191Y-104259048D01*
X231171429Y-104211429D01*
X231409525Y-104211429D01*
X231504763Y-104163810D01*
X231980953Y-104592381D02*
X231980953Y-103925714D01*
X231980953Y-104020952D02*
X232028572Y-103973333D01*
X232123810Y-103925714D01*
X232266668Y-103925714D01*
X232361906Y-103973333D01*
X232409525Y-104068571D01*
X232409525Y-104592381D01*
X232409525Y-104068571D02*
X232457144Y-103973333D01*
X232552382Y-103925714D01*
X232695239Y-103925714D01*
X232790477Y-103973333D01*
X232838096Y-104068571D01*
X232838096Y-104592381D01*
X233314286Y-104592381D02*
X233314286Y-103925714D01*
X233314286Y-103592381D02*
X233266667Y-103640000D01*
X233314286Y-103687619D01*
X233361905Y-103640000D01*
X233314286Y-103592381D01*
X233314286Y-103687619D01*
D12*
X169297144Y-104032857D02*
X168797144Y-104032857D01*
X168797144Y-104818571D02*
X168797144Y-103318571D01*
X169511430Y-103318571D01*
X170011429Y-104390000D02*
X170725715Y-104390000D01*
X169868572Y-104818571D02*
X170368572Y-103318571D01*
X170868572Y-104818571D01*
X171297143Y-104747143D02*
X171511429Y-104818571D01*
X171868572Y-104818571D01*
X172011429Y-104747143D01*
X172082858Y-104675714D01*
X172154286Y-104532857D01*
X172154286Y-104390000D01*
X172082858Y-104247143D01*
X172011429Y-104175714D01*
X171868572Y-104104286D01*
X171582858Y-104032857D01*
X171440000Y-103961429D01*
X171368572Y-103890000D01*
X171297143Y-103747143D01*
X171297143Y-103604286D01*
X171368572Y-103461429D01*
X171440000Y-103390000D01*
X171582858Y-103318571D01*
X171940000Y-103318571D01*
X172154286Y-103390000D01*
X172582857Y-103318571D02*
X173440000Y-103318571D01*
X173011429Y-104818571D02*
X173011429Y-103318571D01*
X173940000Y-103318571D02*
X173940000Y-104532857D01*
X174011428Y-104675714D01*
X174082857Y-104747143D01*
X174225714Y-104818571D01*
X174511428Y-104818571D01*
X174654286Y-104747143D01*
X174725714Y-104675714D01*
X174797143Y-104532857D01*
X174797143Y-103318571D01*
X175440000Y-104747143D02*
X175654286Y-104818571D01*
X176011429Y-104818571D01*
X176154286Y-104747143D01*
X176225715Y-104675714D01*
X176297143Y-104532857D01*
X176297143Y-104390000D01*
X176225715Y-104247143D01*
X176154286Y-104175714D01*
X176011429Y-104104286D01*
X175725715Y-104032857D01*
X175582857Y-103961429D01*
X175511429Y-103890000D01*
X175440000Y-103747143D01*
X175440000Y-103604286D01*
X175511429Y-103461429D01*
X175582857Y-103390000D01*
X175725715Y-103318571D01*
X176082857Y-103318571D01*
X176297143Y-103390000D01*
X177440000Y-104032857D02*
X177654286Y-104104286D01*
X177725714Y-104175714D01*
X177797143Y-104318571D01*
X177797143Y-104532857D01*
X177725714Y-104675714D01*
X177654286Y-104747143D01*
X177511428Y-104818571D01*
X176940000Y-104818571D01*
X176940000Y-103318571D01*
X177440000Y-103318571D01*
X177582857Y-103390000D01*
X177654286Y-103461429D01*
X177725714Y-103604286D01*
X177725714Y-103747143D01*
X177654286Y-103890000D01*
X177582857Y-103961429D01*
X177440000Y-104032857D01*
X176940000Y-104032857D01*
X179082857Y-104818571D02*
X179082857Y-104032857D01*
X179011428Y-103890000D01*
X178868571Y-103818571D01*
X178582857Y-103818571D01*
X178440000Y-103890000D01*
X179082857Y-104747143D02*
X178940000Y-104818571D01*
X178582857Y-104818571D01*
X178440000Y-104747143D01*
X178368571Y-104604286D01*
X178368571Y-104461429D01*
X178440000Y-104318571D01*
X178582857Y-104247143D01*
X178940000Y-104247143D01*
X179082857Y-104175714D01*
X179725714Y-104747143D02*
X179868571Y-104818571D01*
X180154286Y-104818571D01*
X180297143Y-104747143D01*
X180368571Y-104604286D01*
X180368571Y-104532857D01*
X180297143Y-104390000D01*
X180154286Y-104318571D01*
X179940000Y-104318571D01*
X179797143Y-104247143D01*
X179725714Y-104104286D01*
X179725714Y-104032857D01*
X179797143Y-103890000D01*
X179940000Y-103818571D01*
X180154286Y-103818571D01*
X180297143Y-103890000D01*
X181011429Y-103818571D02*
X181011429Y-105318571D01*
X181011429Y-103890000D02*
X181154286Y-103818571D01*
X181440000Y-103818571D01*
X181582857Y-103890000D01*
X181654286Y-103961429D01*
X181725715Y-104104286D01*
X181725715Y-104532857D01*
X181654286Y-104675714D01*
X181582857Y-104747143D01*
X181440000Y-104818571D01*
X181154286Y-104818571D01*
X181011429Y-104747143D01*
X183440000Y-104390000D02*
X184154286Y-104390000D01*
X183297143Y-104818571D02*
X183797143Y-103318571D01*
X184297143Y-104818571D01*
X185440000Y-104818571D02*
X185440000Y-103318571D01*
X185440000Y-104747143D02*
X185297143Y-104818571D01*
X185011429Y-104818571D01*
X184868571Y-104747143D01*
X184797143Y-104675714D01*
X184725714Y-104532857D01*
X184725714Y-104104286D01*
X184797143Y-103961429D01*
X184868571Y-103890000D01*
X185011429Y-103818571D01*
X185297143Y-103818571D01*
X185440000Y-103890000D01*
X186797143Y-104818571D02*
X186797143Y-104032857D01*
X186725714Y-103890000D01*
X186582857Y-103818571D01*
X186297143Y-103818571D01*
X186154286Y-103890000D01*
X186797143Y-104747143D02*
X186654286Y-104818571D01*
X186297143Y-104818571D01*
X186154286Y-104747143D01*
X186082857Y-104604286D01*
X186082857Y-104461429D01*
X186154286Y-104318571D01*
X186297143Y-104247143D01*
X186654286Y-104247143D01*
X186797143Y-104175714D01*
X187511429Y-103818571D02*
X187511429Y-105318571D01*
X187511429Y-103890000D02*
X187654286Y-103818571D01*
X187940000Y-103818571D01*
X188082857Y-103890000D01*
X188154286Y-103961429D01*
X188225715Y-104104286D01*
X188225715Y-104532857D01*
X188154286Y-104675714D01*
X188082857Y-104747143D01*
X187940000Y-104818571D01*
X187654286Y-104818571D01*
X187511429Y-104747143D01*
X188654286Y-103818571D02*
X189225715Y-103818571D01*
X188868572Y-103318571D02*
X188868572Y-104604286D01*
X188940000Y-104747143D01*
X189082858Y-104818571D01*
X189225715Y-104818571D01*
X190297143Y-104747143D02*
X190154286Y-104818571D01*
X189868572Y-104818571D01*
X189725715Y-104747143D01*
X189654286Y-104604286D01*
X189654286Y-104032857D01*
X189725715Y-103890000D01*
X189868572Y-103818571D01*
X190154286Y-103818571D01*
X190297143Y-103890000D01*
X190368572Y-104032857D01*
X190368572Y-104175714D01*
X189654286Y-104318571D01*
X191011429Y-104818571D02*
X191011429Y-103818571D01*
X191011429Y-104104286D02*
X191082857Y-103961429D01*
X191154286Y-103890000D01*
X191297143Y-103818571D01*
X191440000Y-103818571D01*
X193082857Y-104818571D02*
X193082857Y-103318571D01*
X193082857Y-103890000D02*
X193225714Y-103818571D01*
X193511428Y-103818571D01*
X193654285Y-103890000D01*
X193725714Y-103961429D01*
X193797143Y-104104286D01*
X193797143Y-104532857D01*
X193725714Y-104675714D01*
X193654285Y-104747143D01*
X193511428Y-104818571D01*
X193225714Y-104818571D01*
X193082857Y-104747143D01*
X194654286Y-104818571D02*
X194511428Y-104747143D01*
X194440000Y-104675714D01*
X194368571Y-104532857D01*
X194368571Y-104104286D01*
X194440000Y-103961429D01*
X194511428Y-103890000D01*
X194654286Y-103818571D01*
X194868571Y-103818571D01*
X195011428Y-103890000D01*
X195082857Y-103961429D01*
X195154286Y-104104286D01*
X195154286Y-104532857D01*
X195082857Y-104675714D01*
X195011428Y-104747143D01*
X194868571Y-104818571D01*
X194654286Y-104818571D01*
X196440000Y-104818571D02*
X196440000Y-104032857D01*
X196368571Y-103890000D01*
X196225714Y-103818571D01*
X195940000Y-103818571D01*
X195797143Y-103890000D01*
X196440000Y-104747143D02*
X196297143Y-104818571D01*
X195940000Y-104818571D01*
X195797143Y-104747143D01*
X195725714Y-104604286D01*
X195725714Y-104461429D01*
X195797143Y-104318571D01*
X195940000Y-104247143D01*
X196297143Y-104247143D01*
X196440000Y-104175714D01*
X197154286Y-104818571D02*
X197154286Y-103818571D01*
X197154286Y-104104286D02*
X197225714Y-103961429D01*
X197297143Y-103890000D01*
X197440000Y-103818571D01*
X197582857Y-103818571D01*
X198725714Y-104818571D02*
X198725714Y-103318571D01*
X198725714Y-104747143D02*
X198582857Y-104818571D01*
X198297143Y-104818571D01*
X198154285Y-104747143D01*
X198082857Y-104675714D01*
X198011428Y-104532857D01*
X198011428Y-104104286D01*
X198082857Y-103961429D01*
X198154285Y-103890000D01*
X198297143Y-103818571D01*
X198582857Y-103818571D01*
X198725714Y-103890000D01*
X200440000Y-103818571D02*
X200797143Y-104818571D01*
X201154285Y-103818571D01*
X202011428Y-103318571D02*
X202154285Y-103318571D01*
X202297142Y-103390000D01*
X202368571Y-103461429D01*
X202440000Y-103604286D01*
X202511428Y-103890000D01*
X202511428Y-104247143D01*
X202440000Y-104532857D01*
X202368571Y-104675714D01*
X202297142Y-104747143D01*
X202154285Y-104818571D01*
X202011428Y-104818571D01*
X201868571Y-104747143D01*
X201797142Y-104675714D01*
X201725714Y-104532857D01*
X201654285Y-104247143D01*
X201654285Y-103890000D01*
X201725714Y-103604286D01*
X201797142Y-103461429D01*
X201868571Y-103390000D01*
X202011428Y-103318571D01*
X203154285Y-104675714D02*
X203225713Y-104747143D01*
X203154285Y-104818571D01*
X203082856Y-104747143D01*
X203154285Y-104675714D01*
X203154285Y-104818571D01*
X204654285Y-104818571D02*
X203797142Y-104818571D01*
X204225714Y-104818571D02*
X204225714Y-103318571D01*
X204082857Y-103532857D01*
X203939999Y-103675714D01*
X203797142Y-103747143D01*
D13*
X224730000Y-114300000D02*
X224730000Y-119440000D01*
X224730000Y-119440000D02*
X229930000Y-119440000D01*
X229930000Y-119440000D02*
X229930000Y-111700000D01*
X229930000Y-111700000D02*
X227330000Y-111700000D01*
X227330000Y-111700000D02*
X227330000Y-114300000D01*
X227330000Y-114300000D02*
X224730000Y-114300000D01*
X224730000Y-113030000D02*
X224730000Y-111700000D01*
X224730000Y-111700000D02*
X226060000Y-111700000D01*
D14*
X165375001Y-128545001D02*
X218715001Y-128545001D01*
X218715001Y-105685001D02*
X165375001Y-105685001D01*
X218715001Y-128545001D02*
X218715001Y-105685001D01*
X165375001Y-105685001D02*
X165375001Y-128545001D01*
X226115715Y-111057143D02*
X226068096Y-111104762D01*
X225925239Y-111152381D01*
X225830001Y-111152381D01*
X225687143Y-111104762D01*
X225591905Y-111009524D01*
X225544286Y-110914286D01*
X225496667Y-110723810D01*
X225496667Y-110580952D01*
X225544286Y-110390476D01*
X225591905Y-110295238D01*
X225687143Y-110200000D01*
X225830001Y-110152381D01*
X225925239Y-110152381D01*
X226068096Y-110200000D01*
X226115715Y-110247619D01*
X226734762Y-110152381D02*
X226925239Y-110152381D01*
X227020477Y-110200000D01*
X227115715Y-110295238D01*
X227163334Y-110485714D01*
X227163334Y-110819048D01*
X227115715Y-111009524D01*
X227020477Y-111104762D01*
X226925239Y-111152381D01*
X226734762Y-111152381D01*
X226639524Y-111104762D01*
X226544286Y-111009524D01*
X226496667Y-110819048D01*
X226496667Y-110485714D01*
X226544286Y-110295238D01*
X226639524Y-110200000D01*
X226734762Y-110152381D01*
X227591905Y-111152381D02*
X227591905Y-110152381D01*
X228163334Y-111152381D01*
X228163334Y-110152381D01*
X229163334Y-111152381D02*
X228591905Y-111152381D01*
X228877619Y-111152381D02*
X228877619Y-110152381D01*
X228782381Y-110295238D01*
X228687143Y-110390476D01*
X228591905Y-110438095D01*
X191283096Y-117837382D02*
X191283096Y-118646906D01*
X191330715Y-118742144D01*
X191378334Y-118789763D01*
X191473572Y-118837382D01*
X191664049Y-118837382D01*
X191759287Y-118789763D01*
X191806906Y-118742144D01*
X191854525Y-118646906D01*
X191854525Y-117837382D01*
X192854525Y-118837382D02*
X192283096Y-118837382D01*
X192568810Y-118837382D02*
X192568810Y-117837382D01*
X192473572Y-117980239D01*
X192378334Y-118075477D01*
X192283096Y-118123096D01*
X180568810Y-116249763D02*
X180664048Y-116297382D01*
X180854524Y-116297382D01*
X180949763Y-116249763D01*
X180997382Y-116154525D01*
X180997382Y-116106906D01*
X180949763Y-116011668D01*
X180854524Y-115964049D01*
X180711667Y-115964049D01*
X180616429Y-115916430D01*
X180568810Y-115821191D01*
X180568810Y-115773572D01*
X180616429Y-115678334D01*
X180711667Y-115630715D01*
X180854524Y-115630715D01*
X180949763Y-115678334D01*
X181283096Y-115630715D02*
X181664048Y-115630715D01*
X181425953Y-115297382D02*
X181425953Y-116154525D01*
X181473572Y-116249763D01*
X181568810Y-116297382D01*
X181664048Y-116297382D01*
X181997382Y-116297382D02*
X181997382Y-115630715D01*
X181997382Y-115725953D02*
X182045001Y-115678334D01*
X182140239Y-115630715D01*
X182283097Y-115630715D01*
X182378335Y-115678334D01*
X182425954Y-115773572D01*
X182425954Y-116297382D01*
X182425954Y-115773572D02*
X182473573Y-115678334D01*
X182568811Y-115630715D01*
X182711668Y-115630715D01*
X182806906Y-115678334D01*
X182854525Y-115773572D01*
X182854525Y-116297382D01*
X183235477Y-115297382D02*
X183854525Y-115297382D01*
X183521191Y-115678334D01*
X183664049Y-115678334D01*
X183759287Y-115725953D01*
X183806906Y-115773572D01*
X183854525Y-115868811D01*
X183854525Y-116106906D01*
X183806906Y-116202144D01*
X183759287Y-116249763D01*
X183664049Y-116297382D01*
X183378334Y-116297382D01*
X183283096Y-116249763D01*
X183235477Y-116202144D01*
X184235477Y-115392620D02*
X184283096Y-115345001D01*
X184378334Y-115297382D01*
X184616430Y-115297382D01*
X184711668Y-115345001D01*
X184759287Y-115392620D01*
X184806906Y-115487858D01*
X184806906Y-115583096D01*
X184759287Y-115725953D01*
X184187858Y-116297382D01*
X184806906Y-116297382D01*
X185092620Y-115630715D02*
X185473572Y-115630715D01*
X185235477Y-116297382D02*
X185235477Y-115440239D01*
X185283096Y-115345001D01*
X185378334Y-115297382D01*
X185473572Y-115297382D01*
X186330716Y-116297382D02*
X185759287Y-116297382D01*
X186045001Y-116297382D02*
X186045001Y-115297382D01*
X185949763Y-115440239D01*
X185854525Y-115535477D01*
X185759287Y-115583096D01*
X186949763Y-115297382D02*
X187045002Y-115297382D01*
X187140240Y-115345001D01*
X187187859Y-115392620D01*
X187235478Y-115487858D01*
X187283097Y-115678334D01*
X187283097Y-115916430D01*
X187235478Y-116106906D01*
X187187859Y-116202144D01*
X187140240Y-116249763D01*
X187045002Y-116297382D01*
X186949763Y-116297382D01*
X186854525Y-116249763D01*
X186806906Y-116202144D01*
X186759287Y-116106906D01*
X186711668Y-115916430D01*
X186711668Y-115678334D01*
X186759287Y-115487858D01*
X186806906Y-115392620D01*
X186854525Y-115345001D01*
X186949763Y-115297382D01*
X187616430Y-115297382D02*
X188235478Y-115297382D01*
X187902144Y-115678334D01*
X188045002Y-115678334D01*
X188140240Y-115725953D01*
X188187859Y-115773572D01*
X188235478Y-115868811D01*
X188235478Y-116106906D01*
X188187859Y-116202144D01*
X188140240Y-116249763D01*
X188045002Y-116297382D01*
X187759287Y-116297382D01*
X187664049Y-116249763D01*
X187616430Y-116202144D01*
X189092621Y-116249763D02*
X188997383Y-116297382D01*
X188806906Y-116297382D01*
X188711668Y-116249763D01*
X188664049Y-116202144D01*
X188616430Y-116106906D01*
X188616430Y-115821191D01*
X188664049Y-115725953D01*
X188711668Y-115678334D01*
X188806906Y-115630715D01*
X188997383Y-115630715D01*
X189092621Y-115678334D01*
X189664049Y-115725953D02*
X189568811Y-115678334D01*
X189521192Y-115630715D01*
X189473573Y-115535477D01*
X189473573Y-115487858D01*
X189521192Y-115392620D01*
X189568811Y-115345001D01*
X189664049Y-115297382D01*
X189854526Y-115297382D01*
X189949764Y-115345001D01*
X189997383Y-115392620D01*
X190045002Y-115487858D01*
X190045002Y-115535477D01*
X189997383Y-115630715D01*
X189949764Y-115678334D01*
X189854526Y-115725953D01*
X189664049Y-115725953D01*
X189568811Y-115773572D01*
X189521192Y-115821191D01*
X189473573Y-115916430D01*
X189473573Y-116106906D01*
X189521192Y-116202144D01*
X189568811Y-116249763D01*
X189664049Y-116297382D01*
X189854526Y-116297382D01*
X189949764Y-116249763D01*
X189997383Y-116202144D01*
X190045002Y-116106906D01*
X190045002Y-115916430D01*
X189997383Y-115821191D01*
X189949764Y-115773572D01*
X189854526Y-115725953D01*
X190330716Y-115630715D02*
X190711668Y-115630715D01*
X190473573Y-115297382D02*
X190473573Y-116154525D01*
X190521192Y-116249763D01*
X190616430Y-116297382D01*
X190711668Y-116297382D01*
X191473574Y-115297382D02*
X191283097Y-115297382D01*
X191187859Y-115345001D01*
X191140240Y-115392620D01*
X191045002Y-115535477D01*
X190997383Y-115725953D01*
X190997383Y-116106906D01*
X191045002Y-116202144D01*
X191092621Y-116249763D01*
X191187859Y-116297382D01*
X191378336Y-116297382D01*
X191473574Y-116249763D01*
X191521193Y-116202144D01*
X191568812Y-116106906D01*
X191568812Y-115868811D01*
X191521193Y-115773572D01*
X191473574Y-115725953D01*
X191378336Y-115678334D01*
X191187859Y-115678334D01*
X191092621Y-115725953D01*
X191045002Y-115773572D01*
X190997383Y-115868811D01*
X191997383Y-115916430D02*
X192759288Y-115916430D01*
X193235478Y-116297382D02*
X193235478Y-115630715D01*
X193235478Y-115725953D02*
X193283097Y-115678334D01*
X193378335Y-115630715D01*
X193521193Y-115630715D01*
X193616431Y-115678334D01*
X193664050Y-115773572D01*
X193664050Y-116297382D01*
X193664050Y-115773572D02*
X193711669Y-115678334D01*
X193806907Y-115630715D01*
X193949764Y-115630715D01*
X194045002Y-115678334D01*
X194092621Y-115773572D01*
X194092621Y-116297382D01*
X194711668Y-116297382D02*
X194616430Y-116249763D01*
X194568811Y-116202144D01*
X194521192Y-116106906D01*
X194521192Y-115821191D01*
X194568811Y-115725953D01*
X194616430Y-115678334D01*
X194711668Y-115630715D01*
X194854526Y-115630715D01*
X194949764Y-115678334D01*
X194997383Y-115725953D01*
X195045002Y-115821191D01*
X195045002Y-116106906D01*
X194997383Y-116202144D01*
X194949764Y-116249763D01*
X194854526Y-116297382D01*
X194711668Y-116297382D01*
X195902145Y-116297382D02*
X195902145Y-115297382D01*
X195902145Y-116249763D02*
X195806907Y-116297382D01*
X195616430Y-116297382D01*
X195521192Y-116249763D01*
X195473573Y-116202144D01*
X195425954Y-116106906D01*
X195425954Y-115821191D01*
X195473573Y-115725953D01*
X195521192Y-115678334D01*
X195616430Y-115630715D01*
X195806907Y-115630715D01*
X195902145Y-115678334D01*
X196806907Y-115630715D02*
X196806907Y-116297382D01*
X196378335Y-115630715D02*
X196378335Y-116154525D01*
X196425954Y-116249763D01*
X196521192Y-116297382D01*
X196664050Y-116297382D01*
X196759288Y-116249763D01*
X196806907Y-116202144D01*
X197425954Y-116297382D02*
X197330716Y-116249763D01*
X197283097Y-116154525D01*
X197283097Y-115297382D01*
X198187860Y-116249763D02*
X198092622Y-116297382D01*
X197902145Y-116297382D01*
X197806907Y-116249763D01*
X197759288Y-116154525D01*
X197759288Y-115773572D01*
X197806907Y-115678334D01*
X197902145Y-115630715D01*
X198092622Y-115630715D01*
X198187860Y-115678334D01*
X198235479Y-115773572D01*
X198235479Y-115868811D01*
X197759288Y-115964049D01*
X198664050Y-115916430D02*
X199425955Y-115916430D01*
X200330717Y-116249763D02*
X200235479Y-116297382D01*
X200045002Y-116297382D01*
X199949764Y-116249763D01*
X199902145Y-116202144D01*
X199854526Y-116106906D01*
X199854526Y-115821191D01*
X199902145Y-115725953D01*
X199949764Y-115678334D01*
X200045002Y-115630715D01*
X200235479Y-115630715D01*
X200330717Y-115678334D01*
X200759288Y-116297382D02*
X200759288Y-115297382D01*
X201187860Y-116297382D02*
X201187860Y-115773572D01*
X201140241Y-115678334D01*
X201045003Y-115630715D01*
X200902145Y-115630715D01*
X200806907Y-115678334D01*
X200759288Y-115725953D01*
X201664050Y-116297382D02*
X201664050Y-115630715D01*
X201664050Y-115297382D02*
X201616431Y-115345001D01*
X201664050Y-115392620D01*
X201711669Y-115345001D01*
X201664050Y-115297382D01*
X201664050Y-115392620D01*
X202140240Y-115630715D02*
X202140240Y-116297382D01*
X202140240Y-115725953D02*
X202187859Y-115678334D01*
X202283097Y-115630715D01*
X202425955Y-115630715D01*
X202521193Y-115678334D01*
X202568812Y-115773572D01*
X202568812Y-116297382D01*
X203473574Y-116297382D02*
X203473574Y-115773572D01*
X203425955Y-115678334D01*
X203330717Y-115630715D01*
X203140240Y-115630715D01*
X203045002Y-115678334D01*
X203473574Y-116249763D02*
X203378336Y-116297382D01*
X203140240Y-116297382D01*
X203045002Y-116249763D01*
X202997383Y-116154525D01*
X202997383Y-116059287D01*
X203045002Y-115964049D01*
X203140240Y-115916430D01*
X203378336Y-115916430D01*
X203473574Y-115868811D01*
X181019763Y-113154049D02*
X181067382Y-113058811D01*
X181067382Y-112868335D01*
X181019763Y-112773096D01*
X180924525Y-112725477D01*
X180876906Y-112725477D01*
X180781668Y-112773096D01*
X180734049Y-112868335D01*
X180734049Y-113011192D01*
X180686430Y-113106430D01*
X180591191Y-113154049D01*
X180543572Y-113154049D01*
X180448334Y-113106430D01*
X180400715Y-113011192D01*
X180400715Y-112868335D01*
X180448334Y-112773096D01*
X181019763Y-111868334D02*
X181067382Y-111963572D01*
X181067382Y-112154049D01*
X181019763Y-112249287D01*
X180972144Y-112296906D01*
X180876906Y-112344525D01*
X180591191Y-112344525D01*
X180495953Y-112296906D01*
X180448334Y-112249287D01*
X180400715Y-112154049D01*
X180400715Y-111963572D01*
X180448334Y-111868334D01*
X180162620Y-111487382D02*
X180115001Y-111439763D01*
X180067382Y-111344525D01*
X180067382Y-111106429D01*
X180115001Y-111011191D01*
X180162620Y-110963572D01*
X180257858Y-110915953D01*
X180353096Y-110915953D01*
X180495953Y-110963572D01*
X181067382Y-111535001D01*
X181067382Y-110915953D01*
X178479763Y-113177858D02*
X178527382Y-113082620D01*
X178527382Y-112892144D01*
X178479763Y-112796905D01*
X178384525Y-112749286D01*
X178336906Y-112749286D01*
X178241668Y-112796905D01*
X178194049Y-112892144D01*
X178194049Y-113035001D01*
X178146430Y-113130239D01*
X178051191Y-113177858D01*
X178003572Y-113177858D01*
X177908334Y-113130239D01*
X177860715Y-113035001D01*
X177860715Y-112892144D01*
X177908334Y-112796905D01*
X178527382Y-111892143D02*
X177527382Y-111892143D01*
X178479763Y-111892143D02*
X178527382Y-111987381D01*
X178527382Y-112177858D01*
X178479763Y-112273096D01*
X178432144Y-112320715D01*
X178336906Y-112368334D01*
X178051191Y-112368334D01*
X177955953Y-112320715D01*
X177908334Y-112273096D01*
X177860715Y-112177858D01*
X177860715Y-111987381D01*
X177908334Y-111892143D01*
X177622620Y-111463572D02*
X177575001Y-111415953D01*
X177527382Y-111320715D01*
X177527382Y-111082619D01*
X177575001Y-110987381D01*
X177622620Y-110939762D01*
X177717858Y-110892143D01*
X177813096Y-110892143D01*
X177955953Y-110939762D01*
X178527382Y-111511191D01*
X178527382Y-110892143D01*
X174177858Y-127727382D02*
X174177858Y-127060715D01*
X174177858Y-127155953D02*
X174225477Y-127108334D01*
X174320715Y-127060715D01*
X174463573Y-127060715D01*
X174558811Y-127108334D01*
X174606430Y-127203572D01*
X174606430Y-127727382D01*
X174606430Y-127203572D02*
X174654049Y-127108334D01*
X174749287Y-127060715D01*
X174892144Y-127060715D01*
X174987382Y-127108334D01*
X175035001Y-127203572D01*
X175035001Y-127727382D01*
X175654048Y-127727382D02*
X175558810Y-127679763D01*
X175511191Y-127632144D01*
X175463572Y-127536906D01*
X175463572Y-127251191D01*
X175511191Y-127155953D01*
X175558810Y-127108334D01*
X175654048Y-127060715D01*
X175796906Y-127060715D01*
X175892144Y-127108334D01*
X175939763Y-127155953D01*
X175987382Y-127251191D01*
X175987382Y-127536906D01*
X175939763Y-127632144D01*
X175892144Y-127679763D01*
X175796906Y-127727382D01*
X175654048Y-127727382D01*
X176368334Y-126822620D02*
X176415953Y-126775001D01*
X176511191Y-126727382D01*
X176749287Y-126727382D01*
X176844525Y-126775001D01*
X176892144Y-126822620D01*
X176939763Y-126917858D01*
X176939763Y-127013096D01*
X176892144Y-127155953D01*
X176320715Y-127727382D01*
X176939763Y-127727382D01*
X172518811Y-127727382D02*
X172518811Y-127060715D01*
X172518811Y-126727382D02*
X172471192Y-126775001D01*
X172518811Y-126822620D01*
X172566430Y-126775001D01*
X172518811Y-126727382D01*
X172518811Y-126822620D01*
X172947382Y-126822620D02*
X172995001Y-126775001D01*
X173090239Y-126727382D01*
X173328335Y-126727382D01*
X173423573Y-126775001D01*
X173471192Y-126822620D01*
X173518811Y-126917858D01*
X173518811Y-127013096D01*
X173471192Y-127155953D01*
X172899763Y-127727382D01*
X173518811Y-127727382D01*
X170216906Y-127679763D02*
X170121668Y-127727382D01*
X169931191Y-127727382D01*
X169835953Y-127679763D01*
X169788334Y-127632144D01*
X169740715Y-127536906D01*
X169740715Y-127251191D01*
X169788334Y-127155953D01*
X169835953Y-127108334D01*
X169931191Y-127060715D01*
X170121668Y-127060715D01*
X170216906Y-127108334D01*
X170597858Y-126822620D02*
X170645477Y-126775001D01*
X170740715Y-126727382D01*
X170978811Y-126727382D01*
X171074049Y-126775001D01*
X171121668Y-126822620D01*
X171169287Y-126917858D01*
X171169287Y-127013096D01*
X171121668Y-127155953D01*
X170550239Y-127727382D01*
X171169287Y-127727382D01*
X166819763Y-127679763D02*
X166915001Y-127727382D01*
X167105477Y-127727382D01*
X167200716Y-127679763D01*
X167248335Y-127584525D01*
X167248335Y-127536906D01*
X167200716Y-127441668D01*
X167105477Y-127394049D01*
X166962620Y-127394049D01*
X166867382Y-127346430D01*
X166819763Y-127251191D01*
X166819763Y-127203572D01*
X166867382Y-127108334D01*
X166962620Y-127060715D01*
X167105477Y-127060715D01*
X167200716Y-127108334D01*
X167629287Y-127679763D02*
X167724525Y-127727382D01*
X167915001Y-127727382D01*
X168010240Y-127679763D01*
X168057859Y-127584525D01*
X168057859Y-127536906D01*
X168010240Y-127441668D01*
X167915001Y-127394049D01*
X167772144Y-127394049D01*
X167676906Y-127346430D01*
X167629287Y-127251191D01*
X167629287Y-127203572D01*
X167676906Y-127108334D01*
X167772144Y-127060715D01*
X167915001Y-127060715D01*
X168010240Y-127108334D01*
X168438811Y-126822620D02*
X168486430Y-126775001D01*
X168581668Y-126727382D01*
X168819764Y-126727382D01*
X168915002Y-126775001D01*
X168962621Y-126822620D01*
X169010240Y-126917858D01*
X169010240Y-127013096D01*
X168962621Y-127155953D01*
X168391192Y-127727382D01*
X169010240Y-127727382D01*
X203213097Y-127727382D02*
X203213097Y-126727382D01*
X203213097Y-127679763D02*
X203117859Y-127727382D01*
X202927382Y-127727382D01*
X202832144Y-127679763D01*
X202784525Y-127632144D01*
X202736906Y-127536906D01*
X202736906Y-127251191D01*
X202784525Y-127155953D01*
X202832144Y-127108334D01*
X202927382Y-127060715D01*
X203117859Y-127060715D01*
X203213097Y-127108334D01*
X204213097Y-127727382D02*
X203641668Y-127727382D01*
X203927382Y-127727382D02*
X203927382Y-126727382D01*
X203832144Y-126870239D01*
X203736906Y-126965477D01*
X203641668Y-127013096D01*
X199815953Y-127679763D02*
X199911191Y-127727382D01*
X200101667Y-127727382D01*
X200196906Y-127679763D01*
X200244525Y-127584525D01*
X200244525Y-127536906D01*
X200196906Y-127441668D01*
X200101667Y-127394049D01*
X199958810Y-127394049D01*
X199863572Y-127346430D01*
X199815953Y-127251191D01*
X199815953Y-127203572D01*
X199863572Y-127108334D01*
X199958810Y-127060715D01*
X200101667Y-127060715D01*
X200196906Y-127108334D01*
X201101668Y-127679763D02*
X201006430Y-127727382D01*
X200815953Y-127727382D01*
X200720715Y-127679763D01*
X200673096Y-127632144D01*
X200625477Y-127536906D01*
X200625477Y-127251191D01*
X200673096Y-127155953D01*
X200720715Y-127108334D01*
X200815953Y-127060715D01*
X201006430Y-127060715D01*
X201101668Y-127108334D01*
X202054049Y-127727382D02*
X201482620Y-127727382D01*
X201768334Y-127727382D02*
X201768334Y-126727382D01*
X201673096Y-126870239D01*
X201577858Y-126965477D01*
X201482620Y-127013096D01*
X200173096Y-106407382D02*
X200744525Y-106407382D01*
X200458810Y-107407382D02*
X200458810Y-106407382D01*
X201030239Y-106502620D02*
X201077858Y-106455001D01*
X201173096Y-106407382D01*
X201411192Y-106407382D01*
X201506430Y-106455001D01*
X201554049Y-106502620D01*
X201601668Y-106597858D01*
X201601668Y-106693096D01*
X201554049Y-106835953D01*
X200982620Y-107407382D01*
X201601668Y-107407382D01*
X198228335Y-107407382D02*
X197895001Y-106931191D01*
X197656906Y-107407382D02*
X197656906Y-106407382D01*
X198037859Y-106407382D01*
X198133097Y-106455001D01*
X198180716Y-106502620D01*
X198228335Y-106597858D01*
X198228335Y-106740715D01*
X198180716Y-106835953D01*
X198133097Y-106883572D01*
X198037859Y-106931191D01*
X197656906Y-106931191D01*
X198609287Y-106502620D02*
X198656906Y-106455001D01*
X198752144Y-106407382D01*
X198990240Y-106407382D01*
X199085478Y-106455001D01*
X199133097Y-106502620D01*
X199180716Y-106597858D01*
X199180716Y-106693096D01*
X199133097Y-106835953D01*
X198561668Y-107407382D01*
X199180716Y-107407382D01*
X194759763Y-107359763D02*
X194855001Y-107407382D01*
X195045477Y-107407382D01*
X195140716Y-107359763D01*
X195188335Y-107264525D01*
X195188335Y-107216906D01*
X195140716Y-107121668D01*
X195045477Y-107074049D01*
X194902620Y-107074049D01*
X194807382Y-107026430D01*
X194759763Y-106931191D01*
X194759763Y-106883572D01*
X194807382Y-106788334D01*
X194902620Y-106740715D01*
X195045477Y-106740715D01*
X195140716Y-106788334D01*
X195569287Y-107359763D02*
X195664525Y-107407382D01*
X195855001Y-107407382D01*
X195950240Y-107359763D01*
X195997859Y-107264525D01*
X195997859Y-107216906D01*
X195950240Y-107121668D01*
X195855001Y-107074049D01*
X195712144Y-107074049D01*
X195616906Y-107026430D01*
X195569287Y-106931191D01*
X195569287Y-106883572D01*
X195616906Y-106788334D01*
X195712144Y-106740715D01*
X195855001Y-106740715D01*
X195950240Y-106788334D01*
X196950240Y-107407382D02*
X196378811Y-107407382D01*
X196664525Y-107407382D02*
X196664525Y-106407382D01*
X196569287Y-106550239D01*
X196474049Y-106645477D01*
X196378811Y-106693096D01*
X193076906Y-107359763D02*
X192981668Y-107407382D01*
X192791191Y-107407382D01*
X192695953Y-107359763D01*
X192648334Y-107312144D01*
X192600715Y-107216906D01*
X192600715Y-106931191D01*
X192648334Y-106835953D01*
X192695953Y-106788334D01*
X192791191Y-106740715D01*
X192981668Y-106740715D01*
X193076906Y-106788334D01*
X194029287Y-107407382D02*
X193457858Y-107407382D01*
X193743572Y-107407382D02*
X193743572Y-106407382D01*
X193648334Y-106550239D01*
X193553096Y-106645477D01*
X193457858Y-106693096D01*
X190298811Y-107407382D02*
X190298811Y-106740715D01*
X190298811Y-106407382D02*
X190251192Y-106455001D01*
X190298811Y-106502620D01*
X190346430Y-106455001D01*
X190298811Y-106407382D01*
X190298811Y-106502620D01*
X191298811Y-107407382D02*
X190727382Y-107407382D01*
X191013096Y-107407382D02*
X191013096Y-106407382D01*
X190917858Y-106550239D01*
X190822620Y-106645477D01*
X190727382Y-106693096D01*
X186877858Y-107407382D02*
X186877858Y-106740715D01*
X186877858Y-106835953D02*
X186925477Y-106788334D01*
X187020715Y-106740715D01*
X187163573Y-106740715D01*
X187258811Y-106788334D01*
X187306430Y-106883572D01*
X187306430Y-107407382D01*
X187306430Y-106883572D02*
X187354049Y-106788334D01*
X187449287Y-106740715D01*
X187592144Y-106740715D01*
X187687382Y-106788334D01*
X187735001Y-106883572D01*
X187735001Y-107407382D01*
X188354048Y-107407382D02*
X188258810Y-107359763D01*
X188211191Y-107312144D01*
X188163572Y-107216906D01*
X188163572Y-106931191D01*
X188211191Y-106835953D01*
X188258810Y-106788334D01*
X188354048Y-106740715D01*
X188496906Y-106740715D01*
X188592144Y-106788334D01*
X188639763Y-106835953D01*
X188687382Y-106931191D01*
X188687382Y-107216906D01*
X188639763Y-107312144D01*
X188592144Y-107359763D01*
X188496906Y-107407382D01*
X188354048Y-107407382D01*
X189639763Y-107407382D02*
X189068334Y-107407382D01*
X189354048Y-107407382D02*
X189354048Y-106407382D01*
X189258810Y-106550239D01*
X189163572Y-106645477D01*
X189068334Y-106693096D01*
X179853096Y-106407382D02*
X180424525Y-106407382D01*
X180138810Y-107407382D02*
X180138810Y-106407382D01*
X180662620Y-106407382D02*
X181281668Y-106407382D01*
X180948334Y-106788334D01*
X181091192Y-106788334D01*
X181186430Y-106835953D01*
X181234049Y-106883572D01*
X181281668Y-106978811D01*
X181281668Y-107216906D01*
X181234049Y-107312144D01*
X181186430Y-107359763D01*
X181091192Y-107407382D01*
X180805477Y-107407382D01*
X180710239Y-107359763D01*
X180662620Y-107312144D01*
X177908335Y-107407382D02*
X177575001Y-106931191D01*
X177336906Y-107407382D02*
X177336906Y-106407382D01*
X177717859Y-106407382D01*
X177813097Y-106455001D01*
X177860716Y-106502620D01*
X177908335Y-106597858D01*
X177908335Y-106740715D01*
X177860716Y-106835953D01*
X177813097Y-106883572D01*
X177717859Y-106931191D01*
X177336906Y-106931191D01*
X178241668Y-106407382D02*
X178860716Y-106407382D01*
X178527382Y-106788334D01*
X178670240Y-106788334D01*
X178765478Y-106835953D01*
X178813097Y-106883572D01*
X178860716Y-106978811D01*
X178860716Y-107216906D01*
X178813097Y-107312144D01*
X178765478Y-107359763D01*
X178670240Y-107407382D01*
X178384525Y-107407382D01*
X178289287Y-107359763D01*
X178241668Y-107312144D01*
X208483573Y-127632144D02*
X208435954Y-127679763D01*
X208293097Y-127727382D01*
X208197859Y-127727382D01*
X208055001Y-127679763D01*
X207959763Y-127584525D01*
X207912144Y-127489287D01*
X207864525Y-127298811D01*
X207864525Y-127155953D01*
X207912144Y-126965477D01*
X207959763Y-126870239D01*
X208055001Y-126775001D01*
X208197859Y-126727382D01*
X208293097Y-126727382D01*
X208435954Y-126775001D01*
X208483573Y-126822620D01*
X208769287Y-126727382D02*
X209340716Y-126727382D01*
X209055001Y-127727382D02*
X209055001Y-126727382D01*
X205824525Y-127632144D02*
X205776906Y-127679763D01*
X205634049Y-127727382D01*
X205538811Y-127727382D01*
X205395953Y-127679763D01*
X205300715Y-127584525D01*
X205253096Y-127489287D01*
X205205477Y-127298811D01*
X205205477Y-127155953D01*
X205253096Y-126965477D01*
X205300715Y-126870239D01*
X205395953Y-126775001D01*
X205538811Y-126727382D01*
X205634049Y-126727382D01*
X205776906Y-126775001D01*
X205824525Y-126822620D01*
X206824525Y-127727382D02*
X206491191Y-127251191D01*
X206253096Y-127727382D02*
X206253096Y-126727382D01*
X206634049Y-126727382D01*
X206729287Y-126775001D01*
X206776906Y-126822620D01*
X206824525Y-126917858D01*
X206824525Y-127060715D01*
X206776906Y-127155953D01*
X206729287Y-127203572D01*
X206634049Y-127251191D01*
X206253096Y-127251191D01*
X187330239Y-126727382D02*
X187330239Y-127536906D01*
X187377858Y-127632144D01*
X187425477Y-127679763D01*
X187520715Y-127727382D01*
X187711192Y-127727382D01*
X187806430Y-127679763D01*
X187854049Y-127632144D01*
X187901668Y-127536906D01*
X187901668Y-126727382D01*
X188377858Y-127346430D02*
X189139763Y-127346430D01*
X188758811Y-127727382D02*
X188758811Y-126965477D01*
X184790239Y-126727382D02*
X184790239Y-127536906D01*
X184837858Y-127632144D01*
X184885477Y-127679763D01*
X184980715Y-127727382D01*
X185171192Y-127727382D01*
X185266430Y-127679763D01*
X185314049Y-127632144D01*
X185361668Y-127536906D01*
X185361668Y-126727382D01*
X185837858Y-127346430D02*
X186599763Y-127346430D01*
X182988335Y-127727382D02*
X182655001Y-127251191D01*
X182416906Y-127727382D02*
X182416906Y-126727382D01*
X182797859Y-126727382D01*
X182893097Y-126775001D01*
X182940716Y-126822620D01*
X182988335Y-126917858D01*
X182988335Y-127060715D01*
X182940716Y-127155953D01*
X182893097Y-127203572D01*
X182797859Y-127251191D01*
X182416906Y-127251191D01*
X183940716Y-127727382D02*
X183369287Y-127727382D01*
X183655001Y-127727382D02*
X183655001Y-126727382D01*
X183559763Y-126870239D01*
X183464525Y-126965477D01*
X183369287Y-127013096D01*
X179853096Y-126727382D02*
X180424525Y-126727382D01*
X180138810Y-127727382D02*
X180138810Y-126727382D01*
X181281668Y-127727382D02*
X180710239Y-127727382D01*
X180995953Y-127727382D02*
X180995953Y-126727382D01*
X180900715Y-126870239D01*
X180805477Y-126965477D01*
X180710239Y-127013096D01*
X213857382Y-120377382D02*
X214476430Y-120377382D01*
X214143096Y-120758334D01*
X214285954Y-120758334D01*
X214381192Y-120805953D01*
X214428811Y-120853572D01*
X214476430Y-120948811D01*
X214476430Y-121186906D01*
X214428811Y-121282144D01*
X214381192Y-121329763D01*
X214285954Y-121377382D01*
X214000239Y-121377382D01*
X213905001Y-121329763D01*
X213857382Y-121282144D01*
X214905001Y-121282144D02*
X214952620Y-121329763D01*
X214905001Y-121377382D01*
X214857382Y-121329763D01*
X214905001Y-121282144D01*
X214905001Y-121377382D01*
X215285953Y-120377382D02*
X215905001Y-120377382D01*
X215571667Y-120758334D01*
X215714525Y-120758334D01*
X215809763Y-120805953D01*
X215857382Y-120853572D01*
X215905001Y-120948811D01*
X215905001Y-121186906D01*
X215857382Y-121282144D01*
X215809763Y-121329763D01*
X215714525Y-121377382D01*
X215428810Y-121377382D01*
X215333572Y-121329763D01*
X215285953Y-121282144D01*
X212785954Y-118789763D02*
X212928811Y-118837382D01*
X213166907Y-118837382D01*
X213262145Y-118789763D01*
X213309764Y-118742144D01*
X213357383Y-118646906D01*
X213357383Y-118551668D01*
X213309764Y-118456430D01*
X213262145Y-118408811D01*
X213166907Y-118361191D01*
X212976430Y-118313572D01*
X212881192Y-118265953D01*
X212833573Y-118218334D01*
X212785954Y-118123096D01*
X212785954Y-118027858D01*
X212833573Y-117932620D01*
X212881192Y-117885001D01*
X212976430Y-117837382D01*
X213214526Y-117837382D01*
X213357383Y-117885001D01*
X213690716Y-117837382D02*
X213928811Y-118837382D01*
X214119288Y-118123096D01*
X214309764Y-118837382D01*
X214547859Y-117837382D01*
X214928811Y-118837382D02*
X214928811Y-117837382D01*
X215166906Y-117837382D01*
X215309764Y-117885001D01*
X215405002Y-117980239D01*
X215452621Y-118075477D01*
X215500240Y-118265953D01*
X215500240Y-118408811D01*
X215452621Y-118599287D01*
X215405002Y-118694525D01*
X215309764Y-118789763D01*
X215166906Y-118837382D01*
X214928811Y-118837382D01*
X215928811Y-118837382D02*
X215928811Y-117837382D01*
X216595477Y-117837382D02*
X216785954Y-117837382D01*
X216881192Y-117885001D01*
X216976430Y-117980239D01*
X217024049Y-118170715D01*
X217024049Y-118504049D01*
X216976430Y-118694525D01*
X216881192Y-118789763D01*
X216785954Y-118837382D01*
X216595477Y-118837382D01*
X216500239Y-118789763D01*
X216405001Y-118694525D01*
X216357382Y-118504049D01*
X216357382Y-118170715D01*
X216405001Y-117980239D01*
X216500239Y-117885001D01*
X216595477Y-117837382D01*
X212643096Y-116249763D02*
X212785953Y-116297382D01*
X213024049Y-116297382D01*
X213119287Y-116249763D01*
X213166906Y-116202144D01*
X213214525Y-116106906D01*
X213214525Y-116011668D01*
X213166906Y-115916430D01*
X213119287Y-115868811D01*
X213024049Y-115821191D01*
X212833572Y-115773572D01*
X212738334Y-115725953D01*
X212690715Y-115678334D01*
X212643096Y-115583096D01*
X212643096Y-115487858D01*
X212690715Y-115392620D01*
X212738334Y-115345001D01*
X212833572Y-115297382D01*
X213071668Y-115297382D01*
X213214525Y-115345001D01*
X213547858Y-115297382D02*
X213785953Y-116297382D01*
X213976430Y-115583096D01*
X214166906Y-116297382D01*
X214405001Y-115297382D01*
X215357382Y-116202144D02*
X215309763Y-116249763D01*
X215166906Y-116297382D01*
X215071668Y-116297382D01*
X214928810Y-116249763D01*
X214833572Y-116154525D01*
X214785953Y-116059287D01*
X214738334Y-115868811D01*
X214738334Y-115725953D01*
X214785953Y-115535477D01*
X214833572Y-115440239D01*
X214928810Y-115345001D01*
X215071668Y-115297382D01*
X215166906Y-115297382D01*
X215309763Y-115345001D01*
X215357382Y-115392620D01*
X216262144Y-116297382D02*
X215785953Y-116297382D01*
X215785953Y-115297382D01*
X216595477Y-116297382D02*
X216595477Y-115297382D01*
X217166906Y-116297382D02*
X216738334Y-115725953D01*
X217166906Y-115297382D02*
X216595477Y-115868811D01*
X214143097Y-112805001D02*
X214047859Y-112757382D01*
X213905002Y-112757382D01*
X213762144Y-112805001D01*
X213666906Y-112900239D01*
X213619287Y-112995477D01*
X213571668Y-113185953D01*
X213571668Y-113328811D01*
X213619287Y-113519287D01*
X213666906Y-113614525D01*
X213762144Y-113709763D01*
X213905002Y-113757382D01*
X214000240Y-113757382D01*
X214143097Y-113709763D01*
X214190716Y-113662144D01*
X214190716Y-113328811D01*
X214000240Y-113328811D01*
X214619287Y-113757382D02*
X214619287Y-112757382D01*
X215190716Y-113757382D01*
X215190716Y-112757382D01*
X215666906Y-113757382D02*
X215666906Y-112757382D01*
X215905001Y-112757382D01*
X216047859Y-112805001D01*
X216143097Y-112900239D01*
X216190716Y-112995477D01*
X216238335Y-113185953D01*
X216238335Y-113328811D01*
X216190716Y-113519287D01*
X216143097Y-113614525D01*
X216047859Y-113709763D01*
X215905001Y-113757382D01*
X215666906Y-113757382D01*
X215127382Y-126727382D02*
X215746430Y-126727382D01*
X215413096Y-127108334D01*
X215555954Y-127108334D01*
X215651192Y-127155953D01*
X215698811Y-127203572D01*
X215746430Y-127298811D01*
X215746430Y-127536906D01*
X215698811Y-127632144D01*
X215651192Y-127679763D01*
X215555954Y-127727382D01*
X215270239Y-127727382D01*
X215175001Y-127679763D01*
X215127382Y-127632144D01*
X216175001Y-127632144D02*
X216222620Y-127679763D01*
X216175001Y-127727382D01*
X216127382Y-127679763D01*
X216175001Y-127632144D01*
X216175001Y-127727382D01*
X216555953Y-126727382D02*
X217175001Y-126727382D01*
X216841667Y-127108334D01*
X216984525Y-127108334D01*
X217079763Y-127155953D01*
X217127382Y-127203572D01*
X217175001Y-127298811D01*
X217175001Y-127536906D01*
X217127382Y-127632144D01*
X217079763Y-127679763D01*
X216984525Y-127727382D01*
X216698810Y-127727382D01*
X216603572Y-127679763D01*
X216555953Y-127632144D01*
X213896906Y-126775001D02*
X213801668Y-126727382D01*
X213658811Y-126727382D01*
X213515953Y-126775001D01*
X213420715Y-126870239D01*
X213373096Y-126965477D01*
X213325477Y-127155953D01*
X213325477Y-127298811D01*
X213373096Y-127489287D01*
X213420715Y-127584525D01*
X213515953Y-127679763D01*
X213658811Y-127727382D01*
X213754049Y-127727382D01*
X213896906Y-127679763D01*
X213944525Y-127632144D01*
X213944525Y-127298811D01*
X213754049Y-127298811D01*
X175463573Y-106359763D02*
X174606430Y-107645477D01*
X176368335Y-107407382D02*
X176035001Y-106931191D01*
X175796906Y-107407382D02*
X175796906Y-106407382D01*
X176177859Y-106407382D01*
X176273097Y-106455001D01*
X176320716Y-106502620D01*
X176368335Y-106597858D01*
X176368335Y-106740715D01*
X176320716Y-106835953D01*
X176273097Y-106883572D01*
X176177859Y-106931191D01*
X175796906Y-106931191D01*
X171947382Y-106407382D02*
X172566430Y-106407382D01*
X172233096Y-106788334D01*
X172375954Y-106788334D01*
X172471192Y-106835953D01*
X172518811Y-106883572D01*
X172566430Y-106978811D01*
X172566430Y-107216906D01*
X172518811Y-107312144D01*
X172471192Y-107359763D01*
X172375954Y-107407382D01*
X172090239Y-107407382D01*
X171995001Y-107359763D01*
X171947382Y-107312144D01*
X172995001Y-107312144D02*
X173042620Y-107359763D01*
X172995001Y-107407382D01*
X172947382Y-107359763D01*
X172995001Y-107312144D01*
X172995001Y-107407382D01*
X173375953Y-106407382D02*
X173995001Y-106407382D01*
X173661667Y-106788334D01*
X173804525Y-106788334D01*
X173899763Y-106835953D01*
X173947382Y-106883572D01*
X173995001Y-106978811D01*
X173995001Y-107216906D01*
X173947382Y-107312144D01*
X173899763Y-107359763D01*
X173804525Y-107407382D01*
X173518810Y-107407382D01*
X173423572Y-107359763D01*
X173375953Y-107312144D01*
X170716906Y-106455001D02*
X170621668Y-106407382D01*
X170478811Y-106407382D01*
X170335953Y-106455001D01*
X170240715Y-106550239D01*
X170193096Y-106645477D01*
X170145477Y-106835953D01*
X170145477Y-106978811D01*
X170193096Y-107169287D01*
X170240715Y-107264525D01*
X170335953Y-107359763D01*
X170478811Y-107407382D01*
X170574049Y-107407382D01*
X170716906Y-107359763D01*
X170764525Y-107312144D01*
X170764525Y-106978811D01*
X170574049Y-106978811D01*
X168176906Y-106455001D02*
X168081668Y-106407382D01*
X167938811Y-106407382D01*
X167795953Y-106455001D01*
X167700715Y-106550239D01*
X167653096Y-106645477D01*
X167605477Y-106835953D01*
X167605477Y-106978811D01*
X167653096Y-107169287D01*
X167700715Y-107264525D01*
X167795953Y-107359763D01*
X167938811Y-107407382D01*
X168034049Y-107407382D01*
X168176906Y-107359763D01*
X168224525Y-107312144D01*
X168224525Y-106978811D01*
X168034049Y-106978811D01*
X215341668Y-106407382D02*
X215675001Y-107407382D01*
X216008335Y-106407382D01*
X216675002Y-106883572D02*
X216817859Y-106931191D01*
X216865478Y-106978811D01*
X216913097Y-107074049D01*
X216913097Y-107216906D01*
X216865478Y-107312144D01*
X216817859Y-107359763D01*
X216722621Y-107407382D01*
X216341668Y-107407382D01*
X216341668Y-106407382D01*
X216675002Y-106407382D01*
X216770240Y-106455001D01*
X216817859Y-106502620D01*
X216865478Y-106597858D01*
X216865478Y-106693096D01*
X216817859Y-106788334D01*
X216770240Y-106835953D01*
X216675002Y-106883572D01*
X216341668Y-106883572D01*
X210904525Y-126727382D02*
X210428334Y-126727382D01*
X210380715Y-127203572D01*
X210428334Y-127155953D01*
X210523572Y-127108334D01*
X210761668Y-127108334D01*
X210856906Y-127155953D01*
X210904525Y-127203572D01*
X210952144Y-127298811D01*
X210952144Y-127536906D01*
X210904525Y-127632144D01*
X210856906Y-127679763D01*
X210761668Y-127727382D01*
X210523572Y-127727382D01*
X210428334Y-127679763D01*
X210380715Y-127632144D01*
X211237858Y-126727382D02*
X211571191Y-127727382D01*
X211904525Y-126727382D01*
X167367382Y-118376906D02*
X168176906Y-118376906D01*
X168272144Y-118329287D01*
X168319763Y-118281668D01*
X168367382Y-118186430D01*
X168367382Y-117995953D01*
X168319763Y-117900715D01*
X168272144Y-117853096D01*
X168176906Y-117805477D01*
X167367382Y-117805477D01*
X168319763Y-117376906D02*
X168367382Y-117234049D01*
X168367382Y-116995953D01*
X168319763Y-116900715D01*
X168272144Y-116853096D01*
X168176906Y-116805477D01*
X168081668Y-116805477D01*
X167986430Y-116853096D01*
X167938811Y-116900715D01*
X167891191Y-116995953D01*
X167843572Y-117186430D01*
X167795953Y-117281668D01*
X167748334Y-117329287D01*
X167653096Y-117376906D01*
X167557858Y-117376906D01*
X167462620Y-117329287D01*
X167415001Y-117281668D01*
X167367382Y-117186430D01*
X167367382Y-116948334D01*
X167415001Y-116805477D01*
X167843572Y-116043572D02*
X167891191Y-115900715D01*
X167938811Y-115853096D01*
X168034049Y-115805477D01*
X168176906Y-115805477D01*
X168272144Y-115853096D01*
X168319763Y-115900715D01*
X168367382Y-115995953D01*
X168367382Y-116376906D01*
X167367382Y-116376906D01*
X167367382Y-116043572D01*
X167415001Y-115948334D01*
X167462620Y-115900715D01*
X167557858Y-115853096D01*
X167653096Y-115853096D01*
X167748334Y-115900715D01*
X167795953Y-115948334D01*
X167843572Y-116043572D01*
X167843572Y-116376906D01*
M02*
