M48
;DRILL file {KiCad 4.0.6} date Mon Apr 17 18:12:51 2017
;FORMAT={-:-/ absolute / inch / decimal}
FMAT,2
INCH,TZ
T1C0.016
T2C0.039
T3C0.040
%
G90
G05
M72
T1
X9.15Y-4.3
T2
X8.9Y-4.45
X8.9Y-4.55
X8.9Y-4.65
X9.Y-4.45
X9.Y-4.55
X9.Y-4.65
T3
X6.6108Y-4.3108
X6.6108Y-4.9108
X6.7108Y-4.3108
X6.7108Y-4.9108
X6.8108Y-4.3108
X6.8108Y-4.9108
X6.9108Y-4.3108
X6.9108Y-4.9108
X7.0108Y-4.3108
X7.0108Y-4.9108
X7.1108Y-4.3108
X7.1108Y-4.9108
X7.2108Y-4.3108
X7.2108Y-4.9108
X7.3108Y-4.3108
X7.3108Y-4.9108
X7.4108Y-4.3108
X7.4108Y-4.9108
X7.5108Y-4.3108
X7.5108Y-4.9108
X7.6108Y-4.3108
X7.6108Y-4.9108
X7.7108Y-4.3108
X7.7108Y-4.9108
X7.8108Y-4.3108
X7.8108Y-4.9108
X7.9108Y-4.3108
X7.9108Y-4.9108
X8.0108Y-4.3108
X8.0108Y-4.9108
X8.1108Y-4.3108
X8.1108Y-4.9108
X8.2108Y-4.3108
X8.2108Y-4.9108
X8.3108Y-4.3108
X8.3108Y-4.9108
X8.4108Y-4.3108
X8.4108Y-4.9108
X8.5108Y-4.3108
X8.5108Y-4.9108
T0
M30
