G04 #@! TF.FileFunction,Copper,L1,Top,Signal*
%FSLAX46Y46*%
G04 Gerber Fmt 4.6, Leading zero omitted, Abs format (unit mm)*
G04 Created by KiCad (PCBNEW 4.0.6) date Sun Apr 16 23:54:16 2017*
%MOMM*%
%LPD*%
G01*
G04 APERTURE LIST*
%ADD10C,0.100000*%
%ADD11R,1.700000X1.700000*%
%ADD12O,1.700000X1.700000*%
%ADD13C,1.524000*%
%ADD14C,0.600000*%
%ADD15C,0.250000*%
%ADD16C,0.254000*%
G04 APERTURE END LIST*
D10*
D11*
X226060000Y-113030000D03*
D12*
X228600000Y-113030000D03*
X226060000Y-115570000D03*
X228600000Y-115570000D03*
X226060000Y-118110000D03*
X228600000Y-118110000D03*
D13*
X167915001Y-124735001D03*
X170455001Y-124735001D03*
X172995001Y-124735001D03*
X175535001Y-124735001D03*
X178075001Y-124735001D03*
X180615001Y-124735001D03*
X183155001Y-124735001D03*
X185695001Y-124735001D03*
X188235001Y-124735001D03*
X190775001Y-124735001D03*
X193315001Y-124735001D03*
X195855001Y-124735001D03*
X198395001Y-124735001D03*
X200935001Y-124735001D03*
X203475001Y-124735001D03*
X206015001Y-124735001D03*
X208555001Y-124735001D03*
X211095001Y-124735001D03*
X213635001Y-124735001D03*
X216175001Y-124735001D03*
X216175001Y-109495001D03*
X213635001Y-109495001D03*
X211095001Y-109495001D03*
X208555001Y-109495001D03*
X206015001Y-109495001D03*
X203475001Y-109495001D03*
X200935001Y-109495001D03*
X198395001Y-109495001D03*
X195855001Y-109495001D03*
X193315001Y-109495001D03*
X190775001Y-109495001D03*
X188235001Y-109495001D03*
X185695001Y-109495001D03*
X183155001Y-109495001D03*
X180615001Y-109495001D03*
X178075001Y-109495001D03*
X175535001Y-109495001D03*
X172995001Y-109495001D03*
X170455001Y-109495001D03*
X167915001Y-109495001D03*
D14*
X232410000Y-109220000D03*
D15*
X231140000Y-115570000D02*
X228600000Y-115570000D01*
X232410000Y-114300000D02*
X231140000Y-115570000D01*
X232410000Y-109220000D02*
X232410000Y-114300000D01*
D16*
G36*
X234823000Y-129413000D02*
X163957000Y-129413000D01*
X163957000Y-125011662D01*
X166517759Y-125011662D01*
X166729991Y-125525304D01*
X167122631Y-125918630D01*
X167635901Y-126131758D01*
X168191662Y-126132243D01*
X168705304Y-125920011D01*
X169098630Y-125527371D01*
X169184950Y-125319489D01*
X169269991Y-125525304D01*
X169662631Y-125918630D01*
X170175901Y-126131758D01*
X170731662Y-126132243D01*
X171245304Y-125920011D01*
X171638630Y-125527371D01*
X171724950Y-125319489D01*
X171809991Y-125525304D01*
X172202631Y-125918630D01*
X172715901Y-126131758D01*
X173271662Y-126132243D01*
X173785304Y-125920011D01*
X174178630Y-125527371D01*
X174264950Y-125319489D01*
X174349991Y-125525304D01*
X174742631Y-125918630D01*
X175255901Y-126131758D01*
X175811662Y-126132243D01*
X176325304Y-125920011D01*
X176718630Y-125527371D01*
X176804950Y-125319489D01*
X176889991Y-125525304D01*
X177282631Y-125918630D01*
X177795901Y-126131758D01*
X178351662Y-126132243D01*
X178865304Y-125920011D01*
X179258630Y-125527371D01*
X179344950Y-125319489D01*
X179429991Y-125525304D01*
X179822631Y-125918630D01*
X180335901Y-126131758D01*
X180891662Y-126132243D01*
X181405304Y-125920011D01*
X181798630Y-125527371D01*
X181884950Y-125319489D01*
X181969991Y-125525304D01*
X182362631Y-125918630D01*
X182875901Y-126131758D01*
X183431662Y-126132243D01*
X183945304Y-125920011D01*
X184338630Y-125527371D01*
X184424950Y-125319489D01*
X184509991Y-125525304D01*
X184902631Y-125918630D01*
X185415901Y-126131758D01*
X185971662Y-126132243D01*
X186485304Y-125920011D01*
X186878630Y-125527371D01*
X186964950Y-125319489D01*
X187049991Y-125525304D01*
X187442631Y-125918630D01*
X187955901Y-126131758D01*
X188511662Y-126132243D01*
X189025304Y-125920011D01*
X189418630Y-125527371D01*
X189504950Y-125319489D01*
X189589991Y-125525304D01*
X189982631Y-125918630D01*
X190495901Y-126131758D01*
X191051662Y-126132243D01*
X191565304Y-125920011D01*
X191958630Y-125527371D01*
X192044950Y-125319489D01*
X192129991Y-125525304D01*
X192522631Y-125918630D01*
X193035901Y-126131758D01*
X193591662Y-126132243D01*
X194105304Y-125920011D01*
X194498630Y-125527371D01*
X194584950Y-125319489D01*
X194669991Y-125525304D01*
X195062631Y-125918630D01*
X195575901Y-126131758D01*
X196131662Y-126132243D01*
X196645304Y-125920011D01*
X197038630Y-125527371D01*
X197124950Y-125319489D01*
X197209991Y-125525304D01*
X197602631Y-125918630D01*
X198115901Y-126131758D01*
X198671662Y-126132243D01*
X199185304Y-125920011D01*
X199578630Y-125527371D01*
X199664950Y-125319489D01*
X199749991Y-125525304D01*
X200142631Y-125918630D01*
X200655901Y-126131758D01*
X201211662Y-126132243D01*
X201725304Y-125920011D01*
X202118630Y-125527371D01*
X202204950Y-125319489D01*
X202289991Y-125525304D01*
X202682631Y-125918630D01*
X203195901Y-126131758D01*
X203751662Y-126132243D01*
X204265304Y-125920011D01*
X204658630Y-125527371D01*
X204744950Y-125319489D01*
X204829991Y-125525304D01*
X205222631Y-125918630D01*
X205735901Y-126131758D01*
X206291662Y-126132243D01*
X206805304Y-125920011D01*
X207198630Y-125527371D01*
X207284950Y-125319489D01*
X207369991Y-125525304D01*
X207762631Y-125918630D01*
X208275901Y-126131758D01*
X208831662Y-126132243D01*
X209345304Y-125920011D01*
X209738630Y-125527371D01*
X209824950Y-125319489D01*
X209909991Y-125525304D01*
X210302631Y-125918630D01*
X210815901Y-126131758D01*
X211371662Y-126132243D01*
X211885304Y-125920011D01*
X212090458Y-125715214D01*
X212834393Y-125715214D01*
X212903858Y-125957398D01*
X213427303Y-126144145D01*
X213982369Y-126116363D01*
X214366144Y-125957398D01*
X214435609Y-125715214D01*
X213635001Y-124914606D01*
X212834393Y-125715214D01*
X212090458Y-125715214D01*
X212278630Y-125527371D01*
X212358396Y-125335274D01*
X212412604Y-125466144D01*
X212654788Y-125535609D01*
X213455396Y-124735001D01*
X213814606Y-124735001D01*
X214615214Y-125535609D01*
X214857398Y-125466144D01*
X214907510Y-125325683D01*
X214989991Y-125525304D01*
X215382631Y-125918630D01*
X215895901Y-126131758D01*
X216451662Y-126132243D01*
X216965304Y-125920011D01*
X217358630Y-125527371D01*
X217571758Y-125014101D01*
X217572243Y-124458340D01*
X217360011Y-123944698D01*
X216967371Y-123551372D01*
X216454101Y-123338244D01*
X215898340Y-123337759D01*
X215384698Y-123549991D01*
X214991372Y-123942631D01*
X214911606Y-124134728D01*
X214857398Y-124003858D01*
X214615214Y-123934393D01*
X213814606Y-124735001D01*
X213455396Y-124735001D01*
X212654788Y-123934393D01*
X212412604Y-124003858D01*
X212362492Y-124144319D01*
X212280011Y-123944698D01*
X212090433Y-123754788D01*
X212834393Y-123754788D01*
X213635001Y-124555396D01*
X214435609Y-123754788D01*
X214366144Y-123512604D01*
X213842699Y-123325857D01*
X213287633Y-123353639D01*
X212903858Y-123512604D01*
X212834393Y-123754788D01*
X212090433Y-123754788D01*
X211887371Y-123551372D01*
X211374101Y-123338244D01*
X210818340Y-123337759D01*
X210304698Y-123549991D01*
X209911372Y-123942631D01*
X209825052Y-124150513D01*
X209740011Y-123944698D01*
X209347371Y-123551372D01*
X208834101Y-123338244D01*
X208278340Y-123337759D01*
X207764698Y-123549991D01*
X207371372Y-123942631D01*
X207285052Y-124150513D01*
X207200011Y-123944698D01*
X206807371Y-123551372D01*
X206294101Y-123338244D01*
X205738340Y-123337759D01*
X205224698Y-123549991D01*
X204831372Y-123942631D01*
X204745052Y-124150513D01*
X204660011Y-123944698D01*
X204267371Y-123551372D01*
X203754101Y-123338244D01*
X203198340Y-123337759D01*
X202684698Y-123549991D01*
X202291372Y-123942631D01*
X202205052Y-124150513D01*
X202120011Y-123944698D01*
X201727371Y-123551372D01*
X201214101Y-123338244D01*
X200658340Y-123337759D01*
X200144698Y-123549991D01*
X199751372Y-123942631D01*
X199665052Y-124150513D01*
X199580011Y-123944698D01*
X199187371Y-123551372D01*
X198674101Y-123338244D01*
X198118340Y-123337759D01*
X197604698Y-123549991D01*
X197211372Y-123942631D01*
X197125052Y-124150513D01*
X197040011Y-123944698D01*
X196647371Y-123551372D01*
X196134101Y-123338244D01*
X195578340Y-123337759D01*
X195064698Y-123549991D01*
X194671372Y-123942631D01*
X194585052Y-124150513D01*
X194500011Y-123944698D01*
X194107371Y-123551372D01*
X193594101Y-123338244D01*
X193038340Y-123337759D01*
X192524698Y-123549991D01*
X192131372Y-123942631D01*
X192045052Y-124150513D01*
X191960011Y-123944698D01*
X191567371Y-123551372D01*
X191054101Y-123338244D01*
X190498340Y-123337759D01*
X189984698Y-123549991D01*
X189591372Y-123942631D01*
X189505052Y-124150513D01*
X189420011Y-123944698D01*
X189027371Y-123551372D01*
X188514101Y-123338244D01*
X187958340Y-123337759D01*
X187444698Y-123549991D01*
X187051372Y-123942631D01*
X186965052Y-124150513D01*
X186880011Y-123944698D01*
X186487371Y-123551372D01*
X185974101Y-123338244D01*
X185418340Y-123337759D01*
X184904698Y-123549991D01*
X184511372Y-123942631D01*
X184425052Y-124150513D01*
X184340011Y-123944698D01*
X183947371Y-123551372D01*
X183434101Y-123338244D01*
X182878340Y-123337759D01*
X182364698Y-123549991D01*
X181971372Y-123942631D01*
X181885052Y-124150513D01*
X181800011Y-123944698D01*
X181407371Y-123551372D01*
X180894101Y-123338244D01*
X180338340Y-123337759D01*
X179824698Y-123549991D01*
X179431372Y-123942631D01*
X179345052Y-124150513D01*
X179260011Y-123944698D01*
X178867371Y-123551372D01*
X178354101Y-123338244D01*
X177798340Y-123337759D01*
X177284698Y-123549991D01*
X176891372Y-123942631D01*
X176805052Y-124150513D01*
X176720011Y-123944698D01*
X176327371Y-123551372D01*
X175814101Y-123338244D01*
X175258340Y-123337759D01*
X174744698Y-123549991D01*
X174351372Y-123942631D01*
X174265052Y-124150513D01*
X174180011Y-123944698D01*
X173787371Y-123551372D01*
X173274101Y-123338244D01*
X172718340Y-123337759D01*
X172204698Y-123549991D01*
X171811372Y-123942631D01*
X171725052Y-124150513D01*
X171640011Y-123944698D01*
X171247371Y-123551372D01*
X170734101Y-123338244D01*
X170178340Y-123337759D01*
X169664698Y-123549991D01*
X169271372Y-123942631D01*
X169185052Y-124150513D01*
X169100011Y-123944698D01*
X168707371Y-123551372D01*
X168194101Y-123338244D01*
X167638340Y-123337759D01*
X167124698Y-123549991D01*
X166731372Y-123942631D01*
X166518244Y-124455901D01*
X166517759Y-125011662D01*
X163957000Y-125011662D01*
X163957000Y-115570000D01*
X224545907Y-115570000D01*
X224658946Y-116138285D01*
X224980853Y-116620054D01*
X225310026Y-116840000D01*
X224980853Y-117059946D01*
X224658946Y-117541715D01*
X224545907Y-118110000D01*
X224658946Y-118678285D01*
X224980853Y-119160054D01*
X225462622Y-119481961D01*
X226030907Y-119595000D01*
X226089093Y-119595000D01*
X226657378Y-119481961D01*
X227139147Y-119160054D01*
X227328345Y-118876899D01*
X227328355Y-118876924D01*
X227718642Y-119305183D01*
X228243108Y-119551486D01*
X228473000Y-119430819D01*
X228473000Y-118237000D01*
X228727000Y-118237000D01*
X228727000Y-119430819D01*
X228956892Y-119551486D01*
X229481358Y-119305183D01*
X229871645Y-118876924D01*
X230041476Y-118466890D01*
X229920155Y-118237000D01*
X228727000Y-118237000D01*
X228473000Y-118237000D01*
X228453000Y-118237000D01*
X228453000Y-117983000D01*
X228473000Y-117983000D01*
X228473000Y-117963000D01*
X228727000Y-117963000D01*
X228727000Y-117983000D01*
X229920155Y-117983000D01*
X230041476Y-117753110D01*
X229871645Y-117343076D01*
X229481358Y-116914817D01*
X229338447Y-116847702D01*
X229679147Y-116620054D01*
X229872954Y-116330000D01*
X231140000Y-116330000D01*
X231430839Y-116272148D01*
X231677401Y-116107401D01*
X232947401Y-114837401D01*
X233112148Y-114590840D01*
X233170000Y-114300000D01*
X233170000Y-109782463D01*
X233202192Y-109750327D01*
X233344838Y-109406799D01*
X233345162Y-109034833D01*
X233203117Y-108691057D01*
X232940327Y-108427808D01*
X232596799Y-108285162D01*
X232224833Y-108284838D01*
X231881057Y-108426883D01*
X231617808Y-108689673D01*
X231475162Y-109033201D01*
X231474838Y-109405167D01*
X231616883Y-109748943D01*
X231650000Y-109782118D01*
X231650000Y-113985198D01*
X230825198Y-114810000D01*
X229872954Y-114810000D01*
X229679147Y-114519946D01*
X229349974Y-114300000D01*
X229679147Y-114080054D01*
X230001054Y-113598285D01*
X230114093Y-113030000D01*
X230001054Y-112461715D01*
X229679147Y-111979946D01*
X229197378Y-111658039D01*
X228629093Y-111545000D01*
X228570907Y-111545000D01*
X228002622Y-111658039D01*
X227520853Y-111979946D01*
X227520029Y-111981179D01*
X227513162Y-111944683D01*
X227374090Y-111728559D01*
X227161890Y-111583569D01*
X226910000Y-111532560D01*
X225210000Y-111532560D01*
X224974683Y-111576838D01*
X224758559Y-111715910D01*
X224613569Y-111928110D01*
X224562560Y-112180000D01*
X224562560Y-113880000D01*
X224606838Y-114115317D01*
X224745910Y-114331441D01*
X224958110Y-114476431D01*
X225025541Y-114490086D01*
X224980853Y-114519946D01*
X224658946Y-115001715D01*
X224545907Y-115570000D01*
X163957000Y-115570000D01*
X163957000Y-109771662D01*
X166517759Y-109771662D01*
X166729991Y-110285304D01*
X167122631Y-110678630D01*
X167635901Y-110891758D01*
X168191662Y-110892243D01*
X168705304Y-110680011D01*
X169098630Y-110287371D01*
X169184950Y-110079489D01*
X169269991Y-110285304D01*
X169662631Y-110678630D01*
X170175901Y-110891758D01*
X170731662Y-110892243D01*
X171245304Y-110680011D01*
X171638630Y-110287371D01*
X171724950Y-110079489D01*
X171809991Y-110285304D01*
X172202631Y-110678630D01*
X172715901Y-110891758D01*
X173271662Y-110892243D01*
X173785304Y-110680011D01*
X174178630Y-110287371D01*
X174264950Y-110079489D01*
X174349991Y-110285304D01*
X174742631Y-110678630D01*
X175255901Y-110891758D01*
X175811662Y-110892243D01*
X176325304Y-110680011D01*
X176718630Y-110287371D01*
X176804950Y-110079489D01*
X176889991Y-110285304D01*
X177282631Y-110678630D01*
X177795901Y-110891758D01*
X178351662Y-110892243D01*
X178865304Y-110680011D01*
X179258630Y-110287371D01*
X179344950Y-110079489D01*
X179429991Y-110285304D01*
X179822631Y-110678630D01*
X180335901Y-110891758D01*
X180891662Y-110892243D01*
X181405304Y-110680011D01*
X181798630Y-110287371D01*
X181884950Y-110079489D01*
X181969991Y-110285304D01*
X182362631Y-110678630D01*
X182875901Y-110891758D01*
X183431662Y-110892243D01*
X183945304Y-110680011D01*
X184338630Y-110287371D01*
X184424950Y-110079489D01*
X184509991Y-110285304D01*
X184902631Y-110678630D01*
X185415901Y-110891758D01*
X185971662Y-110892243D01*
X186485304Y-110680011D01*
X186878630Y-110287371D01*
X186964950Y-110079489D01*
X187049991Y-110285304D01*
X187442631Y-110678630D01*
X187955901Y-110891758D01*
X188511662Y-110892243D01*
X189025304Y-110680011D01*
X189418630Y-110287371D01*
X189504950Y-110079489D01*
X189589991Y-110285304D01*
X189982631Y-110678630D01*
X190495901Y-110891758D01*
X191051662Y-110892243D01*
X191565304Y-110680011D01*
X191958630Y-110287371D01*
X192044950Y-110079489D01*
X192129991Y-110285304D01*
X192522631Y-110678630D01*
X193035901Y-110891758D01*
X193591662Y-110892243D01*
X194105304Y-110680011D01*
X194498630Y-110287371D01*
X194584950Y-110079489D01*
X194669991Y-110285304D01*
X195062631Y-110678630D01*
X195575901Y-110891758D01*
X196131662Y-110892243D01*
X196645304Y-110680011D01*
X197038630Y-110287371D01*
X197124950Y-110079489D01*
X197209991Y-110285304D01*
X197602631Y-110678630D01*
X198115901Y-110891758D01*
X198671662Y-110892243D01*
X199185304Y-110680011D01*
X199578630Y-110287371D01*
X199664950Y-110079489D01*
X199749991Y-110285304D01*
X200142631Y-110678630D01*
X200655901Y-110891758D01*
X201211662Y-110892243D01*
X201725304Y-110680011D01*
X202118630Y-110287371D01*
X202204950Y-110079489D01*
X202289991Y-110285304D01*
X202682631Y-110678630D01*
X203195901Y-110891758D01*
X203751662Y-110892243D01*
X204265304Y-110680011D01*
X204658630Y-110287371D01*
X204744950Y-110079489D01*
X204829991Y-110285304D01*
X205222631Y-110678630D01*
X205735901Y-110891758D01*
X206291662Y-110892243D01*
X206805304Y-110680011D01*
X207198630Y-110287371D01*
X207284950Y-110079489D01*
X207369991Y-110285304D01*
X207762631Y-110678630D01*
X208275901Y-110891758D01*
X208831662Y-110892243D01*
X209345304Y-110680011D01*
X209738630Y-110287371D01*
X209824950Y-110079489D01*
X209909991Y-110285304D01*
X210302631Y-110678630D01*
X210815901Y-110891758D01*
X211371662Y-110892243D01*
X211885304Y-110680011D01*
X212278630Y-110287371D01*
X212364950Y-110079489D01*
X212449991Y-110285304D01*
X212842631Y-110678630D01*
X213355901Y-110891758D01*
X213911662Y-110892243D01*
X214425304Y-110680011D01*
X214818630Y-110287371D01*
X214904950Y-110079489D01*
X214989991Y-110285304D01*
X215382631Y-110678630D01*
X215895901Y-110891758D01*
X216451662Y-110892243D01*
X216965304Y-110680011D01*
X217358630Y-110287371D01*
X217571758Y-109774101D01*
X217572243Y-109218340D01*
X217360011Y-108704698D01*
X216967371Y-108311372D01*
X216454101Y-108098244D01*
X215898340Y-108097759D01*
X215384698Y-108309991D01*
X214991372Y-108702631D01*
X214905052Y-108910513D01*
X214820011Y-108704698D01*
X214427371Y-108311372D01*
X213914101Y-108098244D01*
X213358340Y-108097759D01*
X212844698Y-108309991D01*
X212451372Y-108702631D01*
X212365052Y-108910513D01*
X212280011Y-108704698D01*
X211887371Y-108311372D01*
X211374101Y-108098244D01*
X210818340Y-108097759D01*
X210304698Y-108309991D01*
X209911372Y-108702631D01*
X209825052Y-108910513D01*
X209740011Y-108704698D01*
X209347371Y-108311372D01*
X208834101Y-108098244D01*
X208278340Y-108097759D01*
X207764698Y-108309991D01*
X207371372Y-108702631D01*
X207285052Y-108910513D01*
X207200011Y-108704698D01*
X206807371Y-108311372D01*
X206294101Y-108098244D01*
X205738340Y-108097759D01*
X205224698Y-108309991D01*
X204831372Y-108702631D01*
X204745052Y-108910513D01*
X204660011Y-108704698D01*
X204267371Y-108311372D01*
X203754101Y-108098244D01*
X203198340Y-108097759D01*
X202684698Y-108309991D01*
X202291372Y-108702631D01*
X202205052Y-108910513D01*
X202120011Y-108704698D01*
X201727371Y-108311372D01*
X201214101Y-108098244D01*
X200658340Y-108097759D01*
X200144698Y-108309991D01*
X199751372Y-108702631D01*
X199665052Y-108910513D01*
X199580011Y-108704698D01*
X199187371Y-108311372D01*
X198674101Y-108098244D01*
X198118340Y-108097759D01*
X197604698Y-108309991D01*
X197211372Y-108702631D01*
X197125052Y-108910513D01*
X197040011Y-108704698D01*
X196647371Y-108311372D01*
X196134101Y-108098244D01*
X195578340Y-108097759D01*
X195064698Y-108309991D01*
X194671372Y-108702631D01*
X194585052Y-108910513D01*
X194500011Y-108704698D01*
X194107371Y-108311372D01*
X193594101Y-108098244D01*
X193038340Y-108097759D01*
X192524698Y-108309991D01*
X192131372Y-108702631D01*
X192045052Y-108910513D01*
X191960011Y-108704698D01*
X191567371Y-108311372D01*
X191054101Y-108098244D01*
X190498340Y-108097759D01*
X189984698Y-108309991D01*
X189591372Y-108702631D01*
X189505052Y-108910513D01*
X189420011Y-108704698D01*
X189027371Y-108311372D01*
X188514101Y-108098244D01*
X187958340Y-108097759D01*
X187444698Y-108309991D01*
X187051372Y-108702631D01*
X186965052Y-108910513D01*
X186880011Y-108704698D01*
X186487371Y-108311372D01*
X185974101Y-108098244D01*
X185418340Y-108097759D01*
X184904698Y-108309991D01*
X184511372Y-108702631D01*
X184425052Y-108910513D01*
X184340011Y-108704698D01*
X183947371Y-108311372D01*
X183434101Y-108098244D01*
X182878340Y-108097759D01*
X182364698Y-108309991D01*
X181971372Y-108702631D01*
X181885052Y-108910513D01*
X181800011Y-108704698D01*
X181407371Y-108311372D01*
X180894101Y-108098244D01*
X180338340Y-108097759D01*
X179824698Y-108309991D01*
X179431372Y-108702631D01*
X179345052Y-108910513D01*
X179260011Y-108704698D01*
X178867371Y-108311372D01*
X178354101Y-108098244D01*
X177798340Y-108097759D01*
X177284698Y-108309991D01*
X176891372Y-108702631D01*
X176805052Y-108910513D01*
X176720011Y-108704698D01*
X176327371Y-108311372D01*
X175814101Y-108098244D01*
X175258340Y-108097759D01*
X174744698Y-108309991D01*
X174351372Y-108702631D01*
X174265052Y-108910513D01*
X174180011Y-108704698D01*
X173787371Y-108311372D01*
X173274101Y-108098244D01*
X172718340Y-108097759D01*
X172204698Y-108309991D01*
X171811372Y-108702631D01*
X171725052Y-108910513D01*
X171640011Y-108704698D01*
X171247371Y-108311372D01*
X170734101Y-108098244D01*
X170178340Y-108097759D01*
X169664698Y-108309991D01*
X169271372Y-108702631D01*
X169185052Y-108910513D01*
X169100011Y-108704698D01*
X168707371Y-108311372D01*
X168194101Y-108098244D01*
X167638340Y-108097759D01*
X167124698Y-108309991D01*
X166731372Y-108702631D01*
X166518244Y-109215901D01*
X166517759Y-109771662D01*
X163957000Y-109771662D01*
X163957000Y-102997000D01*
X234823000Y-102997000D01*
X234823000Y-129413000D01*
X234823000Y-129413000D01*
G37*
X234823000Y-129413000D02*
X163957000Y-129413000D01*
X163957000Y-125011662D01*
X166517759Y-125011662D01*
X166729991Y-125525304D01*
X167122631Y-125918630D01*
X167635901Y-126131758D01*
X168191662Y-126132243D01*
X168705304Y-125920011D01*
X169098630Y-125527371D01*
X169184950Y-125319489D01*
X169269991Y-125525304D01*
X169662631Y-125918630D01*
X170175901Y-126131758D01*
X170731662Y-126132243D01*
X171245304Y-125920011D01*
X171638630Y-125527371D01*
X171724950Y-125319489D01*
X171809991Y-125525304D01*
X172202631Y-125918630D01*
X172715901Y-126131758D01*
X173271662Y-126132243D01*
X173785304Y-125920011D01*
X174178630Y-125527371D01*
X174264950Y-125319489D01*
X174349991Y-125525304D01*
X174742631Y-125918630D01*
X175255901Y-126131758D01*
X175811662Y-126132243D01*
X176325304Y-125920011D01*
X176718630Y-125527371D01*
X176804950Y-125319489D01*
X176889991Y-125525304D01*
X177282631Y-125918630D01*
X177795901Y-126131758D01*
X178351662Y-126132243D01*
X178865304Y-125920011D01*
X179258630Y-125527371D01*
X179344950Y-125319489D01*
X179429991Y-125525304D01*
X179822631Y-125918630D01*
X180335901Y-126131758D01*
X180891662Y-126132243D01*
X181405304Y-125920011D01*
X181798630Y-125527371D01*
X181884950Y-125319489D01*
X181969991Y-125525304D01*
X182362631Y-125918630D01*
X182875901Y-126131758D01*
X183431662Y-126132243D01*
X183945304Y-125920011D01*
X184338630Y-125527371D01*
X184424950Y-125319489D01*
X184509991Y-125525304D01*
X184902631Y-125918630D01*
X185415901Y-126131758D01*
X185971662Y-126132243D01*
X186485304Y-125920011D01*
X186878630Y-125527371D01*
X186964950Y-125319489D01*
X187049991Y-125525304D01*
X187442631Y-125918630D01*
X187955901Y-126131758D01*
X188511662Y-126132243D01*
X189025304Y-125920011D01*
X189418630Y-125527371D01*
X189504950Y-125319489D01*
X189589991Y-125525304D01*
X189982631Y-125918630D01*
X190495901Y-126131758D01*
X191051662Y-126132243D01*
X191565304Y-125920011D01*
X191958630Y-125527371D01*
X192044950Y-125319489D01*
X192129991Y-125525304D01*
X192522631Y-125918630D01*
X193035901Y-126131758D01*
X193591662Y-126132243D01*
X194105304Y-125920011D01*
X194498630Y-125527371D01*
X194584950Y-125319489D01*
X194669991Y-125525304D01*
X195062631Y-125918630D01*
X195575901Y-126131758D01*
X196131662Y-126132243D01*
X196645304Y-125920011D01*
X197038630Y-125527371D01*
X197124950Y-125319489D01*
X197209991Y-125525304D01*
X197602631Y-125918630D01*
X198115901Y-126131758D01*
X198671662Y-126132243D01*
X199185304Y-125920011D01*
X199578630Y-125527371D01*
X199664950Y-125319489D01*
X199749991Y-125525304D01*
X200142631Y-125918630D01*
X200655901Y-126131758D01*
X201211662Y-126132243D01*
X201725304Y-125920011D01*
X202118630Y-125527371D01*
X202204950Y-125319489D01*
X202289991Y-125525304D01*
X202682631Y-125918630D01*
X203195901Y-126131758D01*
X203751662Y-126132243D01*
X204265304Y-125920011D01*
X204658630Y-125527371D01*
X204744950Y-125319489D01*
X204829991Y-125525304D01*
X205222631Y-125918630D01*
X205735901Y-126131758D01*
X206291662Y-126132243D01*
X206805304Y-125920011D01*
X207198630Y-125527371D01*
X207284950Y-125319489D01*
X207369991Y-125525304D01*
X207762631Y-125918630D01*
X208275901Y-126131758D01*
X208831662Y-126132243D01*
X209345304Y-125920011D01*
X209738630Y-125527371D01*
X209824950Y-125319489D01*
X209909991Y-125525304D01*
X210302631Y-125918630D01*
X210815901Y-126131758D01*
X211371662Y-126132243D01*
X211885304Y-125920011D01*
X212090458Y-125715214D01*
X212834393Y-125715214D01*
X212903858Y-125957398D01*
X213427303Y-126144145D01*
X213982369Y-126116363D01*
X214366144Y-125957398D01*
X214435609Y-125715214D01*
X213635001Y-124914606D01*
X212834393Y-125715214D01*
X212090458Y-125715214D01*
X212278630Y-125527371D01*
X212358396Y-125335274D01*
X212412604Y-125466144D01*
X212654788Y-125535609D01*
X213455396Y-124735001D01*
X213814606Y-124735001D01*
X214615214Y-125535609D01*
X214857398Y-125466144D01*
X214907510Y-125325683D01*
X214989991Y-125525304D01*
X215382631Y-125918630D01*
X215895901Y-126131758D01*
X216451662Y-126132243D01*
X216965304Y-125920011D01*
X217358630Y-125527371D01*
X217571758Y-125014101D01*
X217572243Y-124458340D01*
X217360011Y-123944698D01*
X216967371Y-123551372D01*
X216454101Y-123338244D01*
X215898340Y-123337759D01*
X215384698Y-123549991D01*
X214991372Y-123942631D01*
X214911606Y-124134728D01*
X214857398Y-124003858D01*
X214615214Y-123934393D01*
X213814606Y-124735001D01*
X213455396Y-124735001D01*
X212654788Y-123934393D01*
X212412604Y-124003858D01*
X212362492Y-124144319D01*
X212280011Y-123944698D01*
X212090433Y-123754788D01*
X212834393Y-123754788D01*
X213635001Y-124555396D01*
X214435609Y-123754788D01*
X214366144Y-123512604D01*
X213842699Y-123325857D01*
X213287633Y-123353639D01*
X212903858Y-123512604D01*
X212834393Y-123754788D01*
X212090433Y-123754788D01*
X211887371Y-123551372D01*
X211374101Y-123338244D01*
X210818340Y-123337759D01*
X210304698Y-123549991D01*
X209911372Y-123942631D01*
X209825052Y-124150513D01*
X209740011Y-123944698D01*
X209347371Y-123551372D01*
X208834101Y-123338244D01*
X208278340Y-123337759D01*
X207764698Y-123549991D01*
X207371372Y-123942631D01*
X207285052Y-124150513D01*
X207200011Y-123944698D01*
X206807371Y-123551372D01*
X206294101Y-123338244D01*
X205738340Y-123337759D01*
X205224698Y-123549991D01*
X204831372Y-123942631D01*
X204745052Y-124150513D01*
X204660011Y-123944698D01*
X204267371Y-123551372D01*
X203754101Y-123338244D01*
X203198340Y-123337759D01*
X202684698Y-123549991D01*
X202291372Y-123942631D01*
X202205052Y-124150513D01*
X202120011Y-123944698D01*
X201727371Y-123551372D01*
X201214101Y-123338244D01*
X200658340Y-123337759D01*
X200144698Y-123549991D01*
X199751372Y-123942631D01*
X199665052Y-124150513D01*
X199580011Y-123944698D01*
X199187371Y-123551372D01*
X198674101Y-123338244D01*
X198118340Y-123337759D01*
X197604698Y-123549991D01*
X197211372Y-123942631D01*
X197125052Y-124150513D01*
X197040011Y-123944698D01*
X196647371Y-123551372D01*
X196134101Y-123338244D01*
X195578340Y-123337759D01*
X195064698Y-123549991D01*
X194671372Y-123942631D01*
X194585052Y-124150513D01*
X194500011Y-123944698D01*
X194107371Y-123551372D01*
X193594101Y-123338244D01*
X193038340Y-123337759D01*
X192524698Y-123549991D01*
X192131372Y-123942631D01*
X192045052Y-124150513D01*
X191960011Y-123944698D01*
X191567371Y-123551372D01*
X191054101Y-123338244D01*
X190498340Y-123337759D01*
X189984698Y-123549991D01*
X189591372Y-123942631D01*
X189505052Y-124150513D01*
X189420011Y-123944698D01*
X189027371Y-123551372D01*
X188514101Y-123338244D01*
X187958340Y-123337759D01*
X187444698Y-123549991D01*
X187051372Y-123942631D01*
X186965052Y-124150513D01*
X186880011Y-123944698D01*
X186487371Y-123551372D01*
X185974101Y-123338244D01*
X185418340Y-123337759D01*
X184904698Y-123549991D01*
X184511372Y-123942631D01*
X184425052Y-124150513D01*
X184340011Y-123944698D01*
X183947371Y-123551372D01*
X183434101Y-123338244D01*
X182878340Y-123337759D01*
X182364698Y-123549991D01*
X181971372Y-123942631D01*
X181885052Y-124150513D01*
X181800011Y-123944698D01*
X181407371Y-123551372D01*
X180894101Y-123338244D01*
X180338340Y-123337759D01*
X179824698Y-123549991D01*
X179431372Y-123942631D01*
X179345052Y-124150513D01*
X179260011Y-123944698D01*
X178867371Y-123551372D01*
X178354101Y-123338244D01*
X177798340Y-123337759D01*
X177284698Y-123549991D01*
X176891372Y-123942631D01*
X176805052Y-124150513D01*
X176720011Y-123944698D01*
X176327371Y-123551372D01*
X175814101Y-123338244D01*
X175258340Y-123337759D01*
X174744698Y-123549991D01*
X174351372Y-123942631D01*
X174265052Y-124150513D01*
X174180011Y-123944698D01*
X173787371Y-123551372D01*
X173274101Y-123338244D01*
X172718340Y-123337759D01*
X172204698Y-123549991D01*
X171811372Y-123942631D01*
X171725052Y-124150513D01*
X171640011Y-123944698D01*
X171247371Y-123551372D01*
X170734101Y-123338244D01*
X170178340Y-123337759D01*
X169664698Y-123549991D01*
X169271372Y-123942631D01*
X169185052Y-124150513D01*
X169100011Y-123944698D01*
X168707371Y-123551372D01*
X168194101Y-123338244D01*
X167638340Y-123337759D01*
X167124698Y-123549991D01*
X166731372Y-123942631D01*
X166518244Y-124455901D01*
X166517759Y-125011662D01*
X163957000Y-125011662D01*
X163957000Y-115570000D01*
X224545907Y-115570000D01*
X224658946Y-116138285D01*
X224980853Y-116620054D01*
X225310026Y-116840000D01*
X224980853Y-117059946D01*
X224658946Y-117541715D01*
X224545907Y-118110000D01*
X224658946Y-118678285D01*
X224980853Y-119160054D01*
X225462622Y-119481961D01*
X226030907Y-119595000D01*
X226089093Y-119595000D01*
X226657378Y-119481961D01*
X227139147Y-119160054D01*
X227328345Y-118876899D01*
X227328355Y-118876924D01*
X227718642Y-119305183D01*
X228243108Y-119551486D01*
X228473000Y-119430819D01*
X228473000Y-118237000D01*
X228727000Y-118237000D01*
X228727000Y-119430819D01*
X228956892Y-119551486D01*
X229481358Y-119305183D01*
X229871645Y-118876924D01*
X230041476Y-118466890D01*
X229920155Y-118237000D01*
X228727000Y-118237000D01*
X228473000Y-118237000D01*
X228453000Y-118237000D01*
X228453000Y-117983000D01*
X228473000Y-117983000D01*
X228473000Y-117963000D01*
X228727000Y-117963000D01*
X228727000Y-117983000D01*
X229920155Y-117983000D01*
X230041476Y-117753110D01*
X229871645Y-117343076D01*
X229481358Y-116914817D01*
X229338447Y-116847702D01*
X229679147Y-116620054D01*
X229872954Y-116330000D01*
X231140000Y-116330000D01*
X231430839Y-116272148D01*
X231677401Y-116107401D01*
X232947401Y-114837401D01*
X233112148Y-114590840D01*
X233170000Y-114300000D01*
X233170000Y-109782463D01*
X233202192Y-109750327D01*
X233344838Y-109406799D01*
X233345162Y-109034833D01*
X233203117Y-108691057D01*
X232940327Y-108427808D01*
X232596799Y-108285162D01*
X232224833Y-108284838D01*
X231881057Y-108426883D01*
X231617808Y-108689673D01*
X231475162Y-109033201D01*
X231474838Y-109405167D01*
X231616883Y-109748943D01*
X231650000Y-109782118D01*
X231650000Y-113985198D01*
X230825198Y-114810000D01*
X229872954Y-114810000D01*
X229679147Y-114519946D01*
X229349974Y-114300000D01*
X229679147Y-114080054D01*
X230001054Y-113598285D01*
X230114093Y-113030000D01*
X230001054Y-112461715D01*
X229679147Y-111979946D01*
X229197378Y-111658039D01*
X228629093Y-111545000D01*
X228570907Y-111545000D01*
X228002622Y-111658039D01*
X227520853Y-111979946D01*
X227520029Y-111981179D01*
X227513162Y-111944683D01*
X227374090Y-111728559D01*
X227161890Y-111583569D01*
X226910000Y-111532560D01*
X225210000Y-111532560D01*
X224974683Y-111576838D01*
X224758559Y-111715910D01*
X224613569Y-111928110D01*
X224562560Y-112180000D01*
X224562560Y-113880000D01*
X224606838Y-114115317D01*
X224745910Y-114331441D01*
X224958110Y-114476431D01*
X225025541Y-114490086D01*
X224980853Y-114519946D01*
X224658946Y-115001715D01*
X224545907Y-115570000D01*
X163957000Y-115570000D01*
X163957000Y-109771662D01*
X166517759Y-109771662D01*
X166729991Y-110285304D01*
X167122631Y-110678630D01*
X167635901Y-110891758D01*
X168191662Y-110892243D01*
X168705304Y-110680011D01*
X169098630Y-110287371D01*
X169184950Y-110079489D01*
X169269991Y-110285304D01*
X169662631Y-110678630D01*
X170175901Y-110891758D01*
X170731662Y-110892243D01*
X171245304Y-110680011D01*
X171638630Y-110287371D01*
X171724950Y-110079489D01*
X171809991Y-110285304D01*
X172202631Y-110678630D01*
X172715901Y-110891758D01*
X173271662Y-110892243D01*
X173785304Y-110680011D01*
X174178630Y-110287371D01*
X174264950Y-110079489D01*
X174349991Y-110285304D01*
X174742631Y-110678630D01*
X175255901Y-110891758D01*
X175811662Y-110892243D01*
X176325304Y-110680011D01*
X176718630Y-110287371D01*
X176804950Y-110079489D01*
X176889991Y-110285304D01*
X177282631Y-110678630D01*
X177795901Y-110891758D01*
X178351662Y-110892243D01*
X178865304Y-110680011D01*
X179258630Y-110287371D01*
X179344950Y-110079489D01*
X179429991Y-110285304D01*
X179822631Y-110678630D01*
X180335901Y-110891758D01*
X180891662Y-110892243D01*
X181405304Y-110680011D01*
X181798630Y-110287371D01*
X181884950Y-110079489D01*
X181969991Y-110285304D01*
X182362631Y-110678630D01*
X182875901Y-110891758D01*
X183431662Y-110892243D01*
X183945304Y-110680011D01*
X184338630Y-110287371D01*
X184424950Y-110079489D01*
X184509991Y-110285304D01*
X184902631Y-110678630D01*
X185415901Y-110891758D01*
X185971662Y-110892243D01*
X186485304Y-110680011D01*
X186878630Y-110287371D01*
X186964950Y-110079489D01*
X187049991Y-110285304D01*
X187442631Y-110678630D01*
X187955901Y-110891758D01*
X188511662Y-110892243D01*
X189025304Y-110680011D01*
X189418630Y-110287371D01*
X189504950Y-110079489D01*
X189589991Y-110285304D01*
X189982631Y-110678630D01*
X190495901Y-110891758D01*
X191051662Y-110892243D01*
X191565304Y-110680011D01*
X191958630Y-110287371D01*
X192044950Y-110079489D01*
X192129991Y-110285304D01*
X192522631Y-110678630D01*
X193035901Y-110891758D01*
X193591662Y-110892243D01*
X194105304Y-110680011D01*
X194498630Y-110287371D01*
X194584950Y-110079489D01*
X194669991Y-110285304D01*
X195062631Y-110678630D01*
X195575901Y-110891758D01*
X196131662Y-110892243D01*
X196645304Y-110680011D01*
X197038630Y-110287371D01*
X197124950Y-110079489D01*
X197209991Y-110285304D01*
X197602631Y-110678630D01*
X198115901Y-110891758D01*
X198671662Y-110892243D01*
X199185304Y-110680011D01*
X199578630Y-110287371D01*
X199664950Y-110079489D01*
X199749991Y-110285304D01*
X200142631Y-110678630D01*
X200655901Y-110891758D01*
X201211662Y-110892243D01*
X201725304Y-110680011D01*
X202118630Y-110287371D01*
X202204950Y-110079489D01*
X202289991Y-110285304D01*
X202682631Y-110678630D01*
X203195901Y-110891758D01*
X203751662Y-110892243D01*
X204265304Y-110680011D01*
X204658630Y-110287371D01*
X204744950Y-110079489D01*
X204829991Y-110285304D01*
X205222631Y-110678630D01*
X205735901Y-110891758D01*
X206291662Y-110892243D01*
X206805304Y-110680011D01*
X207198630Y-110287371D01*
X207284950Y-110079489D01*
X207369991Y-110285304D01*
X207762631Y-110678630D01*
X208275901Y-110891758D01*
X208831662Y-110892243D01*
X209345304Y-110680011D01*
X209738630Y-110287371D01*
X209824950Y-110079489D01*
X209909991Y-110285304D01*
X210302631Y-110678630D01*
X210815901Y-110891758D01*
X211371662Y-110892243D01*
X211885304Y-110680011D01*
X212278630Y-110287371D01*
X212364950Y-110079489D01*
X212449991Y-110285304D01*
X212842631Y-110678630D01*
X213355901Y-110891758D01*
X213911662Y-110892243D01*
X214425304Y-110680011D01*
X214818630Y-110287371D01*
X214904950Y-110079489D01*
X214989991Y-110285304D01*
X215382631Y-110678630D01*
X215895901Y-110891758D01*
X216451662Y-110892243D01*
X216965304Y-110680011D01*
X217358630Y-110287371D01*
X217571758Y-109774101D01*
X217572243Y-109218340D01*
X217360011Y-108704698D01*
X216967371Y-108311372D01*
X216454101Y-108098244D01*
X215898340Y-108097759D01*
X215384698Y-108309991D01*
X214991372Y-108702631D01*
X214905052Y-108910513D01*
X214820011Y-108704698D01*
X214427371Y-108311372D01*
X213914101Y-108098244D01*
X213358340Y-108097759D01*
X212844698Y-108309991D01*
X212451372Y-108702631D01*
X212365052Y-108910513D01*
X212280011Y-108704698D01*
X211887371Y-108311372D01*
X211374101Y-108098244D01*
X210818340Y-108097759D01*
X210304698Y-108309991D01*
X209911372Y-108702631D01*
X209825052Y-108910513D01*
X209740011Y-108704698D01*
X209347371Y-108311372D01*
X208834101Y-108098244D01*
X208278340Y-108097759D01*
X207764698Y-108309991D01*
X207371372Y-108702631D01*
X207285052Y-108910513D01*
X207200011Y-108704698D01*
X206807371Y-108311372D01*
X206294101Y-108098244D01*
X205738340Y-108097759D01*
X205224698Y-108309991D01*
X204831372Y-108702631D01*
X204745052Y-108910513D01*
X204660011Y-108704698D01*
X204267371Y-108311372D01*
X203754101Y-108098244D01*
X203198340Y-108097759D01*
X202684698Y-108309991D01*
X202291372Y-108702631D01*
X202205052Y-108910513D01*
X202120011Y-108704698D01*
X201727371Y-108311372D01*
X201214101Y-108098244D01*
X200658340Y-108097759D01*
X200144698Y-108309991D01*
X199751372Y-108702631D01*
X199665052Y-108910513D01*
X199580011Y-108704698D01*
X199187371Y-108311372D01*
X198674101Y-108098244D01*
X198118340Y-108097759D01*
X197604698Y-108309991D01*
X197211372Y-108702631D01*
X197125052Y-108910513D01*
X197040011Y-108704698D01*
X196647371Y-108311372D01*
X196134101Y-108098244D01*
X195578340Y-108097759D01*
X195064698Y-108309991D01*
X194671372Y-108702631D01*
X194585052Y-108910513D01*
X194500011Y-108704698D01*
X194107371Y-108311372D01*
X193594101Y-108098244D01*
X193038340Y-108097759D01*
X192524698Y-108309991D01*
X192131372Y-108702631D01*
X192045052Y-108910513D01*
X191960011Y-108704698D01*
X191567371Y-108311372D01*
X191054101Y-108098244D01*
X190498340Y-108097759D01*
X189984698Y-108309991D01*
X189591372Y-108702631D01*
X189505052Y-108910513D01*
X189420011Y-108704698D01*
X189027371Y-108311372D01*
X188514101Y-108098244D01*
X187958340Y-108097759D01*
X187444698Y-108309991D01*
X187051372Y-108702631D01*
X186965052Y-108910513D01*
X186880011Y-108704698D01*
X186487371Y-108311372D01*
X185974101Y-108098244D01*
X185418340Y-108097759D01*
X184904698Y-108309991D01*
X184511372Y-108702631D01*
X184425052Y-108910513D01*
X184340011Y-108704698D01*
X183947371Y-108311372D01*
X183434101Y-108098244D01*
X182878340Y-108097759D01*
X182364698Y-108309991D01*
X181971372Y-108702631D01*
X181885052Y-108910513D01*
X181800011Y-108704698D01*
X181407371Y-108311372D01*
X180894101Y-108098244D01*
X180338340Y-108097759D01*
X179824698Y-108309991D01*
X179431372Y-108702631D01*
X179345052Y-108910513D01*
X179260011Y-108704698D01*
X178867371Y-108311372D01*
X178354101Y-108098244D01*
X177798340Y-108097759D01*
X177284698Y-108309991D01*
X176891372Y-108702631D01*
X176805052Y-108910513D01*
X176720011Y-108704698D01*
X176327371Y-108311372D01*
X175814101Y-108098244D01*
X175258340Y-108097759D01*
X174744698Y-108309991D01*
X174351372Y-108702631D01*
X174265052Y-108910513D01*
X174180011Y-108704698D01*
X173787371Y-108311372D01*
X173274101Y-108098244D01*
X172718340Y-108097759D01*
X172204698Y-108309991D01*
X171811372Y-108702631D01*
X171725052Y-108910513D01*
X171640011Y-108704698D01*
X171247371Y-108311372D01*
X170734101Y-108098244D01*
X170178340Y-108097759D01*
X169664698Y-108309991D01*
X169271372Y-108702631D01*
X169185052Y-108910513D01*
X169100011Y-108704698D01*
X168707371Y-108311372D01*
X168194101Y-108098244D01*
X167638340Y-108097759D01*
X167124698Y-108309991D01*
X166731372Y-108702631D01*
X166518244Y-109215901D01*
X166517759Y-109771662D01*
X163957000Y-109771662D01*
X163957000Y-102997000D01*
X234823000Y-102997000D01*
X234823000Y-129413000D01*
M02*
