M48
;DRILL file {KiCad 4.0.6} date Sun Apr 16 17:52:03 2017
;FORMAT={-:-/ absolute / inch / decimal}
FMAT,2
INCH,TZ
T1C0.039
T2C0.040
%
G90
G05
M72
T1
X8.7Y-4.4
X8.7Y-4.5
X8.7Y-4.6
X8.7Y-4.7
X8.7Y-4.8
X8.7Y-4.9
T2
X6.2608Y-4.3608
X6.2608Y-4.9608
X6.3608Y-4.3608
X6.3608Y-4.9608
X6.4608Y-4.3608
X6.4608Y-4.9608
X6.5608Y-4.3608
X6.5608Y-4.9608
X6.6608Y-4.3608
X6.6608Y-4.9608
X6.7608Y-4.3608
X6.7608Y-4.9608
X6.8608Y-4.3608
X6.8608Y-4.9608
X6.9608Y-4.3608
X6.9608Y-4.9608
X7.0608Y-4.3608
X7.0608Y-4.9608
X7.1608Y-4.3608
X7.1608Y-4.9608
X7.2608Y-4.3608
X7.2608Y-4.9608
X7.3608Y-4.3608
X7.3608Y-4.9608
X7.4608Y-4.3608
X7.4608Y-4.9608
X7.5608Y-4.3608
X7.5608Y-4.9608
X7.6608Y-4.3608
X7.6608Y-4.9608
X7.7608Y-4.3608
X7.7608Y-4.9608
X7.8608Y-4.3608
X7.8608Y-4.9608
X7.9608Y-4.3608
X7.9608Y-4.9608
X8.0608Y-4.3608
X8.0608Y-4.9608
X8.1608Y-4.3608
X8.1608Y-4.9608
T0
M30
